<?xml version="1.0" encoding="UTF-8" standalone="no"?>
<!-- 2015-07-07 22:01:45 Generated by QCAD SVG Exporter -->

<svg
   xmlns:dc="http://purl.org/dc/elements/1.1/"
   xmlns:cc="http://creativecommons.org/ns#"
   xmlns:rdf="http://www.w3.org/1999/02/22-rdf-syntax-ns#"
   xmlns:svg="http://www.w3.org/2000/svg"
   xmlns="http://www.w3.org/2000/svg"
   xmlns:sodipodi="http://sodipodi.sourceforge.net/DTD/sodipodi-0.dtd"
   xmlns:inkscape="http://www.inkscape.org/namespaces/inkscape"
   width="56.89600000000002mm"
   height="54.999999999999986mm"
   viewBox="-13 -40.25 56.89600000000002 54.999999999999986"
   version="1.1"
   style="stroke-linecap:round;stroke-linejoin:round;fill:none"
   id="svg2"
   inkscape:version="0.91 r13725"
   sodipodi:docname="SideInk.svg">
  <metadata
     id="metadata52">
    <rdf:RDF>
      <cc:Work
         rdf:about="">
        <dc:format>image/svg+xml</dc:format>
        <dc:type
           rdf:resource="http://purl.org/dc/dcmitype/StillImage" />
        <dc:title></dc:title>
      </cc:Work>
    </rdf:RDF>
  </metadata>
  <defs
     id="defs50" />
  <sodipodi:namedview
     pagecolor="#ffffff"
     bordercolor="#666666"
     borderopacity="1"
     objecttolerance="10"
     gridtolerance="10"
     guidetolerance="10"
     inkscape:pageopacity="0"
     inkscape:pageshadow="2"
     inkscape:window-width="1680"
     inkscape:window-height="987"
     id="namedview48"
     showgrid="false"
     inkscape:document-units="mm"
     inkscape:zoom="4.1974141"
     inkscape:cx="100.8"
     inkscape:cy="97.440945"
     inkscape:window-x="1358"
     inkscape:window-y="-8"
     inkscape:window-maximized="1"
     inkscape:current-layer="g4" />
  <g
     transform="scale(1,-1)"
     id="g4">
    <!-- Polyline -->
    <path
       d="m -10,40.25 c -0.207107,0 -0.409312,-0.02099 -0.604605,-0.06095 -0.195292,-0.03996 -0.383673,-0.0989 -0.56313,-0.174806 -0.179458,-0.0759 -0.349992,-0.168774 -0.509593,-0.276598 -0.159601,-0.107824 -0.308269,-0.230603 -0.443992,-0.366327 -0.135724,-0.135723 -0.258503,-0.284391 -0.366327,-0.443992 -0.107824,-0.159601 -0.200694,-0.330135 -0.276598,-0.509593 -0.0759,-0.179457 -0.134843,-0.367838 -0.174806,-0.56313 C -12.979013,37.659312 -13,37.457107 -13,37.25 m 0,0 0,-45 m 0,0 18.3284271,0 m 0,0 0,-0.5 m 0,0 c 0,-0.1380712 -0.013991,-0.2728746 -0.040633,-0.4030698 C 5.2611524,-8.7832649 5.22186,-8.9088519 5.1712572,-9.0284903 5.1206545,-9.1481286 5.0587414,-9.2618183 4.9868585,-9.368219 4.9149756,-9.4746197 4.8331229,-9.5737314 4.7426407,-9.6642136 4.6521585,-9.7546958 4.5530468,-9.8365485 4.4466461,-9.9084314 4.3402455,-9.9803143 4.2265557,-10.042227 4.1069174,-10.09283 3.987279,-10.143433 3.8616921,-10.182725 3.7314969,-10.209367 3.6013017,-10.236009 3.4664983,-10.25 3.3284271,-10.25 m 0,0 -8.8284271,0 m 0,0 c -0.078689,0 -0.1568046,0.0046 -0.2339976,0.01372 -0.077193,0.0091 -0.1534636,0.02263 -0.2284636,0.04046 -0.075,0.01783 -0.1487293,0.03994 -0.2208398,0.06616 -0.07211,0.02622 -0.1426019,0.05655 -0.2111262,0.09081 -0.068524,0.03426 -0.1350813,0.072458 -0.1993228,0.1144153 -0.064241,0.041957 -0.1261675,0.087674 -0.1854296,0.1369775 -0.059262,0.049303 -0.1158604,0.102193 -0.1694466,0.1584946 C -7.0022124,-9.5726651 -7.0527864,-9.5129515 -7.1,-9.45 m 0,0 c -0.2162602,0.2883469 -0.4628256,0.5215239 -0.7287409,0.7031878 -0.2659153,0.181664 -0.5511805,0.3118148 -0.8448402,0.3941094 -0.2936597,0.082295 -0.5957139,0.116733 -0.8952073,0.106972 -0.2994933,-0.00976 -0.5964256,-0.063721 -0.8798416,-0.1582245 -0.283417,-0.094503 -0.553316,-0.2295488 -0.798745,-0.4014802 -0.245428,-0.1719314 -0.466385,-0.3807486 -0.651914,-0.6227948 -0.18553,-0.2420461 -0.335632,-0.5173212 -0.439353,-0.8221687 -0.10372,-0.304847 -0.161058,-0.639266 -0.161058,-0.999601 0,-0.360335 0.05734,-0.694754 0.161058,-0.999601 0.103721,-0.304847 0.253823,-0.580123 0.439353,-0.822169 0.185529,-0.242046 0.406486,-0.450863 0.651914,-0.622795 0.245429,-0.171931 0.515328,-0.306977 0.798745,-0.40148 0.283416,-0.0945 0.5803483,-0.148463 0.8798416,-0.158224 0.2994934,-0.0098 0.6015476,0.02468 0.8952073,0.106972 0.2936597,0.08229 0.5789249,0.212445 0.8448402,0.394109 0.2659153,0.181664 0.5124807,0.414841 0.7287409,0.703188 m 0,0 c 0.047214,0.06295 0.097788,0.122665 0.1513738,0.178967 0.053586,0.0563 0.1101845,0.109191 0.1694466,0.158494 0.059262,0.0493 0.1211881,0.09502 0.1854296,0.136978 0.064241,0.04196 0.1307985,0.08015 0.1993228,0.114415 0.068524,0.03426 0.1390158,0.06459 0.2111262,0.09081 0.07211,0.02622 0.1458398,0.04833 0.2208398,0.06616 0.075,0.01783 0.1512707,0.03137 0.2284636,0.04046 0.077193,0.0091 0.1553083,0.01372 0.2339976,0.01372 m 0,0 8.8284271,0 m 0,0 c 0.1380712,0 0.2728746,-0.01399 0.4030698,-0.04063 0.1301952,-0.02664 0.2557821,-0.06593 0.3754205,-0.116537 0.1196383,-0.0506 0.2333281,-0.112516 0.3397287,-0.184399 0.1064007,-0.07188 0.2055124,-0.153735 0.2959946,-0.244217 0.090482,-0.09048 0.1723349,-0.189594 0.2442178,-0.295995 0.071883,-0.106401 0.133796,-0.22009 0.1843987,-0.339729 0.050603,-0.119638 0.089895,-0.245225 0.116537,-0.37542 0.026642,-0.130195 0.040633,-0.264999 0.040633,-0.40307 m 0,0 0,-0.5 m 0,0 28.5675728,0 m 0,0 0,7 m 0,0 6.9,0 m 0,0 0,13.05 m 0,0 3.1,0 m 0,0 0,14.9 m 0,0 -3.1,0 m 0,0 0,20.05 m 0,0 -4.467573,0 m 0,0 0,-0.5 m 0,0 c 0,-0.138071 -0.01399,-0.272875 -0.04063,-0.40307 -0.02664,-0.130195 -0.06593,-0.255782 -0.116537,-0.37542 -0.0506,-0.119639 -0.112516,-0.233328 -0.184398,-0.339729 -0.07188,-0.106401 -0.153736,-0.205512 -0.244218,-0.295995 -0.09048,-0.09048 -0.189594,-0.172335 -0.295995,-0.244217 -0.106401,-0.07188 -0.22009,-0.133796 -0.339729,-0.184399 -0.119638,-0.0506 -0.245225,-0.08989 -0.37542,-0.116537 C 34.601302,37.763991 34.466498,37.75 34.328427,37.75 m 0,0 -8.828427,0 m 0,0 c -0.07869,0 -0.156805,0.0046 -0.233998,0.01372 -0.07719,0.0091 -0.153463,0.02263 -0.228463,0.04046 -0.075,0.01783 -0.14873,0.03994 -0.22084,0.06616 -0.07211,0.02622 -0.142602,0.05655 -0.211126,0.09081 -0.06852,0.03426 -0.135081,0.07246 -0.199323,0.114415 -0.06424,0.04196 -0.126167,0.08767 -0.18543,0.136978 -0.05926,0.0493 -0.11586,0.102193 -0.169446,0.158494 -0.05359,0.0563 -0.10416,0.116016 -0.151374,0.178967 m 0,0 c -0.21626,0.288347 -0.462826,0.521524 -0.728741,0.703188 -0.265915,0.181664 -0.55118,0.311815 -0.84484,0.394109 -0.29366,0.08229 -0.595714,0.116733 -0.895207,0.106972 -0.299494,-0.0098 -0.596426,-0.06372 -0.879842,-0.158224 -0.283417,-0.0945 -0.553316,-0.229549 -0.798745,-0.40148 C 19.507197,39.022633 19.28624,38.813816 19.100711,38.57177 18.915181,38.329724 18.765079,38.054448 18.661358,37.749601 18.557638,37.444754 18.5003,37.110335 18.5003,36.75 c 0,-0.360335 0.05734,-0.694754 0.161058,-0.999601 0.103721,-0.304847 0.253823,-0.580123 0.439353,-0.822169 0.185529,-0.242046 0.406486,-0.450863 0.651914,-0.622795 0.245429,-0.171931 0.515328,-0.306977 0.798745,-0.40148 0.283416,-0.0945 0.580348,-0.148463 0.879842,-0.158224 0.299493,-0.0098 0.601547,0.02468 0.895207,0.106972 0.29366,0.08229 0.578925,0.212445 0.84484,0.394109 C 23.437174,34.428476 23.68374,34.661653 23.9,34.95 m 0,0 c 0.04721,0.06295 0.09779,0.122665 0.151374,0.178967 0.05359,0.0563 0.110184,0.109191 0.169446,0.158494 0.05926,0.0493 0.121188,0.09502 0.18543,0.136978 0.06424,0.04196 0.130799,0.08015 0.199323,0.114415 0.06852,0.03426 0.139016,0.06459 0.211126,0.09081 0.07211,0.02622 0.14584,0.04833 0.22084,0.06616 0.075,0.01783 0.15127,0.03137 0.228463,0.04046 0.07719,0.0091 0.155309,0.01372 0.233998,0.01372 m 0,0 8.828427,0 m 0,0 c 0.138071,0 0.272875,-0.01399 0.40307,-0.04063 0.130195,-0.02664 0.255782,-0.06593 0.37542,-0.116537 0.119639,-0.0506 0.233328,-0.112516 0.339729,-0.184399 0.106401,-0.07188 0.205512,-0.153735 0.295995,-0.244217 0.09048,-0.09048 0.172335,-0.189594 0.244218,-0.295995 0.07188,-0.106401 0.133795,-0.22009 0.184398,-0.339729 0.0506,-0.119638 0.0899,-0.245225 0.116537,-0.37542 0.02664,-0.130195 0.04063,-0.264999 0.04063,-0.40307 m 0,0 0,-0.5 m 0,0 -16.3,0 m 0,0 c -0.138071,0 -0.272874,0.01399 -0.40307,0.04063 -0.130195,0.02664 -0.255782,0.06593 -0.37542,0.116537 -0.119638,0.0506 -0.233328,0.112516 -0.339729,0.184399 -0.106401,0.07188 -0.205512,0.153735 -0.295994,0.244217 -0.09048,0.09048 -0.172335,0.189594 -0.244218,0.295995 -0.07188,0.106401 -0.133796,0.22009 -0.184399,0.339729 -0.0506,0.119638 -0.0899,0.245225 -0.116537,0.37542 -0.02664,0.130195 -0.04063,0.264999 -0.04063,0.40307 m 0,0 0,5 m 0,0 -7.056854,0 m 0,0 0,-5 m 0,0 c 0,-0.138071 -0.01399,-0.272875 -0.04063,-0.40307 -0.02664,-0.130195 -0.06593,-0.255782 -0.116537,-0.37542 -0.0506,-0.119639 -0.112516,-0.233328 -0.184399,-0.339729 -0.07188,-0.106401 -0.153735,-0.205512 -0.244218,-0.295995 -0.09048,-0.09048 -0.189593,-0.172335 -0.295994,-0.244217 C 9.9833912,33.519686 9.8697015,33.457773 9.7500631,33.40717 9.6304248,33.356567 9.5048378,33.317275 9.3746426,33.290633 9.2444475,33.263991 9.1096441,33.25 8.9715729,33.25 m 0,0 -16.3,0 m 0,0 0,0.5 m 0,0 c 0,0.138071 0.013991,0.272875 0.040633,0.40307 0.026642,0.130195 0.065934,0.255782 0.116537,0.37542 0.050603,0.119639 0.1125158,0.233328 0.1843987,0.339729 0.071883,0.106401 0.1537356,0.205512 0.2442178,0.295995 0.090482,0.09048 0.1895939,0.172335 0.2959946,0.244217 0.1064006,0.07188 0.2200904,0.133796 0.3397287,0.184399 0.1196384,0.0506 0.2452253,0.08989 0.3754205,0.116537 0.1301952,0.02664 0.2649986,0.04063 0.4030698,0.04063 m 0,0 8.8284271,0 m 0,0 c 0.078689,0 0.1568046,-0.0046 0.2339976,-0.01372 0.077193,-0.0091 0.1534636,-0.02263 0.2284636,-0.04046 0.075,-0.01783 0.1487293,-0.03994 0.2208398,-0.06616 0.07211,-0.02622 0.1426019,-0.05655 0.2111262,-0.09081 0.068524,-0.03426 0.1350813,-0.07246 0.1993228,-0.114415 0.064241,-0.04196 0.1261675,-0.08767 0.1854296,-0.136978 0.059262,-0.0493 0.1158604,-0.102193 0.1694466,-0.158494 C 5.0022124,35.072665 5.0527864,35.012951 5.1,34.95 m 0,0 c 0.2162602,-0.288347 0.4628256,-0.521524 0.7287409,-0.703188 0.2659153,-0.181664 0.5511805,-0.311815 0.8448402,-0.394109 0.2936597,-0.08229 0.5957139,-0.116733 0.8952073,-0.106972 0.2994933,0.0098 0.5964257,0.06372 0.8798419,0.158224 0.2834162,0.0945 0.5533161,0.229549 0.7987444,0.40148 0.2454283,0.171932 0.4663849,0.380749 0.6519146,0.622795 0.1855297,0.242046 0.3356317,0.517322 0.4393527,0.822169 0.10372,0.304847 0.161058,0.639266 0.161058,0.999601 0,0.360335 -0.05734,0.694754 -0.161058,0.999601 -0.103721,0.304847 -0.253823,0.580123 -0.4393527,0.822169 -0.1855297,0.242046 -0.4064863,0.450863 -0.6519146,0.622795 -0.2454283,0.171931 -0.5153282,0.306977 -0.7987444,0.40148 -0.2834162,0.0945 -0.5803486,0.148463 -0.8798419,0.158224 C 7.269295,39.76403 6.9672408,39.729592 6.6735811,39.647297 6.3799214,39.565003 6.0946562,39.434852 5.8287409,39.253188 5.5628256,39.071524 5.3162602,38.838347 5.1,38.55 m 0,0 C 5.0527864,38.487049 5.0022124,38.427335 4.9486262,38.371033 4.89504,38.314732 4.8384417,38.261842 4.7791796,38.212539 4.7199175,38.163235 4.6579915,38.117518 4.59375,38.075561 4.529509,38.033601 4.4629515,37.995411 4.3944272,37.961146 c -0.068524,-0.03426 -0.1390158,-0.06459 -0.2111262,-0.09081 -0.07211,-0.02622 -0.1458398,-0.04833 -0.2208398,-0.06616 -0.075,-0.01783 -0.1512707,-0.03137 -0.2284636,-0.04046 C 3.6568046,37.754631 3.5786893,37.75 3.5,37.75 m 0,0 -8.8284271,0 m 0,0 c -0.1380712,0 -0.2728746,0.01399 -0.4030698,0.04063 -0.1301952,0.02664 -0.2557821,0.06593 -0.3754205,0.116537 -0.1196383,0.0506 -0.2333281,0.112516 -0.3397287,0.184399 -0.1064007,0.07188 -0.2055124,0.153735 -0.2959946,0.244217 -0.090482,0.09048 -0.1723349,0.189594 -0.2442178,0.295995 -0.071883,0.106401 -0.133796,0.22009 -0.1843987,0.339729 -0.050603,0.119638 -0.089895,0.245225 -0.116537,0.37542 -0.026642,0.130195 -0.040633,0.264999 -0.040633,0.40307 m 0,0 0,0.5 m 0,0 L -10,40.25"
       style="stroke:#000000"
       id="path6"
       inkscape:connector-curvature="0"
       sodipodi:nodetypes="csssssssccccccccsssssssccccsssssssccsssssssssssssssccsssssssccccsssssssccccccccccccccccccccccccsssssssccccsssssssccsssssssssssssssccsssssssccccsssssssccccccsssssssccccccccsssssssccccccsssssssccccsssssssccsssssssssssssssccsssssssccccsssssssccccc" />
    <!-- Circle -->
    <!-- Circle -->
    <!-- Circle -->
    <!-- Circle -->
    <path
       style="stroke:#000000"
       d="m 36.395,12.75 c 0,0.268894 -0.02725,0.531423 -0.07913,0.784978 -0.05188,0.253555 -0.128407,0.498136 -0.226955,0.731132 -0.09855,0.232995 -0.219125,0.454406 -0.359117,0.661622 -0.139992,0.207215 -0.2994,0.400235 -0.475614,0.576449 -0.176214,0.176214 -0.369234,0.335622 -0.576449,0.475614 -0.207216,0.139992 -0.428627,0.260568 -0.661622,0.359117 -0.232996,0.09855 -0.477577,0.175071 -0.731132,0.226955 C 33.031423,16.617752 32.768894,16.645 32.5,16.645 c -0.268894,0 -0.531423,-0.02725 -0.784978,-0.07913 -0.253555,-0.05188 -0.498136,-0.128407 -0.731132,-0.226955 -0.232995,-0.09855 -0.454406,-0.219125 -0.661622,-0.359117 -0.207215,-0.139992 -0.400235,-0.2994 -0.576449,-0.475614 C 29.569605,15.327967 29.410197,15.134947 29.270205,14.927732 29.130213,14.720516 29.009637,14.499105 28.911088,14.26611 28.81254,14.033114 28.736017,13.788533 28.684133,13.534978 28.632248,13.281423 28.605,13.018894 28.605,12.75 c 0,-0.268894 0.02725,-0.531423 0.07913,-0.784978 0.05188,-0.253555 0.128407,-0.498136 0.226955,-0.731132 0.09855,-0.232995 0.219125,-0.454406 0.359117,-0.661622 0.139992,-0.207215 0.2994,-0.400235 0.475614,-0.5764489 C 29.922033,9.819605 30.115053,9.6601968 30.322268,9.5202048 30.529484,9.3802129 30.750895,9.2596373 30.98389,9.1610884 31.216886,9.0625395 31.461467,8.9860174 31.715022,8.9341326 31.968577,8.8822477 32.231106,8.855 32.5,8.855 c 0.268894,0 0.531423,0.027248 0.784978,0.079133 0.253555,0.051885 0.498136,0.1284069 0.731132,0.2269558 0.232995,0.098549 0.454406,0.2191245 0.661622,0.3591164 0.207215,0.139992 0.400235,0.2994002 0.576449,0.4756143 0.176214,0.1762139 0.335622,0.3692339 0.475614,0.5764489 0.139992,0.207216 0.260568,0.428627 0.359117,0.661622 0.09855,0.232996 0.175071,0.477577 0.226955,0.731132 0.05189,0.253555 0.07913,0.516084 0.07913,0.784978 z"
       id="circle14"
       inkscape:connector-curvature="0"
       sodipodi:nodetypes="sssssssssssssssssssssssssssssssss" />
    <!-- Circle -->
    <path
       style="stroke:#000000"
       d="m 18.395,-5.25 c 0,0.2688936 -0.02725,0.5314232 -0.07913,0.7849784 -0.05188,0.2535551 -0.128407,0.4981357 -0.226955,0.7311314 -0.09855,0.2329957 -0.219125,0.4544064 -0.359117,0.6616217 -0.139992,0.2072154 -0.2994,0.4002353 -0.475614,0.5764494 -0.176214,0.1762141 -0.369234,0.3356223 -0.576449,0.4756143 -0.207216,0.1399919 -0.428627,0.2605675 -0.661622,0.3591164 -0.232996,0.098549 -0.477577,0.175071 -0.731132,0.2269558 C 15.031423,-1.3822477 14.768894,-1.355 14.5,-1.355 c -0.268894,0 -0.531423,-0.027248 -0.784978,-0.079133 -0.253555,-0.051885 -0.498136,-0.1284069 -0.731132,-0.2269558 -0.232995,-0.098549 -0.454406,-0.2191245 -0.661622,-0.3591164 -0.207215,-0.139992 -0.400235,-0.2994002 -0.576449,-0.4756143 -0.176214,-0.1762141 -0.335622,-0.369234 -0.475614,-0.5764494 -0.139992,-0.2072153 -0.260568,-0.428626 -0.359117,-0.6616217 C 10.81254,-3.9668859 10.736017,-4.2114665 10.684133,-4.4650216 10.632248,-4.7185768 10.605,-4.9811064 10.605,-5.25 c 0,-0.2688936 0.02725,-0.5314232 0.07913,-0.7849784 0.05188,-0.2535551 0.128407,-0.4981357 0.226955,-0.7311314 0.09855,-0.2329957 0.219125,-0.4544064 0.359117,-0.6616217 0.139992,-0.2072154 0.2994,-0.4002353 0.475614,-0.5764494 0.176214,-0.1762141 0.369234,-0.3356223 0.576449,-0.4756143 0.207216,-0.1399919 0.428627,-0.2605675 0.661622,-0.3591164 0.232996,-0.098549 0.477577,-0.175071 0.731132,-0.2269558 C 13.968577,-9.1177523 14.231106,-9.145 14.5,-9.145 c 0.268894,0 0.531423,0.027248 0.784978,0.079133 0.253555,0.051885 0.498136,0.1284069 0.731132,0.2269558 0.232995,0.098549 0.454406,0.2191245 0.661622,0.3591164 0.207215,0.139992 0.400235,0.2994002 0.576449,0.4756143 0.176214,0.1762141 0.335622,0.369234 0.475614,0.5764494 0.139992,0.2072153 0.260568,0.428626 0.359117,0.6616217 0.09855,0.2329957 0.175071,0.4775763 0.226955,0.7311314 0.05188,0.2535552 0.07913,0.5160848 0.07913,0.7849784 z"
       id="circle16"
       inkscape:connector-curvature="0"
       sodipodi:nodetypes="sssssssssssssssssssssssssssssssss" />
    <!-- Circle -->
    <path
       style="stroke:#000000"
       d="m 0.39499998,12.75 c 0,0.268894 -0.0272477,0.531423 -0.0791326,0.784978 -0.0518849,0.253555 -0.12840698,0.498136 -0.22695585,0.731132 -0.09854886,0.232995 -0.21912448,0.454406 -0.35911641,0.661622 -0.13999193,0.207215 -0.29940017,0.400235 -0.47561426,0.576449 -0.17621409,0.176214 -0.369234,0.335622 -0.5764494,0.475614 -0.2072153,0.139992 -0.428626,0.260568 -0.6616217,0.359117 -0.2329957,0.09855 -0.4775763,0.175071 -0.7311314,0.226955 C -2.9685768,16.617752 -3.2311064,16.645 -3.5,16.645 c -0.2688936,0 -0.5314232,-0.02725 -0.7849784,-0.07913 -0.2535551,-0.05188 -0.4981357,-0.128407 -0.7311314,-0.226955 -0.2329957,-0.09855 -0.4544064,-0.219125 -0.6616217,-0.359117 -0.2072154,-0.139992 -0.4002353,-0.2994 -0.5764494,-0.475614 C -6.430395,15.327967 -6.5898032,15.134947 -6.7297952,14.927732 -6.8697871,14.720516 -6.9903627,14.499105 -7.0889116,14.26611 -7.1874605,14.033114 -7.2639826,13.788533 -7.3158674,13.534978 -7.3677523,13.281423 -7.395,13.018894 -7.395,12.75 c 0,-0.268894 0.027248,-0.531423 0.079133,-0.784978 0.051885,-0.253555 0.1284069,-0.498136 0.2269558,-0.731132 0.098549,-0.232995 0.2191245,-0.454406 0.3591164,-0.661622 0.139992,-0.207215 0.2994002,-0.400235 0.4756143,-0.5764489 0.1762141,-0.1762141 0.369234,-0.3356223 0.5764494,-0.4756143 0.2072153,-0.1399919 0.428626,-0.2605675 0.6616217,-0.3591164 0.2329957,-0.098549 0.4775763,-0.175071 0.7311314,-0.2269558 C -4.0314232,8.8822477 -3.7688936,8.855 -3.5,8.855 c 0.2688936,0 0.5314232,0.027248 0.7849784,0.079133 0.2535551,0.051885 0.4981357,0.1284069 0.7311314,0.2269558 0.2329957,0.098549 0.4544064,0.2191245 0.6616217,0.3591164 0.2072154,0.139992 0.40023531,0.2994002 0.5764494,0.4756143 0.17621409,0.1762139 0.33562233,0.3692339 0.47561426,0.5764489 0.13999193,0.207216 0.26056755,0.428627 0.35911641,0.661622 0.09854887,0.232996 0.17507097,0.477577 0.22695585,0.731132 0.0518849,0.253555 0.0791326,0.516084 0.0791326,0.784978 z"
       id="circle18"
       inkscape:connector-curvature="0"
       sodipodi:nodetypes="sssssssssssssssssssssssssssssssss" />
    <!-- Circle -->
    <path
       style="stroke:#000000"
       d="m 18.395,30.75 c 0,0.268894 -0.02725,0.531423 -0.07913,0.784978 -0.05188,0.253555 -0.128407,0.498136 -0.226955,0.731132 -0.09855,0.232995 -0.219125,0.454406 -0.359117,0.661622 -0.139992,0.207215 -0.2994,0.400235 -0.475614,0.576449 -0.176214,0.176214 -0.369234,0.335622 -0.576449,0.475614 -0.207216,0.139992 -0.428627,0.260568 -0.661622,0.359117 -0.232996,0.09855 -0.477577,0.175071 -0.731132,0.226955 C 15.031423,34.617752 14.768894,34.645 14.5,34.645 c -0.268894,0 -0.531423,-0.02725 -0.784978,-0.07913 -0.253555,-0.05188 -0.498136,-0.128407 -0.731132,-0.226955 -0.232995,-0.09855 -0.454406,-0.219125 -0.661622,-0.359117 -0.207215,-0.139992 -0.400235,-0.2994 -0.576449,-0.475614 C 11.569605,33.327967 11.410197,33.134947 11.270205,32.927732 11.130213,32.720516 11.009637,32.499105 10.911088,32.26611 10.81254,32.033114 10.736017,31.788533 10.684133,31.534978 10.632248,31.281423 10.605,31.018894 10.605,30.75 c 0,-0.268894 0.02725,-0.531423 0.07913,-0.784978 0.05188,-0.253555 0.128407,-0.498136 0.226955,-0.731132 0.09855,-0.232995 0.219125,-0.454406 0.359117,-0.661622 0.139992,-0.207215 0.2994,-0.400235 0.475614,-0.576449 0.176214,-0.176214 0.369234,-0.335622 0.576449,-0.475614 0.207216,-0.139992 0.428627,-0.260568 0.661622,-0.359117 0.232996,-0.09855 0.477577,-0.175071 0.731132,-0.226955 C 13.968577,26.882248 14.231106,26.855 14.5,26.855 c 0.268894,0 0.531423,0.02725 0.784978,0.07913 0.253555,0.05188 0.498136,0.128407 0.731132,0.226955 0.232995,0.09855 0.454406,0.219125 0.661622,0.359117 0.207215,0.139992 0.400235,0.2994 0.576449,0.475614 0.176214,0.176214 0.335622,0.369234 0.475614,0.576449 0.139992,0.207216 0.260568,0.428627 0.359117,0.661622 0.09855,0.232996 0.175071,0.477577 0.226955,0.731132 0.05188,0.253555 0.07913,0.516084 0.07913,0.784978 z"
       id="circle20"
       inkscape:connector-curvature="0"
       sodipodi:nodetypes="sssssssssssssssssssssssssssssssss" />
    <!-- Circle -->
    <path
       style="stroke:#000000"
       d="m 5.6670779,25.477922 c 0,0.268894 -0.027248,0.531423 -0.079133,0.784978 -0.051885,0.253555 -0.1284069,0.498136 -0.2269558,0.731132 -0.098549,0.232995 -0.2191245,0.454406 -0.3591164,0.661622 -0.139992,0.207215 -0.2994002,0.400235 -0.4756143,0.576449 -0.1762141,0.176214 -0.369234,0.335622 -0.5764494,0.475614 -0.2072153,0.139992 -0.428626,0.260568 -0.6616217,0.359117 -0.2329957,0.09855 -0.4775763,0.175071 -0.7311314,0.226955 -0.2535552,0.05188 -0.5160848,0.07913 -0.7849784,0.07913 -0.2688936,0 -0.5314232,-0.02725 -0.78497835,-0.07913 -0.25355512,-0.05188 -0.49813574,-0.128407 -0.73113143,-0.226955 -0.23299568,-0.09855 -0.45440642,-0.219125 -0.66162176,-0.359117 -0.20721534,-0.139992 -0.40023528,-0.2994 -0.57644937,-0.475614 -0.17621409,-0.176214 -0.33562229,-0.369234 -0.47561429,-0.576449 -0.1399919,-0.207216 -0.2605675,-0.428627 -0.3591164,-0.661622 -0.098549,-0.232996 -0.175071,-0.477577 -0.2269558,-0.731132 -0.051885,-0.253555 -0.079133,-0.516084 -0.079133,-0.784978 0,-0.268894 0.027248,-0.531423 0.079133,-0.784978 0.051885,-0.253555 0.1284069,-0.498136 0.2269558,-0.731132 0.098549,-0.232995 0.2191245,-0.454406 0.3591164,-0.661622 0.139992,-0.207215 0.2994002,-0.400235 0.47561429,-0.576449 0.17621409,-0.176214 0.36923403,-0.335622 0.57644937,-0.475614 0.20721534,-0.139992 0.42862608,-0.260568 0.66162176,-0.359117 0.23299569,-0.09855 0.47757631,-0.175071 0.73113143,-0.226955 0.25355515,-0.05188 0.51608475,-0.07913 0.78497835,-0.07913 0.2688936,0 0.5314232,0.02725 0.7849784,0.07913 0.2535551,0.05188 0.4981357,0.128407 0.7311314,0.226955 0.2329957,0.09855 0.4544064,0.219125 0.6616217,0.359117 0.2072154,0.139992 0.4002353,0.2994 0.5764494,0.475614 0.1762141,0.176214 0.3356223,0.369234 0.4756143,0.576449 0.1399919,0.207216 0.2605675,0.428627 0.3591164,0.661622 0.098549,0.232996 0.175071,0.477577 0.2269558,0.731132 0.051885,0.253555 0.079133,0.516084 0.079133,0.784978 z"
       id="circle22"
       inkscape:connector-curvature="0"
       sodipodi:nodetypes="sssssssssssssssssssssssssssssssss" />
    <!-- Circle -->
    <path
       style="stroke:#000000"
       d="m 5.6670779,0.02207794 c 0,0.26889364 -0.027248,0.53142324 -0.079133,0.78497835 C 5.5360604,1.0606114 5.4595383,1.305192 5.3609895,1.5381877 5.2624406,1.7711834 5.141865,1.9925941 5.0018731,2.1998095 4.8618811,2.4070248 4.7024729,2.6000447 4.5262588,2.7762588 4.3500447,2.9524729 4.1570248,3.1118812 3.9498094,3.2518731 3.7425941,3.391865 3.5211833,3.5124406 3.2881877,3.6109895 3.055192,3.7095384 2.8106114,3.7860605 2.5570562,3.8379453 c -0.2535551,0.051885 -0.5160847,0.079133 -0.7849783,0.079133 -0.2688936,0 -0.5314232,-0.027248 -0.78497835,-0.079133 C 0.73354444,3.7860605 0.48896381,3.7095384 0.25596813,3.6109895 0.02297245,3.5124406 -0.19843829,3.391865 -0.40565363,3.2518731 -0.61286897,3.1118812 -0.80588891,2.9524729 -0.982103,2.7762588 -1.1583171,2.6000447 -1.3177253,2.4070248 -1.4577173,2.1998095 -1.5977092,1.9925941 -1.7182848,1.7711834 -1.8168337,1.5381877 -1.9153825,1.305192 -1.9919046,1.0606114 -2.0437895,0.80705629 c -0.051885,-0.25355511 -0.079133,-0.51608471 -0.079133,-0.78497835 0,-0.26889363 0.027248,-0.53142323 0.079133,-0.78497835 0.051885,-0.25355509 0.1284069,-0.49813569 0.2269558,-0.73113139 0.098549,-0.2329957 0.2191245,-0.4544064 0.3591164,-0.6616218 0.139992,-0.2072153 0.2994002,-0.4002352 0.47561429,-0.5764493 0.17621409,-0.1762141 0.36923403,-0.3356224 0.57644938,-0.4756143 0.20721534,-0.1399919 0.42862608,-0.2605675 0.66162176,-0.3591164 0.23299568,-0.098549 0.47757631,-0.175071 0.73113142,-0.2269558 0.25355515,-0.051885 0.51608475,-0.079133 0.78497835,-0.079133 0.2688936,0 0.5314232,0.027248 0.7849783,0.079133 0.2535552,0.051885 0.4981358,0.1284069 0.7311315,0.2269558 0.2329957,0.098549 0.4544064,0.2191245 0.6616217,0.3591164 0.2072154,0.1399919 0.4002353,0.2994002 0.5764494,0.4756143 0.1762141,0.1762141 0.3356223,0.369234 0.4756143,0.5764493 0.1399919,0.2072154 0.2605675,0.4286261 0.3591164,0.6616218 0.098549,0.2329957 0.175071,0.4775763 0.2269558,0.73113139 0.051885,0.25355512 0.079133,0.51608472 0.079133,0.78497835 z"
       id="circle24"
       inkscape:connector-curvature="0"
       sodipodi:nodetypes="sssssssssssssssssssssssssssssssss" />
    <!-- Circle -->
    <path
       style="stroke:#000000"
       d="m 31.122922,0.02207794 c 0,0.26889364 -0.02725,0.53142324 -0.07913,0.78497835 -0.05188,0.25355511 -0.128407,0.49813571 -0.226955,0.73113141 -0.09855,0.2329957 -0.219125,0.4544064 -0.359117,0.6616218 -0.139992,0.2072153 -0.2994,0.4002352 -0.475614,0.5764493 -0.176214,0.1762141 -0.369234,0.3356224 -0.576449,0.4756143 -0.207216,0.1399919 -0.428627,0.2605675 -0.661622,0.3591164 -0.232996,0.098549 -0.477577,0.175071 -0.731132,0.2269558 -0.253555,0.051885 -0.516084,0.079133 -0.784978,0.079133 -0.268894,0 -0.531423,-0.027248 -0.784978,-0.079133 C 26.189389,3.7860605 25.944808,3.7095384 25.711812,3.6109895 25.478817,3.5124406 25.257406,3.391865 25.05019,3.2518731 24.842975,3.1118812 24.649955,2.9524729 24.473741,2.7762588 24.297527,2.6000447 24.138119,2.4070248 23.998127,2.1998095 23.858135,1.9925941 23.737559,1.7711834 23.63901,1.5381877 23.540462,1.305192 23.463939,1.0606114 23.412055,0.80705629 23.36017,0.55350118 23.332922,0.29097158 23.332922,0.02207794 c 0,-0.26889363 0.02725,-0.53142323 0.07913,-0.78497835 0.05188,-0.25355509 0.128407,-0.49813569 0.226955,-0.73113139 0.09855,-0.2329957 0.219125,-0.4544064 0.359117,-0.6616218 0.139992,-0.2072153 0.2994,-0.4002352 0.475614,-0.5764493 0.176214,-0.1762141 0.369234,-0.3356224 0.576449,-0.4756143 0.207216,-0.1399919 0.428627,-0.2605675 0.661622,-0.3591164 0.232996,-0.098549 0.477577,-0.175071 0.731132,-0.2269558 0.253555,-0.051885 0.516084,-0.079133 0.784978,-0.079133 0.268894,0 0.531423,0.027248 0.784978,0.079133 0.253555,0.051885 0.498136,0.1284069 0.731132,0.2269558 0.232995,0.098549 0.454406,0.2191245 0.661622,0.3591164 0.207215,0.1399919 0.400235,0.2994002 0.576449,0.4756143 0.176214,0.1762141 0.335622,0.369234 0.475614,0.5764493 0.139992,0.2072154 0.260568,0.4286261 0.359117,0.6616218 0.09855,0.2329957 0.175071,0.4775763 0.226955,0.73113139 0.05188,0.25355512 0.07913,0.51608472 0.07913,0.78497835 z"
       id="circle26"
       inkscape:connector-curvature="0"
       sodipodi:nodetypes="sssssssssssssssssssssssssssssssss" />
    <!-- Circle -->
    <path
       style="stroke:#000000"
       d="m 31.122922,25.477922 c 0,0.268894 -0.02725,0.531423 -0.07913,0.784978 -0.05188,0.253555 -0.128407,0.498136 -0.226955,0.731132 -0.09855,0.232995 -0.219125,0.454406 -0.359117,0.661622 -0.139992,0.207215 -0.2994,0.400235 -0.475614,0.576449 -0.176214,0.176214 -0.369234,0.335622 -0.576449,0.475614 -0.207216,0.139992 -0.428627,0.260568 -0.661622,0.359117 -0.232996,0.09855 -0.477577,0.175071 -0.731132,0.226955 -0.253555,0.05188 -0.516084,0.07913 -0.784978,0.07913 -0.268894,0 -0.531423,-0.02725 -0.784978,-0.07913 -0.253555,-0.05188 -0.498136,-0.128407 -0.731132,-0.226955 -0.232995,-0.09855 -0.454406,-0.219125 -0.661622,-0.359117 -0.207215,-0.139992 -0.400235,-0.2994 -0.576449,-0.475614 -0.176214,-0.176214 -0.335622,-0.369234 -0.475614,-0.576449 -0.139992,-0.207216 -0.260568,-0.428627 -0.359117,-0.661622 -0.09855,-0.232996 -0.175071,-0.477577 -0.226955,-0.731132 -0.05188,-0.253555 -0.07913,-0.516084 -0.07913,-0.784978 0,-0.268894 0.02725,-0.531423 0.07913,-0.784978 0.05188,-0.253555 0.128407,-0.498136 0.226955,-0.731132 0.09855,-0.232995 0.219125,-0.454406 0.359117,-0.661622 0.139992,-0.207215 0.2994,-0.400235 0.475614,-0.576449 0.176214,-0.176214 0.369234,-0.335622 0.576449,-0.475614 0.207216,-0.139992 0.428627,-0.260568 0.661622,-0.359117 0.232996,-0.09855 0.477577,-0.175071 0.731132,-0.226955 0.253555,-0.05188 0.516084,-0.07913 0.784978,-0.07913 0.268894,0 0.531423,0.02725 0.784978,0.07913 0.253555,0.05188 0.498136,0.128407 0.731132,0.226955 0.232995,0.09855 0.454406,0.219125 0.661622,0.359117 0.207215,0.139992 0.400235,0.2994 0.576449,0.475614 0.176214,0.176214 0.335622,0.369234 0.475614,0.576449 0.139992,0.207216 0.260568,0.428627 0.359117,0.661622 0.09855,0.232996 0.175071,0.477577 0.226955,0.731132 0.05188,0.253555 0.07913,0.516084 0.07913,0.784978 z"
       id="circle28"
       inkscape:connector-curvature="0"
       sodipodi:nodetypes="sssssssssssssssssssssssssssssssss" />
    <!-- Circle -->
    <path
       style="stroke:#000000"
       d="m 19.5,12.75 c 0,0.345178 -0.03498,0.682186 -0.101582,1.007674 -0.0666,0.325488 -0.164836,0.639456 -0.291343,0.938552 -0.126507,0.299096 -0.281289,0.58332 -0.460996,0.849322 -0.179708,0.266001 -0.38434,0.51378 -0.610545,0.739986 -0.226206,0.226205 -0.473985,0.430837 -0.739986,0.610545 -0.266002,0.179707 -0.550226,0.334489 -0.849322,0.460996 -0.299096,0.126507 -0.613064,0.224738 -0.938552,0.291343 C 15.182186,17.715022 14.845178,17.75 14.5,17.75 c -0.345178,0 -0.682186,-0.03498 -1.007674,-0.101582 -0.325488,-0.0666 -0.639456,-0.164836 -0.938552,-0.291343 -0.299096,-0.126507 -0.58332,-0.281289 -0.849322,-0.460996 -0.266001,-0.179708 -0.51378,-0.38434 -0.739986,-0.610545 C 10.738261,16.059328 10.533629,15.811549 10.353921,15.545548 10.174214,15.279546 10.019432,14.995322 9.8929248,14.696226 9.7664179,14.39713 9.6681867,14.083162 9.6015822,13.757674 9.5349778,13.432186 9.5,13.095178 9.5,12.75 9.5,12.404822 9.5349778,12.067814 9.6015822,11.742326 9.6681867,11.416838 9.7664179,11.10287 9.8929248,10.803774 10.019432,10.504678 10.174214,10.220454 10.353921,9.9544525 10.533629,9.6884507 10.738261,9.4406716 10.964466,9.2144661 11.190672,8.9882606 11.438451,8.7836287 11.704452,8.6039215 11.970454,8.4242142 12.254678,8.2694317 12.553774,8.1429248 12.85287,8.0164179 13.166838,7.9181867 13.492326,7.8515822 13.817814,7.7849778 14.154822,7.75 14.5,7.75 c 0.345178,0 0.682186,0.034978 1.007674,0.1015822 0.325488,0.066604 0.639456,0.1648357 0.938552,0.2913426 0.299096,0.1265069 0.58332,0.2812894 0.849322,0.4609967 0.266001,0.1797072 0.51378,0.3843391 0.739986,0.6105446 0.226205,0.2262055 0.430837,0.4739846 0.610545,0.7399864 0.179707,0.2660015 0.334489,0.5502255 0.460996,0.8493215 0.126507,0.299096 0.224738,0.613064 0.291343,0.938552 C 19.465022,12.067814 19.5,12.404822 19.5,12.75 Z"
       id="circle30"
       inkscape:connector-curvature="0"
       sodipodi:nodetypes="sssssssssssssssssssssssssssssssss" />
    <!-- Circle -->
    <path
       style="stroke:#000000"
       d="m 7.5,12.75 c 0,0.06904 -0.007,0.136437 -0.020316,0.201535 -0.013321,0.0651 -0.032967,0.127891 -0.058269,0.18771 -0.025301,0.05982 -0.056258,0.116664 -0.092199,0.169865 -0.035941,0.0532 -0.076868,0.102756 -0.1221089,0.147997 -0.045241,0.04524 -0.094797,0.08617 -0.1479973,0.122109 -0.0532,0.03594 -0.1100452,0.0669 -0.1698644,0.0922 -0.059819,0.0253 -0.1226126,0.04495 -0.1877102,0.05827 C 6.6364373,13.743004 6.5690356,13.75 6.5,13.75 c -0.069036,0 -0.1364373,-0.007 -0.2015349,-0.02032 -0.065098,-0.01332 -0.1278911,-0.03297 -0.1877102,-0.05827 -0.059819,-0.0253 -0.1166641,-0.05626 -0.1698644,-0.0922 -0.0532,-0.03594 -0.1027562,-0.07687 -0.1479973,-0.122109 -0.045241,-0.04524 -0.086168,-0.0948 -0.1221089,-0.147997 -0.035941,-0.0532 -0.066898,-0.110046 -0.092199,-0.169865 -0.025301,-0.05982 -0.044948,-0.122613 -0.058269,-0.18771 C 5.5069956,12.886437 5.5,12.819036 5.5,12.75 c 0,-0.06904 0.007,-0.136437 0.020316,-0.201535 0.013321,-0.0651 0.032967,-0.127891 0.058269,-0.18771 0.025301,-0.05982 0.056258,-0.116664 0.092199,-0.169865 0.035941,-0.0532 0.076868,-0.102756 0.1221089,-0.147997 0.045241,-0.04524 0.094797,-0.08617 0.1479973,-0.122109 0.0532,-0.03594 0.1100452,-0.0669 0.1698644,-0.0922 0.059819,-0.0253 0.1226126,-0.04495 0.1877102,-0.05827 C 6.3635627,11.756996 6.4309644,11.75 6.5,11.75 c 0.069036,0 0.1364373,0.007 0.2015349,0.02032 0.065098,0.01332 0.1278911,0.03297 0.1877102,0.05827 0.059819,0.0253 0.1166641,0.05626 0.1698644,0.0922 0.0532,0.03594 0.1027562,0.07687 0.1479973,0.122109 0.045241,0.04524 0.086168,0.0948 0.1221089,0.147997 0.035941,0.0532 0.066898,0.110046 0.092199,0.169865 0.025301,0.05982 0.044948,0.122613 0.058269,0.18771 C 7.4930044,12.613563 7.5,12.680964 7.5,12.75 Z"
       id="circle32"
       inkscape:connector-curvature="0"
       sodipodi:nodetypes="sssssssssssssssssssssssssssssssss" />
    <!-- Circle -->
    <path
       style="stroke:#000000"
       d="m 15.5,4.75 c 0,0.069036 -0.007,0.1364373 -0.02032,0.2015349 -0.01332,0.065098 -0.03297,0.1278911 -0.05827,0.1877102 -0.0253,0.059819 -0.05626,0.1166641 -0.0922,0.1698644 -0.03594,0.0532 -0.07687,0.1027562 -0.122109,0.1479973 -0.04524,0.045241 -0.0948,0.086168 -0.147997,0.1221089 -0.0532,0.035941 -0.110046,0.066898 -0.169865,0.092199 -0.05982,0.025301 -0.122613,0.044948 -0.18771,0.058269 C 14.636437,5.7430044 14.569036,5.75 14.5,5.75 c -0.06904,0 -0.136437,-0.007 -0.201535,-0.020316 -0.0651,-0.013321 -0.127891,-0.032967 -0.18771,-0.058269 -0.05982,-0.025301 -0.116664,-0.056258 -0.169865,-0.092199 -0.0532,-0.035941 -0.102756,-0.076868 -0.147997,-0.1221089 -0.04524,-0.045241 -0.08617,-0.094797 -0.122109,-0.1479973 -0.03594,-0.0532 -0.0669,-0.1100452 -0.0922,-0.1698644 -0.0253,-0.059819 -0.04495,-0.1226126 -0.05827,-0.1877102 C 13.506996,4.8864373 13.5,4.8190356 13.5,4.75 c 0,-0.069036 0.007,-0.1364373 0.02032,-0.2015349 0.01332,-0.065098 0.03297,-0.1278911 0.05827,-0.1877102 0.0253,-0.059819 0.05626,-0.1166641 0.0922,-0.1698644 0.03594,-0.0532 0.07687,-0.1027562 0.122109,-0.1479973 0.04524,-0.045241 0.0948,-0.086168 0.147997,-0.1221089 0.0532,-0.035942 0.110046,-0.066898 0.169865,-0.092199 0.05982,-0.025301 0.122613,-0.044948 0.18771,-0.058269 C 14.363563,3.7569956 14.430964,3.75 14.5,3.75 c 0.06904,0 0.136437,0.007 0.201535,0.020316 0.0651,0.013321 0.127891,0.032967 0.18771,0.058269 0.05982,0.025301 0.116664,0.056258 0.169865,0.092199 0.0532,0.035941 0.102756,0.076868 0.147997,0.1221089 0.04524,0.045241 0.08617,0.094797 0.122109,0.1479973 0.03594,0.0532 0.0669,0.1100452 0.0922,0.1698644 0.0253,0.059819 0.04495,0.1226126 0.05827,0.1877102 C 15.493004,4.6135627 15.5,4.6809644 15.5,4.75 Z"
       id="circle34"
       inkscape:connector-curvature="0"
       sodipodi:nodetypes="sssssssssssssssssssssssssssssssss" />
    <!-- Circle -->
    <path
       style="stroke:#000000"
       d="m 15.5,20.75 c 0,0.06904 -0.007,0.136437 -0.02032,0.201535 -0.01332,0.0651 -0.03297,0.127891 -0.05827,0.18771 -0.0253,0.05982 -0.05626,0.116664 -0.0922,0.169865 -0.03594,0.0532 -0.07687,0.102756 -0.122109,0.147997 -0.04524,0.04524 -0.0948,0.08617 -0.147997,0.122109 -0.0532,0.03594 -0.110046,0.0669 -0.169865,0.0922 -0.05982,0.0253 -0.122613,0.04495 -0.18771,0.05827 C 14.636437,21.743004 14.569036,21.75 14.5,21.75 c -0.06904,0 -0.136437,-0.007 -0.201535,-0.02032 -0.0651,-0.01332 -0.127891,-0.03297 -0.18771,-0.05827 -0.05982,-0.0253 -0.116664,-0.05626 -0.169865,-0.0922 -0.0532,-0.03594 -0.102756,-0.07687 -0.147997,-0.122109 -0.04524,-0.04524 -0.08617,-0.0948 -0.122109,-0.147997 -0.03594,-0.0532 -0.0669,-0.110046 -0.0922,-0.169865 -0.0253,-0.05982 -0.04495,-0.122613 -0.05827,-0.18771 C 13.506996,20.886437 13.5,20.819036 13.5,20.75 c 0,-0.06904 0.007,-0.136437 0.02032,-0.201535 0.01332,-0.0651 0.03297,-0.127891 0.05827,-0.18771 0.0253,-0.05982 0.05626,-0.116664 0.0922,-0.169865 0.03594,-0.0532 0.07687,-0.102756 0.122109,-0.147997 0.04524,-0.04524 0.0948,-0.08617 0.147997,-0.122109 0.0532,-0.03594 0.110046,-0.0669 0.169865,-0.0922 0.05982,-0.0253 0.122613,-0.04495 0.18771,-0.05827 C 14.363563,19.756996 14.430964,19.75 14.5,19.75 c 0.06904,0 0.136437,0.007 0.201535,0.02032 0.0651,0.01332 0.127891,0.03297 0.18771,0.05827 0.05982,0.0253 0.116664,0.05626 0.169865,0.0922 0.0532,0.03594 0.102756,0.07687 0.147997,0.122109 0.04524,0.04524 0.08617,0.0948 0.122109,0.147997 0.03594,0.0532 0.0669,0.110046 0.0922,0.169865 0.0253,0.05982 0.04495,0.122613 0.05827,0.18771 C 15.493004,20.613563 15.5,20.680964 15.5,20.75 Z"
       id="circle36"
       inkscape:connector-curvature="0"
       sodipodi:nodetypes="sssssssssssssssssssssssssssssssss" />
    <!-- Circle -->
    <path
       style="stroke:#000000"
       d="m 23.5,12.75 c 0,0.06904 -0.007,0.136437 -0.02032,0.201535 -0.01332,0.0651 -0.03297,0.127891 -0.05827,0.18771 -0.0253,0.05982 -0.05626,0.116664 -0.0922,0.169865 -0.03594,0.0532 -0.07687,0.102756 -0.122109,0.147997 -0.04524,0.04524 -0.0948,0.08617 -0.147997,0.122109 -0.0532,0.03594 -0.110046,0.0669 -0.169865,0.0922 -0.05982,0.0253 -0.122613,0.04495 -0.18771,0.05827 C 22.636437,13.743004 22.569036,13.75 22.5,13.75 c -0.06904,0 -0.136437,-0.007 -0.201535,-0.02032 -0.0651,-0.01332 -0.127891,-0.03297 -0.18771,-0.05827 -0.05982,-0.0253 -0.116664,-0.05626 -0.169865,-0.0922 -0.0532,-0.03594 -0.102756,-0.07687 -0.147997,-0.122109 -0.04524,-0.04524 -0.08617,-0.0948 -0.122109,-0.147997 -0.03594,-0.0532 -0.0669,-0.110046 -0.0922,-0.169865 -0.0253,-0.05982 -0.04495,-0.122613 -0.05827,-0.18771 C 21.506996,12.886437 21.5,12.819036 21.5,12.75 c 0,-0.06904 0.007,-0.136437 0.02032,-0.201535 0.01332,-0.0651 0.03297,-0.127891 0.05827,-0.18771 0.0253,-0.05982 0.05626,-0.116664 0.0922,-0.169865 0.03594,-0.0532 0.07687,-0.102756 0.122109,-0.147997 0.04524,-0.04524 0.0948,-0.08617 0.147997,-0.122109 0.0532,-0.03594 0.110046,-0.0669 0.169865,-0.0922 0.05982,-0.0253 0.122613,-0.04495 0.18771,-0.05827 C 22.363563,11.756996 22.430964,11.75 22.5,11.75 c 0.06904,0 0.136437,0.007 0.201535,0.02032 0.0651,0.01332 0.127891,0.03297 0.18771,0.05827 0.05982,0.0253 0.116664,0.05626 0.169865,0.0922 0.0532,0.03594 0.102756,0.07687 0.147997,0.122109 0.04524,0.04524 0.08617,0.0948 0.122109,0.147997 0.03594,0.0532 0.0669,0.110046 0.0922,0.169865 0.0253,0.05982 0.04495,0.122613 0.05827,0.18771 C 23.493004,12.613563 23.5,12.680964 23.5,12.75 Z"
       id="circle38"
       inkscape:connector-curvature="0"
       sodipodi:nodetypes="sssssssssssssssssssssssssssssssss" />
    <!-- Circle -->
    <path
       style="stroke:#000000"
       d="m 23.5,4.75 c 0,0.069036 -0.007,0.1364373 -0.02032,0.2015349 -0.01332,0.065098 -0.03297,0.1278911 -0.05827,0.1877102 -0.0253,0.059819 -0.05626,0.1166641 -0.0922,0.1698644 -0.03594,0.0532 -0.07687,0.1027562 -0.122109,0.1479973 -0.04524,0.045241 -0.0948,0.086168 -0.147997,0.1221089 -0.0532,0.035941 -0.110046,0.066898 -0.169865,0.092199 -0.05982,0.025301 -0.122613,0.044948 -0.18771,0.058269 C 22.636437,5.7430044 22.569036,5.75 22.5,5.75 c -0.06904,0 -0.136437,-0.007 -0.201535,-0.020316 -0.0651,-0.013321 -0.127891,-0.032967 -0.18771,-0.058269 -0.05982,-0.025301 -0.116664,-0.056258 -0.169865,-0.092199 -0.0532,-0.035941 -0.102756,-0.076868 -0.147997,-0.1221089 -0.04524,-0.045241 -0.08617,-0.094797 -0.122109,-0.1479973 -0.03594,-0.0532 -0.0669,-0.1100452 -0.0922,-0.1698644 -0.0253,-0.059819 -0.04495,-0.1226126 -0.05827,-0.1877102 C 21.506996,4.8864373 21.5,4.8190356 21.5,4.75 c 0,-0.069036 0.007,-0.1364373 0.02032,-0.2015349 0.01332,-0.065098 0.03297,-0.1278911 0.05827,-0.1877102 0.0253,-0.059819 0.05626,-0.1166641 0.0922,-0.1698644 0.03594,-0.0532 0.07687,-0.1027562 0.122109,-0.1479973 0.04524,-0.045241 0.0948,-0.086168 0.147997,-0.1221089 0.0532,-0.035942 0.110046,-0.066898 0.169865,-0.092199 0.05982,-0.025301 0.122613,-0.044948 0.18771,-0.058269 C 22.363563,3.7569956 22.430964,3.75 22.5,3.75 c 0.06904,0 0.136437,0.007 0.201535,0.020316 0.0651,0.013321 0.127891,0.032967 0.18771,0.058269 0.05982,0.025301 0.116664,0.056258 0.169865,0.092199 0.0532,0.035941 0.102756,0.076868 0.147997,0.1221089 0.04524,0.045241 0.08617,0.094797 0.122109,0.1479973 0.03594,0.0532 0.0669,0.1100452 0.0922,0.1698644 0.0253,0.059819 0.04495,0.1226126 0.05827,0.1877102 C 23.493004,4.6135627 23.5,4.6809644 23.5,4.75 Z"
       id="circle40"
       inkscape:connector-curvature="0"
       sodipodi:nodetypes="sssssssssssssssssssssssssssssssss" />
    <!-- Circle -->
    <path
       style="stroke:#000000"
       d="m 23.5,20.75 c 0,0.06904 -0.007,0.136437 -0.02032,0.201535 -0.01332,0.0651 -0.03297,0.127891 -0.05827,0.18771 -0.0253,0.05982 -0.05626,0.116664 -0.0922,0.169865 -0.03594,0.0532 -0.07687,0.102756 -0.122109,0.147997 -0.04524,0.04524 -0.0948,0.08617 -0.147997,0.122109 -0.0532,0.03594 -0.110046,0.0669 -0.169865,0.0922 -0.05982,0.0253 -0.122613,0.04495 -0.18771,0.05827 C 22.636437,21.743004 22.569036,21.75 22.5,21.75 c -0.06904,0 -0.136437,-0.007 -0.201535,-0.02032 -0.0651,-0.01332 -0.127891,-0.03297 -0.18771,-0.05827 -0.05982,-0.0253 -0.116664,-0.05626 -0.169865,-0.0922 -0.0532,-0.03594 -0.102756,-0.07687 -0.147997,-0.122109 -0.04524,-0.04524 -0.08617,-0.0948 -0.122109,-0.147997 -0.03594,-0.0532 -0.0669,-0.110046 -0.0922,-0.169865 -0.0253,-0.05982 -0.04495,-0.122613 -0.05827,-0.18771 C 21.506996,20.886437 21.5,20.819036 21.5,20.75 c 0,-0.06904 0.007,-0.136437 0.02032,-0.201535 0.01332,-0.0651 0.03297,-0.127891 0.05827,-0.18771 0.0253,-0.05982 0.05626,-0.116664 0.0922,-0.169865 0.03594,-0.0532 0.07687,-0.102756 0.122109,-0.147997 0.04524,-0.04524 0.0948,-0.08617 0.147997,-0.122109 0.0532,-0.03594 0.110046,-0.0669 0.169865,-0.0922 0.05982,-0.0253 0.122613,-0.04495 0.18771,-0.05827 C 22.363563,19.756996 22.430964,19.75 22.5,19.75 c 0.06904,0 0.136437,0.007 0.201535,0.02032 0.0651,0.01332 0.127891,0.03297 0.18771,0.05827 0.05982,0.0253 0.116664,0.05626 0.169865,0.0922 0.0532,0.03594 0.102756,0.07687 0.147997,0.122109 0.04524,0.04524 0.08617,0.0948 0.122109,0.147997 0.03594,0.0532 0.0669,0.110046 0.0922,0.169865 0.0253,0.05982 0.04495,0.122613 0.05827,0.18771 C 23.493004,20.613563 23.5,20.680964 23.5,20.75 Z"
       id="circle42"
       inkscape:connector-curvature="0"
       sodipodi:nodetypes="sssssssssssssssssssssssssssssssss" />
    <!-- Circle -->
    <path
       style="stroke:#000000"
       d="m 7.5,4.75 c 0,0.069036 -0.007,0.1364373 -0.020316,0.2015349 -0.013321,0.065098 -0.032967,0.1278911 -0.058269,0.1877102 -0.025301,0.059819 -0.056258,0.1166641 -0.092199,0.1698644 -0.035941,0.0532 -0.076868,0.1027562 -0.1221089,0.1479973 -0.045241,0.045241 -0.094797,0.086168 -0.1479973,0.1221089 -0.0532,0.035941 -0.1100452,0.066898 -0.1698644,0.092199 C 6.829426,5.6967164 6.7666325,5.7163627 6.7015349,5.7296836 6.6364373,5.7430044 6.5690356,5.75 6.5,5.75 6.4309644,5.75 6.3635627,5.7430044 6.2984651,5.7296836 6.2333675,5.7163627 6.170574,5.6967164 6.1107549,5.671415 6.0509357,5.6461137 5.9940908,5.6151572 5.9408905,5.5792157 5.8876901,5.5432743 5.8381343,5.5023479 5.7928932,5.4571068 5.7476521,5.4118657 5.7067257,5.3623099 5.6707843,5.3091095 5.6348428,5.2559092 5.6038863,5.1990643 5.578585,5.1392451 5.5532836,5.079426 5.5336373,5.0166325 5.5203164,4.9515349 5.5069956,4.8864373 5.5,4.8190356 5.5,4.75 c 0,-0.069036 0.007,-0.1364373 0.020316,-0.2015349 0.013321,-0.065098 0.032967,-0.1278911 0.058269,-0.1877102 0.025301,-0.059819 0.056258,-0.1166641 0.092199,-0.1698644 0.035941,-0.0532 0.076868,-0.1027562 0.1221089,-0.1479973 0.045241,-0.045241 0.094797,-0.086168 0.1479973,-0.1221089 0.0532,-0.035942 0.1100452,-0.066898 0.1698644,-0.092199 C 6.170574,3.8032836 6.2333675,3.7836373 6.2984651,3.7703164 6.3635627,3.7569956 6.4309644,3.75 6.5,3.75 c 0.069036,0 0.1364373,0.007 0.2015349,0.020316 0.065098,0.013321 0.1278911,0.032967 0.1877102,0.058269 0.059819,0.025301 0.1166641,0.056258 0.1698644,0.092199 0.0532,0.035941 0.1027562,0.076868 0.1479973,0.1221089 0.045241,0.045241 0.086168,0.094797 0.1221089,0.1479973 0.035941,0.0532 0.066898,0.1100452 0.092199,0.1698644 0.025301,0.059819 0.044948,0.1226126 0.058269,0.1877102 C 7.4930044,4.6135627 7.5,4.6809644 7.5,4.75 Z"
       id="circle44"
       inkscape:connector-curvature="0"
       sodipodi:nodetypes="sssssssssssssssssssssssssssssssss" />
    <!-- Circle -->
    <path
       style="stroke:#000000"
       d="m 7.5,20.75 c 0,0.06904 -0.007,0.136437 -0.020316,0.201535 -0.013321,0.0651 -0.032967,0.127891 -0.058269,0.18771 -0.025301,0.05982 -0.056258,0.116664 -0.092199,0.169865 -0.035941,0.0532 -0.076868,0.102756 -0.1221089,0.147997 -0.045241,0.04524 -0.094797,0.08617 -0.1479973,0.122109 -0.0532,0.03594 -0.1100452,0.0669 -0.1698644,0.0922 -0.059819,0.0253 -0.1226126,0.04495 -0.1877102,0.05827 C 6.6364373,21.743004 6.5690356,21.75 6.5,21.75 c -0.069036,0 -0.1364373,-0.007 -0.2015349,-0.02032 -0.065098,-0.01332 -0.1278911,-0.03297 -0.1877102,-0.05827 -0.059819,-0.0253 -0.1166641,-0.05626 -0.1698644,-0.0922 -0.0532,-0.03594 -0.1027562,-0.07687 -0.1479973,-0.122109 -0.045241,-0.04524 -0.086168,-0.0948 -0.1221089,-0.147997 -0.035941,-0.0532 -0.066898,-0.110046 -0.092199,-0.169865 -0.025301,-0.05982 -0.044948,-0.122613 -0.058269,-0.18771 C 5.5069956,20.886437 5.5,20.819036 5.5,20.75 c 0,-0.06904 0.007,-0.136437 0.020316,-0.201535 0.013321,-0.0651 0.032967,-0.127891 0.058269,-0.18771 0.025301,-0.05982 0.056258,-0.116664 0.092199,-0.169865 0.035941,-0.0532 0.076868,-0.102756 0.1221089,-0.147997 0.045241,-0.04524 0.094797,-0.08617 0.1479973,-0.122109 0.0532,-0.03594 0.1100452,-0.0669 0.1698644,-0.0922 0.059819,-0.0253 0.1226126,-0.04495 0.1877102,-0.05827 C 6.3635627,19.756996 6.4309644,19.75 6.5,19.75 c 0.069036,0 0.1364373,0.007 0.2015349,0.02032 0.065098,0.01332 0.1278911,0.03297 0.1877102,0.05827 0.059819,0.0253 0.1166641,0.05626 0.1698644,0.0922 0.0532,0.03594 0.1027562,0.07687 0.1479973,0.122109 0.045241,0.04524 0.086168,0.0948 0.1221089,0.147997 0.035941,0.0532 0.066898,0.110046 0.092199,0.169865 0.025301,0.05982 0.044948,0.122613 0.058269,0.18771 C 7.4930044,20.613563 7.5,20.680964 7.5,20.75 Z"
       id="circle46"
       inkscape:connector-curvature="0"
       sodipodi:nodetypes="sssssssssssssssssssssssssssssssss" />
  </g>
</svg>
