<?xml version="1.0" encoding="UTF-8" standalone="no"?>
<!-- 2016-02-29 16:35:01 Generated by QCAD SVG Exporter -->

<svg
   xmlns:dc="http://purl.org/dc/elements/1.1/"
   xmlns:cc="http://creativecommons.org/ns#"
   xmlns:rdf="http://www.w3.org/1999/02/22-rdf-syntax-ns#"
   xmlns:svg="http://www.w3.org/2000/svg"
   xmlns="http://www.w3.org/2000/svg"
   xmlns:sodipodi="http://sodipodi.sourceforge.net/DTD/sodipodi-0.dtd"
   xmlns:inkscape="http://www.inkscape.org/namespaces/inkscape"
   width="56.89600000000002mm"
   height="55mm"
   viewBox="-13 -40.25000000000001 56.89600000000002 55"
   version="1.1"
   style="stroke-linecap:round;stroke-linejoin:round;fill:none"
   id="svg4772"
   inkscape:version="0.91 r13725"
   sodipodi:docname="SideRotated.svg">
  <metadata
     id="metadata4816">
    <rdf:RDF>
      <cc:Work
         rdf:about="">
        <dc:format>image/svg+xml</dc:format>
        <dc:type
           rdf:resource="http://purl.org/dc/dcmitype/StillImage" />
        <dc:title></dc:title>
      </cc:Work>
    </rdf:RDF>
  </metadata>
  <defs
     id="defs4814" />
  <sodipodi:namedview
     pagecolor="#ffffff"
     bordercolor="#666666"
     borderopacity="1"
     objecttolerance="10"
     gridtolerance="10"
     guidetolerance="10"
     inkscape:pageopacity="0"
     inkscape:pageshadow="2"
     inkscape:window-width="1680"
     inkscape:window-height="987"
     id="namedview4812"
     showgrid="false"
     inkscape:zoom="4.1974141"
     inkscape:cx="100.8"
     inkscape:cy="97.440945"
     inkscape:window-x="1358"
     inkscape:window-y="-8"
     inkscape:window-maximized="1"
     inkscape:current-layer="svg4772" />
  <g
     transform="scale(1,-1)"
     id="g4774">
    <!-- Polyline -->
    <path
       d="m -10,40.25 c -0.207107,0 -0.409312,-0.02099 -0.604605,-0.06095 -0.195292,-0.03996 -0.383673,-0.0989 -0.56313,-0.174806 -0.179458,-0.0759 -0.349992,-0.168774 -0.509593,-0.276598 -0.159601,-0.107824 -0.308269,-0.230603 -0.443992,-0.366327 -0.135724,-0.135723 -0.258503,-0.284391 -0.366327,-0.443992 -0.107824,-0.159601 -0.200694,-0.330135 -0.276598,-0.509593 -0.0759,-0.179457 -0.134843,-0.367838 -0.174806,-0.56313 C -12.979013,37.659312 -13,37.457107 -13,37.25 m 0,0 0,-45 m 0,0 18,0 m 0,0 0,-3 m 0,0 c 0,-0.138071 -0.013991,-0.272874 -0.040633,-0.40307 -0.026642,-0.130195 -0.065934,-0.255782 -0.116537,-0.37542 -0.050603,-0.119638 -0.1125158,-0.233328 -0.1843987,-0.339729 -0.071883,-0.1064 -0.1537356,-0.205512 -0.2442178,-0.295994 -0.090482,-0.09048 -0.1895939,-0.172335 -0.2959946,-0.244218 -0.1064007,-0.07188 -0.2200904,-0.133796 -0.3397287,-0.184399 -0.1196384,-0.0506 -0.2452254,-0.0899 -0.3754205,-0.116537 C 3.2728746,-12.736009 3.1380712,-12.75 3,-12.75 m 0,0 -8,0 m 0,0 c -0.1139996,0 -0.2261945,0.0096 -0.3356999,0.02824 -0.1095054,0.01859 -0.2163214,0.04614 -0.3195631,0.08196 -0.1032418,0.03582 -0.2029093,0.07991 -0.2981179,0.131579 -0.095209,0.05167 -0.1859581,0.110929 -0.271364,0.177084 -0.085406,0.06616 -0.165468,0.139209 -0.2393016,0.218476 -0.073834,0.07927 -0.1414388,0.164748 -0.2019307,0.255757 -0.060492,0.09101 -0.1138706,0.187545 -0.1592513,0.288925 -0.045381,0.101379 -0.082763,0.207601 -0.1112632,0.317981 m 0,0 c -0.0285,0.11038 -0.065882,0.216602 -0.1112632,0.317981 -0.045381,0.10138 -0.098759,0.197917 -0.1592512,0.288925 -0.060492,0.09101 -0.1280971,0.17649 -0.2019307,0.255757 -0.073834,0.07927 -0.1538958,0.152321 -0.2393017,0.218476 -0.085406,0.06616 -0.1761554,0.125411 -0.271364,0.1770836 -0.095209,0.051672 -0.1948761,0.095761 -0.2981178,0.1315795 -0.1032418,0.035819 -0.2100577,0.063368 -0.3195632,0.081963 C -8.6467889,-9.75964 -8.7589837,-9.75 -8.8729833,-9.75 m 0,0 L -11,-9.75 m 0,0 c -0.138071,0 -0.272874,-0.013991 -0.40307,-0.040633 -0.130195,-0.026642 -0.255782,-0.065934 -0.37542,-0.1165371 -0.119638,-0.050603 -0.233328,-0.112516 -0.339729,-0.184399 -0.1064,-0.07188 -0.205512,-0.153735 -0.295994,-0.244218 -0.09048,-0.09048 -0.172335,-0.189594 -0.244218,-0.295994 -0.07188,-0.106401 -0.133796,-0.220091 -0.184399,-0.339729 -0.0506,-0.119638 -0.0899,-0.245225 -0.116537,-0.37542 C -12.986009,-11.477126 -13,-11.611929 -13,-11.75 m 0,0 0,-3 m 0,0 46.896,0 m 0,0 0,7 m 0,0 6.9,0 m 0,0 0,13.05 m 0,0 3.1,0 m 0,0 0,14.9 m 0,0 -3.1,0 m 0,0 0,20.05 m 0,0 -22.796,0 m 0,0 0,-3 m 0,0 c 0,-0.138071 0.01399,-0.272875 0.04063,-0.40307 0.02664,-0.130195 0.06593,-0.255782 0.116537,-0.37542 0.0506,-0.119639 0.112516,-0.233328 0.184399,-0.339729 0.07188,-0.106401 0.153736,-0.205512 0.244218,-0.295995 0.09048,-0.09048 0.189594,-0.172335 0.295994,-0.244217 0.106401,-0.07188 0.220091,-0.133796 0.339729,-0.184399 0.119639,-0.0506 0.245225,-0.08989 0.375421,-0.116537 C 19.727126,35.263991 19.861929,35.25 20,35.25 m 0,0 2,0 m 0,0 c 0.114064,0 0.22632,0.0097 0.335883,0.02826 0.109562,0.01862 0.216431,0.04619 0.319719,0.08205 0.103289,0.03586 0.202998,0.07999 0.298242,0.131713 0.09524,0.05172 0.186021,0.111038 0.271448,0.177257 0.08543,0.06622 0.165501,0.13934 0.239339,0.218679 0.07384,0.07934 0.141437,0.164896 0.201914,0.255983 0.06048,0.09109 0.11383,0.187704 0.159174,0.289165 0.04534,0.101461 0.08268,0.207765 0.111118,0.318227 m 0,0 c 0.02845,0.110486 0.06579,0.216812 0.111148,0.318292 0.04536,0.10148 0.09873,0.198114 0.159221,0.289215 0.06049,0.0911 0.128115,0.176668 0.201975,0.256015 0.07386,0.07935 0.153959,0.152475 0.239411,0.218694 0.08545,0.06622 0.176256,0.125533 0.271527,0.177251 0.09527,0.05172 0.195007,0.09584 0.298323,0.131686 0.103317,0.03584 0.210213,0.0634 0.319802,0.082 0.109589,0.01859 0.221871,0.02822 0.335959,0.02819 m 0,0 8.126326,-0.0021 m 0,0 c 0.138045,-3.7e-5 0.272821,-0.01406 0.402988,-0.04073 0.130166,-0.02667 0.255724,-0.06598 0.375332,-0.116597 0.119609,-0.05062 0.233269,-0.112541 0.339641,-0.18443 0.106372,-0.07189 0.205455,-0.153742 0.295911,-0.244222 0.09045,-0.09048 0.172283,-0.189584 0.244143,-0.295975 0.07186,-0.106391 0.133754,-0.220067 0.18434,-0.339689 0.05059,-0.119622 0.08987,-0.24519 0.116497,-0.375364 C 35.986014,36.523354 36,36.388574 36,36.250529 m 0,0 L 36,33.25 m 0,0 -18,0 m 0,0 c -0.138071,0 -0.272874,0.01399 -0.403069,0.04063 -0.130196,0.02664 -0.255782,0.06593 -0.375421,0.116537 -0.119638,0.0506 -0.233328,0.112516 -0.339729,0.184399 -0.1064,0.07188 -0.205512,0.153735 -0.295994,0.244217 -0.09048,0.09048 -0.172335,0.189594 -0.244218,0.295995 -0.07188,0.106401 -0.133796,0.22009 -0.184399,0.339729 -0.0506,0.119638 -0.0899,0.245225 -0.116537,0.37542 C 16.013992,34.977125 16,35.111929 16,35.25 m 0,0 0,5 m 0,0 -3,0 m 0,0 0,-5 m 0,0 c 0,-0.138071 -0.01399,-0.272875 -0.04063,-0.40307 -0.02664,-0.130195 -0.06593,-0.255782 -0.116537,-0.37542 -0.0506,-0.119639 -0.112516,-0.233328 -0.184399,-0.339729 -0.07188,-0.106401 -0.153736,-0.205512 -0.244218,-0.295995 -0.09048,-0.09048 -0.189594,-0.172335 -0.295994,-0.244217 -0.106401,-0.07188 -0.220091,-0.133796 -0.339729,-0.184399 -0.119639,-0.0506 -0.245225,-0.08989 -0.375421,-0.116537 C 11.272874,33.263991 11.138071,33.25 11,33.25 m 0,0 -18,0 m 0,0 0,3.000529 m 0,0 c 0,0.138045 0.013986,0.272825 0.040619,0.402998 0.026633,0.130174 0.065912,0.255742 0.1164977,0.375364 0.050586,0.119622 0.112479,0.233298 0.1843394,0.339689 0.07186,0.106391 0.1536881,0.205496 0.2441437,0.295975 0.090456,0.09048 0.1895391,0.172334 0.2959108,0.244222 0.1063717,0.07189 0.2200317,0.133812 0.3396404,0.18443 0.1196087,0.05062 0.2451661,0.08993 0.3753327,0.116597 0.1301666,0.02667 0.2649424,0.04069 0.4029877,0.04073 m 0,0 7.9999996,0.0021 m 0,0 c 0.1140878,3e-5 0.226369,-0.0096 0.3359573,-0.02819 0.1095883,-0.01859 0.2164836,-0.04615 0.3197993,-0.082 0.1033157,-0.03584 0.203052,-0.07997 0.2983221,-0.131684 0.09527,-0.05172 0.1860743,-0.11103 0.2715258,-0.177249 0.085452,-0.06622 0.1655505,-0.139345 0.2394104,-0.218691 0.07386,-0.07935 0.1414806,-0.164913 0.2019757,-0.256013 0.060495,-0.0911 0.1138646,-0.187733 0.159222,-0.289212 0.045357,-0.101479 0.082702,-0.207804 0.111149,-0.318289 m 0,0 c 0.02844,-0.11046 0.065776,-0.216764 0.1111203,-0.318224 0.045344,-0.10146 0.098698,-0.198076 0.159175,-0.289162 0.060477,-0.09109 0.128077,-0.176641 0.2019144,-0.255979 0.073837,-0.07934 0.1539122,-0.15246 0.2393383,-0.218678 0.085426,-0.06622 0.1762038,-0.125531 0.2714469,-0.177254 0.095243,-0.05172 0.1949517,-0.09586 0.29824,-0.131712 0.1032882,-0.03585 0.2101561,-0.06343 0.3197177,-0.08205 C 6.6473464,35.259651 6.7596017,35.25 6.8736648,35.25 m 0,0 2.1263348,0 m 0,0 c 0.1380712,0 0.2728746,0.01399 0.4030697,0.04063 0.1301952,0.02664 0.2557822,0.06593 0.3754205,0.116537 0.1196384,0.0506 0.2333282,0.112516 0.3397292,0.184399 0.1064,0.07188 0.205512,0.153735 0.295994,0.244217 0.09048,0.09048 0.172335,0.189594 0.244218,0.295995 0.07188,0.106401 0.133796,0.22009 0.184399,0.339729 0.0506,0.119638 0.0899,0.245225 0.116537,0.37542 C 10.986008,36.977125 11,37.111929 11,37.25 m 0,0 0,3 m 0,0 -21,0"
       style="stroke:#000000"
       id="path4776"
       inkscape:connector-curvature="0"
       sodipodi:nodetypes="csssssssccccccccsssssssccccsssssssccsssssssccccsssssssccccccccccccccccccccccccsssssssccccsssssssccsssssssccccsssssssccccccsssssssccccccccsssssssccccccsssssssccccsssssssccsssssssccccsssssssccccc" />
    <!-- Circle -->
    <path
       style="stroke:#000000"
       d="m 7.5,20.75 c 0,0.06904 -0.007,0.136437 -0.020316,0.201535 -0.013321,0.0651 -0.032967,0.127891 -0.058269,0.18771 -0.025301,0.05982 -0.056258,0.116664 -0.092199,0.169865 -0.035941,0.0532 -0.076868,0.102756 -0.1221089,0.147997 -0.045241,0.04524 -0.094797,0.08617 -0.1479973,0.122109 -0.0532,0.03594 -0.1100452,0.0669 -0.1698644,0.0922 -0.059819,0.0253 -0.1226126,0.04495 -0.1877102,0.05827 C 6.6364373,21.743004 6.5690356,21.75 6.5,21.75 c -0.069036,0 -0.1364373,-0.007 -0.2015349,-0.02032 -0.065098,-0.01332 -0.1278911,-0.03297 -0.1877102,-0.05827 -0.059819,-0.0253 -0.1166641,-0.05626 -0.1698644,-0.0922 -0.0532,-0.03594 -0.1027562,-0.07687 -0.1479973,-0.122109 -0.045241,-0.04524 -0.086168,-0.0948 -0.1221089,-0.147997 -0.035941,-0.0532 -0.066898,-0.110046 -0.092199,-0.169865 -0.025301,-0.05982 -0.044948,-0.122613 -0.058269,-0.18771 C 5.5069956,20.886437 5.5,20.819036 5.5,20.75 c 0,-0.06904 0.007,-0.136437 0.020316,-0.201535 0.013321,-0.0651 0.032967,-0.127891 0.058269,-0.18771 0.025301,-0.05982 0.056258,-0.116664 0.092199,-0.169865 0.035941,-0.0532 0.076868,-0.102756 0.1221089,-0.147997 0.045241,-0.04524 0.094797,-0.08617 0.1479973,-0.122109 0.0532,-0.03594 0.1100452,-0.0669 0.1698644,-0.0922 0.059819,-0.0253 0.1226126,-0.04495 0.1877102,-0.05827 C 6.3635627,19.756996 6.4309644,19.75 6.5,19.75 c 0.069036,0 0.1364373,0.007 0.2015349,0.02032 0.065098,0.01332 0.1278911,0.03297 0.1877102,0.05827 0.059819,0.0253 0.1166641,0.05626 0.1698644,0.0922 0.0532,0.03594 0.1027562,0.07687 0.1479973,0.122109 0.045241,0.04524 0.086168,0.0948 0.1221089,0.147997 0.035941,0.0532 0.066898,0.110046 0.092199,0.169865 0.025301,0.05982 0.044948,0.122613 0.058269,0.18771 C 7.4930044,20.613563 7.5,20.680964 7.5,20.75 Z"
       id="circle4778"
       inkscape:connector-curvature="0"
       sodipodi:nodetypes="sssssssssssssssssssssssssssssssss" />
    <!-- Circle -->
    <path
       style="stroke:#000000"
       d="m 7.5,4.75 c 0,0.069036 -0.007,0.1364373 -0.020316,0.2015349 -0.013321,0.065098 -0.032967,0.1278911 -0.058269,0.1877102 -0.025301,0.059819 -0.056258,0.1166641 -0.092199,0.1698644 -0.035941,0.0532 -0.076868,0.1027562 -0.1221089,0.1479973 -0.045241,0.045241 -0.094797,0.086168 -0.1479973,0.1221089 -0.0532,0.035941 -0.1100452,0.066898 -0.1698644,0.092199 C 6.829426,5.6967164 6.7666325,5.7163627 6.7015349,5.7296836 6.6364373,5.7430044 6.5690356,5.75 6.5,5.75 6.4309644,5.75 6.3635627,5.7430044 6.2984651,5.7296836 6.2333675,5.7163627 6.170574,5.6967164 6.1107549,5.671415 6.0509357,5.6461137 5.9940908,5.6151572 5.9408905,5.5792157 5.8876901,5.5432743 5.8381343,5.5023479 5.7928932,5.4571068 5.7476521,5.4118657 5.7067257,5.3623099 5.6707843,5.3091095 5.6348428,5.2559092 5.6038863,5.1990643 5.578585,5.1392451 5.5532836,5.079426 5.5336373,5.0166325 5.5203164,4.9515349 5.5069956,4.8864373 5.5,4.8190356 5.5,4.75 c 0,-0.069036 0.007,-0.1364373 0.020316,-0.2015349 0.013321,-0.065098 0.032967,-0.1278911 0.058269,-0.1877102 0.025301,-0.059819 0.056258,-0.1166641 0.092199,-0.1698644 0.035941,-0.0532 0.076868,-0.1027562 0.1221089,-0.1479973 0.045241,-0.045241 0.094797,-0.086168 0.1479973,-0.1221089 0.0532,-0.035942 0.1100452,-0.066898 0.1698644,-0.092199 C 6.170574,3.8032836 6.2333675,3.7836373 6.2984651,3.7703164 6.3635627,3.7569956 6.4309644,3.75 6.5,3.75 c 0.069036,0 0.1364373,0.007 0.2015349,0.020316 0.065098,0.013321 0.1278911,0.032967 0.1877102,0.058269 0.059819,0.025301 0.1166641,0.056258 0.1698644,0.092199 0.0532,0.035941 0.1027562,0.076868 0.1479973,0.1221089 0.045241,0.045241 0.086168,0.094797 0.1221089,0.1479973 0.035941,0.0532 0.066898,0.1100452 0.092199,0.1698644 0.025301,0.059819 0.044948,0.1226126 0.058269,0.1877102 C 7.4930044,4.6135627 7.5,4.6809644 7.5,4.75 Z"
       id="circle4780"
       inkscape:connector-curvature="0"
       sodipodi:nodetypes="sssssssssssssssssssssssssssssssss" />
    <!-- Circle -->
    <path
       style="stroke:#000000"
       d="m 23.5,20.75 c 0,0.06904 -0.007,0.136437 -0.02032,0.201535 -0.01332,0.0651 -0.03297,0.127891 -0.05827,0.18771 -0.0253,0.05982 -0.05626,0.116664 -0.0922,0.169865 -0.03594,0.0532 -0.07687,0.102756 -0.122109,0.147997 -0.04524,0.04524 -0.0948,0.08617 -0.147997,0.122109 -0.0532,0.03594 -0.110046,0.0669 -0.169865,0.0922 -0.05982,0.0253 -0.122613,0.04495 -0.18771,0.05827 C 22.636437,21.743004 22.569036,21.75 22.5,21.75 c -0.06904,0 -0.136437,-0.007 -0.201535,-0.02032 -0.0651,-0.01332 -0.127891,-0.03297 -0.18771,-0.05827 -0.05982,-0.0253 -0.116664,-0.05626 -0.169865,-0.0922 -0.0532,-0.03594 -0.102756,-0.07687 -0.147997,-0.122109 -0.04524,-0.04524 -0.08617,-0.0948 -0.122109,-0.147997 -0.03594,-0.0532 -0.0669,-0.110046 -0.0922,-0.169865 -0.0253,-0.05982 -0.04495,-0.122613 -0.05827,-0.18771 C 21.506996,20.886437 21.5,20.819036 21.5,20.75 c 0,-0.06904 0.007,-0.136437 0.02032,-0.201535 0.01332,-0.0651 0.03297,-0.127891 0.05827,-0.18771 0.0253,-0.05982 0.05626,-0.116664 0.0922,-0.169865 0.03594,-0.0532 0.07687,-0.102756 0.122109,-0.147997 0.04524,-0.04524 0.0948,-0.08617 0.147997,-0.122109 0.0532,-0.03594 0.110046,-0.0669 0.169865,-0.0922 0.05982,-0.0253 0.122613,-0.04495 0.18771,-0.05827 C 22.363563,19.756996 22.430964,19.75 22.5,19.75 c 0.06904,0 0.136437,0.007 0.201535,0.02032 0.0651,0.01332 0.127891,0.03297 0.18771,0.05827 0.05982,0.0253 0.116664,0.05626 0.169865,0.0922 0.0532,0.03594 0.102756,0.07687 0.147997,0.122109 0.04524,0.04524 0.08617,0.0948 0.122109,0.147997 0.03594,0.0532 0.0669,0.110046 0.0922,0.169865 0.0253,0.05982 0.04495,0.122613 0.05827,0.18771 C 23.493004,20.613563 23.5,20.680964 23.5,20.75 Z"
       id="circle4782"
       inkscape:connector-curvature="0"
       sodipodi:nodetypes="sssssssssssssssssssssssssssssssss" />
    <!-- Circle -->
    <path
       style="stroke:#000000"
       d="m 23.5,4.75 c 0,0.069036 -0.007,0.1364373 -0.02032,0.2015349 -0.01332,0.065098 -0.03297,0.1278911 -0.05827,0.1877102 -0.0253,0.059819 -0.05626,0.1166641 -0.0922,0.1698644 -0.03594,0.0532 -0.07687,0.1027562 -0.122109,0.1479973 -0.04524,0.045241 -0.0948,0.086168 -0.147997,0.1221089 -0.0532,0.035941 -0.110046,0.066898 -0.169865,0.092199 -0.05982,0.025301 -0.122613,0.044948 -0.18771,0.058269 C 22.636437,5.7430044 22.569036,5.75 22.5,5.75 c -0.06904,0 -0.136437,-0.007 -0.201535,-0.020316 -0.0651,-0.013321 -0.127891,-0.032967 -0.18771,-0.058269 -0.05982,-0.025301 -0.116664,-0.056258 -0.169865,-0.092199 -0.0532,-0.035941 -0.102756,-0.076868 -0.147997,-0.1221089 -0.04524,-0.045241 -0.08617,-0.094797 -0.122109,-0.1479973 -0.03594,-0.0532 -0.0669,-0.1100452 -0.0922,-0.1698644 -0.0253,-0.059819 -0.04495,-0.1226126 -0.05827,-0.1877102 C 21.506996,4.8864373 21.5,4.8190356 21.5,4.75 c 0,-0.069036 0.007,-0.1364373 0.02032,-0.2015349 0.01332,-0.065098 0.03297,-0.1278911 0.05827,-0.1877102 0.0253,-0.059819 0.05626,-0.1166641 0.0922,-0.1698644 0.03594,-0.0532 0.07687,-0.1027562 0.122109,-0.1479973 0.04524,-0.045241 0.0948,-0.086168 0.147997,-0.1221089 0.0532,-0.035942 0.110046,-0.066898 0.169865,-0.092199 0.05982,-0.025301 0.122613,-0.044948 0.18771,-0.058269 C 22.363563,3.7569956 22.430964,3.75 22.5,3.75 c 0.06904,0 0.136437,0.007 0.201535,0.020316 0.0651,0.013321 0.127891,0.032967 0.18771,0.058269 0.05982,0.025301 0.116664,0.056258 0.169865,0.092199 0.0532,0.035941 0.102756,0.076868 0.147997,0.1221089 0.04524,0.045241 0.08617,0.094797 0.122109,0.1479973 0.03594,0.0532 0.0669,0.1100452 0.0922,0.1698644 0.0253,0.059819 0.04495,0.1226126 0.05827,0.1877102 C 23.493004,4.6135627 23.5,4.6809644 23.5,4.75 Z"
       id="circle4784"
       inkscape:connector-curvature="0"
       sodipodi:nodetypes="sssssssssssssssssssssssssssssssss" />
    <!-- Circle -->
    <path
       style="stroke:#000000"
       d="m 23.5,12.75 c 0,0.06904 -0.007,0.136437 -0.02032,0.201535 -0.01332,0.0651 -0.03297,0.127891 -0.05827,0.18771 -0.0253,0.05982 -0.05626,0.116664 -0.0922,0.169865 -0.03594,0.0532 -0.07687,0.102756 -0.122109,0.147997 -0.04524,0.04524 -0.0948,0.08617 -0.147997,0.122109 -0.0532,0.03594 -0.110046,0.0669 -0.169865,0.0922 -0.05982,0.0253 -0.122613,0.04495 -0.18771,0.05827 C 22.636437,13.743004 22.569036,13.75 22.5,13.75 c -0.06904,0 -0.136437,-0.007 -0.201535,-0.02032 -0.0651,-0.01332 -0.127891,-0.03297 -0.18771,-0.05827 -0.05982,-0.0253 -0.116664,-0.05626 -0.169865,-0.0922 -0.0532,-0.03594 -0.102756,-0.07687 -0.147997,-0.122109 -0.04524,-0.04524 -0.08617,-0.0948 -0.122109,-0.147997 -0.03594,-0.0532 -0.0669,-0.110046 -0.0922,-0.169865 -0.0253,-0.05982 -0.04495,-0.122613 -0.05827,-0.18771 C 21.506996,12.886437 21.5,12.819036 21.5,12.75 c 0,-0.06904 0.007,-0.136437 0.02032,-0.201535 0.01332,-0.0651 0.03297,-0.127891 0.05827,-0.18771 0.0253,-0.05982 0.05626,-0.116664 0.0922,-0.169865 0.03594,-0.0532 0.07687,-0.102756 0.122109,-0.147997 0.04524,-0.04524 0.0948,-0.08617 0.147997,-0.122109 0.0532,-0.03594 0.110046,-0.0669 0.169865,-0.0922 0.05982,-0.0253 0.122613,-0.04495 0.18771,-0.05827 C 22.363563,11.756996 22.430964,11.75 22.5,11.75 c 0.06904,0 0.136437,0.007 0.201535,0.02032 0.0651,0.01332 0.127891,0.03297 0.18771,0.05827 0.05982,0.0253 0.116664,0.05626 0.169865,0.0922 0.0532,0.03594 0.102756,0.07687 0.147997,0.122109 0.04524,0.04524 0.08617,0.0948 0.122109,0.147997 0.03594,0.0532 0.0669,0.110046 0.0922,0.169865 0.0253,0.05982 0.04495,0.122613 0.05827,0.18771 C 23.493004,12.613563 23.5,12.680964 23.5,12.75 Z"
       id="circle4786"
       inkscape:connector-curvature="0"
       sodipodi:nodetypes="sssssssssssssssssssssssssssssssss" />
    <!-- Circle -->
    <path
       style="stroke:#000000"
       d="m 15.5,20.75 c 0,0.06904 -0.007,0.136437 -0.02032,0.201535 -0.01332,0.0651 -0.03297,0.127891 -0.05827,0.18771 -0.0253,0.05982 -0.05626,0.116664 -0.0922,0.169865 -0.03594,0.0532 -0.07687,0.102756 -0.122109,0.147997 -0.04524,0.04524 -0.0948,0.08617 -0.147997,0.122109 -0.0532,0.03594 -0.110046,0.0669 -0.169865,0.0922 -0.05982,0.0253 -0.122613,0.04495 -0.18771,0.05827 C 14.636437,21.743004 14.569036,21.75 14.5,21.75 c -0.06904,0 -0.136437,-0.007 -0.201535,-0.02032 -0.0651,-0.01332 -0.127891,-0.03297 -0.18771,-0.05827 -0.05982,-0.0253 -0.116664,-0.05626 -0.169865,-0.0922 -0.0532,-0.03594 -0.102756,-0.07687 -0.147997,-0.122109 -0.04524,-0.04524 -0.08617,-0.0948 -0.122109,-0.147997 -0.03594,-0.0532 -0.0669,-0.110046 -0.0922,-0.169865 -0.0253,-0.05982 -0.04495,-0.122613 -0.05827,-0.18771 C 13.506996,20.886437 13.5,20.819036 13.5,20.75 c 0,-0.06904 0.007,-0.136437 0.02032,-0.201535 0.01332,-0.0651 0.03297,-0.127891 0.05827,-0.18771 0.0253,-0.05982 0.05626,-0.116664 0.0922,-0.169865 0.03594,-0.0532 0.07687,-0.102756 0.122109,-0.147997 0.04524,-0.04524 0.0948,-0.08617 0.147997,-0.122109 0.0532,-0.03594 0.110046,-0.0669 0.169865,-0.0922 0.05982,-0.0253 0.122613,-0.04495 0.18771,-0.05827 C 14.363563,19.756996 14.430964,19.75 14.5,19.75 c 0.06904,0 0.136437,0.007 0.201535,0.02032 0.0651,0.01332 0.127891,0.03297 0.18771,0.05827 0.05982,0.0253 0.116664,0.05626 0.169865,0.0922 0.0532,0.03594 0.102756,0.07687 0.147997,0.122109 0.04524,0.04524 0.08617,0.0948 0.122109,0.147997 0.03594,0.0532 0.0669,0.110046 0.0922,0.169865 0.0253,0.05982 0.04495,0.122613 0.05827,0.18771 C 15.493004,20.613563 15.5,20.680964 15.5,20.75 Z"
       id="circle4788"
       inkscape:connector-curvature="0"
       sodipodi:nodetypes="sssssssssssssssssssssssssssssssss" />
    <!-- Circle -->
    <path
       style="stroke:#000000"
       d="m 15.5,4.75 c 0,0.069036 -0.007,0.1364373 -0.02032,0.2015349 -0.01332,0.065098 -0.03297,0.1278911 -0.05827,0.1877102 -0.0253,0.059819 -0.05626,0.1166641 -0.0922,0.1698644 -0.03594,0.0532 -0.07687,0.1027562 -0.122109,0.1479973 -0.04524,0.045241 -0.0948,0.086168 -0.147997,0.1221089 -0.0532,0.035941 -0.110046,0.066898 -0.169865,0.092199 -0.05982,0.025301 -0.122613,0.044948 -0.18771,0.058269 C 14.636437,5.7430044 14.569036,5.75 14.5,5.75 c -0.06904,0 -0.136437,-0.007 -0.201535,-0.020316 -0.0651,-0.013321 -0.127891,-0.032967 -0.18771,-0.058269 -0.05982,-0.025301 -0.116664,-0.056258 -0.169865,-0.092199 -0.0532,-0.035941 -0.102756,-0.076868 -0.147997,-0.1221089 -0.04524,-0.045241 -0.08617,-0.094797 -0.122109,-0.1479973 -0.03594,-0.0532 -0.0669,-0.1100452 -0.0922,-0.1698644 -0.0253,-0.059819 -0.04495,-0.1226126 -0.05827,-0.1877102 C 13.506996,4.8864373 13.5,4.8190356 13.5,4.75 c 0,-0.069036 0.007,-0.1364373 0.02032,-0.2015349 0.01332,-0.065098 0.03297,-0.1278911 0.05827,-0.1877102 0.0253,-0.059819 0.05626,-0.1166641 0.0922,-0.1698644 0.03594,-0.0532 0.07687,-0.1027562 0.122109,-0.1479973 0.04524,-0.045241 0.0948,-0.086168 0.147997,-0.1221089 0.0532,-0.035942 0.110046,-0.066898 0.169865,-0.092199 0.05982,-0.025301 0.122613,-0.044948 0.18771,-0.058269 C 14.363563,3.7569956 14.430964,3.75 14.5,3.75 c 0.06904,0 0.136437,0.007 0.201535,0.020316 0.0651,0.013321 0.127891,0.032967 0.18771,0.058269 0.05982,0.025301 0.116664,0.056258 0.169865,0.092199 0.0532,0.035941 0.102756,0.076868 0.147997,0.1221089 0.04524,0.045241 0.08617,0.094797 0.122109,0.1479973 0.03594,0.0532 0.0669,0.1100452 0.0922,0.1698644 0.0253,0.059819 0.04495,0.1226126 0.05827,0.1877102 C 15.493004,4.6135627 15.5,4.6809644 15.5,4.75 Z"
       id="circle4790"
       inkscape:connector-curvature="0"
       sodipodi:nodetypes="sssssssssssssssssssssssssssssssss" />
    <!-- Circle -->
    <path
       style="stroke:#000000"
       d="m 7.5,12.75 c 0,0.06904 -0.007,0.136437 -0.020316,0.201535 -0.013321,0.0651 -0.032967,0.127891 -0.058269,0.18771 -0.025301,0.05982 -0.056258,0.116664 -0.092199,0.169865 -0.035941,0.0532 -0.076868,0.102756 -0.1221089,0.147997 -0.045241,0.04524 -0.094797,0.08617 -0.1479973,0.122109 -0.0532,0.03594 -0.1100452,0.0669 -0.1698644,0.0922 -0.059819,0.0253 -0.1226126,0.04495 -0.1877102,0.05827 C 6.6364373,13.743004 6.5690356,13.75 6.5,13.75 c -0.069036,0 -0.1364373,-0.007 -0.2015349,-0.02032 -0.065098,-0.01332 -0.1278911,-0.03297 -0.1877102,-0.05827 -0.059819,-0.0253 -0.1166641,-0.05626 -0.1698644,-0.0922 -0.0532,-0.03594 -0.1027562,-0.07687 -0.1479973,-0.122109 -0.045241,-0.04524 -0.086168,-0.0948 -0.1221089,-0.147997 -0.035941,-0.0532 -0.066898,-0.110046 -0.092199,-0.169865 -0.025301,-0.05982 -0.044948,-0.122613 -0.058269,-0.18771 C 5.5069956,12.886437 5.5,12.819036 5.5,12.75 c 0,-0.06904 0.007,-0.136437 0.020316,-0.201535 0.013321,-0.0651 0.032967,-0.127891 0.058269,-0.18771 0.025301,-0.05982 0.056258,-0.116664 0.092199,-0.169865 0.035941,-0.0532 0.076868,-0.102756 0.1221089,-0.147997 0.045241,-0.04524 0.094797,-0.08617 0.1479973,-0.122109 0.0532,-0.03594 0.1100452,-0.0669 0.1698644,-0.0922 0.059819,-0.0253 0.1226126,-0.04495 0.1877102,-0.05827 C 6.3635627,11.756996 6.4309644,11.75 6.5,11.75 c 0.069036,0 0.1364373,0.007 0.2015349,0.02032 0.065098,0.01332 0.1278911,0.03297 0.1877102,0.05827 0.059819,0.0253 0.1166641,0.05626 0.1698644,0.0922 0.0532,0.03594 0.1027562,0.07687 0.1479973,0.122109 0.045241,0.04524 0.086168,0.0948 0.1221089,0.147997 0.035941,0.0532 0.066898,0.110046 0.092199,0.169865 0.025301,0.05982 0.044948,0.122613 0.058269,0.18771 C 7.4930044,12.613563 7.5,12.680964 7.5,12.75 Z"
       id="circle4792"
       inkscape:connector-curvature="0"
       sodipodi:nodetypes="sssssssssssssssssssssssssssssssss" />
    <!-- Circle -->
    <path
       style="stroke:#000000"
       d="m 19.5,12.75 c 0,0.345178 -0.03498,0.682186 -0.101582,1.007674 -0.0666,0.325488 -0.164836,0.639456 -0.291343,0.938552 -0.126507,0.299096 -0.281289,0.58332 -0.460996,0.849322 -0.179708,0.266001 -0.38434,0.51378 -0.610545,0.739986 -0.226206,0.226205 -0.473985,0.430837 -0.739986,0.610545 -0.266002,0.179707 -0.550226,0.334489 -0.849322,0.460996 -0.299096,0.126507 -0.613064,0.224738 -0.938552,0.291343 C 15.182186,17.715022 14.845178,17.75 14.5,17.75 c -0.345178,0 -0.682186,-0.03498 -1.007674,-0.101582 -0.325488,-0.0666 -0.639456,-0.164836 -0.938552,-0.291343 -0.299096,-0.126507 -0.58332,-0.281289 -0.849322,-0.460996 -0.266001,-0.179708 -0.51378,-0.38434 -0.739986,-0.610545 C 10.738261,16.059328 10.533629,15.811549 10.353921,15.545548 10.174214,15.279546 10.019432,14.995322 9.8929248,14.696226 9.7664179,14.39713 9.6681867,14.083162 9.6015822,13.757674 9.5349778,13.432186 9.5,13.095178 9.5,12.75 9.5,12.404822 9.5349778,12.067814 9.6015822,11.742326 9.6681867,11.416838 9.7664179,11.10287 9.8929248,10.803774 10.019432,10.504678 10.174214,10.220454 10.353921,9.9544525 10.533629,9.6884507 10.738261,9.4406716 10.964466,9.2144661 11.190672,8.9882606 11.438451,8.7836287 11.704452,8.6039215 11.970454,8.4242142 12.254678,8.2694317 12.553774,8.1429248 12.85287,8.0164179 13.166838,7.9181867 13.492326,7.8515822 13.817814,7.7849778 14.154822,7.75 14.5,7.75 c 0.345178,0 0.682186,0.034978 1.007674,0.1015822 0.325488,0.066604 0.639456,0.1648357 0.938552,0.2913426 0.299096,0.1265069 0.58332,0.2812894 0.849322,0.4609967 0.266001,0.1797072 0.51378,0.3843391 0.739986,0.6105446 0.226205,0.2262055 0.430837,0.4739846 0.610545,0.7399864 0.179707,0.2660015 0.334489,0.5502255 0.460996,0.8493215 0.126507,0.299096 0.224738,0.613064 0.291343,0.938552 C 19.465022,12.067814 19.5,12.404822 19.5,12.75 Z"
       id="circle4794"
       inkscape:connector-curvature="0"
       sodipodi:nodetypes="sssssssssssssssssssssssssssssssss" />
    <!-- Circle -->
    <path
       style="stroke:#000000"
       d="m 33.177072,18.872934 c 0,0.268894 -0.02725,0.531423 -0.07913,0.784978 -0.05188,0.253555 -0.128407,0.498136 -0.226955,0.731132 -0.09855,0.232995 -0.219125,0.454406 -0.359117,0.661622 -0.139992,0.207215 -0.2994,0.400235 -0.475614,0.576449 -0.176214,0.176214 -0.369234,0.335622 -0.576449,0.475614 -0.207216,0.139992 -0.428627,0.260568 -0.661622,0.359117 -0.232996,0.09855 -0.477577,0.175071 -0.731132,0.226955 -0.253555,0.05188 -0.516084,0.07913 -0.784978,0.07913 -0.268894,0 -0.531423,-0.02725 -0.784978,-0.07913 -0.253555,-0.05188 -0.498136,-0.128407 -0.731132,-0.226955 -0.232995,-0.09855 -0.454406,-0.219125 -0.661622,-0.359117 -0.207215,-0.139992 -0.400235,-0.2994 -0.576449,-0.475614 -0.176214,-0.176214 -0.335622,-0.369234 -0.475614,-0.576449 -0.139992,-0.207216 -0.260568,-0.428627 -0.359117,-0.661622 -0.09855,-0.232996 -0.175071,-0.477577 -0.226955,-0.731132 -0.05188,-0.253555 -0.07913,-0.516084 -0.07913,-0.784978 0,-0.268894 0.02725,-0.531423 0.07913,-0.784978 0.05188,-0.253555 0.128407,-0.498136 0.226955,-0.731132 0.09855,-0.232995 0.219125,-0.454406 0.359117,-0.661622 0.139992,-0.207215 0.2994,-0.400235 0.475614,-0.576449 0.176214,-0.176214 0.369234,-0.335622 0.576449,-0.475614 0.207216,-0.139992 0.428627,-0.260568 0.661622,-0.359117 0.232996,-0.09855 0.477577,-0.175071 0.731132,-0.226955 0.253555,-0.05189 0.516084,-0.07913 0.784978,-0.07913 0.268894,0 0.531423,0.02725 0.784978,0.07913 0.253555,0.05188 0.498136,0.128407 0.731132,0.226955 0.232995,0.09855 0.454406,0.219125 0.661622,0.359117 0.207215,0.139992 0.400235,0.2994 0.576449,0.475614 0.176214,0.176214 0.335622,0.369234 0.475614,0.576449 0.139992,0.207216 0.260568,0.428627 0.359117,0.661622 0.09855,0.232996 0.175071,0.477577 0.226955,0.731132 0.05189,0.253555 0.07913,0.516084 0.07913,0.784978 z"
       id="circle4796"
       inkscape:connector-curvature="0"
       sodipodi:nodetypes="sssssssssssssssssssssssssssssssss" />
    <!-- Circle -->
    <path
       style="stroke:#000000"
       d="m 24.517934,-2.0320725 c 0,0.2688936 -0.02725,0.5314232 -0.07913,0.7849783 -0.05188,0.25355515 -0.128407,0.49813577 -0.226955,0.73113144 -0.09855,0.23299568 -0.219125,0.45440641 -0.359117,0.66162175 -0.139992,0.20721533 -0.2994,0.40023527 -0.475614,0.57644936 -0.176214,0.17621408 -0.369234,0.33562235 -0.576449,0.47561425 -0.207216,0.1399919 -0.428627,0.2605675 -0.661622,0.3591164 -0.232996,0.098549 -0.477577,0.175071 -0.731132,0.2269558 -0.253555,0.051885 -0.516084,0.079133 -0.784978,0.079133 -0.268894,0 -0.531423,-0.027248 -0.784978,-0.079133 C 19.584401,1.73191 19.33982,1.6553879 19.106824,1.556839 18.873829,1.4582901 18.652418,1.3377145 18.445202,1.1977226 18.237987,1.0577307 18.044967,0.89832243 17.868753,0.72210835 17.692539,0.54589426 17.533131,0.35287432 17.393139,0.14565899 c -0.139992,-0.20721534 -0.260568,-0.42862607 -0.359117,-0.66162175 -0.09855,-0.23299567 -0.175071,-0.47757629 -0.226955,-0.73113144 -0.05188,-0.2535551 -0.07913,-0.5160847 -0.07913,-0.7849783 0,-0.2688936 0.02725,-0.5314232 0.07913,-0.7849784 0.05188,-0.2535551 0.128407,-0.4981357 0.226955,-0.7311314 0.09855,-0.2329957 0.219125,-0.4544064 0.359117,-0.6616217 0.139992,-0.2072154 0.2994,-0.4002353 0.475614,-0.5764494 0.176214,-0.1762141 0.369234,-0.3356223 0.576449,-0.4756143 0.207216,-0.1399919 0.428627,-0.2605675 0.661622,-0.3591164 0.232996,-0.098549 0.477577,-0.175071 0.731132,-0.2269558 0.253555,-0.051885 0.516084,-0.079133 0.784978,-0.079133 0.268894,0 0.531423,0.027248 0.784978,0.079133 0.253555,0.051885 0.498136,0.1284069 0.731132,0.2269558 0.232995,0.098549 0.454406,0.2191245 0.661622,0.3591164 0.207215,0.139992 0.400235,0.2994002 0.576449,0.4756143 0.176214,0.1762141 0.335622,0.369234 0.475614,0.5764494 0.139992,0.2072153 0.260568,0.428626 0.359117,0.6616217 0.09855,0.2329957 0.175071,0.4775763 0.226955,0.7311314 0.05188,0.2535552 0.07913,0.5160848 0.07913,0.7849784 z"
       id="circle4798"
       inkscape:connector-curvature="0"
       sodipodi:nodetypes="sssssssssssssssssssssssssssssssss" />
    <!-- Circle -->
    <path
       style="stroke:#000000"
       d="m 3.6129275,6.6270652 c 0,0.2688936 -0.027248,0.5314232 -0.079133,0.7849783 C 3.48191,7.6655986 3.4053879,7.9101792 3.306839,8.1431749 3.2082902,8.3761706 3.0877145,8.5975813 2.9477226,8.8047966 2.8077307,9.012012 2.6483224,9.2050319 2.4721083,9.381246 2.2958942,9.5574601 2.1028743,9.7168683 1.895659,9.8568602 1.6884436,9.9968521 1.4670329,10.117428 1.2340372,10.215977 c -0.2329957,0.09855 -0.47757627,0.175071 -0.73113138,0.226955 -0.25355511,0.05188 -0.5160847,0.07913 -0.78497833,0.07913 -0.26889363,0 -0.53142322,-0.02725 -0.78497829,-0.07913 -0.2535551,-0.05188 -0.4981358,-0.128407 -0.7311314,-0.226955 C -2.0311779,10.117428 -2.2525886,9.9968521 -2.459804,9.8568602 -2.6670193,9.7168683 -2.8600393,9.5574601 -3.0362533,9.381246 -3.2124674,9.2050319 -3.3718757,9.012012 -3.5118676,8.8047966 -3.6518595,8.5975813 -3.7724352,8.3761706 -3.870984,8.1431749 -3.9695329,7.9101792 -4.046055,7.6655986 -4.0979399,7.4120435 c -0.051885,-0.2535551 -0.079133,-0.5160847 -0.079133,-0.7849783 0,-0.2688936 0.027248,-0.5314232 0.079133,-0.7849784 0.051885,-0.2535551 0.128407,-0.4981357 0.2269559,-0.7311314 0.098549,-0.2329957 0.2191244,-0.4544064 0.3591164,-0.6616217 0.1399919,-0.2072154 0.2994001,-0.4002353 0.4756142,-0.5764494 0.1762141,-0.1762141 0.3692341,-0.3356223 0.5764494,-0.4756143 0.2072154,-0.1399919 0.4286261,-0.2605675 0.6616218,-0.3591164 0.2329957,-0.098549 0.4775763,-0.175071 0.7311314,-0.2269558 0.25355515,-0.051885 0.51608475,-0.079133 0.78497839,-0.079133 0.26889364,0 0.53142324,0.027248 0.78497836,0.079133 0.25355512,0.051885 0.49813575,0.1284069 0.73113145,0.2269558 0.2329957,0.098549 0.4544064,0.2191245 0.6616218,0.3591164 0.2072153,0.139992 0.4002353,0.2994002 0.5764494,0.4756143 0.176214,0.1762141 0.3356223,0.369234 0.4756142,0.5764494 0.139992,0.2072153 0.2605676,0.428626 0.3591164,0.6616217 0.098549,0.2329957 0.175071,0.4775763 0.2269559,0.7311314 0.051885,0.2535552 0.079133,0.5160848 0.079133,0.7849784 z"
       id="circle4800"
       inkscape:connector-curvature="0"
       sodipodi:nodetypes="sssssssssssssssssssssssssssssssss" />
    <!-- Circle -->
    <path
       style="stroke:#000000"
       d="m 12.272065,27.532072 c 0,0.268894 -0.02725,0.531423 -0.07913,0.784978 -0.05188,0.253556 -0.128407,0.498136 -0.226955,0.731132 -0.09855,0.232996 -0.219125,0.454406 -0.359117,0.661622 -0.139992,0.207215 -0.2994,0.400235 -0.475614,0.576449 -0.176214,0.176214 -0.369234,0.335622 -0.57645,0.475614 -0.207215,0.139992 -0.428626,0.260568 -0.6616214,0.359117 -0.2329957,0.09855 -0.4775764,0.175071 -0.7311315,0.226955 -0.2535551,0.05188 -0.5160847,0.07913 -0.7849784,0.07913 -0.2688936,0 -0.5314232,-0.02725 -0.7849784,-0.07913 C 7.3385312,31.296054 7.0939506,31.219532 6.8609549,31.120984 6.6279592,31.022435 6.4065485,30.901859 6.1993332,30.761867 5.9921178,30.621875 5.7990979,30.462467 5.6228838,30.286253 5.4466697,30.110039 5.2872615,29.917019 5.1472695,29.709803 5.0072776,29.502588 4.886702,29.281177 4.7881531,29.048182 4.6896042,28.815186 4.6130821,28.570605 4.5611973,28.31705 c -0.051885,-0.253555 -0.079133,-0.516084 -0.079133,-0.784978 0,-0.268894 0.027248,-0.531423 0.079133,-0.784978 0.051885,-0.253555 0.1284069,-0.498136 0.2269558,-0.731132 0.098549,-0.232995 0.2191245,-0.454406 0.3591164,-0.661622 0.139992,-0.207215 0.2994002,-0.400235 0.4756143,-0.576449 0.1762141,-0.176214 0.369234,-0.335622 0.5764494,-0.475614 0.2072153,-0.139992 0.428626,-0.260568 0.6616217,-0.359117 0.2329957,-0.09855 0.4775763,-0.175071 0.7311314,-0.226955 0.2535552,-0.05188 0.5160848,-0.07913 0.7849784,-0.07913 0.2688937,0 0.5314233,0.02725 0.7849784,0.07913 0.2535551,0.05188 0.4981358,0.128407 0.7311315,0.226955 0.2329954,0.09855 0.4544064,0.219125 0.6616214,0.359117 0.207216,0.139992 0.400236,0.2994 0.57645,0.475614 0.176214,0.176214 0.335622,0.369234 0.475614,0.576449 0.139992,0.207216 0.260568,0.428626 0.359117,0.661622 0.09855,0.232996 0.175071,0.477576 0.226955,0.731132 0.05188,0.253555 0.07913,0.516084 0.07913,0.784978 z"
       id="circle4802"
       inkscape:connector-curvature="0"
       sodipodi:nodetypes="sssssssssssssssssssssssssssssssss" />
    <!-- Circle -->
    <path
       style="stroke:#000000"
       d="m 24.517934,27.532072 c 0,0.268894 -0.02725,0.531423 -0.07913,0.784978 -0.05188,0.253555 -0.128407,0.498136 -0.226955,0.731132 -0.09855,0.232995 -0.219125,0.454406 -0.359117,0.661622 -0.139992,0.207215 -0.2994,0.400235 -0.475614,0.576449 -0.176214,0.176214 -0.369234,0.335622 -0.576449,0.475614 -0.207216,0.139992 -0.428627,0.260568 -0.661622,0.359117 -0.232996,0.09855 -0.477577,0.175071 -0.731132,0.226955 -0.253555,0.05188 -0.516084,0.07913 -0.784978,0.07913 -0.268894,0 -0.531423,-0.02725 -0.784978,-0.07913 -0.253555,-0.05188 -0.498136,-0.128407 -0.731132,-0.226955 -0.232995,-0.09855 -0.454406,-0.219125 -0.661622,-0.359117 -0.207215,-0.139992 -0.400235,-0.2994 -0.576449,-0.475614 -0.176214,-0.176214 -0.335622,-0.369234 -0.475614,-0.576449 -0.139992,-0.207216 -0.260568,-0.428627 -0.359117,-0.661622 -0.09855,-0.232996 -0.175071,-0.477577 -0.226955,-0.731132 -0.05188,-0.253555 -0.07913,-0.516084 -0.07913,-0.784978 0,-0.268894 0.02725,-0.531423 0.07913,-0.784978 0.05188,-0.253555 0.128407,-0.498136 0.226955,-0.731132 0.09855,-0.232995 0.219125,-0.454406 0.359117,-0.661622 0.139992,-0.207215 0.2994,-0.400235 0.475614,-0.576449 0.176214,-0.176214 0.369234,-0.335622 0.576449,-0.475614 0.207216,-0.139992 0.428627,-0.260568 0.661622,-0.359117 0.232996,-0.09855 0.477577,-0.175071 0.731132,-0.226955 0.253555,-0.05188 0.516084,-0.07913 0.784978,-0.07913 0.268894,0 0.531423,0.02725 0.784978,0.07913 0.253555,0.05188 0.498136,0.128407 0.731132,0.226955 0.232995,0.09855 0.454406,0.219125 0.661622,0.359117 0.207215,0.139992 0.400235,0.2994 0.576449,0.475614 0.176214,0.176214 0.335622,0.369234 0.475614,0.576449 0.139992,0.207216 0.260568,0.428627 0.359117,0.661622 0.09855,0.232996 0.175071,0.477577 0.226955,0.731132 0.05188,0.253555 0.07913,0.516084 0.07913,0.784978 z"
       id="circle4804"
       inkscape:connector-curvature="0"
       sodipodi:nodetypes="sssssssssssssssssssssssssssssssss" />
    <!-- Circle -->
    <path
       style="stroke:#000000"
       d="m 3.6129275,18.872934 c 0,0.268894 -0.027248,0.531423 -0.079133,0.784978 -0.051885,0.253555 -0.1284069,0.498136 -0.2269558,0.731132 -0.098549,0.232995 -0.2191245,0.454406 -0.3591164,0.661622 -0.139992,0.207215 -0.2994002,0.400235 -0.4756143,0.576449 -0.1762141,0.176214 -0.369234,0.335622 -0.5764494,0.475614 -0.2072153,0.139992 -0.428626,0.260568 -0.6616217,0.359117 -0.2329957,0.09855 -0.47757634,0.175071 -0.73113145,0.226955 -0.25355512,0.05188 -0.51608472,0.07913 -0.78497836,0.07913 -0.26889364,0 -0.53142324,-0.02725 -0.78497839,-0.07913 -0.2535551,-0.05188 -0.4981357,-0.128407 -0.7311314,-0.226955 -0.2329957,-0.09855 -0.4544064,-0.219125 -0.6616217,-0.359117 -0.2072154,-0.139992 -0.4002353,-0.2994 -0.5764494,-0.475614 -0.1762141,-0.176214 -0.3356223,-0.369234 -0.4756143,-0.576449 -0.1399919,-0.207216 -0.2605675,-0.428627 -0.3591164,-0.661622 -0.098549,-0.232996 -0.175071,-0.477577 -0.2269558,-0.731132 -0.051885,-0.253555 -0.079133,-0.516084 -0.079133,-0.784978 0,-0.268894 0.027248,-0.531423 0.079133,-0.784978 0.051885,-0.253555 0.1284069,-0.498136 0.2269558,-0.731132 0.098549,-0.232995 0.2191245,-0.454406 0.3591164,-0.661622 0.139992,-0.207215 0.2994002,-0.400235 0.4756143,-0.576449 0.1762141,-0.176214 0.369234,-0.335622 0.5764494,-0.475614 0.2072153,-0.139992 0.428626,-0.260568 0.6616217,-0.359117 0.2329957,-0.09855 0.4775763,-0.175071 0.7311314,-0.226955 0.25355515,-0.05189 0.51608475,-0.07913 0.78497839,-0.07913 0.26889364,0 0.53142324,0.02725 0.78497836,0.07913 0.25355511,0.05188 0.49813575,0.128407 0.73113145,0.226955 0.2329957,0.09855 0.4544064,0.219125 0.6616217,0.359117 0.2072154,0.139992 0.4002353,0.2994 0.5764494,0.475614 0.1762141,0.176214 0.3356223,0.369234 0.4756143,0.576449 0.1399919,0.207216 0.2605675,0.428627 0.3591164,0.661622 0.098549,0.232996 0.175071,0.477577 0.2269558,0.731132 0.051885,0.253555 0.079133,0.516084 0.079133,0.784978 z"
       id="circle4806"
       inkscape:connector-curvature="0"
       sodipodi:nodetypes="sssssssssssssssssssssssssssssssss" />
    <!-- Circle -->
    <path
       style="stroke:#000000"
       d="m 12.272065,-2.0320725 c 0,0.2688936 -0.02725,0.5314233 -0.07913,0.7849784 -0.05188,0.2535551 -0.128407,0.49813573 -0.226955,0.73113142 -0.09855,0.23299568 -0.219125,0.45440642 -0.359117,0.66162176 -0.139992,0.20721535 -0.2994,0.40023529 -0.475614,0.57644937 C 10.955032,0.89832254 10.762012,1.0577308 10.554796,1.1977227 10.347581,1.3377146 10.12617,1.4582902 9.8931745,1.5568391 9.6601789,1.6553879 9.4155982,1.73191 9.1620431,1.7837949 8.908488,1.8356798 8.6459583,1.8629274 8.3770647,1.8629274 c -0.2688936,0 -0.5314232,-0.027248 -0.7849783,-0.079133 C 7.3385312,1.7319099 7.0939506,1.6553878 6.8609549,1.5568389 6.6279593,1.4582901 6.4065485,1.3377144 6.1993332,1.1977225 5.9921179,1.0577306 5.7990979,0.89832237 5.6228838,0.72210829 5.4466697,0.54589421 5.2872615,0.35287427 5.1472696,0.14565895 5.0072776,-0.06155638 4.886702,-0.28296711 4.7881531,-0.51596278 4.6896043,-0.74895845 4.6130822,-0.99353906 4.5611973,-1.2470942 c -0.051885,-0.2535551 -0.079133,-0.5160847 -0.079133,-0.7849783 0,-0.2688936 0.027248,-0.5314232 0.079133,-0.7849784 0.051885,-0.2535551 0.128407,-0.4981357 0.2269559,-0.7311314 0.098549,-0.2329957 0.2191245,-0.4544064 0.3591164,-0.6616217 0.1399919,-0.2072154 0.2994002,-0.4002353 0.4756143,-0.5764494 0.1762141,-0.1762141 0.369234,-0.3356223 0.5764493,-0.4756143 0.2072154,-0.1399919 0.4286261,-0.2605675 0.6616218,-0.3591164 0.2329957,-0.098549 0.4775763,-0.175071 0.7311314,-0.2269558 0.2535552,-0.051885 0.5160848,-0.079133 0.7849784,-0.079133 0.2688937,0 0.5314233,0.027248 0.7849784,0.079133 0.2535551,0.051885 0.4981358,0.1284069 0.7311315,0.2269558 0.2329954,0.098549 0.4544064,0.2191245 0.6616214,0.3591164 0.207216,0.1399919 0.400236,0.2994002 0.57645,0.4756142 0.176214,0.1762141 0.335622,0.3692341 0.475614,0.5764494 0.139992,0.2072154 0.260568,0.4286261 0.359117,0.6616218 0.09855,0.2329957 0.175071,0.4775763 0.226955,0.7311314 0.05188,0.2535551 0.07913,0.5160847 0.07913,0.7849784 z"
       id="circle4808"
       inkscape:connector-curvature="0"
       sodipodi:nodetypes="sssssssssssssssssssssssssssssssss" />
    <!-- Circle -->
    <path
       style="stroke:#000000"
       d="m 33.177072,6.6270652 c 0,0.2688936 -0.02725,0.5314232 -0.07913,0.7849783 -0.05188,0.2535551 -0.128407,0.4981357 -0.226955,0.7311314 -0.09855,0.2329957 -0.219125,0.4544064 -0.359117,0.6616217 -0.139992,0.2072154 -0.2994,0.4002353 -0.475614,0.5764494 -0.176214,0.1762141 -0.369234,0.3356223 -0.57645,0.4756142 -0.207215,0.1399919 -0.428626,0.2605678 -0.661621,0.3591168 -0.232996,0.09855 -0.477577,0.175071 -0.731132,0.226955 -0.253555,0.05188 -0.516084,0.07913 -0.784978,0.07913 -0.268894,0 -0.531423,-0.02725 -0.784978,-0.07913 -0.253555,-0.05188 -0.498136,-0.128407 -0.731132,-0.226955 C 27.532967,10.117428 27.311556,9.9968521 27.104341,9.8568602 26.897125,9.7168683 26.704105,9.5574601 26.527891,9.381246 26.351677,9.2050319 26.192269,9.012012 26.052277,8.8047966 25.912285,8.5975813 25.791709,8.3761706 25.69316,8.1431749 25.594612,7.9101792 25.518089,7.6655986 25.466205,7.4120435 25.41432,7.1584884 25.387072,6.8959588 25.387072,6.6270652 c 0,-0.2688936 0.02725,-0.5314232 0.07913,-0.7849784 0.05188,-0.2535551 0.128407,-0.4981357 0.226955,-0.7311314 0.09855,-0.2329957 0.219125,-0.4544064 0.359117,-0.6616217 0.139992,-0.2072154 0.2994,-0.4002353 0.475614,-0.5764494 0.176214,-0.1762141 0.369234,-0.3356223 0.576449,-0.4756143 0.207216,-0.1399919 0.428627,-0.2605675 0.661622,-0.3591164 0.232996,-0.098549 0.477577,-0.175071 0.731132,-0.2269558 0.253555,-0.051885 0.516084,-0.079133 0.784978,-0.079133 0.268894,0 0.531423,0.027248 0.784978,0.079133 0.253555,0.051885 0.498136,0.1284069 0.731132,0.2269558 0.232995,0.098549 0.454406,0.2191245 0.661622,0.3591164 0.207215,0.139992 0.400235,0.2994002 0.576449,0.4756143 0.176214,0.1762141 0.335622,0.369234 0.475614,0.5764494 0.139992,0.2072153 0.260568,0.428626 0.359117,0.6616217 0.09855,0.2329957 0.175071,0.4775763 0.226955,0.7311314 0.05189,0.2535552 0.07913,0.5160848 0.07913,0.7849784 z"
       id="circle4810"
       inkscape:connector-curvature="0"
       sodipodi:nodetypes="sssssssssssssssssssssssssssssssss" />
  </g>
</svg>
