  0
SECTION
  2
HEADER
  9
$ACADVER
  1
AC1014
  9
$HANDSEED
  5
FFFF
  9
$MEASUREMENT
 70
     1
  0
ENDSEC
  0
SECTION
  2
TABLES
  0
TABLE
  2
VPORT
  5
8
330
0
100
AcDbSymbolTable
 70
     4
  0
VPORT
  5
2E
330
8
100
AcDbSymbolTableRecord
100
AcDbViewportTableRecord
  2
*ACTIVE
 70
     0
 10
0.0
 20
0.0
 11
1.0
 21
1.0
 12
210.0
 22
148.5
 13
0.0
 23
0.0
 14
10.0
 24
10.0
 15
10.0
 25
10.0
 16
0.0
 26
0.0
 36
1.0
 17
0.0
 27
0.0
 37
0.0
 40
341.0
 41
1.24
 42
50.0
 43
0.0
 44
0.0
 50
0.0
 51
0.0
 71
     0
 72
   100
 73
     1
 74
     3
 75
     0
 76
     0
 77
     0
 78
     0
  0
ENDTAB
  0
TABLE
  2
LTYPE
  5
5
330
0
100
AcDbSymbolTable
 70
     1
  0
LTYPE
  5
14
330
5
100
AcDbSymbolTableRecord
100
AcDbLinetypeTableRecord
  2
BYBLOCK
 70
     0
  3

 72
    65
 73
     0
 40
0.0
  0
LTYPE
  5
15
330
5
100
AcDbSymbolTableRecord
100
AcDbLinetypeTableRecord
  2
BYLAYER
 70
     0
  3

 72
    65
 73
     0
 40
0.0
  0
LTYPE
  5
16
330
5
100
AcDbSymbolTableRecord
100
AcDbLinetypeTableRecord
  2
CONTINUOUS
 70
     0
  3
Solid line
 72
    65
 73
     0
 40
0.0
  0
ENDTAB
  0
TABLE
  2
LAYER
  5
2
100
AcDbSymbolTable
 70
1
  0
LAYER
  5
50
100
AcDbSymbolTableRecord
100
AcDbLayerTableRecord
  2
0
 70
0
  6
CONTINUOUS
  0
ENDTAB
  0
TABLE
  2
STYLE
  5
3
330
0
100
AcDbSymbolTable
 70
     1
  0
STYLE
  5
11
330
3
100
AcDbSymbolTableRecord
100
AcDbTextStyleTableRecord
  2
STANDARD
 70
     0
 40
0.0
 41
1.0
 50
0.0
 71
     0
 42
2.5
  3
txt
  4

  0
ENDTAB
  0
TABLE
  2
VIEW
  5
6
330
0
100
AcDbSymbolTable
 70
     0
  0
ENDTAB
  0
TABLE
  2
UCS
  5
7
330
0
100
AcDbSymbolTable
 70
     0
  0
ENDTAB
  0
TABLE
  2
APPID
  5
9
330
0
100
AcDbSymbolTable
 70
     2
  0
APPID
  5
12
330
9
100
AcDbSymbolTableRecord
100
AcDbRegAppTableRecord
  2
ACAD
 70
     0
  0
ENDTAB
  0
TABLE
  2
DIMSTYLE
  5
A
330
0
100
AcDbSymbolTable
 70
     1
  0
DIMSTYLE
105
27
330
A
100
AcDbSymbolTableRecord
100
AcDbDimStyleTableRecord
  2
ISO-25
 70
     0
  3

  4

  5

  6

  7

 40
1.0
 41
2.5
 42
0.625
 43
3.75
 44
1.25
 45
0.0
 46
0.0
 47
0.0
 48
0.0
140
2.5
141
2.5
142
0.0
143
0.03937007874016
144
1.0
145
0.0
146
1.0
147
0.625
 71
     0
 72
     0
 73
     0
 74
     0
 75
     0
 76
     0
 77
     1
 78
     8
170
     0
171
     3
172
     1
173
     0
174
     0
175
     0
176
     0
177
     0
178
     0
270
     2
271
     2
272
     2
273
     2
274
     3
340
11
275
     0
280
     0
281
     0
282
     0
283
     0
284
     8
285
     0
286
     0
287
     3
288
     0
  0
ENDTAB
  0
TABLE
  2
BLOCK_RECORD
  5
1
330
0
100
AcDbSymbolTable
 70
     1
  0
BLOCK_RECORD
  5
1F
330
1
100
AcDbSymbolTableRecord
100
AcDbBlockTableRecord
  2
*MODEL_SPACE
  0
BLOCK_RECORD
  5
1B
330
1
100
AcDbSymbolTableRecord
100
AcDbBlockTableRecord
  2
*PAPER_SPACE
  0
ENDTAB
  0
ENDSEC
  0
SECTION
  2
BLOCKS
  0
BLOCK
  5
20
330
1F
100
AcDbEntity
  8
0
100
AcDbBlockBegin
  2
*MODEL_SPACE
 70
     0
 10
0.0
 20
0.0
 30
0.0
  3
*MODEL_SPACE
  1

  0
ENDBLK
  5
21
330
1F
100
AcDbEntity
  8
0
100
AcDbBlockEnd
  0
BLOCK
  5
1C
330
1B
100
AcDbEntity
 67
     1
  8
0
100
AcDbBlockBegin
  2
*PAPER_SPACE
  1

  0
ENDBLK
  5
1D
330
1B
100
AcDbEntity
 67
     1
  8
0
100
AcDbBlockEnd
  0
ENDSEC
  0
SECTION
  2
ENTITIES
  0
SPLINE
  5
100
100
AcDbEntity
  8
0
 62
7
100
AcDbSpline
 70
8
 71
3
 72
8
 73
4
 74
0
 40
0
 40
0
 40
0
 40
0
 40
1
 40
1
 40
1
 40
1
 10
-10.000000
 20
95.250000
 30
0.0
 10
-10.207107
 20
95.250000
 30
0.0
 10
-10.409312
 20
95.229010
 30
0.0
 10
-10.604605
 20
95.189050
 30
0.0
  0
SPLINE
  5
101
100
AcDbEntity
  8
0
 62
7
100
AcDbSpline
 70
8
 71
3
 72
8
 73
4
 74
0
 40
0
 40
0
 40
0
 40
0
 40
1
 40
1
 40
1
 40
1
 10
-10.604605
 20
95.189050
 30
0.0
 10
-10.799897
 20
95.149090
 30
0.0
 10
-10.988278
 20
95.090150
 30
0.0
 10
-11.167735
 20
95.014244
 30
0.0
  0
SPLINE
  5
102
100
AcDbEntity
  8
0
 62
7
100
AcDbSpline
 70
8
 71
3
 72
8
 73
4
 74
0
 40
0
 40
0
 40
0
 40
0
 40
1
 40
1
 40
1
 40
1
 10
-11.167735
 20
95.014244
 30
0.0
 10
-11.347193
 20
94.938344
 30
0.0
 10
-11.517727
 20
94.845470
 30
0.0
 10
-11.677328
 20
94.737646
 30
0.0
  0
SPLINE
  5
103
100
AcDbEntity
  8
0
 62
7
100
AcDbSpline
 70
8
 71
3
 72
8
 73
4
 74
0
 40
0
 40
0
 40
0
 40
0
 40
1
 40
1
 40
1
 40
1
 10
-11.677328
 20
94.737646
 30
0.0
 10
-11.836929
 20
94.629822
 30
0.0
 10
-11.985597
 20
94.507043
 30
0.0
 10
-12.121320
 20
94.371319
 30
0.0
  0
SPLINE
  5
104
100
AcDbEntity
  8
0
 62
7
100
AcDbSpline
 70
8
 71
3
 72
8
 73
4
 74
0
 40
0
 40
0
 40
0
 40
0
 40
1
 40
1
 40
1
 40
1
 10
-12.121320
 20
94.371319
 30
0.0
 10
-12.257044
 20
94.235596
 30
0.0
 10
-12.379823
 20
94.086928
 30
0.0
 10
-12.487647
 20
93.927327
 30
0.0
  0
SPLINE
  5
105
100
AcDbEntity
  8
0
 62
7
100
AcDbSpline
 70
8
 71
3
 72
8
 73
4
 74
0
 40
0
 40
0
 40
0
 40
0
 40
1
 40
1
 40
1
 40
1
 10
-12.487647
 20
93.927327
 30
0.0
 10
-12.595471
 20
93.767726
 30
0.0
 10
-12.688341
 20
93.597192
 30
0.0
 10
-12.764245
 20
93.417734
 30
0.0
  0
SPLINE
  5
106
100
AcDbEntity
  8
0
 62
7
100
AcDbSpline
 70
8
 71
3
 72
8
 73
4
 74
0
 40
0
 40
0
 40
0
 40
0
 40
1
 40
1
 40
1
 40
1
 10
-12.764245
 20
93.417734
 30
0.0
 10
-12.840145
 20
93.238277
 30
0.0
 10
-12.899088
 20
93.049896
 30
0.0
 10
-12.939051
 20
92.854604
 30
0.0
  0
SPLINE
  5
107
100
AcDbEntity
  8
0
 62
7
100
AcDbSpline
 70
8
 71
3
 72
8
 73
4
 74
0
 40
0
 40
0
 40
0
 40
0
 40
1
 40
1
 40
1
 40
1
 10
-12.939051
 20
92.854604
 30
0.0
 10
-12.979013
 20
92.659312
 30
0.0
 10
-13.000000
 20
92.457107
 30
0.0
 10
-13.000000
 20
92.250000
 30
0.0
  0
SPLINE
  5
108
100
AcDbEntity
  8
0
 62
7
100
AcDbSpline
 70
8
 71
3
 72
8
 73
4
 74
0
 40
0
 40
0
 40
0
 40
0
 40
1
 40
1
 40
1
 40
1
 10
5.000000
 20
44.250000
 30
0.0
 10
5.000000
 20
44.111929
 30
0.0
 10
4.986009
 20
43.977126
 30
0.0
 10
4.959367
 20
43.846930
 30
0.0
  0
SPLINE
  5
109
100
AcDbEntity
  8
0
 62
7
100
AcDbSpline
 70
8
 71
3
 72
8
 73
4
 74
0
 40
0
 40
0
 40
0
 40
0
 40
1
 40
1
 40
1
 40
1
 10
4.959367
 20
43.846930
 30
0.0
 10
4.932725
 20
43.716735
 30
0.0
 10
4.893433
 20
43.591148
 30
0.0
 10
4.842830
 20
43.471510
 30
0.0
  0
SPLINE
  5
10a
100
AcDbEntity
  8
0
 62
7
100
AcDbSpline
 70
8
 71
3
 72
8
 73
4
 74
0
 40
0
 40
0
 40
0
 40
0
 40
1
 40
1
 40
1
 40
1
 10
4.842830
 20
43.471510
 30
0.0
 10
4.792227
 20
43.351872
 30
0.0
 10
4.730314
 20
43.238182
 30
0.0
 10
4.658431
 20
43.131781
 30
0.0
  0
SPLINE
  5
10b
100
AcDbEntity
  8
0
 62
7
100
AcDbSpline
 70
8
 71
3
 72
8
 73
4
 74
0
 40
0
 40
0
 40
0
 40
0
 40
1
 40
1
 40
1
 40
1
 10
4.658431
 20
43.131781
 30
0.0
 10
4.586548
 20
43.025381
 30
0.0
 10
4.504696
 20
42.926269
 30
0.0
 10
4.414213
 20
42.835787
 30
0.0
  0
SPLINE
  5
10c
100
AcDbEntity
  8
0
 62
7
100
AcDbSpline
 70
8
 71
3
 72
8
 73
4
 74
0
 40
0
 40
0
 40
0
 40
0
 40
1
 40
1
 40
1
 40
1
 10
4.414213
 20
42.835787
 30
0.0
 10
4.323732
 20
42.745307
 30
0.0
 10
4.224620
 20
42.663452
 30
0.0
 10
4.118219
 20
42.591569
 30
0.0
  0
SPLINE
  5
10d
100
AcDbEntity
  8
0
 62
7
100
AcDbSpline
 70
8
 71
3
 72
8
 73
4
 74
0
 40
0
 40
0
 40
0
 40
0
 40
1
 40
1
 40
1
 40
1
 10
4.118219
 20
42.591569
 30
0.0
 10
4.011818
 20
42.519689
 30
0.0
 10
3.898128
 20
42.457773
 30
0.0
 10
3.778490
 20
42.407170
 30
0.0
  0
SPLINE
  5
10e
100
AcDbEntity
  8
0
 62
7
100
AcDbSpline
 70
8
 71
3
 72
8
 73
4
 74
0
 40
0
 40
0
 40
0
 40
0
 40
1
 40
1
 40
1
 40
1
 10
3.778490
 20
42.407170
 30
0.0
 10
3.658852
 20
42.356570
 30
0.0
 10
3.533265
 20
42.317270
 30
0.0
 10
3.403070
 20
42.290633
 30
0.0
  0
SPLINE
  5
10f
100
AcDbEntity
  8
0
 62
7
100
AcDbSpline
 70
8
 71
3
 72
8
 73
4
 74
0
 40
0
 40
0
 40
0
 40
0
 40
1
 40
1
 40
1
 40
1
 10
3.403070
 20
42.290633
 30
0.0
 10
3.272875
 20
42.263991
 30
0.0
 10
3.138071
 20
42.250000
 30
0.0
 10
3.000000
 20
42.250000
 30
0.0
  0
LWPOLYLINE
  5
110
100
AcDbEntity
  8
0
 62
7
100
AcDbPolyline
 90
4
 70
0
 10
-13.000000
 20
92.250000
 30
0.0
 10
-13.000000
 20
47.250000
 30
0.0
 10
5.000000
 20
47.250000
 30
0.0
 10
5.000000
 20
44.250000
 30
0.0
  0
SPLINE
  5
111
100
AcDbEntity
  8
0
 62
7
100
AcDbSpline
 70
8
 71
3
 72
8
 73
4
 74
0
 40
0
 40
0
 40
0
 40
0
 40
1
 40
1
 40
1
 40
1
 10
-5.000000
 20
42.250000
 30
0.0
 10
-5.114000
 20
42.250000
 30
0.0
 10
-5.226195
 20
42.259600
 30
0.0
 10
-5.335700
 20
42.278240
 30
0.0
  0
SPLINE
  5
112
100
AcDbEntity
  8
0
 62
7
100
AcDbSpline
 70
8
 71
3
 72
8
 73
4
 74
0
 40
0
 40
0
 40
0
 40
0
 40
1
 40
1
 40
1
 40
1
 10
-5.335700
 20
42.278240
 30
0.0
 10
-5.445205
 20
42.296830
 30
0.0
 10
-5.552021
 20
42.324380
 30
0.0
 10
-5.655263
 20
42.360200
 30
0.0
  0
SPLINE
  5
113
100
AcDbEntity
  8
0
 62
7
100
AcDbSpline
 70
8
 71
3
 72
8
 73
4
 74
0
 40
0
 40
0
 40
0
 40
0
 40
1
 40
1
 40
1
 40
1
 10
-5.655263
 20
42.360200
 30
0.0
 10
-5.758505
 20
42.396020
 30
0.0
 10
-5.858172
 20
42.440110
 30
0.0
 10
-5.953381
 20
42.491779
 30
0.0
  0
SPLINE
  5
114
100
AcDbEntity
  8
0
 62
7
100
AcDbSpline
 70
8
 71
3
 72
8
 73
4
 74
0
 40
0
 40
0
 40
0
 40
0
 40
1
 40
1
 40
1
 40
1
 10
-5.953381
 20
42.491779
 30
0.0
 10
-6.048590
 20
42.543449
 30
0.0
 10
-6.139339
 20
42.602708
 30
0.0
 10
-6.224745
 20
42.668863
 30
0.0
  0
SPLINE
  5
115
100
AcDbEntity
  8
0
 62
7
100
AcDbSpline
 70
8
 71
3
 72
8
 73
4
 74
0
 40
0
 40
0
 40
0
 40
0
 40
1
 40
1
 40
1
 40
1
 10
-6.224745
 20
42.668863
 30
0.0
 10
-6.310151
 20
42.735023
 30
0.0
 10
-6.390213
 20
42.808072
 30
0.0
 10
-6.464047
 20
42.887339
 30
0.0
  0
SPLINE
  5
116
100
AcDbEntity
  8
0
 62
7
100
AcDbSpline
 70
8
 71
3
 72
8
 73
4
 74
0
 40
0
 40
0
 40
0
 40
0
 40
1
 40
1
 40
1
 40
1
 10
-6.464047
 20
42.887339
 30
0.0
 10
-6.537881
 20
42.966609
 30
0.0
 10
-6.605485
 20
43.052087
 30
0.0
 10
-6.665977
 20
43.143096
 30
0.0
  0
SPLINE
  5
117
100
AcDbEntity
  8
0
 62
7
100
AcDbSpline
 70
8
 71
3
 72
8
 73
4
 74
0
 40
0
 40
0
 40
0
 40
0
 40
1
 40
1
 40
1
 40
1
 10
-6.665977
 20
43.143096
 30
0.0
 10
-6.726469
 20
43.234106
 30
0.0
 10
-6.779848
 20
43.330641
 30
0.0
 10
-6.825229
 20
43.432021
 30
0.0
  0
SPLINE
  5
118
100
AcDbEntity
  8
0
 62
7
100
AcDbSpline
 70
8
 71
3
 72
8
 73
4
 74
0
 40
0
 40
0
 40
0
 40
0
 40
1
 40
1
 40
1
 40
1
 10
-6.825229
 20
43.432021
 30
0.0
 10
-6.870610
 20
43.533400
 30
0.0
 10
-6.907992
 20
43.639622
 30
0.0
 10
-6.936492
 20
43.750002
 30
0.0
  0
SPLINE
  5
119
100
AcDbEntity
  8
0
 62
7
100
AcDbSpline
 70
8
 71
3
 72
8
 73
4
 74
0
 40
0
 40
0
 40
0
 40
0
 40
1
 40
1
 40
1
 40
1
 10
-6.936492
 20
43.750002
 30
0.0
 10
-6.964992
 20
43.860382
 30
0.0
 10
-7.002374
 20
43.966604
 30
0.0
 10
-7.047755
 20
44.067983
 30
0.0
  0
SPLINE
  5
11a
100
AcDbEntity
  8
0
 62
7
100
AcDbSpline
 70
8
 71
3
 72
8
 73
4
 74
0
 40
0
 40
0
 40
0
 40
0
 40
1
 40
1
 40
1
 40
1
 10
-7.047755
 20
44.067983
 30
0.0
 10
-7.093136
 20
44.169363
 30
0.0
 10
-7.146514
 20
44.265900
 30
0.0
 10
-7.207006
 20
44.356908
 30
0.0
  0
SPLINE
  5
11b
100
AcDbEntity
  8
0
 62
7
100
AcDbSpline
 70
8
 71
3
 72
8
 73
4
 74
0
 40
0
 40
0
 40
0
 40
0
 40
1
 40
1
 40
1
 40
1
 10
-7.207006
 20
44.356908
 30
0.0
 10
-7.267498
 20
44.447918
 30
0.0
 10
-7.335103
 20
44.533398
 30
0.0
 10
-7.408937
 20
44.612665
 30
0.0
  0
SPLINE
  5
11c
100
AcDbEntity
  8
0
 62
7
100
AcDbSpline
 70
8
 71
3
 72
8
 73
4
 74
0
 40
0
 40
0
 40
0
 40
0
 40
1
 40
1
 40
1
 40
1
 10
-7.408937
 20
44.612665
 30
0.0
 10
-7.482771
 20
44.691935
 30
0.0
 10
-7.562833
 20
44.764986
 30
0.0
 10
-7.648239
 20
44.831141
 30
0.0
  0
SPLINE
  5
11d
100
AcDbEntity
  8
0
 62
7
100
AcDbSpline
 70
8
 71
3
 72
8
 73
4
 74
0
 40
0
 40
0
 40
0
 40
0
 40
1
 40
1
 40
1
 40
1
 10
-7.648239
 20
44.831141
 30
0.0
 10
-7.733645
 20
44.897301
 30
0.0
 10
-7.824394
 20
44.956552
 30
0.0
 10
-7.919603
 20
45.008225
 30
0.0
  0
SPLINE
  5
11e
100
AcDbEntity
  8
0
 62
7
100
AcDbSpline
 70
8
 71
3
 72
8
 73
4
 74
0
 40
0
 40
0
 40
0
 40
0
 40
1
 40
1
 40
1
 40
1
 10
-7.919603
 20
45.008225
 30
0.0
 10
-8.014812
 20
45.059897
 30
0.0
 10
-8.114479
 20
45.103986
 30
0.0
 10
-8.217720
 20
45.139804
 30
0.0
  0
SPLINE
  5
11f
100
AcDbEntity
  8
0
 62
7
100
AcDbSpline
 70
8
 71
3
 72
8
 73
4
 74
0
 40
0
 40
0
 40
0
 40
0
 40
1
 40
1
 40
1
 40
1
 10
-8.217720
 20
45.139804
 30
0.0
 10
-8.320962
 20
45.175623
 30
0.0
 10
-8.427778
 20
45.203172
 30
0.0
 10
-8.537283
 20
45.221767
 30
0.0
  0
SPLINE
  5
120
100
AcDbEntity
  8
0
 62
7
100
AcDbSpline
 70
8
 71
3
 72
8
 73
4
 74
0
 40
0
 40
0
 40
0
 40
0
 40
1
 40
1
 40
1
 40
1
 10
-8.537283
 20
45.221767
 30
0.0
 10
-8.646789
 20
45.240360
 30
0.0
 10
-8.758984
 20
45.250000
 30
0.0
 10
-8.872983
 20
45.250000
 30
0.0
  0
LWPOLYLINE
  5
121
100
AcDbEntity
  8
0
 62
7
100
AcDbPolyline
 90
2
 70
0
 10
3.000000
 20
42.250000
 30
0.0
 10
-5.000000
 20
42.250000
 30
0.0
  0
SPLINE
  5
122
100
AcDbEntity
  8
0
 62
7
100
AcDbSpline
 70
8
 71
3
 72
8
 73
4
 74
0
 40
0
 40
0
 40
0
 40
0
 40
1
 40
1
 40
1
 40
1
 10
-11.000000
 20
45.250000
 30
0.0
 10
-11.138071
 20
45.250000
 30
0.0
 10
-11.272874
 20
45.236009
 30
0.0
 10
-11.403070
 20
45.209367
 30
0.0
  0
SPLINE
  5
123
100
AcDbEntity
  8
0
 62
7
100
AcDbSpline
 70
8
 71
3
 72
8
 73
4
 74
0
 40
0
 40
0
 40
0
 40
0
 40
1
 40
1
 40
1
 40
1
 10
-11.403070
 20
45.209367
 30
0.0
 10
-11.533265
 20
45.182725
 30
0.0
 10
-11.658852
 20
45.143433
 30
0.0
 10
-11.778490
 20
45.092830
 30
0.0
  0
SPLINE
  5
124
100
AcDbEntity
  8
0
 62
7
100
AcDbSpline
 70
8
 71
3
 72
8
 73
4
 74
0
 40
0
 40
0
 40
0
 40
0
 40
1
 40
1
 40
1
 40
1
 10
-11.778490
 20
45.092830
 30
0.0
 10
-11.898128
 20
45.042227
 30
0.0
 10
-12.011818
 20
44.980314
 30
0.0
 10
-12.118219
 20
44.908431
 30
0.0
  0
SPLINE
  5
125
100
AcDbEntity
  8
0
 62
7
100
AcDbSpline
 70
8
 71
3
 72
8
 73
4
 74
0
 40
0
 40
0
 40
0
 40
0
 40
1
 40
1
 40
1
 40
1
 10
-12.118219
 20
44.908431
 30
0.0
 10
-12.224619
 20
44.836551
 30
0.0
 10
-12.323731
 20
44.754696
 30
0.0
 10
-12.414213
 20
44.664213
 30
0.0
  0
SPLINE
  5
126
100
AcDbEntity
  8
0
 62
7
100
AcDbSpline
 70
8
 71
3
 72
8
 73
4
 74
0
 40
0
 40
0
 40
0
 40
0
 40
1
 40
1
 40
1
 40
1
 10
-12.414213
 20
44.664213
 30
0.0
 10
-12.504693
 20
44.573733
 30
0.0
 10
-12.586548
 20
44.474619
 30
0.0
 10
-12.658431
 20
44.368219
 30
0.0
  0
SPLINE
  5
127
100
AcDbEntity
  8
0
 62
7
100
AcDbSpline
 70
8
 71
3
 72
8
 73
4
 74
0
 40
0
 40
0
 40
0
 40
0
 40
1
 40
1
 40
1
 40
1
 10
-12.658431
 20
44.368219
 30
0.0
 10
-12.730311
 20
44.261818
 30
0.0
 10
-12.792227
 20
44.148128
 30
0.0
 10
-12.842830
 20
44.028490
 30
0.0
  0
SPLINE
  5
128
100
AcDbEntity
  8
0
 62
7
100
AcDbSpline
 70
8
 71
3
 72
8
 73
4
 74
0
 40
0
 40
0
 40
0
 40
0
 40
1
 40
1
 40
1
 40
1
 10
-12.842830
 20
44.028490
 30
0.0
 10
-12.893430
 20
43.908852
 30
0.0
 10
-12.932730
 20
43.783265
 30
0.0
 10
-12.959367
 20
43.653070
 30
0.0
  0
SPLINE
  5
129
100
AcDbEntity
  8
0
 62
7
100
AcDbSpline
 70
8
 71
3
 72
8
 73
4
 74
0
 40
0
 40
0
 40
0
 40
0
 40
1
 40
1
 40
1
 40
1
 10
-12.959367
 20
43.653070
 30
0.0
 10
-12.986009
 20
43.522874
 30
0.0
 10
-13.000000
 20
43.388071
 30
0.0
 10
-13.000000
 20
43.250000
 30
0.0
  0
LWPOLYLINE
  5
12a
100
AcDbEntity
  8
0
 62
7
100
AcDbPolyline
 90
2
 70
0
 10
-8.872983
 20
45.250000
 30
0.0
 10
-11.000000
 20
45.250000
 30
0.0
  0
SPLINE
  5
12b
100
AcDbEntity
  8
0
 62
7
100
AcDbSpline
 70
8
 71
3
 72
8
 73
4
 74
0
 40
0
 40
0
 40
0
 40
0
 40
1
 40
1
 40
1
 40
1
 10
18.000000
 20
92.250000
 30
0.0
 10
18.000000
 20
92.111929
 30
0.0
 10
18.013990
 20
91.977125
 30
0.0
 10
18.040630
 20
91.846930
 30
0.0
  0
SPLINE
  5
12c
100
AcDbEntity
  8
0
 62
7
100
AcDbSpline
 70
8
 71
3
 72
8
 73
4
 74
0
 40
0
 40
0
 40
0
 40
0
 40
1
 40
1
 40
1
 40
1
 10
18.040630
 20
91.846930
 30
0.0
 10
18.067270
 20
91.716735
 30
0.0
 10
18.106560
 20
91.591148
 30
0.0
 10
18.157167
 20
91.471510
 30
0.0
  0
SPLINE
  5
12d
100
AcDbEntity
  8
0
 62
7
100
AcDbSpline
 70
8
 71
3
 72
8
 73
4
 74
0
 40
0
 40
0
 40
0
 40
0
 40
1
 40
1
 40
1
 40
1
 10
18.157167
 20
91.471510
 30
0.0
 10
18.207767
 20
91.351871
 30
0.0
 10
18.269683
 20
91.238182
 30
0.0
 10
18.341566
 20
91.131781
 30
0.0
  0
SPLINE
  5
12e
100
AcDbEntity
  8
0
 62
7
100
AcDbSpline
 70
8
 71
3
 72
8
 73
4
 74
0
 40
0
 40
0
 40
0
 40
0
 40
1
 40
1
 40
1
 40
1
 10
18.341566
 20
91.131781
 30
0.0
 10
18.413446
 20
91.025380
 30
0.0
 10
18.495302
 20
90.926269
 30
0.0
 10
18.585784
 20
90.835786
 30
0.0
  0
SPLINE
  5
12f
100
AcDbEntity
  8
0
 62
7
100
AcDbSpline
 70
8
 71
3
 72
8
 73
4
 74
0
 40
0
 40
0
 40
0
 40
0
 40
1
 40
1
 40
1
 40
1
 10
18.585784
 20
90.835786
 30
0.0
 10
18.676264
 20
90.745306
 30
0.0
 10
18.775378
 20
90.663451
 30
0.0
 10
18.881778
 20
90.591569
 30
0.0
  0
SPLINE
  5
130
100
AcDbEntity
  8
0
 62
7
100
AcDbSpline
 70
8
 71
3
 72
8
 73
4
 74
0
 40
0
 40
0
 40
0
 40
0
 40
1
 40
1
 40
1
 40
1
 10
18.881778
 20
90.591569
 30
0.0
 10
18.988179
 20
90.519689
 30
0.0
 10
19.101869
 20
90.457773
 30
0.0
 10
19.221507
 20
90.407170
 30
0.0
  0
SPLINE
  5
131
100
AcDbEntity
  8
0
 62
7
100
AcDbSpline
 70
8
 71
3
 72
8
 73
4
 74
0
 40
0
 40
0
 40
0
 40
0
 40
1
 40
1
 40
1
 40
1
 10
19.221507
 20
90.407170
 30
0.0
 10
19.341146
 20
90.356570
 30
0.0
 10
19.466732
 20
90.317280
 30
0.0
 10
19.596928
 20
90.290633
 30
0.0
  0
SPLINE
  5
132
100
AcDbEntity
  8
0
 62
7
100
AcDbSpline
 70
8
 71
3
 72
8
 73
4
 74
0
 40
0
 40
0
 40
0
 40
0
 40
1
 40
1
 40
1
 40
1
 10
19.596928
 20
90.290633
 30
0.0
 10
19.727126
 20
90.263991
 30
0.0
 10
19.861929
 20
90.250000
 30
0.0
 10
20.000000
 20
90.250000
 30
0.0
  0
LWPOLYLINE
  5
133
100
AcDbEntity
  8
0
 62
7
100
AcDbPolyline
 90
12
 70
0
 10
-13.000000
 20
43.250000
 30
0.0
 10
-13.000000
 20
40.250000
 30
0.0
 10
33.896000
 20
40.250000
 30
0.0
 10
33.896000
 20
47.250000
 30
0.0
 10
40.796000
 20
47.250000
 30
0.0
 10
40.796000
 20
60.300000
 30
0.0
 10
43.896000
 20
60.300000
 30
0.0
 10
43.896000
 20
75.200000
 30
0.0
 10
40.796000
 20
75.200000
 30
0.0
 10
40.796000
 20
95.250000
 30
0.0
 10
18.000000
 20
95.250000
 30
0.0
 10
18.000000
 20
92.250000
 30
0.0
  0
SPLINE
  5
134
100
AcDbEntity
  8
0
 62
7
100
AcDbSpline
 70
8
 71
3
 72
8
 73
4
 74
0
 40
0
 40
0
 40
0
 40
0
 40
1
 40
1
 40
1
 40
1
 10
22.000000
 20
90.250000
 30
0.0
 10
22.114064
 20
90.250000
 30
0.0
 10
22.226320
 20
90.259700
 30
0.0
 10
22.335883
 20
90.278260
 30
0.0
  0
SPLINE
  5
135
100
AcDbEntity
  8
0
 62
7
100
AcDbSpline
 70
8
 71
3
 72
8
 73
4
 74
0
 40
0
 40
0
 40
0
 40
0
 40
1
 40
1
 40
1
 40
1
 10
22.335883
 20
90.278260
 30
0.0
 10
22.445445
 20
90.296880
 30
0.0
 10
22.552314
 20
90.324450
 30
0.0
 10
22.655602
 20
90.360310
 30
0.0
  0
SPLINE
  5
136
100
AcDbEntity
  8
0
 62
7
100
AcDbSpline
 70
8
 71
3
 72
8
 73
4
 74
0
 40
0
 40
0
 40
0
 40
0
 40
1
 40
1
 40
1
 40
1
 10
22.655602
 20
90.360310
 30
0.0
 10
22.758891
 20
90.396170
 30
0.0
 10
22.858600
 20
90.440300
 30
0.0
 10
22.953844
 20
90.492023
 30
0.0
  0
SPLINE
  5
137
100
AcDbEntity
  8
0
 62
7
100
AcDbSpline
 70
8
 71
3
 72
8
 73
4
 74
0
 40
0
 40
0
 40
0
 40
0
 40
1
 40
1
 40
1
 40
1
 10
22.953844
 20
90.492023
 30
0.0
 10
23.049084
 20
90.543743
 30
0.0
 10
23.139865
 20
90.603061
 30
0.0
 10
23.225292
 20
90.669280
 30
0.0
  0
SPLINE
  5
138
100
AcDbEntity
  8
0
 62
7
100
AcDbSpline
 70
8
 71
3
 72
8
 73
4
 74
0
 40
0
 40
0
 40
0
 40
0
 40
1
 40
1
 40
1
 40
1
 10
23.225292
 20
90.669280
 30
0.0
 10
23.310722
 20
90.735500
 30
0.0
 10
23.390793
 20
90.808620
 30
0.0
 10
23.464631
 20
90.887959
 30
0.0
  0
SPLINE
  5
139
100
AcDbEntity
  8
0
 62
7
100
AcDbSpline
 70
8
 71
3
 72
8
 73
4
 74
0
 40
0
 40
0
 40
0
 40
0
 40
1
 40
1
 40
1
 40
1
 10
23.464631
 20
90.887959
 30
0.0
 10
23.538471
 20
90.967299
 30
0.0
 10
23.606068
 20
91.052855
 30
0.0
 10
23.666545
 20
91.143942
 30
0.0
  0
SPLINE
  5
13a
100
AcDbEntity
  8
0
 62
7
100
AcDbSpline
 70
8
 71
3
 72
8
 73
4
 74
0
 40
0
 40
0
 40
0
 40
0
 40
1
 40
1
 40
1
 40
1
 10
23.666545
 20
91.143942
 30
0.0
 10
23.727025
 20
91.235032
 30
0.0
 10
23.780375
 20
91.331646
 30
0.0
 10
23.825719
 20
91.433107
 30
0.0
  0
SPLINE
  5
13b
100
AcDbEntity
  8
0
 62
7
100
AcDbSpline
 70
8
 71
3
 72
8
 73
4
 74
0
 40
0
 40
0
 40
0
 40
0
 40
1
 40
1
 40
1
 40
1
 10
23.825719
 20
91.433107
 30
0.0
 10
23.871059
 20
91.534568
 30
0.0
 10
23.908399
 20
91.640872
 30
0.0
 10
23.936837
 20
91.751334
 30
0.0
  0
SPLINE
  5
13c
100
AcDbEntity
  8
0
 62
7
100
AcDbSpline
 70
8
 71
3
 72
8
 73
4
 74
0
 40
0
 40
0
 40
0
 40
0
 40
1
 40
1
 40
1
 40
1
 10
23.936837
 20
91.751334
 30
0.0
 10
23.965287
 20
91.861820
 30
0.0
 10
24.002627
 20
91.968146
 30
0.0
 10
24.047985
 20
92.069626
 30
0.0
  0
SPLINE
  5
13d
100
AcDbEntity
  8
0
 62
7
100
AcDbSpline
 70
8
 71
3
 72
8
 73
4
 74
0
 40
0
 40
0
 40
0
 40
0
 40
1
 40
1
 40
1
 40
1
 10
24.047985
 20
92.069626
 30
0.0
 10
24.093345
 20
92.171106
 30
0.0
 10
24.146715
 20
92.267740
 30
0.0
 10
24.207206
 20
92.358841
 30
0.0
  0
SPLINE
  5
13e
100
AcDbEntity
  8
0
 62
7
100
AcDbSpline
 70
8
 71
3
 72
8
 73
4
 74
0
 40
0
 40
0
 40
0
 40
0
 40
1
 40
1
 40
1
 40
1
 10
24.207206
 20
92.358841
 30
0.0
 10
24.267696
 20
92.449941
 30
0.0
 10
24.335321
 20
92.535509
 30
0.0
 10
24.409181
 20
92.614856
 30
0.0
  0
SPLINE
  5
13f
100
AcDbEntity
  8
0
 62
7
100
AcDbSpline
 70
8
 71
3
 72
8
 73
4
 74
0
 40
0
 40
0
 40
0
 40
0
 40
1
 40
1
 40
1
 40
1
 10
24.409181
 20
92.614856
 30
0.0
 10
24.483041
 20
92.694206
 30
0.0
 10
24.563140
 20
92.767331
 30
0.0
 10
24.648592
 20
92.833550
 30
0.0
  0
SPLINE
  5
140
100
AcDbEntity
  8
0
 62
7
100
AcDbSpline
 70
8
 71
3
 72
8
 73
4
 74
0
 40
0
 40
0
 40
0
 40
0
 40
1
 40
1
 40
1
 40
1
 10
24.648592
 20
92.833550
 30
0.0
 10
24.734042
 20
92.899770
 30
0.0
 10
24.824848
 20
92.959083
 30
0.0
 10
24.920119
 20
93.010801
 30
0.0
  0
SPLINE
  5
141
100
AcDbEntity
  8
0
 62
7
100
AcDbSpline
 70
8
 71
3
 72
8
 73
4
 74
0
 40
0
 40
0
 40
0
 40
0
 40
1
 40
1
 40
1
 40
1
 10
24.920119
 20
93.010801
 30
0.0
 10
25.015389
 20
93.062521
 30
0.0
 10
25.115126
 20
93.106641
 30
0.0
 10
25.218442
 20
93.142487
 30
0.0
  0
SPLINE
  5
142
100
AcDbEntity
  8
0
 62
7
100
AcDbSpline
 70
8
 71
3
 72
8
 73
4
 74
0
 40
0
 40
0
 40
0
 40
0
 40
1
 40
1
 40
1
 40
1
 10
25.218442
 20
93.142487
 30
0.0
 10
25.321759
 20
93.178327
 30
0.0
 10
25.428655
 20
93.205887
 30
0.0
 10
25.538244
 20
93.224487
 30
0.0
  0
SPLINE
  5
143
100
AcDbEntity
  8
0
 62
7
100
AcDbSpline
 70
8
 71
3
 72
8
 73
4
 74
0
 40
0
 40
0
 40
0
 40
0
 40
1
 40
1
 40
1
 40
1
 10
25.538244
 20
93.224487
 30
0.0
 10
25.647833
 20
93.243077
 30
0.0
 10
25.760115
 20
93.252707
 30
0.0
 10
25.874203
 20
93.252677
 30
0.0
  0
LWPOLYLINE
  5
144
100
AcDbEntity
  8
0
 62
7
100
AcDbPolyline
 90
2
 70
0
 10
20.000000
 20
90.250000
 30
0.0
 10
22.000000
 20
90.250000
 30
0.0
  0
SPLINE
  5
145
100
AcDbEntity
  8
0
 62
7
100
AcDbSpline
 70
8
 71
3
 72
8
 73
4
 74
0
 40
0
 40
0
 40
0
 40
0
 40
1
 40
1
 40
1
 40
1
 10
34.000529
 20
93.250577
 30
0.0
 10
34.138574
 20
93.250540
 30
0.0
 10
34.273350
 20
93.236517
 30
0.0
 10
34.403517
 20
93.209847
 30
0.0
  0
SPLINE
  5
146
100
AcDbEntity
  8
0
 62
7
100
AcDbSpline
 70
8
 71
3
 72
8
 73
4
 74
0
 40
0
 40
0
 40
0
 40
0
 40
1
 40
1
 40
1
 40
1
 10
34.403517
 20
93.209847
 30
0.0
 10
34.533683
 20
93.183177
 30
0.0
 10
34.659241
 20
93.143867
 30
0.0
 10
34.778849
 20
93.093250
 30
0.0
  0
SPLINE
  5
147
100
AcDbEntity
  8
0
 62
7
100
AcDbSpline
 70
8
 71
3
 72
8
 73
4
 74
0
 40
0
 40
0
 40
0
 40
0
 40
1
 40
1
 40
1
 40
1
 10
34.778849
 20
93.093250
 30
0.0
 10
34.898458
 20
93.042630
 30
0.0
 10
35.012118
 20
92.980709
 30
0.0
 10
35.118490
 20
92.908820
 30
0.0
  0
SPLINE
  5
148
100
AcDbEntity
  8
0
 62
7
100
AcDbSpline
 70
8
 71
3
 72
8
 73
4
 74
0
 40
0
 40
0
 40
0
 40
0
 40
1
 40
1
 40
1
 40
1
 10
35.118490
 20
92.908820
 30
0.0
 10
35.224862
 20
92.836930
 30
0.0
 10
35.323945
 20
92.755078
 30
0.0
 10
35.414401
 20
92.664598
 30
0.0
  0
SPLINE
  5
149
100
AcDbEntity
  8
0
 62
7
100
AcDbSpline
 70
8
 71
3
 72
8
 73
4
 74
0
 40
0
 40
0
 40
0
 40
0
 40
1
 40
1
 40
1
 40
1
 10
35.414401
 20
92.664598
 30
0.0
 10
35.504851
 20
92.574118
 30
0.0
 10
35.586684
 20
92.475014
 30
0.0
 10
35.658544
 20
92.368623
 30
0.0
  0
SPLINE
  5
14a
100
AcDbEntity
  8
0
 62
7
100
AcDbSpline
 70
8
 71
3
 72
8
 73
4
 74
0
 40
0
 40
0
 40
0
 40
0
 40
1
 40
1
 40
1
 40
1
 10
35.658544
 20
92.368623
 30
0.0
 10
35.730404
 20
92.262232
 30
0.0
 10
35.792298
 20
92.148556
 30
0.0
 10
35.842884
 20
92.028934
 30
0.0
  0
SPLINE
  5
14b
100
AcDbEntity
  8
0
 62
7
100
AcDbSpline
 70
8
 71
3
 72
8
 73
4
 74
0
 40
0
 40
0
 40
0
 40
0
 40
1
 40
1
 40
1
 40
1
 10
35.842884
 20
92.028934
 30
0.0
 10
35.893474
 20
91.909312
 30
0.0
 10
35.932754
 20
91.783744
 30
0.0
 10
35.959381
 20
91.653570
 30
0.0
  0
SPLINE
  5
14c
100
AcDbEntity
  8
0
 62
7
100
AcDbSpline
 70
8
 71
3
 72
8
 73
4
 74
0
 40
0
 40
0
 40
0
 40
0
 40
1
 40
1
 40
1
 40
1
 10
35.959381
 20
91.653570
 30
0.0
 10
35.986014
 20
91.523354
 30
0.0
 10
36.000000
 20
91.388574
 30
0.0
 10
36.000000
 20
91.250529
 30
0.0
  0
LWPOLYLINE
  5
14d
100
AcDbEntity
  8
0
 62
7
100
AcDbPolyline
 90
2
 70
0
 10
25.874203
 20
93.252677
 30
0.0
 10
34.000529
 20
93.250577
 30
0.0
  0
SPLINE
  5
14e
100
AcDbEntity
  8
0
 62
7
100
AcDbSpline
 70
8
 71
3
 72
8
 73
4
 74
0
 40
0
 40
0
 40
0
 40
0
 40
1
 40
1
 40
1
 40
1
 10
18.000000
 20
88.250000
 30
0.0
 10
17.861929
 20
88.250000
 30
0.0
 10
17.727126
 20
88.263990
 30
0.0
 10
17.596931
 20
88.290630
 30
0.0
  0
SPLINE
  5
14f
100
AcDbEntity
  8
0
 62
7
100
AcDbSpline
 70
8
 71
3
 72
8
 73
4
 74
0
 40
0
 40
0
 40
0
 40
0
 40
1
 40
1
 40
1
 40
1
 10
17.596931
 20
88.290630
 30
0.0
 10
17.466735
 20
88.317270
 30
0.0
 10
17.341149
 20
88.356560
 30
0.0
 10
17.221510
 20
88.407167
 30
0.0
  0
SPLINE
  5
150
100
AcDbEntity
  8
0
 62
7
100
AcDbSpline
 70
8
 71
3
 72
8
 73
4
 74
0
 40
0
 40
0
 40
0
 40
0
 40
1
 40
1
 40
1
 40
1
 10
17.221510
 20
88.407167
 30
0.0
 10
17.101872
 20
88.457767
 30
0.0
 10
16.988182
 20
88.519683
 30
0.0
 10
16.881781
 20
88.591566
 30
0.0
  0
SPLINE
  5
151
100
AcDbEntity
  8
0
 62
7
100
AcDbSpline
 70
8
 71
3
 72
8
 73
4
 74
0
 40
0
 40
0
 40
0
 40
0
 40
1
 40
1
 40
1
 40
1
 10
16.881781
 20
88.591566
 30
0.0
 10
16.775381
 20
88.663446
 30
0.0
 10
16.676269
 20
88.745301
 30
0.0
 10
16.585787
 20
88.835783
 30
0.0
  0
SPLINE
  5
152
100
AcDbEntity
  8
0
 62
7
100
AcDbSpline
 70
8
 71
3
 72
8
 73
4
 74
0
 40
0
 40
0
 40
0
 40
0
 40
1
 40
1
 40
1
 40
1
 10
16.585787
 20
88.835783
 30
0.0
 10
16.495307
 20
88.926263
 30
0.0
 10
16.413452
 20
89.025377
 30
0.0
 10
16.341569
 20
89.131778
 30
0.0
  0
SPLINE
  5
153
100
AcDbEntity
  8
0
 62
7
100
AcDbSpline
 70
8
 71
3
 72
8
 73
4
 74
0
 40
0
 40
0
 40
0
 40
0
 40
1
 40
1
 40
1
 40
1
 10
16.341569
 20
89.131778
 30
0.0
 10
16.269689
 20
89.238179
 30
0.0
 10
16.207773
 20
89.351868
 30
0.0
 10
16.157170
 20
89.471507
 30
0.0
  0
SPLINE
  5
154
100
AcDbEntity
  8
0
 62
7
100
AcDbSpline
 70
8
 71
3
 72
8
 73
4
 74
0
 40
0
 40
0
 40
0
 40
0
 40
1
 40
1
 40
1
 40
1
 10
16.157170
 20
89.471507
 30
0.0
 10
16.106570
 20
89.591145
 30
0.0
 10
16.067270
 20
89.716732
 30
0.0
 10
16.040633
 20
89.846927
 30
0.0
  0
SPLINE
  5
155
100
AcDbEntity
  8
0
 62
7
100
AcDbSpline
 70
8
 71
3
 72
8
 73
4
 74
0
 40
0
 40
0
 40
0
 40
0
 40
1
 40
1
 40
1
 40
1
 10
16.040633
 20
89.846927
 30
0.0
 10
16.013992
 20
89.977125
 30
0.0
 10
16.000000
 20
90.111929
 30
0.0
 10
16.000000
 20
90.250000
 30
0.0
  0
LWPOLYLINE
  5
156
100
AcDbEntity
  8
0
 62
7
100
AcDbPolyline
 90
3
 70
0
 10
36.000000
 20
91.250529
 30
0.0
 10
36.000000
 20
88.250000
 30
0.0
 10
18.000000
 20
88.250000
 30
0.0
  0
SPLINE
  5
157
100
AcDbEntity
  8
0
 62
7
100
AcDbSpline
 70
8
 71
3
 72
8
 73
4
 74
0
 40
0
 40
0
 40
0
 40
0
 40
1
 40
1
 40
1
 40
1
 10
13.000000
 20
90.250000
 30
0.0
 10
13.000000
 20
90.111929
 30
0.0
 10
12.986010
 20
89.977125
 30
0.0
 10
12.959370
 20
89.846930
 30
0.0
  0
SPLINE
  5
158
100
AcDbEntity
  8
0
 62
7
100
AcDbSpline
 70
8
 71
3
 72
8
 73
4
 74
0
 40
0
 40
0
 40
0
 40
0
 40
1
 40
1
 40
1
 40
1
 10
12.959370
 20
89.846930
 30
0.0
 10
12.932730
 20
89.716735
 30
0.0
 10
12.893440
 20
89.591148
 30
0.0
 10
12.842833
 20
89.471510
 30
0.0
  0
SPLINE
  5
159
100
AcDbEntity
  8
0
 62
7
100
AcDbSpline
 70
8
 71
3
 72
8
 73
4
 74
0
 40
0
 40
0
 40
0
 40
0
 40
1
 40
1
 40
1
 40
1
 10
12.842833
 20
89.471510
 30
0.0
 10
12.792233
 20
89.351871
 30
0.0
 10
12.730317
 20
89.238182
 30
0.0
 10
12.658434
 20
89.131781
 30
0.0
  0
SPLINE
  5
15a
100
AcDbEntity
  8
0
 62
7
100
AcDbSpline
 70
8
 71
3
 72
8
 73
4
 74
0
 40
0
 40
0
 40
0
 40
0
 40
1
 40
1
 40
1
 40
1
 10
12.658434
 20
89.131781
 30
0.0
 10
12.586554
 20
89.025380
 30
0.0
 10
12.504698
 20
88.926269
 30
0.0
 10
12.414216
 20
88.835786
 30
0.0
  0
SPLINE
  5
15b
100
AcDbEntity
  8
0
 62
7
100
AcDbSpline
 70
8
 71
3
 72
8
 73
4
 74
0
 40
0
 40
0
 40
0
 40
0
 40
1
 40
1
 40
1
 40
1
 10
12.414216
 20
88.835786
 30
0.0
 10
12.323736
 20
88.745306
 30
0.0
 10
12.224622
 20
88.663451
 30
0.0
 10
12.118222
 20
88.591569
 30
0.0
  0
SPLINE
  5
15c
100
AcDbEntity
  8
0
 62
7
100
AcDbSpline
 70
8
 71
3
 72
8
 73
4
 74
0
 40
0
 40
0
 40
0
 40
0
 40
1
 40
1
 40
1
 40
1
 10
12.118222
 20
88.591569
 30
0.0
 10
12.011821
 20
88.519689
 30
0.0
 10
11.898131
 20
88.457773
 30
0.0
 10
11.778493
 20
88.407170
 30
0.0
  0
SPLINE
  5
15d
100
AcDbEntity
  8
0
 62
7
100
AcDbSpline
 70
8
 71
3
 72
8
 73
4
 74
0
 40
0
 40
0
 40
0
 40
0
 40
1
 40
1
 40
1
 40
1
 10
11.778493
 20
88.407170
 30
0.0
 10
11.658854
 20
88.356570
 30
0.0
 10
11.533268
 20
88.317280
 30
0.0
 10
11.403072
 20
88.290633
 30
0.0
  0
SPLINE
  5
15e
100
AcDbEntity
  8
0
 62
7
100
AcDbSpline
 70
8
 71
3
 72
8
 73
4
 74
0
 40
0
 40
0
 40
0
 40
0
 40
1
 40
1
 40
1
 40
1
 10
11.403072
 20
88.290633
 30
0.0
 10
11.272874
 20
88.263991
 30
0.0
 10
11.138071
 20
88.250000
 30
0.0
 10
11.000000
 20
88.250000
 30
0.0
  0
LWPOLYLINE
  5
15f
100
AcDbEntity
  8
0
 62
7
100
AcDbPolyline
 90
4
 70
0
 10
16.000000
 20
90.250000
 30
0.0
 10
16.000000
 20
95.250000
 30
0.0
 10
13.000000
 20
95.250000
 30
0.0
 10
13.000000
 20
90.250000
 30
0.0
  0
SPLINE
  5
160
100
AcDbEntity
  8
0
 62
7
100
AcDbSpline
 70
8
 71
3
 72
8
 73
4
 74
0
 40
0
 40
0
 40
0
 40
0
 40
1
 40
1
 40
1
 40
1
 10
-7.000000
 20
91.250529
 30
0.0
 10
-7.000000
 20
91.388574
 30
0.0
 10
-6.986014
 20
91.523354
 30
0.0
 10
-6.959381
 20
91.653527
 30
0.0
  0
SPLINE
  5
161
100
AcDbEntity
  8
0
 62
7
100
AcDbSpline
 70
8
 71
3
 72
8
 73
4
 74
0
 40
0
 40
0
 40
0
 40
0
 40
1
 40
1
 40
1
 40
1
 10
-6.959381
 20
91.653527
 30
0.0
 10
-6.932748
 20
91.783701
 30
0.0
 10
-6.893469
 20
91.909269
 30
0.0
 10
-6.842883
 20
92.028891
 30
0.0
  0
SPLINE
  5
162
100
AcDbEntity
  8
0
 62
7
100
AcDbSpline
 70
8
 71
3
 72
8
 73
4
 74
0
 40
0
 40
0
 40
0
 40
0
 40
1
 40
1
 40
1
 40
1
 10
-6.842883
 20
92.028891
 30
0.0
 10
-6.792297
 20
92.148513
 30
0.0
 10
-6.730404
 20
92.262189
 30
0.0
 10
-6.658544
 20
92.368580
 30
0.0
  0
SPLINE
  5
163
100
AcDbEntity
  8
0
 62
7
100
AcDbSpline
 70
8
 71
3
 72
8
 73
4
 74
0
 40
0
 40
0
 40
0
 40
0
 40
1
 40
1
 40
1
 40
1
 10
-6.658544
 20
92.368580
 30
0.0
 10
-6.586684
 20
92.474971
 30
0.0
 10
-6.504856
 20
92.574076
 30
0.0
 10
-6.414400
 20
92.664555
 30
0.0
  0
SPLINE
  5
164
100
AcDbEntity
  8
0
 62
7
100
AcDbSpline
 70
8
 71
3
 72
8
 73
4
 74
0
 40
0
 40
0
 40
0
 40
0
 40
1
 40
1
 40
1
 40
1
 10
-6.414400
 20
92.664555
 30
0.0
 10
-6.323944
 20
92.755035
 30
0.0
 10
-6.224861
 20
92.836889
 30
0.0
 10
-6.118489
 20
92.908777
 30
0.0
  0
SPLINE
  5
165
100
AcDbEntity
  8
0
 62
7
100
AcDbSpline
 70
8
 71
3
 72
8
 73
4
 74
0
 40
0
 40
0
 40
0
 40
0
 40
1
 40
1
 40
1
 40
1
 10
-6.118489
 20
92.908777
 30
0.0
 10
-6.012118
 20
92.980667
 30
0.0
 10
-5.898458
 20
93.042589
 30
0.0
 10
-5.778849
 20
93.093207
 30
0.0
  0
SPLINE
  5
166
100
AcDbEntity
  8
0
 62
7
100
AcDbSpline
 70
8
 71
3
 72
8
 73
4
 74
0
 40
0
 40
0
 40
0
 40
0
 40
1
 40
1
 40
1
 40
1
 10
-5.778849
 20
93.093207
 30
0.0
 10
-5.659240
 20
93.143827
 30
0.0
 10
-5.533683
 20
93.183137
 30
0.0
 10
-5.403516
 20
93.209804
 30
0.0
  0
SPLINE
  5
167
100
AcDbEntity
  8
0
 62
7
100
AcDbSpline
 70
8
 71
3
 72
8
 73
4
 74
0
 40
0
 40
0
 40
0
 40
0
 40
1
 40
1
 40
1
 40
1
 10
-5.403516
 20
93.209804
 30
0.0
 10
-5.273350
 20
93.236474
 30
0.0
 10
-5.138574
 20
93.250494
 30
0.0
 10
-5.000529
 20
93.250534
 30
0.0
  0
LWPOLYLINE
  5
168
100
AcDbEntity
  8
0
 62
7
100
AcDbPolyline
 90
3
 70
0
 10
11.000000
 20
88.250000
 30
0.0
 10
-7.000000
 20
88.250000
 30
0.0
 10
-7.000000
 20
91.250529
 30
0.0
  0
SPLINE
  5
169
100
AcDbEntity
  8
0
 62
7
100
AcDbSpline
 70
8
 71
3
 72
8
 73
4
 74
0
 40
0
 40
0
 40
0
 40
0
 40
1
 40
1
 40
1
 40
1
 10
2.999471
 20
93.252634
 30
0.0
 10
3.113559
 20
93.252664
 30
0.0
 10
3.225840
 20
93.243034
 30
0.0
 10
3.335428
 20
93.224444
 30
0.0
  0
SPLINE
  5
16a
100
AcDbEntity
  8
0
 62
7
100
AcDbSpline
 70
8
 71
3
 72
8
 73
4
 74
0
 40
0
 40
0
 40
0
 40
0
 40
1
 40
1
 40
1
 40
1
 10
3.335428
 20
93.224444
 30
0.0
 10
3.445017
 20
93.205854
 30
0.0
 10
3.551912
 20
93.178294
 30
0.0
 10
3.655228
 20
93.142444
 30
0.0
  0
SPLINE
  5
16b
100
AcDbEntity
  8
0
 62
7
100
AcDbSpline
 70
8
 71
3
 72
8
 73
4
 74
0
 40
0
 40
0
 40
0
 40
0
 40
1
 40
1
 40
1
 40
1
 10
3.655228
 20
93.142444
 30
0.0
 10
3.758543
 20
93.106604
 30
0.0
 10
3.858280
 20
93.062474
 30
0.0
 10
3.953550
 20
93.010760
 30
0.0
  0
SPLINE
  5
16c
100
AcDbEntity
  8
0
 62
7
100
AcDbSpline
 70
8
 71
3
 72
8
 73
4
 74
0
 40
0
 40
0
 40
0
 40
0
 40
1
 40
1
 40
1
 40
1
 10
3.953550
 20
93.010760
 30
0.0
 10
4.048820
 20
92.959040
 30
0.0
 10
4.139624
 20
92.899730
 30
0.0
 10
4.225076
 20
92.833511
 30
0.0
  0
SPLINE
  5
16d
100
AcDbEntity
  8
0
 62
7
100
AcDbSpline
 70
8
 71
3
 72
8
 73
4
 74
0
 40
0
 40
0
 40
0
 40
0
 40
1
 40
1
 40
1
 40
1
 10
4.225076
 20
92.833511
 30
0.0
 10
4.310528
 20
92.767291
 30
0.0
 10
4.390626
 20
92.694166
 30
0.0
 10
4.464486
 20
92.614820
 30
0.0
  0
SPLINE
  5
16e
100
AcDbEntity
  8
0
 62
7
100
AcDbSpline
 70
8
 71
3
 72
8
 73
4
 74
0
 40
0
 40
0
 40
0
 40
0
 40
1
 40
1
 40
1
 40
1
 10
4.464486
 20
92.614820
 30
0.0
 10
4.538346
 20
92.535470
 30
0.0
 10
4.605967
 20
92.449907
 30
0.0
 10
4.666462
 20
92.358807
 30
0.0
  0
SPLINE
  5
16f
100
AcDbEntity
  8
0
 62
7
100
AcDbSpline
 70
8
 71
3
 72
8
 73
4
 74
0
 40
0
 40
0
 40
0
 40
0
 40
1
 40
1
 40
1
 40
1
 10
4.666462
 20
92.358807
 30
0.0
 10
4.726957
 20
92.267707
 30
0.0
 10
4.780326
 20
92.171074
 30
0.0
 10
4.825684
 20
92.069595
 30
0.0
  0
SPLINE
  5
170
100
AcDbEntity
  8
0
 62
7
100
AcDbSpline
 70
8
 71
3
 72
8
 73
4
 74
0
 40
0
 40
0
 40
0
 40
0
 40
1
 40
1
 40
1
 40
1
 10
4.825684
 20
92.069595
 30
0.0
 10
4.871041
 20
91.968116
 30
0.0
 10
4.908386
 20
91.861791
 30
0.0
 10
4.936833
 20
91.751306
 30
0.0
  0
SPLINE
  5
171
100
AcDbEntity
  8
0
 62
7
100
AcDbSpline
 70
8
 71
3
 72
8
 73
4
 74
0
 40
0
 40
0
 40
0
 40
0
 40
1
 40
1
 40
1
 40
1
 10
4.936833
 20
91.751306
 30
0.0
 10
4.965273
 20
91.640846
 30
0.0
 10
5.002609
 20
91.534542
 30
0.0
 10
5.047953
 20
91.433082
 30
0.0
  0
SPLINE
  5
172
100
AcDbEntity
  8
0
 62
7
100
AcDbSpline
 70
8
 71
3
 72
8
 73
4
 74
0
 40
0
 40
0
 40
0
 40
0
 40
1
 40
1
 40
1
 40
1
 10
5.047953
 20
91.433082
 30
0.0
 10
5.093297
 20
91.331622
 30
0.0
 10
5.146651
 20
91.235006
 30
0.0
 10
5.207128
 20
91.143920
 30
0.0
  0
SPLINE
  5
173
100
AcDbEntity
  8
0
 62
7
100
AcDbSpline
 70
8
 71
3
 72
8
 73
4
 74
0
 40
0
 40
0
 40
0
 40
0
 40
1
 40
1
 40
1
 40
1
 10
5.207128
 20
91.143920
 30
0.0
 10
5.267605
 20
91.052830
 30
0.0
 10
5.335205
 20
90.967279
 30
0.0
 10
5.409042
 20
90.887941
 30
0.0
  0
SPLINE
  5
174
100
AcDbEntity
  8
0
 62
7
100
AcDbSpline
 70
8
 71
3
 72
8
 73
4
 74
0
 40
0
 40
0
 40
0
 40
0
 40
1
 40
1
 40
1
 40
1
 10
5.409042
 20
90.887941
 30
0.0
 10
5.482879
 20
90.808601
 30
0.0
 10
5.562955
 20
90.735481
 30
0.0
 10
5.648381
 20
90.669263
 30
0.0
  0
SPLINE
  5
175
100
AcDbEntity
  8
0
 62
7
100
AcDbSpline
 70
8
 71
3
 72
8
 73
4
 74
0
 40
0
 40
0
 40
0
 40
0
 40
1
 40
1
 40
1
 40
1
 10
5.648381
 20
90.669263
 30
0.0
 10
5.733807
 20
90.603043
 30
0.0
 10
5.824584
 20
90.543732
 30
0.0
 10
5.919828
 20
90.492009
 30
0.0
  0
SPLINE
  5
176
100
AcDbEntity
  8
0
 62
7
100
AcDbSpline
 70
8
 71
3
 72
8
 73
4
 74
0
 40
0
 40
0
 40
0
 40
0
 40
1
 40
1
 40
1
 40
1
 10
5.919828
 20
90.492009
 30
0.0
 10
6.015071
 20
90.440289
 30
0.0
 10
6.114779
 20
90.396149
 30
0.0
 10
6.218068
 20
90.360297
 30
0.0
  0
SPLINE
  5
177
100
AcDbEntity
  8
0
 62
7
100
AcDbSpline
 70
8
 71
3
 72
8
 73
4
 74
0
 40
0
 40
0
 40
0
 40
0
 40
1
 40
1
 40
1
 40
1
 10
6.218068
 20
90.360297
 30
0.0
 10
6.321356
 20
90.324447
 30
0.0
 10
6.428224
 20
90.296867
 30
0.0
 10
6.537785
 20
90.278247
 30
0.0
  0
SPLINE
  5
178
100
AcDbEntity
  8
0
 62
7
100
AcDbSpline
 70
8
 71
3
 72
8
 73
4
 74
0
 40
0
 40
0
 40
0
 40
0
 40
1
 40
1
 40
1
 40
1
 10
6.537785
 20
90.278247
 30
0.0
 10
6.647346
 20
90.259651
 30
0.0
 10
6.759602
 20
90.250000
 30
0.0
 10
6.873665
 20
90.250000
 30
0.0
  0
LWPOLYLINE
  5
179
100
AcDbEntity
  8
0
 62
7
100
AcDbPolyline
 90
2
 70
0
 10
-5.000529
 20
93.250534
 30
0.0
 10
2.999471
 20
93.252634
 30
0.0
  0
SPLINE
  5
17a
100
AcDbEntity
  8
0
 62
7
100
AcDbSpline
 70
8
 71
3
 72
8
 73
4
 74
0
 40
0
 40
0
 40
0
 40
0
 40
1
 40
1
 40
1
 40
1
 10
9.000000
 20
90.250000
 30
0.0
 10
9.138071
 20
90.250000
 30
0.0
 10
9.272874
 20
90.263990
 30
0.0
 10
9.403069
 20
90.290630
 30
0.0
  0
SPLINE
  5
17b
100
AcDbEntity
  8
0
 62
7
100
AcDbSpline
 70
8
 71
3
 72
8
 73
4
 74
0
 40
0
 40
0
 40
0
 40
0
 40
1
 40
1
 40
1
 40
1
 10
9.403069
 20
90.290630
 30
0.0
 10
9.533264
 20
90.317270
 30
0.0
 10
9.658852
 20
90.356560
 30
0.0
 10
9.778490
 20
90.407167
 30
0.0
  0
SPLINE
  5
17c
100
AcDbEntity
  8
0
 62
7
100
AcDbSpline
 70
8
 71
3
 72
8
 73
4
 74
0
 40
0
 40
0
 40
0
 40
0
 40
1
 40
1
 40
1
 40
1
 10
9.778490
 20
90.407167
 30
0.0
 10
9.898128
 20
90.457767
 30
0.0
 10
10.011818
 20
90.519683
 30
0.0
 10
10.118219
 20
90.591566
 30
0.0
  0
SPLINE
  5
17d
100
AcDbEntity
  8
0
 62
7
100
AcDbSpline
 70
8
 71
3
 72
8
 73
4
 74
0
 40
0
 40
0
 40
0
 40
0
 40
1
 40
1
 40
1
 40
1
 10
10.118219
 20
90.591566
 30
0.0
 10
10.224619
 20
90.663446
 30
0.0
 10
10.323731
 20
90.745301
 30
0.0
 10
10.414213
 20
90.835783
 30
0.0
  0
SPLINE
  5
17e
100
AcDbEntity
  8
0
 62
7
100
AcDbSpline
 70
8
 71
3
 72
8
 73
4
 74
0
 40
0
 40
0
 40
0
 40
0
 40
1
 40
1
 40
1
 40
1
 10
10.414213
 20
90.835783
 30
0.0
 10
10.504693
 20
90.926263
 30
0.0
 10
10.586548
 20
91.025377
 30
0.0
 10
10.658431
 20
91.131778
 30
0.0
  0
SPLINE
  5
17f
100
AcDbEntity
  8
0
 62
7
100
AcDbSpline
 70
8
 71
3
 72
8
 73
4
 74
0
 40
0
 40
0
 40
0
 40
0
 40
1
 40
1
 40
1
 40
1
 10
10.658431
 20
91.131778
 30
0.0
 10
10.730311
 20
91.238179
 30
0.0
 10
10.792227
 20
91.351868
 30
0.0
 10
10.842830
 20
91.471507
 30
0.0
  0
SPLINE
  5
180
100
AcDbEntity
  8
0
 62
7
100
AcDbSpline
 70
8
 71
3
 72
8
 73
4
 74
0
 40
0
 40
0
 40
0
 40
0
 40
1
 40
1
 40
1
 40
1
 10
10.842830
 20
91.471507
 30
0.0
 10
10.893430
 20
91.591145
 30
0.0
 10
10.932730
 20
91.716732
 30
0.0
 10
10.959367
 20
91.846927
 30
0.0
  0
SPLINE
  5
181
100
AcDbEntity
  8
0
 62
7
100
AcDbSpline
 70
8
 71
3
 72
8
 73
4
 74
0
 40
0
 40
0
 40
0
 40
0
 40
1
 40
1
 40
1
 40
1
 10
10.959367
 20
91.846927
 30
0.0
 10
10.986008
 20
91.977125
 30
0.0
 10
11.000000
 20
92.111929
 30
0.0
 10
11.000000
 20
92.250000
 30
0.0
  0
LWPOLYLINE
  5
182
100
AcDbEntity
  8
0
 62
7
100
AcDbPolyline
 90
2
 70
0
 10
6.873665
 20
90.250000
 30
0.0
 10
9.000000
 20
90.250000
 30
0.0
  0
SPLINE
  5
183
100
AcDbEntity
  8
0
 62
7
100
AcDbSpline
 70
8
 71
3
 72
8
 73
4
 74
0
 40
0
 40
0
 40
0
 40
0
 40
1
 40
1
 40
1
 40
1
 10
7.500000
 20
75.750000
 30
0.0
 10
7.500000
 20
75.819040
 30
0.0
 10
7.493000
 20
75.886437
 30
0.0
 10
7.479684
 20
75.951535
 30
0.0
  0
SPLINE
  5
184
100
AcDbEntity
  8
0
 62
7
100
AcDbSpline
 70
8
 71
3
 72
8
 73
4
 74
0
 40
0
 40
0
 40
0
 40
0
 40
1
 40
1
 40
1
 40
1
 10
7.479684
 20
75.951535
 30
0.0
 10
7.466363
 20
76.016635
 30
0.0
 10
7.446717
 20
76.079426
 30
0.0
 10
7.421415
 20
76.139245
 30
0.0
  0
SPLINE
  5
185
100
AcDbEntity
  8
0
 62
7
100
AcDbSpline
 70
8
 71
3
 72
8
 73
4
 74
0
 40
0
 40
0
 40
0
 40
0
 40
1
 40
1
 40
1
 40
1
 10
7.421415
 20
76.139245
 30
0.0
 10
7.396114
 20
76.199065
 30
0.0
 10
7.365157
 20
76.255909
 30
0.0
 10
7.329216
 20
76.309110
 30
0.0
  0
SPLINE
  5
186
100
AcDbEntity
  8
0
 62
7
100
AcDbSpline
 70
8
 71
3
 72
8
 73
4
 74
0
 40
0
 40
0
 40
0
 40
0
 40
1
 40
1
 40
1
 40
1
 10
7.329216
 20
76.309110
 30
0.0
 10
7.293275
 20
76.362310
 30
0.0
 10
7.252348
 20
76.411866
 30
0.0
 10
7.207107
 20
76.457107
 30
0.0
  0
SPLINE
  5
187
100
AcDbEntity
  8
0
 62
7
100
AcDbSpline
 70
8
 71
3
 72
8
 73
4
 74
0
 40
0
 40
0
 40
0
 40
0
 40
1
 40
1
 40
1
 40
1
 10
7.207107
 20
76.457107
 30
0.0
 10
7.161866
 20
76.502347
 30
0.0
 10
7.112310
 20
76.543277
 30
0.0
 10
7.059110
 20
76.579216
 30
0.0
  0
SPLINE
  5
188
100
AcDbEntity
  8
0
 62
7
100
AcDbSpline
 70
8
 71
3
 72
8
 73
4
 74
0
 40
0
 40
0
 40
0
 40
0
 40
1
 40
1
 40
1
 40
1
 10
7.059110
 20
76.579216
 30
0.0
 10
7.005910
 20
76.615156
 30
0.0
 10
6.949065
 20
76.646116
 30
0.0
 10
6.889245
 20
76.671416
 30
0.0
  0
SPLINE
  5
189
100
AcDbEntity
  8
0
 62
7
100
AcDbSpline
 70
8
 71
3
 72
8
 73
4
 74
0
 40
0
 40
0
 40
0
 40
0
 40
1
 40
1
 40
1
 40
1
 10
6.889245
 20
76.671416
 30
0.0
 10
6.829426
 20
76.696716
 30
0.0
 10
6.766633
 20
76.716366
 30
0.0
 10
6.701535
 20
76.729686
 30
0.0
  0
SPLINE
  5
18a
100
AcDbEntity
  8
0
 62
7
100
AcDbSpline
 70
8
 71
3
 72
8
 73
4
 74
0
 40
0
 40
0
 40
0
 40
0
 40
1
 40
1
 40
1
 40
1
 10
6.701535
 20
76.729686
 30
0.0
 10
6.636437
 20
76.743004
 30
0.0
 10
6.569036
 20
76.750000
 30
0.0
 10
6.500000
 20
76.750000
 30
0.0
  0
SPLINE
  5
18b
100
AcDbEntity
  8
0
 62
7
100
AcDbSpline
 70
8
 71
3
 72
8
 73
4
 74
0
 40
0
 40
0
 40
0
 40
0
 40
1
 40
1
 40
1
 40
1
 10
6.500000
 20
76.750000
 30
0.0
 10
6.430964
 20
76.750000
 30
0.0
 10
6.363563
 20
76.743000
 30
0.0
 10
6.298465
 20
76.729680
 30
0.0
  0
SPLINE
  5
18c
100
AcDbEntity
  8
0
 62
7
100
AcDbSpline
 70
8
 71
3
 72
8
 73
4
 74
0
 40
0
 40
0
 40
0
 40
0
 40
1
 40
1
 40
1
 40
1
 10
6.298465
 20
76.729680
 30
0.0
 10
6.233367
 20
76.716360
 30
0.0
 10
6.170574
 20
76.696710
 30
0.0
 10
6.110755
 20
76.671410
 30
0.0
  0
SPLINE
  5
18d
100
AcDbEntity
  8
0
 62
7
100
AcDbSpline
 70
8
 71
3
 72
8
 73
4
 74
0
 40
0
 40
0
 40
0
 40
0
 40
1
 40
1
 40
1
 40
1
 10
6.110755
 20
76.671410
 30
0.0
 10
6.050936
 20
76.646110
 30
0.0
 10
5.994091
 20
76.615150
 30
0.0
 10
5.940891
 20
76.579210
 30
0.0
  0
SPLINE
  5
18e
100
AcDbEntity
  8
0
 62
7
100
AcDbSpline
 70
8
 71
3
 72
8
 73
4
 74
0
 40
0
 40
0
 40
0
 40
0
 40
1
 40
1
 40
1
 40
1
 10
5.940891
 20
76.579210
 30
0.0
 10
5.887690
 20
76.543270
 30
0.0
 10
5.838134
 20
76.502340
 30
0.0
 10
5.792893
 20
76.457101
 30
0.0
  0
SPLINE
  5
18f
100
AcDbEntity
  8
0
 62
7
100
AcDbSpline
 70
8
 71
3
 72
8
 73
4
 74
0
 40
0
 40
0
 40
0
 40
0
 40
1
 40
1
 40
1
 40
1
 10
5.792893
 20
76.457101
 30
0.0
 10
5.747652
 20
76.411861
 30
0.0
 10
5.706725
 20
76.362301
 30
0.0
 10
5.670784
 20
76.309104
 30
0.0
  0
SPLINE
  5
190
100
AcDbEntity
  8
0
 62
7
100
AcDbSpline
 70
8
 71
3
 72
8
 73
4
 74
0
 40
0
 40
0
 40
0
 40
0
 40
1
 40
1
 40
1
 40
1
 10
5.670784
 20
76.309104
 30
0.0
 10
5.634843
 20
76.255904
 30
0.0
 10
5.603886
 20
76.199058
 30
0.0
 10
5.578585
 20
76.139239
 30
0.0
  0
SPLINE
  5
191
100
AcDbEntity
  8
0
 62
7
100
AcDbSpline
 70
8
 71
3
 72
8
 73
4
 74
0
 40
0
 40
0
 40
0
 40
0
 40
1
 40
1
 40
1
 40
1
 10
5.578585
 20
76.139239
 30
0.0
 10
5.553284
 20
76.079419
 30
0.0
 10
5.533637
 20
76.016626
 30
0.0
 10
5.520316
 20
75.951529
 30
0.0
  0
SPLINE
  5
192
100
AcDbEntity
  8
0
 62
7
100
AcDbSpline
 70
8
 71
3
 72
8
 73
4
 74
0
 40
0
 40
0
 40
0
 40
0
 40
1
 40
1
 40
1
 40
1
 10
5.520316
 20
75.951529
 30
0.0
 10
5.506996
 20
75.886437
 30
0.0
 10
5.500000
 20
75.819036
 30
0.0
 10
5.500000
 20
75.750000
 30
0.0
  0
SPLINE
  5
193
100
AcDbEntity
  8
0
 62
7
100
AcDbSpline
 70
8
 71
3
 72
8
 73
4
 74
0
 40
0
 40
0
 40
0
 40
0
 40
1
 40
1
 40
1
 40
1
 10
5.500000
 20
75.750000
 30
0.0
 10
5.500000
 20
75.680960
 30
0.0
 10
5.507000
 20
75.613563
 30
0.0
 10
5.520316
 20
75.548465
 30
0.0
  0
SPLINE
  5
194
100
AcDbEntity
  8
0
 62
7
100
AcDbSpline
 70
8
 71
3
 72
8
 73
4
 74
0
 40
0
 40
0
 40
0
 40
0
 40
1
 40
1
 40
1
 40
1
 10
5.520316
 20
75.548465
 30
0.0
 10
5.533637
 20
75.483365
 30
0.0
 10
5.553283
 20
75.420574
 30
0.0
 10
5.578585
 20
75.360755
 30
0.0
  0
SPLINE
  5
195
100
AcDbEntity
  8
0
 62
7
100
AcDbSpline
 70
8
 71
3
 72
8
 73
4
 74
0
 40
0
 40
0
 40
0
 40
0
 40
1
 40
1
 40
1
 40
1
 10
5.578585
 20
75.360755
 30
0.0
 10
5.603886
 20
75.300935
 30
0.0
 10
5.634843
 20
75.244091
 30
0.0
 10
5.670784
 20
75.190890
 30
0.0
  0
SPLINE
  5
196
100
AcDbEntity
  8
0
 62
7
100
AcDbSpline
 70
8
 71
3
 72
8
 73
4
 74
0
 40
0
 40
0
 40
0
 40
0
 40
1
 40
1
 40
1
 40
1
 10
5.670784
 20
75.190890
 30
0.0
 10
5.706725
 20
75.137690
 30
0.0
 10
5.747652
 20
75.088134
 30
0.0
 10
5.792893
 20
75.042893
 30
0.0
  0
SPLINE
  5
197
100
AcDbEntity
  8
0
 62
7
100
AcDbSpline
 70
8
 71
3
 72
8
 73
4
 74
0
 40
0
 40
0
 40
0
 40
0
 40
1
 40
1
 40
1
 40
1
 10
5.792893
 20
75.042893
 30
0.0
 10
5.838134
 20
74.997653
 30
0.0
 10
5.887690
 20
74.956723
 30
0.0
 10
5.940890
 20
74.920784
 30
0.0
  0
SPLINE
  5
198
100
AcDbEntity
  8
0
 62
7
100
AcDbSpline
 70
8
 71
3
 72
8
 73
4
 74
0
 40
0
 40
0
 40
0
 40
0
 40
1
 40
1
 40
1
 40
1
 10
5.940890
 20
74.920784
 30
0.0
 10
5.994090
 20
74.884844
 30
0.0
 10
6.050935
 20
74.853884
 30
0.0
 10
6.110755
 20
74.828584
 30
0.0
  0
SPLINE
  5
199
100
AcDbEntity
  8
0
 62
7
100
AcDbSpline
 70
8
 71
3
 72
8
 73
4
 74
0
 40
0
 40
0
 40
0
 40
0
 40
1
 40
1
 40
1
 40
1
 10
6.110755
 20
74.828584
 30
0.0
 10
6.170574
 20
74.803284
 30
0.0
 10
6.233367
 20
74.783634
 30
0.0
 10
6.298465
 20
74.770314
 30
0.0
  0
SPLINE
  5
19a
100
AcDbEntity
  8
0
 62
7
100
AcDbSpline
 70
8
 71
3
 72
8
 73
4
 74
0
 40
0
 40
0
 40
0
 40
0
 40
1
 40
1
 40
1
 40
1
 10
6.298465
 20
74.770314
 30
0.0
 10
6.363563
 20
74.756996
 30
0.0
 10
6.430964
 20
74.750000
 30
0.0
 10
6.500000
 20
74.750000
 30
0.0
  0
SPLINE
  5
19b
100
AcDbEntity
  8
0
 62
7
100
AcDbSpline
 70
8
 71
3
 72
8
 73
4
 74
0
 40
0
 40
0
 40
0
 40
0
 40
1
 40
1
 40
1
 40
1
 10
6.500000
 20
74.750000
 30
0.0
 10
6.569036
 20
74.750000
 30
0.0
 10
6.636437
 20
74.757000
 30
0.0
 10
6.701535
 20
74.770320
 30
0.0
  0
SPLINE
  5
19c
100
AcDbEntity
  8
0
 62
7
100
AcDbSpline
 70
8
 71
3
 72
8
 73
4
 74
0
 40
0
 40
0
 40
0
 40
0
 40
1
 40
1
 40
1
 40
1
 10
6.701535
 20
74.770320
 30
0.0
 10
6.766633
 20
74.783640
 30
0.0
 10
6.829426
 20
74.803290
 30
0.0
 10
6.889245
 20
74.828590
 30
0.0
  0
SPLINE
  5
19d
100
AcDbEntity
  8
0
 62
7
100
AcDbSpline
 70
8
 71
3
 72
8
 73
4
 74
0
 40
0
 40
0
 40
0
 40
0
 40
1
 40
1
 40
1
 40
1
 10
6.889245
 20
74.828590
 30
0.0
 10
6.949064
 20
74.853890
 30
0.0
 10
7.005909
 20
74.884850
 30
0.0
 10
7.059109
 20
74.920790
 30
0.0
  0
SPLINE
  5
19e
100
AcDbEntity
  8
0
 62
7
100
AcDbSpline
 70
8
 71
3
 72
8
 73
4
 74
0
 40
0
 40
0
 40
0
 40
0
 40
1
 40
1
 40
1
 40
1
 10
7.059109
 20
74.920790
 30
0.0
 10
7.112310
 20
74.956730
 30
0.0
 10
7.161866
 20
74.997660
 30
0.0
 10
7.207107
 20
75.042899
 30
0.0
  0
SPLINE
  5
19f
100
AcDbEntity
  8
0
 62
7
100
AcDbSpline
 70
8
 71
3
 72
8
 73
4
 74
0
 40
0
 40
0
 40
0
 40
0
 40
1
 40
1
 40
1
 40
1
 10
7.207107
 20
75.042899
 30
0.0
 10
7.252348
 20
75.088139
 30
0.0
 10
7.293275
 20
75.137699
 30
0.0
 10
7.329216
 20
75.190896
 30
0.0
  0
SPLINE
  5
1a0
100
AcDbEntity
  8
0
 62
7
100
AcDbSpline
 70
8
 71
3
 72
8
 73
4
 74
0
 40
0
 40
0
 40
0
 40
0
 40
1
 40
1
 40
1
 40
1
 10
7.329216
 20
75.190896
 30
0.0
 10
7.365157
 20
75.244096
 30
0.0
 10
7.396114
 20
75.300942
 30
0.0
 10
7.421415
 20
75.360761
 30
0.0
  0
SPLINE
  5
1a1
100
AcDbEntity
  8
0
 62
7
100
AcDbSpline
 70
8
 71
3
 72
8
 73
4
 74
0
 40
0
 40
0
 40
0
 40
0
 40
1
 40
1
 40
1
 40
1
 10
7.421415
 20
75.360761
 30
0.0
 10
7.446716
 20
75.420581
 30
0.0
 10
7.466363
 20
75.483374
 30
0.0
 10
7.479684
 20
75.548471
 30
0.0
  0
SPLINE
  5
1a2
100
AcDbEntity
  8
0
 62
7
100
AcDbSpline
 70
8
 71
3
 72
8
 73
4
 74
0
 40
0
 40
0
 40
0
 40
0
 40
1
 40
1
 40
1
 40
1
 10
7.479684
 20
75.548471
 30
0.0
 10
7.493004
 20
75.613563
 30
0.0
 10
7.500000
 20
75.680964
 30
0.0
 10
7.500000
 20
75.750000
 30
0.0
  0
LWPOLYLINE
  5
1a3
100
AcDbEntity
  8
0
 62
7
100
AcDbPolyline
 90
3
 70
0
 10
11.000000
 20
92.250000
 30
0.0
 10
11.000000
 20
95.250000
 30
0.0
 10
-10.000000
 20
95.250000
 30
0.0
  0
SPLINE
  5
1a4
100
AcDbEntity
  8
0
 62
7
100
AcDbSpline
 70
8
 71
3
 72
8
 73
4
 74
0
 40
0
 40
0
 40
0
 40
0
 40
1
 40
1
 40
1
 40
1
 10
7.500000
 20
59.750000
 30
0.0
 10
7.500000
 20
59.819036
 30
0.0
 10
7.493000
 20
59.886437
 30
0.0
 10
7.479684
 20
59.951535
 30
0.0
  0
SPLINE
  5
1a5
100
AcDbEntity
  8
0
 62
7
100
AcDbSpline
 70
8
 71
3
 72
8
 73
4
 74
0
 40
0
 40
0
 40
0
 40
0
 40
1
 40
1
 40
1
 40
1
 10
7.479684
 20
59.951535
 30
0.0
 10
7.466363
 20
60.016633
 30
0.0
 10
7.446717
 20
60.079426
 30
0.0
 10
7.421415
 20
60.139245
 30
0.0
  0
SPLINE
  5
1a6
100
AcDbEntity
  8
0
 62
7
100
AcDbSpline
 70
8
 71
3
 72
8
 73
4
 74
0
 40
0
 40
0
 40
0
 40
0
 40
1
 40
1
 40
1
 40
1
 10
7.421415
 20
60.139245
 30
0.0
 10
7.396114
 20
60.199064
 30
0.0
 10
7.365157
 20
60.255909
 30
0.0
 10
7.329216
 20
60.309109
 30
0.0
  0
SPLINE
  5
1a7
100
AcDbEntity
  8
0
 62
7
100
AcDbSpline
 70
8
 71
3
 72
8
 73
4
 74
0
 40
0
 40
0
 40
0
 40
0
 40
1
 40
1
 40
1
 40
1
 10
7.329216
 20
60.309109
 30
0.0
 10
7.293275
 20
60.362310
 30
0.0
 10
7.252348
 20
60.411866
 30
0.0
 10
7.207107
 20
60.457107
 30
0.0
  0
SPLINE
  5
1a8
100
AcDbEntity
  8
0
 62
7
100
AcDbSpline
 70
8
 71
3
 72
8
 73
4
 74
0
 40
0
 40
0
 40
0
 40
0
 40
1
 40
1
 40
1
 40
1
 10
7.207107
 20
60.457107
 30
0.0
 10
7.161866
 20
60.502348
 30
0.0
 10
7.112310
 20
60.543275
 30
0.0
 10
7.059110
 20
60.579216
 30
0.0
  0
SPLINE
  5
1a9
100
AcDbEntity
  8
0
 62
7
100
AcDbSpline
 70
8
 71
3
 72
8
 73
4
 74
0
 40
0
 40
0
 40
0
 40
0
 40
1
 40
1
 40
1
 40
1
 10
7.059110
 20
60.579216
 30
0.0
 10
7.005910
 20
60.615157
 30
0.0
 10
6.949065
 20
60.646114
 30
0.0
 10
6.889245
 20
60.671415
 30
0.0
  0
SPLINE
  5
1aa
100
AcDbEntity
  8
0
 62
7
100
AcDbSpline
 70
8
 71
3
 72
8
 73
4
 74
0
 40
0
 40
0
 40
0
 40
0
 40
1
 40
1
 40
1
 40
1
 10
6.889245
 20
60.671415
 30
0.0
 10
6.829426
 20
60.696716
 30
0.0
 10
6.766633
 20
60.716363
 30
0.0
 10
6.701535
 20
60.729684
 30
0.0
  0
SPLINE
  5
1ab
100
AcDbEntity
  8
0
 62
7
100
AcDbSpline
 70
8
 71
3
 72
8
 73
4
 74
0
 40
0
 40
0
 40
0
 40
0
 40
1
 40
1
 40
1
 40
1
 10
6.701535
 20
60.729684
 30
0.0
 10
6.636437
 20
60.743004
 30
0.0
 10
6.569036
 20
60.750000
 30
0.0
 10
6.500000
 20
60.750000
 30
0.0
  0
SPLINE
  5
1ac
100
AcDbEntity
  8
0
 62
7
100
AcDbSpline
 70
8
 71
3
 72
8
 73
4
 74
0
 40
0
 40
0
 40
0
 40
0
 40
1
 40
1
 40
1
 40
1
 10
6.500000
 20
60.750000
 30
0.0
 10
6.430964
 20
60.750000
 30
0.0
 10
6.363563
 20
60.743004
 30
0.0
 10
6.298465
 20
60.729684
 30
0.0
  0
SPLINE
  5
1ad
100
AcDbEntity
  8
0
 62
7
100
AcDbSpline
 70
8
 71
3
 72
8
 73
4
 74
0
 40
0
 40
0
 40
0
 40
0
 40
1
 40
1
 40
1
 40
1
 10
6.298465
 20
60.729684
 30
0.0
 10
6.233367
 20
60.716363
 30
0.0
 10
6.170574
 20
60.696716
 30
0.0
 10
6.110755
 20
60.671415
 30
0.0
  0
SPLINE
  5
1ae
100
AcDbEntity
  8
0
 62
7
100
AcDbSpline
 70
8
 71
3
 72
8
 73
4
 74
0
 40
0
 40
0
 40
0
 40
0
 40
1
 40
1
 40
1
 40
1
 10
6.110755
 20
60.671415
 30
0.0
 10
6.050936
 20
60.646114
 30
0.0
 10
5.994091
 20
60.615157
 30
0.0
 10
5.940891
 20
60.579216
 30
0.0
  0
SPLINE
  5
1af
100
AcDbEntity
  8
0
 62
7
100
AcDbSpline
 70
8
 71
3
 72
8
 73
4
 74
0
 40
0
 40
0
 40
0
 40
0
 40
1
 40
1
 40
1
 40
1
 10
5.940891
 20
60.579216
 30
0.0
 10
5.887690
 20
60.543274
 30
0.0
 10
5.838134
 20
60.502348
 30
0.0
 10
5.792893
 20
60.457107
 30
0.0
  0
SPLINE
  5
1b0
100
AcDbEntity
  8
0
 62
7
100
AcDbSpline
 70
8
 71
3
 72
8
 73
4
 74
0
 40
0
 40
0
 40
0
 40
0
 40
1
 40
1
 40
1
 40
1
 10
5.792893
 20
60.457107
 30
0.0
 10
5.747652
 20
60.411866
 30
0.0
 10
5.706726
 20
60.362310
 30
0.0
 10
5.670784
 20
60.309109
 30
0.0
  0
SPLINE
  5
1b1
100
AcDbEntity
  8
0
 62
7
100
AcDbSpline
 70
8
 71
3
 72
8
 73
4
 74
0
 40
0
 40
0
 40
0
 40
0
 40
1
 40
1
 40
1
 40
1
 10
5.670784
 20
60.309109
 30
0.0
 10
5.634843
 20
60.255909
 30
0.0
 10
5.603886
 20
60.199064
 30
0.0
 10
5.578585
 20
60.139245
 30
0.0
  0
SPLINE
  5
1b2
100
AcDbEntity
  8
0
 62
7
100
AcDbSpline
 70
8
 71
3
 72
8
 73
4
 74
0
 40
0
 40
0
 40
0
 40
0
 40
1
 40
1
 40
1
 40
1
 10
5.578585
 20
60.139245
 30
0.0
 10
5.553284
 20
60.079426
 30
0.0
 10
5.533637
 20
60.016633
 30
0.0
 10
5.520316
 20
59.951535
 30
0.0
  0
SPLINE
  5
1b3
100
AcDbEntity
  8
0
 62
7
100
AcDbSpline
 70
8
 71
3
 72
8
 73
4
 74
0
 40
0
 40
0
 40
0
 40
0
 40
1
 40
1
 40
1
 40
1
 10
5.520316
 20
59.951535
 30
0.0
 10
5.506996
 20
59.886437
 30
0.0
 10
5.500000
 20
59.819036
 30
0.0
 10
5.500000
 20
59.750000
 30
0.0
  0
SPLINE
  5
1b4
100
AcDbEntity
  8
0
 62
7
100
AcDbSpline
 70
8
 71
3
 72
8
 73
4
 74
0
 40
0
 40
0
 40
0
 40
0
 40
1
 40
1
 40
1
 40
1
 10
5.500000
 20
59.750000
 30
0.0
 10
5.500000
 20
59.680964
 30
0.0
 10
5.507000
 20
59.613563
 30
0.0
 10
5.520316
 20
59.548465
 30
0.0
  0
SPLINE
  5
1b5
100
AcDbEntity
  8
0
 62
7
100
AcDbSpline
 70
8
 71
3
 72
8
 73
4
 74
0
 40
0
 40
0
 40
0
 40
0
 40
1
 40
1
 40
1
 40
1
 10
5.520316
 20
59.548465
 30
0.0
 10
5.533637
 20
59.483367
 30
0.0
 10
5.553283
 20
59.420574
 30
0.0
 10
5.578585
 20
59.360755
 30
0.0
  0
SPLINE
  5
1b6
100
AcDbEntity
  8
0
 62
7
100
AcDbSpline
 70
8
 71
3
 72
8
 73
4
 74
0
 40
0
 40
0
 40
0
 40
0
 40
1
 40
1
 40
1
 40
1
 10
5.578585
 20
59.360755
 30
0.0
 10
5.603886
 20
59.300936
 30
0.0
 10
5.634843
 20
59.244091
 30
0.0
 10
5.670784
 20
59.190891
 30
0.0
  0
SPLINE
  5
1b7
100
AcDbEntity
  8
0
 62
7
100
AcDbSpline
 70
8
 71
3
 72
8
 73
4
 74
0
 40
0
 40
0
 40
0
 40
0
 40
1
 40
1
 40
1
 40
1
 10
5.670784
 20
59.190891
 30
0.0
 10
5.706725
 20
59.137690
 30
0.0
 10
5.747652
 20
59.088134
 30
0.0
 10
5.792893
 20
59.042893
 30
0.0
  0
SPLINE
  5
1b8
100
AcDbEntity
  8
0
 62
7
100
AcDbSpline
 70
8
 71
3
 72
8
 73
4
 74
0
 40
0
 40
0
 40
0
 40
0
 40
1
 40
1
 40
1
 40
1
 10
5.792893
 20
59.042893
 30
0.0
 10
5.838134
 20
58.997652
 30
0.0
 10
5.887690
 20
58.956725
 30
0.0
 10
5.940890
 20
58.920784
 30
0.0
  0
SPLINE
  5
1b9
100
AcDbEntity
  8
0
 62
7
100
AcDbSpline
 70
8
 71
3
 72
8
 73
4
 74
0
 40
0
 40
0
 40
0
 40
0
 40
1
 40
1
 40
1
 40
1
 10
5.940890
 20
58.920784
 30
0.0
 10
5.994090
 20
58.884842
 30
0.0
 10
6.050935
 20
58.853886
 30
0.0
 10
6.110755
 20
58.828585
 30
0.0
  0
SPLINE
  5
1ba
100
AcDbEntity
  8
0
 62
7
100
AcDbSpline
 70
8
 71
3
 72
8
 73
4
 74
0
 40
0
 40
0
 40
0
 40
0
 40
1
 40
1
 40
1
 40
1
 10
6.110755
 20
58.828585
 30
0.0
 10
6.170574
 20
58.803284
 30
0.0
 10
6.233367
 20
58.783637
 30
0.0
 10
6.298465
 20
58.770316
 30
0.0
  0
SPLINE
  5
1bb
100
AcDbEntity
  8
0
 62
7
100
AcDbSpline
 70
8
 71
3
 72
8
 73
4
 74
0
 40
0
 40
0
 40
0
 40
0
 40
1
 40
1
 40
1
 40
1
 10
6.298465
 20
58.770316
 30
0.0
 10
6.363563
 20
58.756996
 30
0.0
 10
6.430964
 20
58.750000
 30
0.0
 10
6.500000
 20
58.750000
 30
0.0
  0
SPLINE
  5
1bc
100
AcDbEntity
  8
0
 62
7
100
AcDbSpline
 70
8
 71
3
 72
8
 73
4
 74
0
 40
0
 40
0
 40
0
 40
0
 40
1
 40
1
 40
1
 40
1
 10
6.500000
 20
58.750000
 30
0.0
 10
6.569036
 20
58.750000
 30
0.0
 10
6.636437
 20
58.757000
 30
0.0
 10
6.701535
 20
58.770316
 30
0.0
  0
SPLINE
  5
1bd
100
AcDbEntity
  8
0
 62
7
100
AcDbSpline
 70
8
 71
3
 72
8
 73
4
 74
0
 40
0
 40
0
 40
0
 40
0
 40
1
 40
1
 40
1
 40
1
 10
6.701535
 20
58.770316
 30
0.0
 10
6.766633
 20
58.783637
 30
0.0
 10
6.829426
 20
58.803283
 30
0.0
 10
6.889245
 20
58.828585
 30
0.0
  0
SPLINE
  5
1be
100
AcDbEntity
  8
0
 62
7
100
AcDbSpline
 70
8
 71
3
 72
8
 73
4
 74
0
 40
0
 40
0
 40
0
 40
0
 40
1
 40
1
 40
1
 40
1
 10
6.889245
 20
58.828585
 30
0.0
 10
6.949064
 20
58.853886
 30
0.0
 10
7.005909
 20
58.884843
 30
0.0
 10
7.059109
 20
58.920784
 30
0.0
  0
SPLINE
  5
1bf
100
AcDbEntity
  8
0
 62
7
100
AcDbSpline
 70
8
 71
3
 72
8
 73
4
 74
0
 40
0
 40
0
 40
0
 40
0
 40
1
 40
1
 40
1
 40
1
 10
7.059109
 20
58.920784
 30
0.0
 10
7.112310
 20
58.956725
 30
0.0
 10
7.161866
 20
58.997652
 30
0.0
 10
7.207107
 20
59.042893
 30
0.0
  0
SPLINE
  5
1c0
100
AcDbEntity
  8
0
 62
7
100
AcDbSpline
 70
8
 71
3
 72
8
 73
4
 74
0
 40
0
 40
0
 40
0
 40
0
 40
1
 40
1
 40
1
 40
1
 10
7.207107
 20
59.042893
 30
0.0
 10
7.252348
 20
59.088134
 30
0.0
 10
7.293275
 20
59.137690
 30
0.0
 10
7.329216
 20
59.190890
 30
0.0
  0
SPLINE
  5
1c1
100
AcDbEntity
  8
0
 62
7
100
AcDbSpline
 70
8
 71
3
 72
8
 73
4
 74
0
 40
0
 40
0
 40
0
 40
0
 40
1
 40
1
 40
1
 40
1
 10
7.329216
 20
59.190890
 30
0.0
 10
7.365157
 20
59.244090
 30
0.0
 10
7.396114
 20
59.300935
 30
0.0
 10
7.421415
 20
59.360755
 30
0.0
  0
SPLINE
  5
1c2
100
AcDbEntity
  8
0
 62
7
100
AcDbSpline
 70
8
 71
3
 72
8
 73
4
 74
0
 40
0
 40
0
 40
0
 40
0
 40
1
 40
1
 40
1
 40
1
 10
7.421415
 20
59.360755
 30
0.0
 10
7.446716
 20
59.420574
 30
0.0
 10
7.466363
 20
59.483367
 30
0.0
 10
7.479684
 20
59.548465
 30
0.0
  0
SPLINE
  5
1c3
100
AcDbEntity
  8
0
 62
7
100
AcDbSpline
 70
8
 71
3
 72
8
 73
4
 74
0
 40
0
 40
0
 40
0
 40
0
 40
1
 40
1
 40
1
 40
1
 10
7.479684
 20
59.548465
 30
0.0
 10
7.493004
 20
59.613563
 30
0.0
 10
7.500000
 20
59.680964
 30
0.0
 10
7.500000
 20
59.750000
 30
0.0
  0
LWPOLYLINE
  5
1c4
100
AcDbEntity
  8
0
 62
7
100
AcDbPolyline
 90
2
 70
1
 10
7.500000
 20
75.750000
 30
0.0
 10
7.500000
 20
75.750000
 30
0.0
  0
SPLINE
  5
1c5
100
AcDbEntity
  8
0
 62
7
100
AcDbSpline
 70
8
 71
3
 72
8
 73
4
 74
0
 40
0
 40
0
 40
0
 40
0
 40
1
 40
1
 40
1
 40
1
 10
23.500000
 20
75.750000
 30
0.0
 10
23.500000
 20
75.819040
 30
0.0
 10
23.493000
 20
75.886437
 30
0.0
 10
23.479680
 20
75.951535
 30
0.0
  0
SPLINE
  5
1c6
100
AcDbEntity
  8
0
 62
7
100
AcDbSpline
 70
8
 71
3
 72
8
 73
4
 74
0
 40
0
 40
0
 40
0
 40
0
 40
1
 40
1
 40
1
 40
1
 10
23.479680
 20
75.951535
 30
0.0
 10
23.466360
 20
76.016635
 30
0.0
 10
23.446710
 20
76.079426
 30
0.0
 10
23.421410
 20
76.139245
 30
0.0
  0
SPLINE
  5
1c7
100
AcDbEntity
  8
0
 62
7
100
AcDbSpline
 70
8
 71
3
 72
8
 73
4
 74
0
 40
0
 40
0
 40
0
 40
0
 40
1
 40
1
 40
1
 40
1
 10
23.421410
 20
76.139245
 30
0.0
 10
23.396110
 20
76.199065
 30
0.0
 10
23.365150
 20
76.255909
 30
0.0
 10
23.329210
 20
76.309110
 30
0.0
  0
SPLINE
  5
1c8
100
AcDbEntity
  8
0
 62
7
100
AcDbSpline
 70
8
 71
3
 72
8
 73
4
 74
0
 40
0
 40
0
 40
0
 40
0
 40
1
 40
1
 40
1
 40
1
 10
23.329210
 20
76.309110
 30
0.0
 10
23.293270
 20
76.362310
 30
0.0
 10
23.252340
 20
76.411866
 30
0.0
 10
23.207101
 20
76.457107
 30
0.0
  0
SPLINE
  5
1c9
100
AcDbEntity
  8
0
 62
7
100
AcDbSpline
 70
8
 71
3
 72
8
 73
4
 74
0
 40
0
 40
0
 40
0
 40
0
 40
1
 40
1
 40
1
 40
1
 10
23.207101
 20
76.457107
 30
0.0
 10
23.161861
 20
76.502347
 30
0.0
 10
23.112301
 20
76.543277
 30
0.0
 10
23.059104
 20
76.579216
 30
0.0
  0
SPLINE
  5
1ca
100
AcDbEntity
  8
0
 62
7
100
AcDbSpline
 70
8
 71
3
 72
8
 73
4
 74
0
 40
0
 40
0
 40
0
 40
0
 40
1
 40
1
 40
1
 40
1
 10
23.059104
 20
76.579216
 30
0.0
 10
23.005904
 20
76.615156
 30
0.0
 10
22.949058
 20
76.646116
 30
0.0
 10
22.889239
 20
76.671416
 30
0.0
  0
SPLINE
  5
1cb
100
AcDbEntity
  8
0
 62
7
100
AcDbSpline
 70
8
 71
3
 72
8
 73
4
 74
0
 40
0
 40
0
 40
0
 40
0
 40
1
 40
1
 40
1
 40
1
 10
22.889239
 20
76.671416
 30
0.0
 10
22.829419
 20
76.696716
 30
0.0
 10
22.766626
 20
76.716366
 30
0.0
 10
22.701529
 20
76.729686
 30
0.0
  0
SPLINE
  5
1cc
100
AcDbEntity
  8
0
 62
7
100
AcDbSpline
 70
8
 71
3
 72
8
 73
4
 74
0
 40
0
 40
0
 40
0
 40
0
 40
1
 40
1
 40
1
 40
1
 10
22.701529
 20
76.729686
 30
0.0
 10
22.636437
 20
76.743004
 30
0.0
 10
22.569036
 20
76.750000
 30
0.0
 10
22.500000
 20
76.750000
 30
0.0
  0
SPLINE
  5
1cd
100
AcDbEntity
  8
0
 62
7
100
AcDbSpline
 70
8
 71
3
 72
8
 73
4
 74
0
 40
0
 40
0
 40
0
 40
0
 40
1
 40
1
 40
1
 40
1
 10
22.500000
 20
76.750000
 30
0.0
 10
22.430960
 20
76.750000
 30
0.0
 10
22.363563
 20
76.743000
 30
0.0
 10
22.298465
 20
76.729680
 30
0.0
  0
SPLINE
  5
1ce
100
AcDbEntity
  8
0
 62
7
100
AcDbSpline
 70
8
 71
3
 72
8
 73
4
 74
0
 40
0
 40
0
 40
0
 40
0
 40
1
 40
1
 40
1
 40
1
 10
22.298465
 20
76.729680
 30
0.0
 10
22.233365
 20
76.716360
 30
0.0
 10
22.170574
 20
76.696710
 30
0.0
 10
22.110755
 20
76.671410
 30
0.0
  0
SPLINE
  5
1cf
100
AcDbEntity
  8
0
 62
7
100
AcDbSpline
 70
8
 71
3
 72
8
 73
4
 74
0
 40
0
 40
0
 40
0
 40
0
 40
1
 40
1
 40
1
 40
1
 10
22.110755
 20
76.671410
 30
0.0
 10
22.050935
 20
76.646110
 30
0.0
 10
21.994091
 20
76.615150
 30
0.0
 10
21.940890
 20
76.579210
 30
0.0
  0
SPLINE
  5
1d0
100
AcDbEntity
  8
0
 62
7
100
AcDbSpline
 70
8
 71
3
 72
8
 73
4
 74
0
 40
0
 40
0
 40
0
 40
0
 40
1
 40
1
 40
1
 40
1
 10
21.940890
 20
76.579210
 30
0.0
 10
21.887690
 20
76.543270
 30
0.0
 10
21.838134
 20
76.502340
 30
0.0
 10
21.792893
 20
76.457101
 30
0.0
  0
SPLINE
  5
1d1
100
AcDbEntity
  8
0
 62
7
100
AcDbSpline
 70
8
 71
3
 72
8
 73
4
 74
0
 40
0
 40
0
 40
0
 40
0
 40
1
 40
1
 40
1
 40
1
 10
21.792893
 20
76.457101
 30
0.0
 10
21.747653
 20
76.411861
 30
0.0
 10
21.706723
 20
76.362301
 30
0.0
 10
21.670784
 20
76.309104
 30
0.0
  0
SPLINE
  5
1d2
100
AcDbEntity
  8
0
 62
7
100
AcDbSpline
 70
8
 71
3
 72
8
 73
4
 74
0
 40
0
 40
0
 40
0
 40
0
 40
1
 40
1
 40
1
 40
1
 10
21.670784
 20
76.309104
 30
0.0
 10
21.634844
 20
76.255904
 30
0.0
 10
21.603884
 20
76.199058
 30
0.0
 10
21.578584
 20
76.139239
 30
0.0
  0
SPLINE
  5
1d3
100
AcDbEntity
  8
0
 62
7
100
AcDbSpline
 70
8
 71
3
 72
8
 73
4
 74
0
 40
0
 40
0
 40
0
 40
0
 40
1
 40
1
 40
1
 40
1
 10
21.578584
 20
76.139239
 30
0.0
 10
21.553284
 20
76.079419
 30
0.0
 10
21.533634
 20
76.016626
 30
0.0
 10
21.520314
 20
75.951529
 30
0.0
  0
SPLINE
  5
1d4
100
AcDbEntity
  8
0
 62
7
100
AcDbSpline
 70
8
 71
3
 72
8
 73
4
 74
0
 40
0
 40
0
 40
0
 40
0
 40
1
 40
1
 40
1
 40
1
 10
21.520314
 20
75.951529
 30
0.0
 10
21.506996
 20
75.886437
 30
0.0
 10
21.500000
 20
75.819036
 30
0.0
 10
21.500000
 20
75.750000
 30
0.0
  0
SPLINE
  5
1d5
100
AcDbEntity
  8
0
 62
7
100
AcDbSpline
 70
8
 71
3
 72
8
 73
4
 74
0
 40
0
 40
0
 40
0
 40
0
 40
1
 40
1
 40
1
 40
1
 10
21.500000
 20
75.750000
 30
0.0
 10
21.500000
 20
75.680960
 30
0.0
 10
21.507000
 20
75.613563
 30
0.0
 10
21.520320
 20
75.548465
 30
0.0
  0
SPLINE
  5
1d6
100
AcDbEntity
  8
0
 62
7
100
AcDbSpline
 70
8
 71
3
 72
8
 73
4
 74
0
 40
0
 40
0
 40
0
 40
0
 40
1
 40
1
 40
1
 40
1
 10
21.520320
 20
75.548465
 30
0.0
 10
21.533640
 20
75.483365
 30
0.0
 10
21.553290
 20
75.420574
 30
0.0
 10
21.578590
 20
75.360755
 30
0.0
  0
SPLINE
  5
1d7
100
AcDbEntity
  8
0
 62
7
100
AcDbSpline
 70
8
 71
3
 72
8
 73
4
 74
0
 40
0
 40
0
 40
0
 40
0
 40
1
 40
1
 40
1
 40
1
 10
21.578590
 20
75.360755
 30
0.0
 10
21.603890
 20
75.300935
 30
0.0
 10
21.634850
 20
75.244091
 30
0.0
 10
21.670790
 20
75.190890
 30
0.0
  0
SPLINE
  5
1d8
100
AcDbEntity
  8
0
 62
7
100
AcDbSpline
 70
8
 71
3
 72
8
 73
4
 74
0
 40
0
 40
0
 40
0
 40
0
 40
1
 40
1
 40
1
 40
1
 10
21.670790
 20
75.190890
 30
0.0
 10
21.706730
 20
75.137690
 30
0.0
 10
21.747660
 20
75.088134
 30
0.0
 10
21.792899
 20
75.042893
 30
0.0
  0
SPLINE
  5
1d9
100
AcDbEntity
  8
0
 62
7
100
AcDbSpline
 70
8
 71
3
 72
8
 73
4
 74
0
 40
0
 40
0
 40
0
 40
0
 40
1
 40
1
 40
1
 40
1
 10
21.792899
 20
75.042893
 30
0.0
 10
21.838139
 20
74.997653
 30
0.0
 10
21.887699
 20
74.956723
 30
0.0
 10
21.940896
 20
74.920784
 30
0.0
  0
SPLINE
  5
1da
100
AcDbEntity
  8
0
 62
7
100
AcDbSpline
 70
8
 71
3
 72
8
 73
4
 74
0
 40
0
 40
0
 40
0
 40
0
 40
1
 40
1
 40
1
 40
1
 10
21.940896
 20
74.920784
 30
0.0
 10
21.994096
 20
74.884844
 30
0.0
 10
22.050942
 20
74.853884
 30
0.0
 10
22.110761
 20
74.828584
 30
0.0
  0
SPLINE
  5
1db
100
AcDbEntity
  8
0
 62
7
100
AcDbSpline
 70
8
 71
3
 72
8
 73
4
 74
0
 40
0
 40
0
 40
0
 40
0
 40
1
 40
1
 40
1
 40
1
 10
22.110761
 20
74.828584
 30
0.0
 10
22.170581
 20
74.803284
 30
0.0
 10
22.233374
 20
74.783634
 30
0.0
 10
22.298471
 20
74.770314
 30
0.0
  0
SPLINE
  5
1dc
100
AcDbEntity
  8
0
 62
7
100
AcDbSpline
 70
8
 71
3
 72
8
 73
4
 74
0
 40
0
 40
0
 40
0
 40
0
 40
1
 40
1
 40
1
 40
1
 10
22.298471
 20
74.770314
 30
0.0
 10
22.363563
 20
74.756996
 30
0.0
 10
22.430964
 20
74.750000
 30
0.0
 10
22.500000
 20
74.750000
 30
0.0
  0
SPLINE
  5
1dd
100
AcDbEntity
  8
0
 62
7
100
AcDbSpline
 70
8
 71
3
 72
8
 73
4
 74
0
 40
0
 40
0
 40
0
 40
0
 40
1
 40
1
 40
1
 40
1
 10
22.500000
 20
74.750000
 30
0.0
 10
22.569040
 20
74.750000
 30
0.0
 10
22.636437
 20
74.757000
 30
0.0
 10
22.701535
 20
74.770320
 30
0.0
  0
SPLINE
  5
1de
100
AcDbEntity
  8
0
 62
7
100
AcDbSpline
 70
8
 71
3
 72
8
 73
4
 74
0
 40
0
 40
0
 40
0
 40
0
 40
1
 40
1
 40
1
 40
1
 10
22.701535
 20
74.770320
 30
0.0
 10
22.766635
 20
74.783640
 30
0.0
 10
22.829426
 20
74.803290
 30
0.0
 10
22.889245
 20
74.828590
 30
0.0
  0
SPLINE
  5
1df
100
AcDbEntity
  8
0
 62
7
100
AcDbSpline
 70
8
 71
3
 72
8
 73
4
 74
0
 40
0
 40
0
 40
0
 40
0
 40
1
 40
1
 40
1
 40
1
 10
22.889245
 20
74.828590
 30
0.0
 10
22.949065
 20
74.853890
 30
0.0
 10
23.005909
 20
74.884850
 30
0.0
 10
23.059110
 20
74.920790
 30
0.0
  0
SPLINE
  5
1e0
100
AcDbEntity
  8
0
 62
7
100
AcDbSpline
 70
8
 71
3
 72
8
 73
4
 74
0
 40
0
 40
0
 40
0
 40
0
 40
1
 40
1
 40
1
 40
1
 10
23.059110
 20
74.920790
 30
0.0
 10
23.112310
 20
74.956730
 30
0.0
 10
23.161866
 20
74.997660
 30
0.0
 10
23.207107
 20
75.042899
 30
0.0
  0
SPLINE
  5
1e1
100
AcDbEntity
  8
0
 62
7
100
AcDbSpline
 70
8
 71
3
 72
8
 73
4
 74
0
 40
0
 40
0
 40
0
 40
0
 40
1
 40
1
 40
1
 40
1
 10
23.207107
 20
75.042899
 30
0.0
 10
23.252347
 20
75.088139
 30
0.0
 10
23.293277
 20
75.137699
 30
0.0
 10
23.329216
 20
75.190896
 30
0.0
  0
SPLINE
  5
1e2
100
AcDbEntity
  8
0
 62
7
100
AcDbSpline
 70
8
 71
3
 72
8
 73
4
 74
0
 40
0
 40
0
 40
0
 40
0
 40
1
 40
1
 40
1
 40
1
 10
23.329216
 20
75.190896
 30
0.0
 10
23.365156
 20
75.244096
 30
0.0
 10
23.396116
 20
75.300942
 30
0.0
 10
23.421416
 20
75.360761
 30
0.0
  0
SPLINE
  5
1e3
100
AcDbEntity
  8
0
 62
7
100
AcDbSpline
 70
8
 71
3
 72
8
 73
4
 74
0
 40
0
 40
0
 40
0
 40
0
 40
1
 40
1
 40
1
 40
1
 10
23.421416
 20
75.360761
 30
0.0
 10
23.446716
 20
75.420581
 30
0.0
 10
23.466366
 20
75.483374
 30
0.0
 10
23.479686
 20
75.548471
 30
0.0
  0
SPLINE
  5
1e4
100
AcDbEntity
  8
0
 62
7
100
AcDbSpline
 70
8
 71
3
 72
8
 73
4
 74
0
 40
0
 40
0
 40
0
 40
0
 40
1
 40
1
 40
1
 40
1
 10
23.479686
 20
75.548471
 30
0.0
 10
23.493004
 20
75.613563
 30
0.0
 10
23.500000
 20
75.680964
 30
0.0
 10
23.500000
 20
75.750000
 30
0.0
  0
LWPOLYLINE
  5
1e5
100
AcDbEntity
  8
0
 62
7
100
AcDbPolyline
 90
2
 70
1
 10
7.500000
 20
59.750000
 30
0.0
 10
7.500000
 20
59.750000
 30
0.0
  0
SPLINE
  5
1e6
100
AcDbEntity
  8
0
 62
7
100
AcDbSpline
 70
8
 71
3
 72
8
 73
4
 74
0
 40
0
 40
0
 40
0
 40
0
 40
1
 40
1
 40
1
 40
1
 10
23.500000
 20
59.750000
 30
0.0
 10
23.500000
 20
59.819036
 30
0.0
 10
23.493000
 20
59.886437
 30
0.0
 10
23.479680
 20
59.951535
 30
0.0
  0
SPLINE
  5
1e7
100
AcDbEntity
  8
0
 62
7
100
AcDbSpline
 70
8
 71
3
 72
8
 73
4
 74
0
 40
0
 40
0
 40
0
 40
0
 40
1
 40
1
 40
1
 40
1
 10
23.479680
 20
59.951535
 30
0.0
 10
23.466360
 20
60.016633
 30
0.0
 10
23.446710
 20
60.079426
 30
0.0
 10
23.421410
 20
60.139245
 30
0.0
  0
SPLINE
  5
1e8
100
AcDbEntity
  8
0
 62
7
100
AcDbSpline
 70
8
 71
3
 72
8
 73
4
 74
0
 40
0
 40
0
 40
0
 40
0
 40
1
 40
1
 40
1
 40
1
 10
23.421410
 20
60.139245
 30
0.0
 10
23.396110
 20
60.199064
 30
0.0
 10
23.365150
 20
60.255909
 30
0.0
 10
23.329210
 20
60.309109
 30
0.0
  0
SPLINE
  5
1e9
100
AcDbEntity
  8
0
 62
7
100
AcDbSpline
 70
8
 71
3
 72
8
 73
4
 74
0
 40
0
 40
0
 40
0
 40
0
 40
1
 40
1
 40
1
 40
1
 10
23.329210
 20
60.309109
 30
0.0
 10
23.293270
 20
60.362310
 30
0.0
 10
23.252340
 20
60.411866
 30
0.0
 10
23.207101
 20
60.457107
 30
0.0
  0
SPLINE
  5
1ea
100
AcDbEntity
  8
0
 62
7
100
AcDbSpline
 70
8
 71
3
 72
8
 73
4
 74
0
 40
0
 40
0
 40
0
 40
0
 40
1
 40
1
 40
1
 40
1
 10
23.207101
 20
60.457107
 30
0.0
 10
23.161861
 20
60.502348
 30
0.0
 10
23.112301
 20
60.543275
 30
0.0
 10
23.059104
 20
60.579216
 30
0.0
  0
SPLINE
  5
1eb
100
AcDbEntity
  8
0
 62
7
100
AcDbSpline
 70
8
 71
3
 72
8
 73
4
 74
0
 40
0
 40
0
 40
0
 40
0
 40
1
 40
1
 40
1
 40
1
 10
23.059104
 20
60.579216
 30
0.0
 10
23.005904
 20
60.615157
 30
0.0
 10
22.949058
 20
60.646114
 30
0.0
 10
22.889239
 20
60.671415
 30
0.0
  0
SPLINE
  5
1ec
100
AcDbEntity
  8
0
 62
7
100
AcDbSpline
 70
8
 71
3
 72
8
 73
4
 74
0
 40
0
 40
0
 40
0
 40
0
 40
1
 40
1
 40
1
 40
1
 10
22.889239
 20
60.671415
 30
0.0
 10
22.829419
 20
60.696716
 30
0.0
 10
22.766626
 20
60.716363
 30
0.0
 10
22.701529
 20
60.729684
 30
0.0
  0
SPLINE
  5
1ed
100
AcDbEntity
  8
0
 62
7
100
AcDbSpline
 70
8
 71
3
 72
8
 73
4
 74
0
 40
0
 40
0
 40
0
 40
0
 40
1
 40
1
 40
1
 40
1
 10
22.701529
 20
60.729684
 30
0.0
 10
22.636437
 20
60.743004
 30
0.0
 10
22.569036
 20
60.750000
 30
0.0
 10
22.500000
 20
60.750000
 30
0.0
  0
SPLINE
  5
1ee
100
AcDbEntity
  8
0
 62
7
100
AcDbSpline
 70
8
 71
3
 72
8
 73
4
 74
0
 40
0
 40
0
 40
0
 40
0
 40
1
 40
1
 40
1
 40
1
 10
22.500000
 20
60.750000
 30
0.0
 10
22.430960
 20
60.750000
 30
0.0
 10
22.363563
 20
60.743000
 30
0.0
 10
22.298465
 20
60.729684
 30
0.0
  0
SPLINE
  5
1ef
100
AcDbEntity
  8
0
 62
7
100
AcDbSpline
 70
8
 71
3
 72
8
 73
4
 74
0
 40
0
 40
0
 40
0
 40
0
 40
1
 40
1
 40
1
 40
1
 10
22.298465
 20
60.729684
 30
0.0
 10
22.233365
 20
60.716363
 30
0.0
 10
22.170574
 20
60.696717
 30
0.0
 10
22.110755
 20
60.671415
 30
0.0
  0
SPLINE
  5
1f0
100
AcDbEntity
  8
0
 62
7
100
AcDbSpline
 70
8
 71
3
 72
8
 73
4
 74
0
 40
0
 40
0
 40
0
 40
0
 40
1
 40
1
 40
1
 40
1
 10
22.110755
 20
60.671415
 30
0.0
 10
22.050935
 20
60.646114
 30
0.0
 10
21.994091
 20
60.615157
 30
0.0
 10
21.940890
 20
60.579216
 30
0.0
  0
SPLINE
  5
1f1
100
AcDbEntity
  8
0
 62
7
100
AcDbSpline
 70
8
 71
3
 72
8
 73
4
 74
0
 40
0
 40
0
 40
0
 40
0
 40
1
 40
1
 40
1
 40
1
 10
21.940890
 20
60.579216
 30
0.0
 10
21.887690
 20
60.543275
 30
0.0
 10
21.838134
 20
60.502348
 30
0.0
 10
21.792893
 20
60.457107
 30
0.0
  0
SPLINE
  5
1f2
100
AcDbEntity
  8
0
 62
7
100
AcDbSpline
 70
8
 71
3
 72
8
 73
4
 74
0
 40
0
 40
0
 40
0
 40
0
 40
1
 40
1
 40
1
 40
1
 10
21.792893
 20
60.457107
 30
0.0
 10
21.747653
 20
60.411866
 30
0.0
 10
21.706723
 20
60.362310
 30
0.0
 10
21.670784
 20
60.309110
 30
0.0
  0
SPLINE
  5
1f3
100
AcDbEntity
  8
0
 62
7
100
AcDbSpline
 70
8
 71
3
 72
8
 73
4
 74
0
 40
0
 40
0
 40
0
 40
0
 40
1
 40
1
 40
1
 40
1
 10
21.670784
 20
60.309110
 30
0.0
 10
21.634844
 20
60.255910
 30
0.0
 10
21.603884
 20
60.199065
 30
0.0
 10
21.578584
 20
60.139245
 30
0.0
  0
SPLINE
  5
1f4
100
AcDbEntity
  8
0
 62
7
100
AcDbSpline
 70
8
 71
3
 72
8
 73
4
 74
0
 40
0
 40
0
 40
0
 40
0
 40
1
 40
1
 40
1
 40
1
 10
21.578584
 20
60.139245
 30
0.0
 10
21.553284
 20
60.079426
 30
0.0
 10
21.533634
 20
60.016633
 30
0.0
 10
21.520314
 20
59.951535
 30
0.0
  0
SPLINE
  5
1f5
100
AcDbEntity
  8
0
 62
7
100
AcDbSpline
 70
8
 71
3
 72
8
 73
4
 74
0
 40
0
 40
0
 40
0
 40
0
 40
1
 40
1
 40
1
 40
1
 10
21.520314
 20
59.951535
 30
0.0
 10
21.506996
 20
59.886437
 30
0.0
 10
21.500000
 20
59.819036
 30
0.0
 10
21.500000
 20
59.750000
 30
0.0
  0
SPLINE
  5
1f6
100
AcDbEntity
  8
0
 62
7
100
AcDbSpline
 70
8
 71
3
 72
8
 73
4
 74
0
 40
0
 40
0
 40
0
 40
0
 40
1
 40
1
 40
1
 40
1
 10
21.500000
 20
59.750000
 30
0.0
 10
21.500000
 20
59.680964
 30
0.0
 10
21.507000
 20
59.613563
 30
0.0
 10
21.520320
 20
59.548465
 30
0.0
  0
SPLINE
  5
1f7
100
AcDbEntity
  8
0
 62
7
100
AcDbSpline
 70
8
 71
3
 72
8
 73
4
 74
0
 40
0
 40
0
 40
0
 40
0
 40
1
 40
1
 40
1
 40
1
 10
21.520320
 20
59.548465
 30
0.0
 10
21.533640
 20
59.483367
 30
0.0
 10
21.553290
 20
59.420574
 30
0.0
 10
21.578590
 20
59.360755
 30
0.0
  0
SPLINE
  5
1f8
100
AcDbEntity
  8
0
 62
7
100
AcDbSpline
 70
8
 71
3
 72
8
 73
4
 74
0
 40
0
 40
0
 40
0
 40
0
 40
1
 40
1
 40
1
 40
1
 10
21.578590
 20
59.360755
 30
0.0
 10
21.603890
 20
59.300936
 30
0.0
 10
21.634850
 20
59.244091
 30
0.0
 10
21.670790
 20
59.190891
 30
0.0
  0
SPLINE
  5
1f9
100
AcDbEntity
  8
0
 62
7
100
AcDbSpline
 70
8
 71
3
 72
8
 73
4
 74
0
 40
0
 40
0
 40
0
 40
0
 40
1
 40
1
 40
1
 40
1
 10
21.670790
 20
59.190891
 30
0.0
 10
21.706730
 20
59.137690
 30
0.0
 10
21.747660
 20
59.088134
 30
0.0
 10
21.792899
 20
59.042893
 30
0.0
  0
SPLINE
  5
1fa
100
AcDbEntity
  8
0
 62
7
100
AcDbSpline
 70
8
 71
3
 72
8
 73
4
 74
0
 40
0
 40
0
 40
0
 40
0
 40
1
 40
1
 40
1
 40
1
 10
21.792899
 20
59.042893
 30
0.0
 10
21.838139
 20
58.997652
 30
0.0
 10
21.887699
 20
58.956725
 30
0.0
 10
21.940896
 20
58.920784
 30
0.0
  0
SPLINE
  5
1fb
100
AcDbEntity
  8
0
 62
7
100
AcDbSpline
 70
8
 71
3
 72
8
 73
4
 74
0
 40
0
 40
0
 40
0
 40
0
 40
1
 40
1
 40
1
 40
1
 10
21.940896
 20
58.920784
 30
0.0
 10
21.994096
 20
58.884842
 30
0.0
 10
22.050942
 20
58.853886
 30
0.0
 10
22.110761
 20
58.828585
 30
0.0
  0
SPLINE
  5
1fc
100
AcDbEntity
  8
0
 62
7
100
AcDbSpline
 70
8
 71
3
 72
8
 73
4
 74
0
 40
0
 40
0
 40
0
 40
0
 40
1
 40
1
 40
1
 40
1
 10
22.110761
 20
58.828585
 30
0.0
 10
22.170581
 20
58.803284
 30
0.0
 10
22.233374
 20
58.783637
 30
0.0
 10
22.298471
 20
58.770316
 30
0.0
  0
SPLINE
  5
1fd
100
AcDbEntity
  8
0
 62
7
100
AcDbSpline
 70
8
 71
3
 72
8
 73
4
 74
0
 40
0
 40
0
 40
0
 40
0
 40
1
 40
1
 40
1
 40
1
 10
22.298471
 20
58.770316
 30
0.0
 10
22.363563
 20
58.756996
 30
0.0
 10
22.430964
 20
58.750000
 30
0.0
 10
22.500000
 20
58.750000
 30
0.0
  0
SPLINE
  5
1fe
100
AcDbEntity
  8
0
 62
7
100
AcDbSpline
 70
8
 71
3
 72
8
 73
4
 74
0
 40
0
 40
0
 40
0
 40
0
 40
1
 40
1
 40
1
 40
1
 10
22.500000
 20
58.750000
 30
0.0
 10
22.569040
 20
58.750000
 30
0.0
 10
22.636437
 20
58.757000
 30
0.0
 10
22.701535
 20
58.770316
 30
0.0
  0
SPLINE
  5
1ff
100
AcDbEntity
  8
0
 62
7
100
AcDbSpline
 70
8
 71
3
 72
8
 73
4
 74
0
 40
0
 40
0
 40
0
 40
0
 40
1
 40
1
 40
1
 40
1
 10
22.701535
 20
58.770316
 30
0.0
 10
22.766635
 20
58.783637
 30
0.0
 10
22.829426
 20
58.803283
 30
0.0
 10
22.889245
 20
58.828585
 30
0.0
  0
SPLINE
  5
200
100
AcDbEntity
  8
0
 62
7
100
AcDbSpline
 70
8
 71
3
 72
8
 73
4
 74
0
 40
0
 40
0
 40
0
 40
0
 40
1
 40
1
 40
1
 40
1
 10
22.889245
 20
58.828585
 30
0.0
 10
22.949065
 20
58.853886
 30
0.0
 10
23.005909
 20
58.884843
 30
0.0
 10
23.059110
 20
58.920784
 30
0.0
  0
SPLINE
  5
201
100
AcDbEntity
  8
0
 62
7
100
AcDbSpline
 70
8
 71
3
 72
8
 73
4
 74
0
 40
0
 40
0
 40
0
 40
0
 40
1
 40
1
 40
1
 40
1
 10
23.059110
 20
58.920784
 30
0.0
 10
23.112310
 20
58.956725
 30
0.0
 10
23.161866
 20
58.997652
 30
0.0
 10
23.207107
 20
59.042893
 30
0.0
  0
SPLINE
  5
202
100
AcDbEntity
  8
0
 62
7
100
AcDbSpline
 70
8
 71
3
 72
8
 73
4
 74
0
 40
0
 40
0
 40
0
 40
0
 40
1
 40
1
 40
1
 40
1
 10
23.207107
 20
59.042893
 30
0.0
 10
23.252347
 20
59.088134
 30
0.0
 10
23.293277
 20
59.137690
 30
0.0
 10
23.329216
 20
59.190890
 30
0.0
  0
SPLINE
  5
203
100
AcDbEntity
  8
0
 62
7
100
AcDbSpline
 70
8
 71
3
 72
8
 73
4
 74
0
 40
0
 40
0
 40
0
 40
0
 40
1
 40
1
 40
1
 40
1
 10
23.329216
 20
59.190890
 30
0.0
 10
23.365156
 20
59.244090
 30
0.0
 10
23.396116
 20
59.300935
 30
0.0
 10
23.421416
 20
59.360755
 30
0.0
  0
SPLINE
  5
204
100
AcDbEntity
  8
0
 62
7
100
AcDbSpline
 70
8
 71
3
 72
8
 73
4
 74
0
 40
0
 40
0
 40
0
 40
0
 40
1
 40
1
 40
1
 40
1
 10
23.421416
 20
59.360755
 30
0.0
 10
23.446716
 20
59.420574
 30
0.0
 10
23.466366
 20
59.483367
 30
0.0
 10
23.479686
 20
59.548465
 30
0.0
  0
SPLINE
  5
205
100
AcDbEntity
  8
0
 62
7
100
AcDbSpline
 70
8
 71
3
 72
8
 73
4
 74
0
 40
0
 40
0
 40
0
 40
0
 40
1
 40
1
 40
1
 40
1
 10
23.479686
 20
59.548465
 30
0.0
 10
23.493004
 20
59.613563
 30
0.0
 10
23.500000
 20
59.680964
 30
0.0
 10
23.500000
 20
59.750000
 30
0.0
  0
LWPOLYLINE
  5
206
100
AcDbEntity
  8
0
 62
7
100
AcDbPolyline
 90
2
 70
1
 10
23.500000
 20
75.750000
 30
0.0
 10
23.500000
 20
75.750000
 30
0.0
  0
SPLINE
  5
207
100
AcDbEntity
  8
0
 62
7
100
AcDbSpline
 70
8
 71
3
 72
8
 73
4
 74
0
 40
0
 40
0
 40
0
 40
0
 40
1
 40
1
 40
1
 40
1
 10
23.500000
 20
67.750000
 30
0.0
 10
23.500000
 20
67.819040
 30
0.0
 10
23.493000
 20
67.886437
 30
0.0
 10
23.479680
 20
67.951535
 30
0.0
  0
SPLINE
  5
208
100
AcDbEntity
  8
0
 62
7
100
AcDbSpline
 70
8
 71
3
 72
8
 73
4
 74
0
 40
0
 40
0
 40
0
 40
0
 40
1
 40
1
 40
1
 40
1
 10
23.479680
 20
67.951535
 30
0.0
 10
23.466360
 20
68.016635
 30
0.0
 10
23.446710
 20
68.079426
 30
0.0
 10
23.421410
 20
68.139245
 30
0.0
  0
SPLINE
  5
209
100
AcDbEntity
  8
0
 62
7
100
AcDbSpline
 70
8
 71
3
 72
8
 73
4
 74
0
 40
0
 40
0
 40
0
 40
0
 40
1
 40
1
 40
1
 40
1
 10
23.421410
 20
68.139245
 30
0.0
 10
23.396110
 20
68.199065
 30
0.0
 10
23.365150
 20
68.255909
 30
0.0
 10
23.329210
 20
68.309110
 30
0.0
  0
SPLINE
  5
20a
100
AcDbEntity
  8
0
 62
7
100
AcDbSpline
 70
8
 71
3
 72
8
 73
4
 74
0
 40
0
 40
0
 40
0
 40
0
 40
1
 40
1
 40
1
 40
1
 10
23.329210
 20
68.309110
 30
0.0
 10
23.293270
 20
68.362310
 30
0.0
 10
23.252340
 20
68.411866
 30
0.0
 10
23.207101
 20
68.457107
 30
0.0
  0
SPLINE
  5
20b
100
AcDbEntity
  8
0
 62
7
100
AcDbSpline
 70
8
 71
3
 72
8
 73
4
 74
0
 40
0
 40
0
 40
0
 40
0
 40
1
 40
1
 40
1
 40
1
 10
23.207101
 20
68.457107
 30
0.0
 10
23.161861
 20
68.502347
 30
0.0
 10
23.112301
 20
68.543277
 30
0.0
 10
23.059104
 20
68.579216
 30
0.0
  0
SPLINE
  5
20c
100
AcDbEntity
  8
0
 62
7
100
AcDbSpline
 70
8
 71
3
 72
8
 73
4
 74
0
 40
0
 40
0
 40
0
 40
0
 40
1
 40
1
 40
1
 40
1
 10
23.059104
 20
68.579216
 30
0.0
 10
23.005904
 20
68.615156
 30
0.0
 10
22.949058
 20
68.646116
 30
0.0
 10
22.889239
 20
68.671416
 30
0.0
  0
SPLINE
  5
20d
100
AcDbEntity
  8
0
 62
7
100
AcDbSpline
 70
8
 71
3
 72
8
 73
4
 74
0
 40
0
 40
0
 40
0
 40
0
 40
1
 40
1
 40
1
 40
1
 10
22.889239
 20
68.671416
 30
0.0
 10
22.829419
 20
68.696716
 30
0.0
 10
22.766626
 20
68.716366
 30
0.0
 10
22.701529
 20
68.729686
 30
0.0
  0
SPLINE
  5
20e
100
AcDbEntity
  8
0
 62
7
100
AcDbSpline
 70
8
 71
3
 72
8
 73
4
 74
0
 40
0
 40
0
 40
0
 40
0
 40
1
 40
1
 40
1
 40
1
 10
22.701529
 20
68.729686
 30
0.0
 10
22.636437
 20
68.743004
 30
0.0
 10
22.569036
 20
68.750000
 30
0.0
 10
22.500000
 20
68.750000
 30
0.0
  0
SPLINE
  5
20f
100
AcDbEntity
  8
0
 62
7
100
AcDbSpline
 70
8
 71
3
 72
8
 73
4
 74
0
 40
0
 40
0
 40
0
 40
0
 40
1
 40
1
 40
1
 40
1
 10
22.500000
 20
68.750000
 30
0.0
 10
22.430960
 20
68.750000
 30
0.0
 10
22.363563
 20
68.743000
 30
0.0
 10
22.298465
 20
68.729680
 30
0.0
  0
SPLINE
  5
210
100
AcDbEntity
  8
0
 62
7
100
AcDbSpline
 70
8
 71
3
 72
8
 73
4
 74
0
 40
0
 40
0
 40
0
 40
0
 40
1
 40
1
 40
1
 40
1
 10
22.298465
 20
68.729680
 30
0.0
 10
22.233365
 20
68.716360
 30
0.0
 10
22.170574
 20
68.696710
 30
0.0
 10
22.110755
 20
68.671410
 30
0.0
  0
SPLINE
  5
211
100
AcDbEntity
  8
0
 62
7
100
AcDbSpline
 70
8
 71
3
 72
8
 73
4
 74
0
 40
0
 40
0
 40
0
 40
0
 40
1
 40
1
 40
1
 40
1
 10
22.110755
 20
68.671410
 30
0.0
 10
22.050935
 20
68.646110
 30
0.0
 10
21.994091
 20
68.615150
 30
0.0
 10
21.940890
 20
68.579210
 30
0.0
  0
SPLINE
  5
212
100
AcDbEntity
  8
0
 62
7
100
AcDbSpline
 70
8
 71
3
 72
8
 73
4
 74
0
 40
0
 40
0
 40
0
 40
0
 40
1
 40
1
 40
1
 40
1
 10
21.940890
 20
68.579210
 30
0.0
 10
21.887690
 20
68.543270
 30
0.0
 10
21.838134
 20
68.502340
 30
0.0
 10
21.792893
 20
68.457101
 30
0.0
  0
SPLINE
  5
213
100
AcDbEntity
  8
0
 62
7
100
AcDbSpline
 70
8
 71
3
 72
8
 73
4
 74
0
 40
0
 40
0
 40
0
 40
0
 40
1
 40
1
 40
1
 40
1
 10
21.792893
 20
68.457101
 30
0.0
 10
21.747653
 20
68.411861
 30
0.0
 10
21.706723
 20
68.362301
 30
0.0
 10
21.670784
 20
68.309104
 30
0.0
  0
SPLINE
  5
214
100
AcDbEntity
  8
0
 62
7
100
AcDbSpline
 70
8
 71
3
 72
8
 73
4
 74
0
 40
0
 40
0
 40
0
 40
0
 40
1
 40
1
 40
1
 40
1
 10
21.670784
 20
68.309104
 30
0.0
 10
21.634844
 20
68.255904
 30
0.0
 10
21.603884
 20
68.199058
 30
0.0
 10
21.578584
 20
68.139239
 30
0.0
  0
SPLINE
  5
215
100
AcDbEntity
  8
0
 62
7
100
AcDbSpline
 70
8
 71
3
 72
8
 73
4
 74
0
 40
0
 40
0
 40
0
 40
0
 40
1
 40
1
 40
1
 40
1
 10
21.578584
 20
68.139239
 30
0.0
 10
21.553284
 20
68.079419
 30
0.0
 10
21.533634
 20
68.016626
 30
0.0
 10
21.520314
 20
67.951529
 30
0.0
  0
SPLINE
  5
216
100
AcDbEntity
  8
0
 62
7
100
AcDbSpline
 70
8
 71
3
 72
8
 73
4
 74
0
 40
0
 40
0
 40
0
 40
0
 40
1
 40
1
 40
1
 40
1
 10
21.520314
 20
67.951529
 30
0.0
 10
21.506996
 20
67.886437
 30
0.0
 10
21.500000
 20
67.819036
 30
0.0
 10
21.500000
 20
67.750000
 30
0.0
  0
SPLINE
  5
217
100
AcDbEntity
  8
0
 62
7
100
AcDbSpline
 70
8
 71
3
 72
8
 73
4
 74
0
 40
0
 40
0
 40
0
 40
0
 40
1
 40
1
 40
1
 40
1
 10
21.500000
 20
67.750000
 30
0.0
 10
21.500000
 20
67.680960
 30
0.0
 10
21.507000
 20
67.613563
 30
0.0
 10
21.520320
 20
67.548465
 30
0.0
  0
SPLINE
  5
218
100
AcDbEntity
  8
0
 62
7
100
AcDbSpline
 70
8
 71
3
 72
8
 73
4
 74
0
 40
0
 40
0
 40
0
 40
0
 40
1
 40
1
 40
1
 40
1
 10
21.520320
 20
67.548465
 30
0.0
 10
21.533640
 20
67.483365
 30
0.0
 10
21.553290
 20
67.420574
 30
0.0
 10
21.578590
 20
67.360755
 30
0.0
  0
SPLINE
  5
219
100
AcDbEntity
  8
0
 62
7
100
AcDbSpline
 70
8
 71
3
 72
8
 73
4
 74
0
 40
0
 40
0
 40
0
 40
0
 40
1
 40
1
 40
1
 40
1
 10
21.578590
 20
67.360755
 30
0.0
 10
21.603890
 20
67.300935
 30
0.0
 10
21.634850
 20
67.244091
 30
0.0
 10
21.670790
 20
67.190890
 30
0.0
  0
SPLINE
  5
21a
100
AcDbEntity
  8
0
 62
7
100
AcDbSpline
 70
8
 71
3
 72
8
 73
4
 74
0
 40
0
 40
0
 40
0
 40
0
 40
1
 40
1
 40
1
 40
1
 10
21.670790
 20
67.190890
 30
0.0
 10
21.706730
 20
67.137690
 30
0.0
 10
21.747660
 20
67.088134
 30
0.0
 10
21.792899
 20
67.042893
 30
0.0
  0
SPLINE
  5
21b
100
AcDbEntity
  8
0
 62
7
100
AcDbSpline
 70
8
 71
3
 72
8
 73
4
 74
0
 40
0
 40
0
 40
0
 40
0
 40
1
 40
1
 40
1
 40
1
 10
21.792899
 20
67.042893
 30
0.0
 10
21.838139
 20
66.997653
 30
0.0
 10
21.887699
 20
66.956723
 30
0.0
 10
21.940896
 20
66.920784
 30
0.0
  0
SPLINE
  5
21c
100
AcDbEntity
  8
0
 62
7
100
AcDbSpline
 70
8
 71
3
 72
8
 73
4
 74
0
 40
0
 40
0
 40
0
 40
0
 40
1
 40
1
 40
1
 40
1
 10
21.940896
 20
66.920784
 30
0.0
 10
21.994096
 20
66.884844
 30
0.0
 10
22.050942
 20
66.853884
 30
0.0
 10
22.110761
 20
66.828584
 30
0.0
  0
SPLINE
  5
21d
100
AcDbEntity
  8
0
 62
7
100
AcDbSpline
 70
8
 71
3
 72
8
 73
4
 74
0
 40
0
 40
0
 40
0
 40
0
 40
1
 40
1
 40
1
 40
1
 10
22.110761
 20
66.828584
 30
0.0
 10
22.170581
 20
66.803284
 30
0.0
 10
22.233374
 20
66.783634
 30
0.0
 10
22.298471
 20
66.770314
 30
0.0
  0
SPLINE
  5
21e
100
AcDbEntity
  8
0
 62
7
100
AcDbSpline
 70
8
 71
3
 72
8
 73
4
 74
0
 40
0
 40
0
 40
0
 40
0
 40
1
 40
1
 40
1
 40
1
 10
22.298471
 20
66.770314
 30
0.0
 10
22.363563
 20
66.756996
 30
0.0
 10
22.430964
 20
66.750000
 30
0.0
 10
22.500000
 20
66.750000
 30
0.0
  0
SPLINE
  5
21f
100
AcDbEntity
  8
0
 62
7
100
AcDbSpline
 70
8
 71
3
 72
8
 73
4
 74
0
 40
0
 40
0
 40
0
 40
0
 40
1
 40
1
 40
1
 40
1
 10
22.500000
 20
66.750000
 30
0.0
 10
22.569040
 20
66.750000
 30
0.0
 10
22.636437
 20
66.757000
 30
0.0
 10
22.701535
 20
66.770320
 30
0.0
  0
SPLINE
  5
220
100
AcDbEntity
  8
0
 62
7
100
AcDbSpline
 70
8
 71
3
 72
8
 73
4
 74
0
 40
0
 40
0
 40
0
 40
0
 40
1
 40
1
 40
1
 40
1
 10
22.701535
 20
66.770320
 30
0.0
 10
22.766635
 20
66.783640
 30
0.0
 10
22.829426
 20
66.803290
 30
0.0
 10
22.889245
 20
66.828590
 30
0.0
  0
SPLINE
  5
221
100
AcDbEntity
  8
0
 62
7
100
AcDbSpline
 70
8
 71
3
 72
8
 73
4
 74
0
 40
0
 40
0
 40
0
 40
0
 40
1
 40
1
 40
1
 40
1
 10
22.889245
 20
66.828590
 30
0.0
 10
22.949065
 20
66.853890
 30
0.0
 10
23.005909
 20
66.884850
 30
0.0
 10
23.059110
 20
66.920790
 30
0.0
  0
SPLINE
  5
222
100
AcDbEntity
  8
0
 62
7
100
AcDbSpline
 70
8
 71
3
 72
8
 73
4
 74
0
 40
0
 40
0
 40
0
 40
0
 40
1
 40
1
 40
1
 40
1
 10
23.059110
 20
66.920790
 30
0.0
 10
23.112310
 20
66.956730
 30
0.0
 10
23.161866
 20
66.997660
 30
0.0
 10
23.207107
 20
67.042899
 30
0.0
  0
SPLINE
  5
223
100
AcDbEntity
  8
0
 62
7
100
AcDbSpline
 70
8
 71
3
 72
8
 73
4
 74
0
 40
0
 40
0
 40
0
 40
0
 40
1
 40
1
 40
1
 40
1
 10
23.207107
 20
67.042899
 30
0.0
 10
23.252347
 20
67.088139
 30
0.0
 10
23.293277
 20
67.137699
 30
0.0
 10
23.329216
 20
67.190896
 30
0.0
  0
SPLINE
  5
224
100
AcDbEntity
  8
0
 62
7
100
AcDbSpline
 70
8
 71
3
 72
8
 73
4
 74
0
 40
0
 40
0
 40
0
 40
0
 40
1
 40
1
 40
1
 40
1
 10
23.329216
 20
67.190896
 30
0.0
 10
23.365156
 20
67.244096
 30
0.0
 10
23.396116
 20
67.300942
 30
0.0
 10
23.421416
 20
67.360761
 30
0.0
  0
SPLINE
  5
225
100
AcDbEntity
  8
0
 62
7
100
AcDbSpline
 70
8
 71
3
 72
8
 73
4
 74
0
 40
0
 40
0
 40
0
 40
0
 40
1
 40
1
 40
1
 40
1
 10
23.421416
 20
67.360761
 30
0.0
 10
23.446716
 20
67.420581
 30
0.0
 10
23.466366
 20
67.483374
 30
0.0
 10
23.479686
 20
67.548471
 30
0.0
  0
SPLINE
  5
226
100
AcDbEntity
  8
0
 62
7
100
AcDbSpline
 70
8
 71
3
 72
8
 73
4
 74
0
 40
0
 40
0
 40
0
 40
0
 40
1
 40
1
 40
1
 40
1
 10
23.479686
 20
67.548471
 30
0.0
 10
23.493004
 20
67.613563
 30
0.0
 10
23.500000
 20
67.680964
 30
0.0
 10
23.500000
 20
67.750000
 30
0.0
  0
LWPOLYLINE
  5
227
100
AcDbEntity
  8
0
 62
7
100
AcDbPolyline
 90
2
 70
1
 10
23.500000
 20
59.750000
 30
0.0
 10
23.500000
 20
59.750000
 30
0.0
  0
SPLINE
  5
228
100
AcDbEntity
  8
0
 62
7
100
AcDbSpline
 70
8
 71
3
 72
8
 73
4
 74
0
 40
0
 40
0
 40
0
 40
0
 40
1
 40
1
 40
1
 40
1
 10
15.500000
 20
75.750000
 30
0.0
 10
15.500000
 20
75.819040
 30
0.0
 10
15.493000
 20
75.886437
 30
0.0
 10
15.479680
 20
75.951535
 30
0.0
  0
SPLINE
  5
229
100
AcDbEntity
  8
0
 62
7
100
AcDbSpline
 70
8
 71
3
 72
8
 73
4
 74
0
 40
0
 40
0
 40
0
 40
0
 40
1
 40
1
 40
1
 40
1
 10
15.479680
 20
75.951535
 30
0.0
 10
15.466360
 20
76.016635
 30
0.0
 10
15.446710
 20
76.079426
 30
0.0
 10
15.421410
 20
76.139245
 30
0.0
  0
SPLINE
  5
22a
100
AcDbEntity
  8
0
 62
7
100
AcDbSpline
 70
8
 71
3
 72
8
 73
4
 74
0
 40
0
 40
0
 40
0
 40
0
 40
1
 40
1
 40
1
 40
1
 10
15.421410
 20
76.139245
 30
0.0
 10
15.396110
 20
76.199065
 30
0.0
 10
15.365150
 20
76.255909
 30
0.0
 10
15.329210
 20
76.309110
 30
0.0
  0
SPLINE
  5
22b
100
AcDbEntity
  8
0
 62
7
100
AcDbSpline
 70
8
 71
3
 72
8
 73
4
 74
0
 40
0
 40
0
 40
0
 40
0
 40
1
 40
1
 40
1
 40
1
 10
15.329210
 20
76.309110
 30
0.0
 10
15.293270
 20
76.362310
 30
0.0
 10
15.252340
 20
76.411866
 30
0.0
 10
15.207101
 20
76.457107
 30
0.0
  0
SPLINE
  5
22c
100
AcDbEntity
  8
0
 62
7
100
AcDbSpline
 70
8
 71
3
 72
8
 73
4
 74
0
 40
0
 40
0
 40
0
 40
0
 40
1
 40
1
 40
1
 40
1
 10
15.207101
 20
76.457107
 30
0.0
 10
15.161861
 20
76.502347
 30
0.0
 10
15.112301
 20
76.543277
 30
0.0
 10
15.059104
 20
76.579216
 30
0.0
  0
SPLINE
  5
22d
100
AcDbEntity
  8
0
 62
7
100
AcDbSpline
 70
8
 71
3
 72
8
 73
4
 74
0
 40
0
 40
0
 40
0
 40
0
 40
1
 40
1
 40
1
 40
1
 10
15.059104
 20
76.579216
 30
0.0
 10
15.005904
 20
76.615156
 30
0.0
 10
14.949058
 20
76.646116
 30
0.0
 10
14.889239
 20
76.671416
 30
0.0
  0
SPLINE
  5
22e
100
AcDbEntity
  8
0
 62
7
100
AcDbSpline
 70
8
 71
3
 72
8
 73
4
 74
0
 40
0
 40
0
 40
0
 40
0
 40
1
 40
1
 40
1
 40
1
 10
14.889239
 20
76.671416
 30
0.0
 10
14.829419
 20
76.696716
 30
0.0
 10
14.766626
 20
76.716366
 30
0.0
 10
14.701529
 20
76.729686
 30
0.0
  0
SPLINE
  5
22f
100
AcDbEntity
  8
0
 62
7
100
AcDbSpline
 70
8
 71
3
 72
8
 73
4
 74
0
 40
0
 40
0
 40
0
 40
0
 40
1
 40
1
 40
1
 40
1
 10
14.701529
 20
76.729686
 30
0.0
 10
14.636437
 20
76.743004
 30
0.0
 10
14.569036
 20
76.750000
 30
0.0
 10
14.500000
 20
76.750000
 30
0.0
  0
SPLINE
  5
230
100
AcDbEntity
  8
0
 62
7
100
AcDbSpline
 70
8
 71
3
 72
8
 73
4
 74
0
 40
0
 40
0
 40
0
 40
0
 40
1
 40
1
 40
1
 40
1
 10
14.500000
 20
76.750000
 30
0.0
 10
14.430960
 20
76.750000
 30
0.0
 10
14.363563
 20
76.743000
 30
0.0
 10
14.298465
 20
76.729680
 30
0.0
  0
SPLINE
  5
231
100
AcDbEntity
  8
0
 62
7
100
AcDbSpline
 70
8
 71
3
 72
8
 73
4
 74
0
 40
0
 40
0
 40
0
 40
0
 40
1
 40
1
 40
1
 40
1
 10
14.298465
 20
76.729680
 30
0.0
 10
14.233365
 20
76.716360
 30
0.0
 10
14.170574
 20
76.696710
 30
0.0
 10
14.110755
 20
76.671410
 30
0.0
  0
SPLINE
  5
232
100
AcDbEntity
  8
0
 62
7
100
AcDbSpline
 70
8
 71
3
 72
8
 73
4
 74
0
 40
0
 40
0
 40
0
 40
0
 40
1
 40
1
 40
1
 40
1
 10
14.110755
 20
76.671410
 30
0.0
 10
14.050935
 20
76.646110
 30
0.0
 10
13.994091
 20
76.615150
 30
0.0
 10
13.940890
 20
76.579210
 30
0.0
  0
SPLINE
  5
233
100
AcDbEntity
  8
0
 62
7
100
AcDbSpline
 70
8
 71
3
 72
8
 73
4
 74
0
 40
0
 40
0
 40
0
 40
0
 40
1
 40
1
 40
1
 40
1
 10
13.940890
 20
76.579210
 30
0.0
 10
13.887690
 20
76.543270
 30
0.0
 10
13.838134
 20
76.502340
 30
0.0
 10
13.792893
 20
76.457101
 30
0.0
  0
SPLINE
  5
234
100
AcDbEntity
  8
0
 62
7
100
AcDbSpline
 70
8
 71
3
 72
8
 73
4
 74
0
 40
0
 40
0
 40
0
 40
0
 40
1
 40
1
 40
1
 40
1
 10
13.792893
 20
76.457101
 30
0.0
 10
13.747653
 20
76.411861
 30
0.0
 10
13.706723
 20
76.362301
 30
0.0
 10
13.670784
 20
76.309104
 30
0.0
  0
SPLINE
  5
235
100
AcDbEntity
  8
0
 62
7
100
AcDbSpline
 70
8
 71
3
 72
8
 73
4
 74
0
 40
0
 40
0
 40
0
 40
0
 40
1
 40
1
 40
1
 40
1
 10
13.670784
 20
76.309104
 30
0.0
 10
13.634844
 20
76.255904
 30
0.0
 10
13.603884
 20
76.199058
 30
0.0
 10
13.578584
 20
76.139239
 30
0.0
  0
SPLINE
  5
236
100
AcDbEntity
  8
0
 62
7
100
AcDbSpline
 70
8
 71
3
 72
8
 73
4
 74
0
 40
0
 40
0
 40
0
 40
0
 40
1
 40
1
 40
1
 40
1
 10
13.578584
 20
76.139239
 30
0.0
 10
13.553284
 20
76.079419
 30
0.0
 10
13.533634
 20
76.016626
 30
0.0
 10
13.520314
 20
75.951529
 30
0.0
  0
SPLINE
  5
237
100
AcDbEntity
  8
0
 62
7
100
AcDbSpline
 70
8
 71
3
 72
8
 73
4
 74
0
 40
0
 40
0
 40
0
 40
0
 40
1
 40
1
 40
1
 40
1
 10
13.520314
 20
75.951529
 30
0.0
 10
13.506996
 20
75.886437
 30
0.0
 10
13.500000
 20
75.819036
 30
0.0
 10
13.500000
 20
75.750000
 30
0.0
  0
SPLINE
  5
238
100
AcDbEntity
  8
0
 62
7
100
AcDbSpline
 70
8
 71
3
 72
8
 73
4
 74
0
 40
0
 40
0
 40
0
 40
0
 40
1
 40
1
 40
1
 40
1
 10
13.500000
 20
75.750000
 30
0.0
 10
13.500000
 20
75.680960
 30
0.0
 10
13.507000
 20
75.613563
 30
0.0
 10
13.520320
 20
75.548465
 30
0.0
  0
SPLINE
  5
239
100
AcDbEntity
  8
0
 62
7
100
AcDbSpline
 70
8
 71
3
 72
8
 73
4
 74
0
 40
0
 40
0
 40
0
 40
0
 40
1
 40
1
 40
1
 40
1
 10
13.520320
 20
75.548465
 30
0.0
 10
13.533640
 20
75.483365
 30
0.0
 10
13.553290
 20
75.420574
 30
0.0
 10
13.578590
 20
75.360755
 30
0.0
  0
SPLINE
  5
23a
100
AcDbEntity
  8
0
 62
7
100
AcDbSpline
 70
8
 71
3
 72
8
 73
4
 74
0
 40
0
 40
0
 40
0
 40
0
 40
1
 40
1
 40
1
 40
1
 10
13.578590
 20
75.360755
 30
0.0
 10
13.603890
 20
75.300935
 30
0.0
 10
13.634850
 20
75.244091
 30
0.0
 10
13.670790
 20
75.190890
 30
0.0
  0
SPLINE
  5
23b
100
AcDbEntity
  8
0
 62
7
100
AcDbSpline
 70
8
 71
3
 72
8
 73
4
 74
0
 40
0
 40
0
 40
0
 40
0
 40
1
 40
1
 40
1
 40
1
 10
13.670790
 20
75.190890
 30
0.0
 10
13.706730
 20
75.137690
 30
0.0
 10
13.747660
 20
75.088134
 30
0.0
 10
13.792899
 20
75.042893
 30
0.0
  0
SPLINE
  5
23c
100
AcDbEntity
  8
0
 62
7
100
AcDbSpline
 70
8
 71
3
 72
8
 73
4
 74
0
 40
0
 40
0
 40
0
 40
0
 40
1
 40
1
 40
1
 40
1
 10
13.792899
 20
75.042893
 30
0.0
 10
13.838139
 20
74.997653
 30
0.0
 10
13.887699
 20
74.956723
 30
0.0
 10
13.940896
 20
74.920784
 30
0.0
  0
SPLINE
  5
23d
100
AcDbEntity
  8
0
 62
7
100
AcDbSpline
 70
8
 71
3
 72
8
 73
4
 74
0
 40
0
 40
0
 40
0
 40
0
 40
1
 40
1
 40
1
 40
1
 10
13.940896
 20
74.920784
 30
0.0
 10
13.994096
 20
74.884844
 30
0.0
 10
14.050942
 20
74.853884
 30
0.0
 10
14.110761
 20
74.828584
 30
0.0
  0
SPLINE
  5
23e
100
AcDbEntity
  8
0
 62
7
100
AcDbSpline
 70
8
 71
3
 72
8
 73
4
 74
0
 40
0
 40
0
 40
0
 40
0
 40
1
 40
1
 40
1
 40
1
 10
14.110761
 20
74.828584
 30
0.0
 10
14.170581
 20
74.803284
 30
0.0
 10
14.233374
 20
74.783634
 30
0.0
 10
14.298471
 20
74.770314
 30
0.0
  0
SPLINE
  5
23f
100
AcDbEntity
  8
0
 62
7
100
AcDbSpline
 70
8
 71
3
 72
8
 73
4
 74
0
 40
0
 40
0
 40
0
 40
0
 40
1
 40
1
 40
1
 40
1
 10
14.298471
 20
74.770314
 30
0.0
 10
14.363563
 20
74.756996
 30
0.0
 10
14.430964
 20
74.750000
 30
0.0
 10
14.500000
 20
74.750000
 30
0.0
  0
SPLINE
  5
240
100
AcDbEntity
  8
0
 62
7
100
AcDbSpline
 70
8
 71
3
 72
8
 73
4
 74
0
 40
0
 40
0
 40
0
 40
0
 40
1
 40
1
 40
1
 40
1
 10
14.500000
 20
74.750000
 30
0.0
 10
14.569040
 20
74.750000
 30
0.0
 10
14.636437
 20
74.757000
 30
0.0
 10
14.701535
 20
74.770320
 30
0.0
  0
SPLINE
  5
241
100
AcDbEntity
  8
0
 62
7
100
AcDbSpline
 70
8
 71
3
 72
8
 73
4
 74
0
 40
0
 40
0
 40
0
 40
0
 40
1
 40
1
 40
1
 40
1
 10
14.701535
 20
74.770320
 30
0.0
 10
14.766635
 20
74.783640
 30
0.0
 10
14.829426
 20
74.803290
 30
0.0
 10
14.889245
 20
74.828590
 30
0.0
  0
SPLINE
  5
242
100
AcDbEntity
  8
0
 62
7
100
AcDbSpline
 70
8
 71
3
 72
8
 73
4
 74
0
 40
0
 40
0
 40
0
 40
0
 40
1
 40
1
 40
1
 40
1
 10
14.889245
 20
74.828590
 30
0.0
 10
14.949065
 20
74.853890
 30
0.0
 10
15.005909
 20
74.884850
 30
0.0
 10
15.059110
 20
74.920790
 30
0.0
  0
SPLINE
  5
243
100
AcDbEntity
  8
0
 62
7
100
AcDbSpline
 70
8
 71
3
 72
8
 73
4
 74
0
 40
0
 40
0
 40
0
 40
0
 40
1
 40
1
 40
1
 40
1
 10
15.059110
 20
74.920790
 30
0.0
 10
15.112310
 20
74.956730
 30
0.0
 10
15.161866
 20
74.997660
 30
0.0
 10
15.207107
 20
75.042899
 30
0.0
  0
SPLINE
  5
244
100
AcDbEntity
  8
0
 62
7
100
AcDbSpline
 70
8
 71
3
 72
8
 73
4
 74
0
 40
0
 40
0
 40
0
 40
0
 40
1
 40
1
 40
1
 40
1
 10
15.207107
 20
75.042899
 30
0.0
 10
15.252347
 20
75.088139
 30
0.0
 10
15.293277
 20
75.137699
 30
0.0
 10
15.329216
 20
75.190896
 30
0.0
  0
SPLINE
  5
245
100
AcDbEntity
  8
0
 62
7
100
AcDbSpline
 70
8
 71
3
 72
8
 73
4
 74
0
 40
0
 40
0
 40
0
 40
0
 40
1
 40
1
 40
1
 40
1
 10
15.329216
 20
75.190896
 30
0.0
 10
15.365156
 20
75.244096
 30
0.0
 10
15.396116
 20
75.300942
 30
0.0
 10
15.421416
 20
75.360761
 30
0.0
  0
SPLINE
  5
246
100
AcDbEntity
  8
0
 62
7
100
AcDbSpline
 70
8
 71
3
 72
8
 73
4
 74
0
 40
0
 40
0
 40
0
 40
0
 40
1
 40
1
 40
1
 40
1
 10
15.421416
 20
75.360761
 30
0.0
 10
15.446716
 20
75.420581
 30
0.0
 10
15.466366
 20
75.483374
 30
0.0
 10
15.479686
 20
75.548471
 30
0.0
  0
SPLINE
  5
247
100
AcDbEntity
  8
0
 62
7
100
AcDbSpline
 70
8
 71
3
 72
8
 73
4
 74
0
 40
0
 40
0
 40
0
 40
0
 40
1
 40
1
 40
1
 40
1
 10
15.479686
 20
75.548471
 30
0.0
 10
15.493004
 20
75.613563
 30
0.0
 10
15.500000
 20
75.680964
 30
0.0
 10
15.500000
 20
75.750000
 30
0.0
  0
LWPOLYLINE
  5
248
100
AcDbEntity
  8
0
 62
7
100
AcDbPolyline
 90
2
 70
1
 10
23.500000
 20
67.750000
 30
0.0
 10
23.500000
 20
67.750000
 30
0.0
  0
SPLINE
  5
249
100
AcDbEntity
  8
0
 62
7
100
AcDbSpline
 70
8
 71
3
 72
8
 73
4
 74
0
 40
0
 40
0
 40
0
 40
0
 40
1
 40
1
 40
1
 40
1
 10
15.500000
 20
59.750000
 30
0.0
 10
15.500000
 20
59.819036
 30
0.0
 10
15.493000
 20
59.886437
 30
0.0
 10
15.479680
 20
59.951535
 30
0.0
  0
SPLINE
  5
24a
100
AcDbEntity
  8
0
 62
7
100
AcDbSpline
 70
8
 71
3
 72
8
 73
4
 74
0
 40
0
 40
0
 40
0
 40
0
 40
1
 40
1
 40
1
 40
1
 10
15.479680
 20
59.951535
 30
0.0
 10
15.466360
 20
60.016633
 30
0.0
 10
15.446710
 20
60.079426
 30
0.0
 10
15.421410
 20
60.139245
 30
0.0
  0
SPLINE
  5
24b
100
AcDbEntity
  8
0
 62
7
100
AcDbSpline
 70
8
 71
3
 72
8
 73
4
 74
0
 40
0
 40
0
 40
0
 40
0
 40
1
 40
1
 40
1
 40
1
 10
15.421410
 20
60.139245
 30
0.0
 10
15.396110
 20
60.199064
 30
0.0
 10
15.365150
 20
60.255909
 30
0.0
 10
15.329210
 20
60.309109
 30
0.0
  0
SPLINE
  5
24c
100
AcDbEntity
  8
0
 62
7
100
AcDbSpline
 70
8
 71
3
 72
8
 73
4
 74
0
 40
0
 40
0
 40
0
 40
0
 40
1
 40
1
 40
1
 40
1
 10
15.329210
 20
60.309109
 30
0.0
 10
15.293270
 20
60.362310
 30
0.0
 10
15.252340
 20
60.411866
 30
0.0
 10
15.207101
 20
60.457107
 30
0.0
  0
SPLINE
  5
24d
100
AcDbEntity
  8
0
 62
7
100
AcDbSpline
 70
8
 71
3
 72
8
 73
4
 74
0
 40
0
 40
0
 40
0
 40
0
 40
1
 40
1
 40
1
 40
1
 10
15.207101
 20
60.457107
 30
0.0
 10
15.161861
 20
60.502348
 30
0.0
 10
15.112301
 20
60.543275
 30
0.0
 10
15.059104
 20
60.579216
 30
0.0
  0
SPLINE
  5
24e
100
AcDbEntity
  8
0
 62
7
100
AcDbSpline
 70
8
 71
3
 72
8
 73
4
 74
0
 40
0
 40
0
 40
0
 40
0
 40
1
 40
1
 40
1
 40
1
 10
15.059104
 20
60.579216
 30
0.0
 10
15.005904
 20
60.615157
 30
0.0
 10
14.949058
 20
60.646114
 30
0.0
 10
14.889239
 20
60.671415
 30
0.0
  0
SPLINE
  5
24f
100
AcDbEntity
  8
0
 62
7
100
AcDbSpline
 70
8
 71
3
 72
8
 73
4
 74
0
 40
0
 40
0
 40
0
 40
0
 40
1
 40
1
 40
1
 40
1
 10
14.889239
 20
60.671415
 30
0.0
 10
14.829419
 20
60.696716
 30
0.0
 10
14.766626
 20
60.716363
 30
0.0
 10
14.701529
 20
60.729684
 30
0.0
  0
SPLINE
  5
250
100
AcDbEntity
  8
0
 62
7
100
AcDbSpline
 70
8
 71
3
 72
8
 73
4
 74
0
 40
0
 40
0
 40
0
 40
0
 40
1
 40
1
 40
1
 40
1
 10
14.701529
 20
60.729684
 30
0.0
 10
14.636437
 20
60.743004
 30
0.0
 10
14.569036
 20
60.750000
 30
0.0
 10
14.500000
 20
60.750000
 30
0.0
  0
SPLINE
  5
251
100
AcDbEntity
  8
0
 62
7
100
AcDbSpline
 70
8
 71
3
 72
8
 73
4
 74
0
 40
0
 40
0
 40
0
 40
0
 40
1
 40
1
 40
1
 40
1
 10
14.500000
 20
60.750000
 30
0.0
 10
14.430960
 20
60.750000
 30
0.0
 10
14.363563
 20
60.743000
 30
0.0
 10
14.298465
 20
60.729684
 30
0.0
  0
SPLINE
  5
252
100
AcDbEntity
  8
0
 62
7
100
AcDbSpline
 70
8
 71
3
 72
8
 73
4
 74
0
 40
0
 40
0
 40
0
 40
0
 40
1
 40
1
 40
1
 40
1
 10
14.298465
 20
60.729684
 30
0.0
 10
14.233365
 20
60.716363
 30
0.0
 10
14.170574
 20
60.696717
 30
0.0
 10
14.110755
 20
60.671415
 30
0.0
  0
SPLINE
  5
253
100
AcDbEntity
  8
0
 62
7
100
AcDbSpline
 70
8
 71
3
 72
8
 73
4
 74
0
 40
0
 40
0
 40
0
 40
0
 40
1
 40
1
 40
1
 40
1
 10
14.110755
 20
60.671415
 30
0.0
 10
14.050935
 20
60.646114
 30
0.0
 10
13.994091
 20
60.615157
 30
0.0
 10
13.940890
 20
60.579216
 30
0.0
  0
SPLINE
  5
254
100
AcDbEntity
  8
0
 62
7
100
AcDbSpline
 70
8
 71
3
 72
8
 73
4
 74
0
 40
0
 40
0
 40
0
 40
0
 40
1
 40
1
 40
1
 40
1
 10
13.940890
 20
60.579216
 30
0.0
 10
13.887690
 20
60.543275
 30
0.0
 10
13.838134
 20
60.502348
 30
0.0
 10
13.792893
 20
60.457107
 30
0.0
  0
SPLINE
  5
255
100
AcDbEntity
  8
0
 62
7
100
AcDbSpline
 70
8
 71
3
 72
8
 73
4
 74
0
 40
0
 40
0
 40
0
 40
0
 40
1
 40
1
 40
1
 40
1
 10
13.792893
 20
60.457107
 30
0.0
 10
13.747653
 20
60.411866
 30
0.0
 10
13.706723
 20
60.362310
 30
0.0
 10
13.670784
 20
60.309110
 30
0.0
  0
SPLINE
  5
256
100
AcDbEntity
  8
0
 62
7
100
AcDbSpline
 70
8
 71
3
 72
8
 73
4
 74
0
 40
0
 40
0
 40
0
 40
0
 40
1
 40
1
 40
1
 40
1
 10
13.670784
 20
60.309110
 30
0.0
 10
13.634844
 20
60.255910
 30
0.0
 10
13.603884
 20
60.199065
 30
0.0
 10
13.578584
 20
60.139245
 30
0.0
  0
SPLINE
  5
257
100
AcDbEntity
  8
0
 62
7
100
AcDbSpline
 70
8
 71
3
 72
8
 73
4
 74
0
 40
0
 40
0
 40
0
 40
0
 40
1
 40
1
 40
1
 40
1
 10
13.578584
 20
60.139245
 30
0.0
 10
13.553284
 20
60.079426
 30
0.0
 10
13.533634
 20
60.016633
 30
0.0
 10
13.520314
 20
59.951535
 30
0.0
  0
SPLINE
  5
258
100
AcDbEntity
  8
0
 62
7
100
AcDbSpline
 70
8
 71
3
 72
8
 73
4
 74
0
 40
0
 40
0
 40
0
 40
0
 40
1
 40
1
 40
1
 40
1
 10
13.520314
 20
59.951535
 30
0.0
 10
13.506996
 20
59.886437
 30
0.0
 10
13.500000
 20
59.819036
 30
0.0
 10
13.500000
 20
59.750000
 30
0.0
  0
SPLINE
  5
259
100
AcDbEntity
  8
0
 62
7
100
AcDbSpline
 70
8
 71
3
 72
8
 73
4
 74
0
 40
0
 40
0
 40
0
 40
0
 40
1
 40
1
 40
1
 40
1
 10
13.500000
 20
59.750000
 30
0.0
 10
13.500000
 20
59.680964
 30
0.0
 10
13.507000
 20
59.613563
 30
0.0
 10
13.520320
 20
59.548465
 30
0.0
  0
SPLINE
  5
25a
100
AcDbEntity
  8
0
 62
7
100
AcDbSpline
 70
8
 71
3
 72
8
 73
4
 74
0
 40
0
 40
0
 40
0
 40
0
 40
1
 40
1
 40
1
 40
1
 10
13.520320
 20
59.548465
 30
0.0
 10
13.533640
 20
59.483367
 30
0.0
 10
13.553290
 20
59.420574
 30
0.0
 10
13.578590
 20
59.360755
 30
0.0
  0
SPLINE
  5
25b
100
AcDbEntity
  8
0
 62
7
100
AcDbSpline
 70
8
 71
3
 72
8
 73
4
 74
0
 40
0
 40
0
 40
0
 40
0
 40
1
 40
1
 40
1
 40
1
 10
13.578590
 20
59.360755
 30
0.0
 10
13.603890
 20
59.300936
 30
0.0
 10
13.634850
 20
59.244091
 30
0.0
 10
13.670790
 20
59.190891
 30
0.0
  0
SPLINE
  5
25c
100
AcDbEntity
  8
0
 62
7
100
AcDbSpline
 70
8
 71
3
 72
8
 73
4
 74
0
 40
0
 40
0
 40
0
 40
0
 40
1
 40
1
 40
1
 40
1
 10
13.670790
 20
59.190891
 30
0.0
 10
13.706730
 20
59.137690
 30
0.0
 10
13.747660
 20
59.088134
 30
0.0
 10
13.792899
 20
59.042893
 30
0.0
  0
SPLINE
  5
25d
100
AcDbEntity
  8
0
 62
7
100
AcDbSpline
 70
8
 71
3
 72
8
 73
4
 74
0
 40
0
 40
0
 40
0
 40
0
 40
1
 40
1
 40
1
 40
1
 10
13.792899
 20
59.042893
 30
0.0
 10
13.838139
 20
58.997652
 30
0.0
 10
13.887699
 20
58.956725
 30
0.0
 10
13.940896
 20
58.920784
 30
0.0
  0
SPLINE
  5
25e
100
AcDbEntity
  8
0
 62
7
100
AcDbSpline
 70
8
 71
3
 72
8
 73
4
 74
0
 40
0
 40
0
 40
0
 40
0
 40
1
 40
1
 40
1
 40
1
 10
13.940896
 20
58.920784
 30
0.0
 10
13.994096
 20
58.884842
 30
0.0
 10
14.050942
 20
58.853886
 30
0.0
 10
14.110761
 20
58.828585
 30
0.0
  0
SPLINE
  5
25f
100
AcDbEntity
  8
0
 62
7
100
AcDbSpline
 70
8
 71
3
 72
8
 73
4
 74
0
 40
0
 40
0
 40
0
 40
0
 40
1
 40
1
 40
1
 40
1
 10
14.110761
 20
58.828585
 30
0.0
 10
14.170581
 20
58.803284
 30
0.0
 10
14.233374
 20
58.783637
 30
0.0
 10
14.298471
 20
58.770316
 30
0.0
  0
SPLINE
  5
260
100
AcDbEntity
  8
0
 62
7
100
AcDbSpline
 70
8
 71
3
 72
8
 73
4
 74
0
 40
0
 40
0
 40
0
 40
0
 40
1
 40
1
 40
1
 40
1
 10
14.298471
 20
58.770316
 30
0.0
 10
14.363563
 20
58.756996
 30
0.0
 10
14.430964
 20
58.750000
 30
0.0
 10
14.500000
 20
58.750000
 30
0.0
  0
SPLINE
  5
261
100
AcDbEntity
  8
0
 62
7
100
AcDbSpline
 70
8
 71
3
 72
8
 73
4
 74
0
 40
0
 40
0
 40
0
 40
0
 40
1
 40
1
 40
1
 40
1
 10
14.500000
 20
58.750000
 30
0.0
 10
14.569040
 20
58.750000
 30
0.0
 10
14.636437
 20
58.757000
 30
0.0
 10
14.701535
 20
58.770316
 30
0.0
  0
SPLINE
  5
262
100
AcDbEntity
  8
0
 62
7
100
AcDbSpline
 70
8
 71
3
 72
8
 73
4
 74
0
 40
0
 40
0
 40
0
 40
0
 40
1
 40
1
 40
1
 40
1
 10
14.701535
 20
58.770316
 30
0.0
 10
14.766635
 20
58.783637
 30
0.0
 10
14.829426
 20
58.803283
 30
0.0
 10
14.889245
 20
58.828585
 30
0.0
  0
SPLINE
  5
263
100
AcDbEntity
  8
0
 62
7
100
AcDbSpline
 70
8
 71
3
 72
8
 73
4
 74
0
 40
0
 40
0
 40
0
 40
0
 40
1
 40
1
 40
1
 40
1
 10
14.889245
 20
58.828585
 30
0.0
 10
14.949065
 20
58.853886
 30
0.0
 10
15.005909
 20
58.884843
 30
0.0
 10
15.059110
 20
58.920784
 30
0.0
  0
SPLINE
  5
264
100
AcDbEntity
  8
0
 62
7
100
AcDbSpline
 70
8
 71
3
 72
8
 73
4
 74
0
 40
0
 40
0
 40
0
 40
0
 40
1
 40
1
 40
1
 40
1
 10
15.059110
 20
58.920784
 30
0.0
 10
15.112310
 20
58.956725
 30
0.0
 10
15.161866
 20
58.997652
 30
0.0
 10
15.207107
 20
59.042893
 30
0.0
  0
SPLINE
  5
265
100
AcDbEntity
  8
0
 62
7
100
AcDbSpline
 70
8
 71
3
 72
8
 73
4
 74
0
 40
0
 40
0
 40
0
 40
0
 40
1
 40
1
 40
1
 40
1
 10
15.207107
 20
59.042893
 30
0.0
 10
15.252347
 20
59.088134
 30
0.0
 10
15.293277
 20
59.137690
 30
0.0
 10
15.329216
 20
59.190890
 30
0.0
  0
SPLINE
  5
266
100
AcDbEntity
  8
0
 62
7
100
AcDbSpline
 70
8
 71
3
 72
8
 73
4
 74
0
 40
0
 40
0
 40
0
 40
0
 40
1
 40
1
 40
1
 40
1
 10
15.329216
 20
59.190890
 30
0.0
 10
15.365156
 20
59.244090
 30
0.0
 10
15.396116
 20
59.300935
 30
0.0
 10
15.421416
 20
59.360755
 30
0.0
  0
SPLINE
  5
267
100
AcDbEntity
  8
0
 62
7
100
AcDbSpline
 70
8
 71
3
 72
8
 73
4
 74
0
 40
0
 40
0
 40
0
 40
0
 40
1
 40
1
 40
1
 40
1
 10
15.421416
 20
59.360755
 30
0.0
 10
15.446716
 20
59.420574
 30
0.0
 10
15.466366
 20
59.483367
 30
0.0
 10
15.479686
 20
59.548465
 30
0.0
  0
SPLINE
  5
268
100
AcDbEntity
  8
0
 62
7
100
AcDbSpline
 70
8
 71
3
 72
8
 73
4
 74
0
 40
0
 40
0
 40
0
 40
0
 40
1
 40
1
 40
1
 40
1
 10
15.479686
 20
59.548465
 30
0.0
 10
15.493004
 20
59.613563
 30
0.0
 10
15.500000
 20
59.680964
 30
0.0
 10
15.500000
 20
59.750000
 30
0.0
  0
LWPOLYLINE
  5
269
100
AcDbEntity
  8
0
 62
7
100
AcDbPolyline
 90
2
 70
1
 10
15.500000
 20
75.750000
 30
0.0
 10
15.500000
 20
75.750000
 30
0.0
  0
SPLINE
  5
26a
100
AcDbEntity
  8
0
 62
7
100
AcDbSpline
 70
8
 71
3
 72
8
 73
4
 74
0
 40
0
 40
0
 40
0
 40
0
 40
1
 40
1
 40
1
 40
1
 10
7.500000
 20
67.750000
 30
0.0
 10
7.500000
 20
67.819040
 30
0.0
 10
7.493000
 20
67.886437
 30
0.0
 10
7.479684
 20
67.951535
 30
0.0
  0
SPLINE
  5
26b
100
AcDbEntity
  8
0
 62
7
100
AcDbSpline
 70
8
 71
3
 72
8
 73
4
 74
0
 40
0
 40
0
 40
0
 40
0
 40
1
 40
1
 40
1
 40
1
 10
7.479684
 20
67.951535
 30
0.0
 10
7.466363
 20
68.016635
 30
0.0
 10
7.446717
 20
68.079426
 30
0.0
 10
7.421415
 20
68.139245
 30
0.0
  0
SPLINE
  5
26c
100
AcDbEntity
  8
0
 62
7
100
AcDbSpline
 70
8
 71
3
 72
8
 73
4
 74
0
 40
0
 40
0
 40
0
 40
0
 40
1
 40
1
 40
1
 40
1
 10
7.421415
 20
68.139245
 30
0.0
 10
7.396114
 20
68.199065
 30
0.0
 10
7.365157
 20
68.255909
 30
0.0
 10
7.329216
 20
68.309110
 30
0.0
  0
SPLINE
  5
26d
100
AcDbEntity
  8
0
 62
7
100
AcDbSpline
 70
8
 71
3
 72
8
 73
4
 74
0
 40
0
 40
0
 40
0
 40
0
 40
1
 40
1
 40
1
 40
1
 10
7.329216
 20
68.309110
 30
0.0
 10
7.293275
 20
68.362310
 30
0.0
 10
7.252348
 20
68.411866
 30
0.0
 10
7.207107
 20
68.457107
 30
0.0
  0
SPLINE
  5
26e
100
AcDbEntity
  8
0
 62
7
100
AcDbSpline
 70
8
 71
3
 72
8
 73
4
 74
0
 40
0
 40
0
 40
0
 40
0
 40
1
 40
1
 40
1
 40
1
 10
7.207107
 20
68.457107
 30
0.0
 10
7.161866
 20
68.502347
 30
0.0
 10
7.112310
 20
68.543277
 30
0.0
 10
7.059110
 20
68.579216
 30
0.0
  0
SPLINE
  5
26f
100
AcDbEntity
  8
0
 62
7
100
AcDbSpline
 70
8
 71
3
 72
8
 73
4
 74
0
 40
0
 40
0
 40
0
 40
0
 40
1
 40
1
 40
1
 40
1
 10
7.059110
 20
68.579216
 30
0.0
 10
7.005910
 20
68.615156
 30
0.0
 10
6.949065
 20
68.646116
 30
0.0
 10
6.889245
 20
68.671416
 30
0.0
  0
SPLINE
  5
270
100
AcDbEntity
  8
0
 62
7
100
AcDbSpline
 70
8
 71
3
 72
8
 73
4
 74
0
 40
0
 40
0
 40
0
 40
0
 40
1
 40
1
 40
1
 40
1
 10
6.889245
 20
68.671416
 30
0.0
 10
6.829426
 20
68.696716
 30
0.0
 10
6.766633
 20
68.716366
 30
0.0
 10
6.701535
 20
68.729686
 30
0.0
  0
SPLINE
  5
271
100
AcDbEntity
  8
0
 62
7
100
AcDbSpline
 70
8
 71
3
 72
8
 73
4
 74
0
 40
0
 40
0
 40
0
 40
0
 40
1
 40
1
 40
1
 40
1
 10
6.701535
 20
68.729686
 30
0.0
 10
6.636437
 20
68.743004
 30
0.0
 10
6.569036
 20
68.750000
 30
0.0
 10
6.500000
 20
68.750000
 30
0.0
  0
SPLINE
  5
272
100
AcDbEntity
  8
0
 62
7
100
AcDbSpline
 70
8
 71
3
 72
8
 73
4
 74
0
 40
0
 40
0
 40
0
 40
0
 40
1
 40
1
 40
1
 40
1
 10
6.500000
 20
68.750000
 30
0.0
 10
6.430964
 20
68.750000
 30
0.0
 10
6.363563
 20
68.743000
 30
0.0
 10
6.298465
 20
68.729680
 30
0.0
  0
SPLINE
  5
273
100
AcDbEntity
  8
0
 62
7
100
AcDbSpline
 70
8
 71
3
 72
8
 73
4
 74
0
 40
0
 40
0
 40
0
 40
0
 40
1
 40
1
 40
1
 40
1
 10
6.298465
 20
68.729680
 30
0.0
 10
6.233367
 20
68.716360
 30
0.0
 10
6.170574
 20
68.696710
 30
0.0
 10
6.110755
 20
68.671410
 30
0.0
  0
SPLINE
  5
274
100
AcDbEntity
  8
0
 62
7
100
AcDbSpline
 70
8
 71
3
 72
8
 73
4
 74
0
 40
0
 40
0
 40
0
 40
0
 40
1
 40
1
 40
1
 40
1
 10
6.110755
 20
68.671410
 30
0.0
 10
6.050936
 20
68.646110
 30
0.0
 10
5.994091
 20
68.615150
 30
0.0
 10
5.940891
 20
68.579210
 30
0.0
  0
SPLINE
  5
275
100
AcDbEntity
  8
0
 62
7
100
AcDbSpline
 70
8
 71
3
 72
8
 73
4
 74
0
 40
0
 40
0
 40
0
 40
0
 40
1
 40
1
 40
1
 40
1
 10
5.940891
 20
68.579210
 30
0.0
 10
5.887690
 20
68.543270
 30
0.0
 10
5.838134
 20
68.502340
 30
0.0
 10
5.792893
 20
68.457101
 30
0.0
  0
SPLINE
  5
276
100
AcDbEntity
  8
0
 62
7
100
AcDbSpline
 70
8
 71
3
 72
8
 73
4
 74
0
 40
0
 40
0
 40
0
 40
0
 40
1
 40
1
 40
1
 40
1
 10
5.792893
 20
68.457101
 30
0.0
 10
5.747652
 20
68.411861
 30
0.0
 10
5.706725
 20
68.362301
 30
0.0
 10
5.670784
 20
68.309104
 30
0.0
  0
SPLINE
  5
277
100
AcDbEntity
  8
0
 62
7
100
AcDbSpline
 70
8
 71
3
 72
8
 73
4
 74
0
 40
0
 40
0
 40
0
 40
0
 40
1
 40
1
 40
1
 40
1
 10
5.670784
 20
68.309104
 30
0.0
 10
5.634843
 20
68.255904
 30
0.0
 10
5.603886
 20
68.199058
 30
0.0
 10
5.578585
 20
68.139239
 30
0.0
  0
SPLINE
  5
278
100
AcDbEntity
  8
0
 62
7
100
AcDbSpline
 70
8
 71
3
 72
8
 73
4
 74
0
 40
0
 40
0
 40
0
 40
0
 40
1
 40
1
 40
1
 40
1
 10
5.578585
 20
68.139239
 30
0.0
 10
5.553284
 20
68.079419
 30
0.0
 10
5.533637
 20
68.016626
 30
0.0
 10
5.520316
 20
67.951529
 30
0.0
  0
SPLINE
  5
279
100
AcDbEntity
  8
0
 62
7
100
AcDbSpline
 70
8
 71
3
 72
8
 73
4
 74
0
 40
0
 40
0
 40
0
 40
0
 40
1
 40
1
 40
1
 40
1
 10
5.520316
 20
67.951529
 30
0.0
 10
5.506996
 20
67.886437
 30
0.0
 10
5.500000
 20
67.819036
 30
0.0
 10
5.500000
 20
67.750000
 30
0.0
  0
SPLINE
  5
27a
100
AcDbEntity
  8
0
 62
7
100
AcDbSpline
 70
8
 71
3
 72
8
 73
4
 74
0
 40
0
 40
0
 40
0
 40
0
 40
1
 40
1
 40
1
 40
1
 10
5.500000
 20
67.750000
 30
0.0
 10
5.500000
 20
67.680960
 30
0.0
 10
5.507000
 20
67.613563
 30
0.0
 10
5.520316
 20
67.548465
 30
0.0
  0
SPLINE
  5
27b
100
AcDbEntity
  8
0
 62
7
100
AcDbSpline
 70
8
 71
3
 72
8
 73
4
 74
0
 40
0
 40
0
 40
0
 40
0
 40
1
 40
1
 40
1
 40
1
 10
5.520316
 20
67.548465
 30
0.0
 10
5.533637
 20
67.483365
 30
0.0
 10
5.553283
 20
67.420574
 30
0.0
 10
5.578585
 20
67.360755
 30
0.0
  0
SPLINE
  5
27c
100
AcDbEntity
  8
0
 62
7
100
AcDbSpline
 70
8
 71
3
 72
8
 73
4
 74
0
 40
0
 40
0
 40
0
 40
0
 40
1
 40
1
 40
1
 40
1
 10
5.578585
 20
67.360755
 30
0.0
 10
5.603886
 20
67.300935
 30
0.0
 10
5.634843
 20
67.244091
 30
0.0
 10
5.670784
 20
67.190890
 30
0.0
  0
SPLINE
  5
27d
100
AcDbEntity
  8
0
 62
7
100
AcDbSpline
 70
8
 71
3
 72
8
 73
4
 74
0
 40
0
 40
0
 40
0
 40
0
 40
1
 40
1
 40
1
 40
1
 10
5.670784
 20
67.190890
 30
0.0
 10
5.706725
 20
67.137690
 30
0.0
 10
5.747652
 20
67.088134
 30
0.0
 10
5.792893
 20
67.042893
 30
0.0
  0
SPLINE
  5
27e
100
AcDbEntity
  8
0
 62
7
100
AcDbSpline
 70
8
 71
3
 72
8
 73
4
 74
0
 40
0
 40
0
 40
0
 40
0
 40
1
 40
1
 40
1
 40
1
 10
5.792893
 20
67.042893
 30
0.0
 10
5.838134
 20
66.997653
 30
0.0
 10
5.887690
 20
66.956723
 30
0.0
 10
5.940890
 20
66.920784
 30
0.0
  0
SPLINE
  5
27f
100
AcDbEntity
  8
0
 62
7
100
AcDbSpline
 70
8
 71
3
 72
8
 73
4
 74
0
 40
0
 40
0
 40
0
 40
0
 40
1
 40
1
 40
1
 40
1
 10
5.940890
 20
66.920784
 30
0.0
 10
5.994090
 20
66.884844
 30
0.0
 10
6.050935
 20
66.853884
 30
0.0
 10
6.110755
 20
66.828584
 30
0.0
  0
SPLINE
  5
280
100
AcDbEntity
  8
0
 62
7
100
AcDbSpline
 70
8
 71
3
 72
8
 73
4
 74
0
 40
0
 40
0
 40
0
 40
0
 40
1
 40
1
 40
1
 40
1
 10
6.110755
 20
66.828584
 30
0.0
 10
6.170574
 20
66.803284
 30
0.0
 10
6.233367
 20
66.783634
 30
0.0
 10
6.298465
 20
66.770314
 30
0.0
  0
SPLINE
  5
281
100
AcDbEntity
  8
0
 62
7
100
AcDbSpline
 70
8
 71
3
 72
8
 73
4
 74
0
 40
0
 40
0
 40
0
 40
0
 40
1
 40
1
 40
1
 40
1
 10
6.298465
 20
66.770314
 30
0.0
 10
6.363563
 20
66.756996
 30
0.0
 10
6.430964
 20
66.750000
 30
0.0
 10
6.500000
 20
66.750000
 30
0.0
  0
SPLINE
  5
282
100
AcDbEntity
  8
0
 62
7
100
AcDbSpline
 70
8
 71
3
 72
8
 73
4
 74
0
 40
0
 40
0
 40
0
 40
0
 40
1
 40
1
 40
1
 40
1
 10
6.500000
 20
66.750000
 30
0.0
 10
6.569036
 20
66.750000
 30
0.0
 10
6.636437
 20
66.757000
 30
0.0
 10
6.701535
 20
66.770320
 30
0.0
  0
SPLINE
  5
283
100
AcDbEntity
  8
0
 62
7
100
AcDbSpline
 70
8
 71
3
 72
8
 73
4
 74
0
 40
0
 40
0
 40
0
 40
0
 40
1
 40
1
 40
1
 40
1
 10
6.701535
 20
66.770320
 30
0.0
 10
6.766633
 20
66.783640
 30
0.0
 10
6.829426
 20
66.803290
 30
0.0
 10
6.889245
 20
66.828590
 30
0.0
  0
SPLINE
  5
284
100
AcDbEntity
  8
0
 62
7
100
AcDbSpline
 70
8
 71
3
 72
8
 73
4
 74
0
 40
0
 40
0
 40
0
 40
0
 40
1
 40
1
 40
1
 40
1
 10
6.889245
 20
66.828590
 30
0.0
 10
6.949064
 20
66.853890
 30
0.0
 10
7.005909
 20
66.884850
 30
0.0
 10
7.059109
 20
66.920790
 30
0.0
  0
SPLINE
  5
285
100
AcDbEntity
  8
0
 62
7
100
AcDbSpline
 70
8
 71
3
 72
8
 73
4
 74
0
 40
0
 40
0
 40
0
 40
0
 40
1
 40
1
 40
1
 40
1
 10
7.059109
 20
66.920790
 30
0.0
 10
7.112310
 20
66.956730
 30
0.0
 10
7.161866
 20
66.997660
 30
0.0
 10
7.207107
 20
67.042899
 30
0.0
  0
SPLINE
  5
286
100
AcDbEntity
  8
0
 62
7
100
AcDbSpline
 70
8
 71
3
 72
8
 73
4
 74
0
 40
0
 40
0
 40
0
 40
0
 40
1
 40
1
 40
1
 40
1
 10
7.207107
 20
67.042899
 30
0.0
 10
7.252348
 20
67.088139
 30
0.0
 10
7.293275
 20
67.137699
 30
0.0
 10
7.329216
 20
67.190896
 30
0.0
  0
SPLINE
  5
287
100
AcDbEntity
  8
0
 62
7
100
AcDbSpline
 70
8
 71
3
 72
8
 73
4
 74
0
 40
0
 40
0
 40
0
 40
0
 40
1
 40
1
 40
1
 40
1
 10
7.329216
 20
67.190896
 30
0.0
 10
7.365157
 20
67.244096
 30
0.0
 10
7.396114
 20
67.300942
 30
0.0
 10
7.421415
 20
67.360761
 30
0.0
  0
SPLINE
  5
288
100
AcDbEntity
  8
0
 62
7
100
AcDbSpline
 70
8
 71
3
 72
8
 73
4
 74
0
 40
0
 40
0
 40
0
 40
0
 40
1
 40
1
 40
1
 40
1
 10
7.421415
 20
67.360761
 30
0.0
 10
7.446716
 20
67.420581
 30
0.0
 10
7.466363
 20
67.483374
 30
0.0
 10
7.479684
 20
67.548471
 30
0.0
  0
SPLINE
  5
289
100
AcDbEntity
  8
0
 62
7
100
AcDbSpline
 70
8
 71
3
 72
8
 73
4
 74
0
 40
0
 40
0
 40
0
 40
0
 40
1
 40
1
 40
1
 40
1
 10
7.479684
 20
67.548471
 30
0.0
 10
7.493004
 20
67.613563
 30
0.0
 10
7.500000
 20
67.680964
 30
0.0
 10
7.500000
 20
67.750000
 30
0.0
  0
LWPOLYLINE
  5
28a
100
AcDbEntity
  8
0
 62
7
100
AcDbPolyline
 90
2
 70
1
 10
15.500000
 20
59.750000
 30
0.0
 10
15.500000
 20
59.750000
 30
0.0
  0
SPLINE
  5
28b
100
AcDbEntity
  8
0
 62
7
100
AcDbSpline
 70
8
 71
3
 72
8
 73
4
 74
0
 40
0
 40
0
 40
0
 40
0
 40
1
 40
1
 40
1
 40
1
 10
19.500000
 20
67.750000
 30
0.0
 10
19.500000
 20
68.095178
 30
0.0
 10
19.465020
 20
68.432186
 30
0.0
 10
19.398418
 20
68.757674
 30
0.0
  0
SPLINE
  5
28c
100
AcDbEntity
  8
0
 62
7
100
AcDbSpline
 70
8
 71
3
 72
8
 73
4
 74
0
 40
0
 40
0
 40
0
 40
0
 40
1
 40
1
 40
1
 40
1
 10
19.398418
 20
68.757674
 30
0.0
 10
19.331818
 20
69.083162
 30
0.0
 10
19.233582
 20
69.397130
 30
0.0
 10
19.107075
 20
69.696226
 30
0.0
  0
SPLINE
  5
28d
100
AcDbEntity
  8
0
 62
7
100
AcDbSpline
 70
8
 71
3
 72
8
 73
4
 74
0
 40
0
 40
0
 40
0
 40
0
 40
1
 40
1
 40
1
 40
1
 10
19.107075
 20
69.696226
 30
0.0
 10
18.980568
 20
69.995322
 30
0.0
 10
18.825786
 20
70.279546
 30
0.0
 10
18.646079
 20
70.545548
 30
0.0
  0
SPLINE
  5
28e
100
AcDbEntity
  8
0
 62
7
100
AcDbSpline
 70
8
 71
3
 72
8
 73
4
 74
0
 40
0
 40
0
 40
0
 40
0
 40
1
 40
1
 40
1
 40
1
 10
18.646079
 20
70.545548
 30
0.0
 10
18.466371
 20
70.811549
 30
0.0
 10
18.261739
 20
71.059328
 30
0.0
 10
18.035534
 20
71.285534
 30
0.0
  0
SPLINE
  5
28f
100
AcDbEntity
  8
0
 62
7
100
AcDbSpline
 70
8
 71
3
 72
8
 73
4
 74
0
 40
0
 40
0
 40
0
 40
0
 40
1
 40
1
 40
1
 40
1
 10
18.035534
 20
71.285534
 30
0.0
 10
17.809328
 20
71.511739
 30
0.0
 10
17.561549
 20
71.716371
 30
0.0
 10
17.295548
 20
71.896079
 30
0.0
  0
SPLINE
  5
290
100
AcDbEntity
  8
0
 62
7
100
AcDbSpline
 70
8
 71
3
 72
8
 73
4
 74
0
 40
0
 40
0
 40
0
 40
0
 40
1
 40
1
 40
1
 40
1
 10
17.295548
 20
71.896079
 30
0.0
 10
17.029546
 20
72.075786
 30
0.0
 10
16.745322
 20
72.230568
 30
0.0
 10
16.446226
 20
72.357075
 30
0.0
  0
SPLINE
  5
291
100
AcDbEntity
  8
0
 62
7
100
AcDbSpline
 70
8
 71
3
 72
8
 73
4
 74
0
 40
0
 40
0
 40
0
 40
0
 40
1
 40
1
 40
1
 40
1
 10
16.446226
 20
72.357075
 30
0.0
 10
16.147130
 20
72.483582
 30
0.0
 10
15.833162
 20
72.581813
 30
0.0
 10
15.507674
 20
72.648418
 30
0.0
  0
SPLINE
  5
292
100
AcDbEntity
  8
0
 62
7
100
AcDbSpline
 70
8
 71
3
 72
8
 73
4
 74
0
 40
0
 40
0
 40
0
 40
0
 40
1
 40
1
 40
1
 40
1
 10
15.507674
 20
72.648418
 30
0.0
 10
15.182186
 20
72.715022
 30
0.0
 10
14.845178
 20
72.750000
 30
0.0
 10
14.500000
 20
72.750000
 30
0.0
  0
SPLINE
  5
293
100
AcDbEntity
  8
0
 62
7
100
AcDbSpline
 70
8
 71
3
 72
8
 73
4
 74
0
 40
0
 40
0
 40
0
 40
0
 40
1
 40
1
 40
1
 40
1
 10
14.500000
 20
72.750000
 30
0.0
 10
14.154822
 20
72.750000
 30
0.0
 10
13.817814
 20
72.715020
 30
0.0
 10
13.492326
 20
72.648418
 30
0.0
  0
SPLINE
  5
294
100
AcDbEntity
  8
0
 62
7
100
AcDbSpline
 70
8
 71
3
 72
8
 73
4
 74
0
 40
0
 40
0
 40
0
 40
0
 40
1
 40
1
 40
1
 40
1
 10
13.492326
 20
72.648418
 30
0.0
 10
13.166838
 20
72.581818
 30
0.0
 10
12.852870
 20
72.483582
 30
0.0
 10
12.553774
 20
72.357075
 30
0.0
  0
SPLINE
  5
295
100
AcDbEntity
  8
0
 62
7
100
AcDbSpline
 70
8
 71
3
 72
8
 73
4
 74
0
 40
0
 40
0
 40
0
 40
0
 40
1
 40
1
 40
1
 40
1
 10
12.553774
 20
72.357075
 30
0.0
 10
12.254678
 20
72.230568
 30
0.0
 10
11.970454
 20
72.075786
 30
0.0
 10
11.704452
 20
71.896079
 30
0.0
  0
SPLINE
  5
296
100
AcDbEntity
  8
0
 62
7
100
AcDbSpline
 70
8
 71
3
 72
8
 73
4
 74
0
 40
0
 40
0
 40
0
 40
0
 40
1
 40
1
 40
1
 40
1
 10
11.704452
 20
71.896079
 30
0.0
 10
11.438451
 20
71.716371
 30
0.0
 10
11.190672
 20
71.511739
 30
0.0
 10
10.964466
 20
71.285534
 30
0.0
  0
SPLINE
  5
297
100
AcDbEntity
  8
0
 62
7
100
AcDbSpline
 70
8
 71
3
 72
8
 73
4
 74
0
 40
0
 40
0
 40
0
 40
0
 40
1
 40
1
 40
1
 40
1
 10
10.964466
 20
71.285534
 30
0.0
 10
10.738261
 20
71.059328
 30
0.0
 10
10.533629
 20
70.811549
 30
0.0
 10
10.353921
 20
70.545548
 30
0.0
  0
SPLINE
  5
298
100
AcDbEntity
  8
0
 62
7
100
AcDbSpline
 70
8
 71
3
 72
8
 73
4
 74
0
 40
0
 40
0
 40
0
 40
0
 40
1
 40
1
 40
1
 40
1
 10
10.353921
 20
70.545548
 30
0.0
 10
10.174214
 20
70.279546
 30
0.0
 10
10.019432
 20
69.995322
 30
0.0
 10
9.892925
 20
69.696226
 30
0.0
  0
SPLINE
  5
299
100
AcDbEntity
  8
0
 62
7
100
AcDbSpline
 70
8
 71
3
 72
8
 73
4
 74
0
 40
0
 40
0
 40
0
 40
0
 40
1
 40
1
 40
1
 40
1
 10
9.892925
 20
69.696226
 30
0.0
 10
9.766418
 20
69.397130
 30
0.0
 10
9.668187
 20
69.083162
 30
0.0
 10
9.601582
 20
68.757674
 30
0.0
  0
SPLINE
  5
29a
100
AcDbEntity
  8
0
 62
7
100
AcDbSpline
 70
8
 71
3
 72
8
 73
4
 74
0
 40
0
 40
0
 40
0
 40
0
 40
1
 40
1
 40
1
 40
1
 10
9.601582
 20
68.757674
 30
0.0
 10
9.534978
 20
68.432186
 30
0.0
 10
9.500000
 20
68.095178
 30
0.0
 10
9.500000
 20
67.750000
 30
0.0
  0
SPLINE
  5
29b
100
AcDbEntity
  8
0
 62
7
100
AcDbSpline
 70
8
 71
3
 72
8
 73
4
 74
0
 40
0
 40
0
 40
0
 40
0
 40
1
 40
1
 40
1
 40
1
 10
9.500000
 20
67.750000
 30
0.0
 10
9.500000
 20
67.404822
 30
0.0
 10
9.534978
 20
67.067814
 30
0.0
 10
9.601582
 20
66.742326
 30
0.0
  0
SPLINE
  5
29c
100
AcDbEntity
  8
0
 62
7
100
AcDbSpline
 70
8
 71
3
 72
8
 73
4
 74
0
 40
0
 40
0
 40
0
 40
0
 40
1
 40
1
 40
1
 40
1
 10
9.601582
 20
66.742326
 30
0.0
 10
9.668187
 20
66.416838
 30
0.0
 10
9.766418
 20
66.102870
 30
0.0
 10
9.892925
 20
65.803774
 30
0.0
  0
SPLINE
  5
29d
100
AcDbEntity
  8
0
 62
7
100
AcDbSpline
 70
8
 71
3
 72
8
 73
4
 74
0
 40
0
 40
0
 40
0
 40
0
 40
1
 40
1
 40
1
 40
1
 10
9.892925
 20
65.803774
 30
0.0
 10
10.019432
 20
65.504678
 30
0.0
 10
10.174214
 20
65.220454
 30
0.0
 10
10.353921
 20
64.954453
 30
0.0
  0
SPLINE
  5
29e
100
AcDbEntity
  8
0
 62
7
100
AcDbSpline
 70
8
 71
3
 72
8
 73
4
 74
0
 40
0
 40
0
 40
0
 40
0
 40
1
 40
1
 40
1
 40
1
 10
10.353921
 20
64.954453
 30
0.0
 10
10.533629
 20
64.688451
 30
0.0
 10
10.738261
 20
64.440672
 30
0.0
 10
10.964466
 20
64.214466
 30
0.0
  0
SPLINE
  5
29f
100
AcDbEntity
  8
0
 62
7
100
AcDbSpline
 70
8
 71
3
 72
8
 73
4
 74
0
 40
0
 40
0
 40
0
 40
0
 40
1
 40
1
 40
1
 40
1
 10
10.964466
 20
64.214466
 30
0.0
 10
11.190672
 20
63.988261
 30
0.0
 10
11.438451
 20
63.783629
 30
0.0
 10
11.704452
 20
63.603921
 30
0.0
  0
SPLINE
  5
2a0
100
AcDbEntity
  8
0
 62
7
100
AcDbSpline
 70
8
 71
3
 72
8
 73
4
 74
0
 40
0
 40
0
 40
0
 40
0
 40
1
 40
1
 40
1
 40
1
 10
11.704452
 20
63.603921
 30
0.0
 10
11.970454
 20
63.424214
 30
0.0
 10
12.254678
 20
63.269432
 30
0.0
 10
12.553774
 20
63.142925
 30
0.0
  0
SPLINE
  5
2a1
100
AcDbEntity
  8
0
 62
7
100
AcDbSpline
 70
8
 71
3
 72
8
 73
4
 74
0
 40
0
 40
0
 40
0
 40
0
 40
1
 40
1
 40
1
 40
1
 10
12.553774
 20
63.142925
 30
0.0
 10
12.852870
 20
63.016418
 30
0.0
 10
13.166838
 20
62.918187
 30
0.0
 10
13.492326
 20
62.851582
 30
0.0
  0
SPLINE
  5
2a2
100
AcDbEntity
  8
0
 62
7
100
AcDbSpline
 70
8
 71
3
 72
8
 73
4
 74
0
 40
0
 40
0
 40
0
 40
0
 40
1
 40
1
 40
1
 40
1
 10
13.492326
 20
62.851582
 30
0.0
 10
13.817814
 20
62.784978
 30
0.0
 10
14.154822
 20
62.750000
 30
0.0
 10
14.500000
 20
62.750000
 30
0.0
  0
SPLINE
  5
2a3
100
AcDbEntity
  8
0
 62
7
100
AcDbSpline
 70
8
 71
3
 72
8
 73
4
 74
0
 40
0
 40
0
 40
0
 40
0
 40
1
 40
1
 40
1
 40
1
 10
14.500000
 20
62.750000
 30
0.0
 10
14.845178
 20
62.750000
 30
0.0
 10
15.182186
 20
62.784978
 30
0.0
 10
15.507674
 20
62.851582
 30
0.0
  0
SPLINE
  5
2a4
100
AcDbEntity
  8
0
 62
7
100
AcDbSpline
 70
8
 71
3
 72
8
 73
4
 74
0
 40
0
 40
0
 40
0
 40
0
 40
1
 40
1
 40
1
 40
1
 10
15.507674
 20
62.851582
 30
0.0
 10
15.833162
 20
62.918186
 30
0.0
 10
16.147130
 20
63.016418
 30
0.0
 10
16.446226
 20
63.142925
 30
0.0
  0
SPLINE
  5
2a5
100
AcDbEntity
  8
0
 62
7
100
AcDbSpline
 70
8
 71
3
 72
8
 73
4
 74
0
 40
0
 40
0
 40
0
 40
0
 40
1
 40
1
 40
1
 40
1
 10
16.446226
 20
63.142925
 30
0.0
 10
16.745322
 20
63.269432
 30
0.0
 10
17.029546
 20
63.424214
 30
0.0
 10
17.295548
 20
63.603921
 30
0.0
  0
SPLINE
  5
2a6
100
AcDbEntity
  8
0
 62
7
100
AcDbSpline
 70
8
 71
3
 72
8
 73
4
 74
0
 40
0
 40
0
 40
0
 40
0
 40
1
 40
1
 40
1
 40
1
 10
17.295548
 20
63.603921
 30
0.0
 10
17.561549
 20
63.783629
 30
0.0
 10
17.809328
 20
63.988261
 30
0.0
 10
18.035534
 20
64.214466
 30
0.0
  0
SPLINE
  5
2a7
100
AcDbEntity
  8
0
 62
7
100
AcDbSpline
 70
8
 71
3
 72
8
 73
4
 74
0
 40
0
 40
0
 40
0
 40
0
 40
1
 40
1
 40
1
 40
1
 10
18.035534
 20
64.214466
 30
0.0
 10
18.261739
 20
64.440672
 30
0.0
 10
18.466371
 20
64.688451
 30
0.0
 10
18.646079
 20
64.954453
 30
0.0
  0
SPLINE
  5
2a8
100
AcDbEntity
  8
0
 62
7
100
AcDbSpline
 70
8
 71
3
 72
8
 73
4
 74
0
 40
0
 40
0
 40
0
 40
0
 40
1
 40
1
 40
1
 40
1
 10
18.646079
 20
64.954453
 30
0.0
 10
18.825786
 20
65.220454
 30
0.0
 10
18.980568
 20
65.504678
 30
0.0
 10
19.107075
 20
65.803774
 30
0.0
  0
SPLINE
  5
2a9
100
AcDbEntity
  8
0
 62
7
100
AcDbSpline
 70
8
 71
3
 72
8
 73
4
 74
0
 40
0
 40
0
 40
0
 40
0
 40
1
 40
1
 40
1
 40
1
 10
19.107075
 20
65.803774
 30
0.0
 10
19.233582
 20
66.102870
 30
0.0
 10
19.331813
 20
66.416838
 30
0.0
 10
19.398418
 20
66.742326
 30
0.0
  0
SPLINE
  5
2aa
100
AcDbEntity
  8
0
 62
7
100
AcDbSpline
 70
8
 71
3
 72
8
 73
4
 74
0
 40
0
 40
0
 40
0
 40
0
 40
1
 40
1
 40
1
 40
1
 10
19.398418
 20
66.742326
 30
0.0
 10
19.465022
 20
67.067814
 30
0.0
 10
19.500000
 20
67.404822
 30
0.0
 10
19.500000
 20
67.750000
 30
0.0
  0
LWPOLYLINE
  5
2ab
100
AcDbEntity
  8
0
 62
7
100
AcDbPolyline
 90
2
 70
1
 10
7.500000
 20
67.750000
 30
0.0
 10
7.500000
 20
67.750000
 30
0.0
  0
SPLINE
  5
2ac
100
AcDbEntity
  8
0
 62
7
100
AcDbSpline
 70
8
 71
3
 72
8
 73
4
 74
0
 40
0
 40
0
 40
0
 40
0
 40
1
 40
1
 40
1
 40
1
 10
33.177072
 20
73.872934
 30
0.0
 10
33.177072
 20
74.141828
 30
0.0
 10
33.149822
 20
74.404357
 30
0.0
 10
33.097942
 20
74.657912
 30
0.0
  0
SPLINE
  5
2ad
100
AcDbEntity
  8
0
 62
7
100
AcDbSpline
 70
8
 71
3
 72
8
 73
4
 74
0
 40
0
 40
0
 40
0
 40
0
 40
1
 40
1
 40
1
 40
1
 10
33.097942
 20
74.657912
 30
0.0
 10
33.046062
 20
74.911467
 30
0.0
 10
32.969535
 20
75.156048
 30
0.0
 10
32.870987
 20
75.389044
 30
0.0
  0
SPLINE
  5
2ae
100
AcDbEntity
  8
0
 62
7
100
AcDbSpline
 70
8
 71
3
 72
8
 73
4
 74
0
 40
0
 40
0
 40
0
 40
0
 40
1
 40
1
 40
1
 40
1
 10
32.870987
 20
75.389044
 30
0.0
 10
32.772437
 20
75.622039
 30
0.0
 10
32.651862
 20
75.843450
 30
0.0
 10
32.511870
 20
76.050666
 30
0.0
  0
SPLINE
  5
2af
100
AcDbEntity
  8
0
 62
7
100
AcDbSpline
 70
8
 71
3
 72
8
 73
4
 74
0
 40
0
 40
0
 40
0
 40
0
 40
1
 40
1
 40
1
 40
1
 10
32.511870
 20
76.050666
 30
0.0
 10
32.371878
 20
76.257881
 30
0.0
 10
32.212470
 20
76.450901
 30
0.0
 10
32.036256
 20
76.627115
 30
0.0
  0
SPLINE
  5
2b0
100
AcDbEntity
  8
0
 62
7
100
AcDbSpline
 70
8
 71
3
 72
8
 73
4
 74
0
 40
0
 40
0
 40
0
 40
0
 40
1
 40
1
 40
1
 40
1
 10
32.036256
 20
76.627115
 30
0.0
 10
31.860042
 20
76.803329
 30
0.0
 10
31.667022
 20
76.962737
 30
0.0
 10
31.459807
 20
77.102729
 30
0.0
  0
SPLINE
  5
2b1
100
AcDbEntity
  8
0
 62
7
100
AcDbSpline
 70
8
 71
3
 72
8
 73
4
 74
0
 40
0
 40
0
 40
0
 40
0
 40
1
 40
1
 40
1
 40
1
 10
31.459807
 20
77.102729
 30
0.0
 10
31.252591
 20
77.242721
 30
0.0
 10
31.031180
 20
77.363297
 30
0.0
 10
30.798185
 20
77.461846
 30
0.0
  0
SPLINE
  5
2b2
100
AcDbEntity
  8
0
 62
7
100
AcDbSpline
 70
8
 71
3
 72
8
 73
4
 74
0
 40
0
 40
0
 40
0
 40
0
 40
1
 40
1
 40
1
 40
1
 10
30.798185
 20
77.461846
 30
0.0
 10
30.565189
 20
77.560396
 30
0.0
 10
30.320608
 20
77.636917
 30
0.0
 10
30.067053
 20
77.688801
 30
0.0
  0
SPLINE
  5
2b3
100
AcDbEntity
  8
0
 62
7
100
AcDbSpline
 70
8
 71
3
 72
8
 73
4
 74
0
 40
0
 40
0
 40
0
 40
0
 40
1
 40
1
 40
1
 40
1
 10
30.067053
 20
77.688801
 30
0.0
 10
29.813498
 20
77.740681
 30
0.0
 10
29.550969
 20
77.767931
 30
0.0
 10
29.282075
 20
77.767931
 30
0.0
  0
SPLINE
  5
2b4
100
AcDbEntity
  8
0
 62
7
100
AcDbSpline
 70
8
 71
3
 72
8
 73
4
 74
0
 40
0
 40
0
 40
0
 40
0
 40
1
 40
1
 40
1
 40
1
 10
29.282075
 20
77.767931
 30
0.0
 10
29.013181
 20
77.767931
 30
0.0
 10
28.750652
 20
77.740681
 30
0.0
 10
28.497097
 20
77.688801
 30
0.0
  0
SPLINE
  5
2b5
100
AcDbEntity
  8
0
 62
7
100
AcDbSpline
 70
8
 71
3
 72
8
 73
4
 74
0
 40
0
 40
0
 40
0
 40
0
 40
1
 40
1
 40
1
 40
1
 10
28.497097
 20
77.688801
 30
0.0
 10
28.243542
 20
77.636921
 30
0.0
 10
27.998961
 20
77.560394
 30
0.0
 10
27.765965
 20
77.461846
 30
0.0
  0
SPLINE
  5
2b6
100
AcDbEntity
  8
0
 62
7
100
AcDbSpline
 70
8
 71
3
 72
8
 73
4
 74
0
 40
0
 40
0
 40
0
 40
0
 40
1
 40
1
 40
1
 40
1
 10
27.765965
 20
77.461846
 30
0.0
 10
27.532970
 20
77.363296
 30
0.0
 10
27.311559
 20
77.242721
 30
0.0
 10
27.104343
 20
77.102729
 30
0.0
  0
SPLINE
  5
2b7
100
AcDbEntity
  8
0
 62
7
100
AcDbSpline
 70
8
 71
3
 72
8
 73
4
 74
0
 40
0
 40
0
 40
0
 40
0
 40
1
 40
1
 40
1
 40
1
 10
27.104343
 20
77.102729
 30
0.0
 10
26.897128
 20
76.962737
 30
0.0
 10
26.704108
 20
76.803329
 30
0.0
 10
26.527894
 20
76.627115
 30
0.0
  0
SPLINE
  5
2b8
100
AcDbEntity
  8
0
 62
7
100
AcDbSpline
 70
8
 71
3
 72
8
 73
4
 74
0
 40
0
 40
0
 40
0
 40
0
 40
1
 40
1
 40
1
 40
1
 10
26.527894
 20
76.627115
 30
0.0
 10
26.351680
 20
76.450901
 30
0.0
 10
26.192272
 20
76.257881
 30
0.0
 10
26.052280
 20
76.050666
 30
0.0
  0
SPLINE
  5
2b9
100
AcDbEntity
  8
0
 62
7
100
AcDbSpline
 70
8
 71
3
 72
8
 73
4
 74
0
 40
0
 40
0
 40
0
 40
0
 40
1
 40
1
 40
1
 40
1
 10
26.052280
 20
76.050666
 30
0.0
 10
25.912288
 20
75.843450
 30
0.0
 10
25.791712
 20
75.622039
 30
0.0
 10
25.693163
 20
75.389044
 30
0.0
  0
SPLINE
  5
2ba
100
AcDbEntity
  8
0
 62
7
100
AcDbSpline
 70
8
 71
3
 72
8
 73
4
 74
0
 40
0
 40
0
 40
0
 40
0
 40
1
 40
1
 40
1
 40
1
 10
25.693163
 20
75.389044
 30
0.0
 10
25.594613
 20
75.156048
 30
0.0
 10
25.518092
 20
74.911467
 30
0.0
 10
25.466208
 20
74.657912
 30
0.0
  0
SPLINE
  5
2bb
100
AcDbEntity
  8
0
 62
7
100
AcDbSpline
 70
8
 71
3
 72
8
 73
4
 74
0
 40
0
 40
0
 40
0
 40
0
 40
1
 40
1
 40
1
 40
1
 10
25.466208
 20
74.657912
 30
0.0
 10
25.414328
 20
74.404357
 30
0.0
 10
25.387078
 20
74.141828
 30
0.0
 10
25.387078
 20
73.872934
 30
0.0
  0
SPLINE
  5
2bc
100
AcDbEntity
  8
0
 62
7
100
AcDbSpline
 70
8
 71
3
 72
8
 73
4
 74
0
 40
0
 40
0
 40
0
 40
0
 40
1
 40
1
 40
1
 40
1
 10
25.387078
 20
73.872934
 30
0.0
 10
25.387078
 20
73.604040
 30
0.0
 10
25.414328
 20
73.341511
 30
0.0
 10
25.466208
 20
73.087956
 30
0.0
  0
SPLINE
  5
2bd
100
AcDbEntity
  8
0
 62
7
100
AcDbSpline
 70
8
 71
3
 72
8
 73
4
 74
0
 40
0
 40
0
 40
0
 40
0
 40
1
 40
1
 40
1
 40
1
 10
25.466208
 20
73.087956
 30
0.0
 10
25.518088
 20
72.834401
 30
0.0
 10
25.594615
 20
72.589820
 30
0.0
 10
25.693163
 20
72.356824
 30
0.0
  0
SPLINE
  5
2be
100
AcDbEntity
  8
0
 62
7
100
AcDbSpline
 70
8
 71
3
 72
8
 73
4
 74
0
 40
0
 40
0
 40
0
 40
0
 40
1
 40
1
 40
1
 40
1
 10
25.693163
 20
72.356824
 30
0.0
 10
25.791713
 20
72.123829
 30
0.0
 10
25.912288
 20
71.902418
 30
0.0
 10
26.052280
 20
71.695202
 30
0.0
  0
SPLINE
  5
2bf
100
AcDbEntity
  8
0
 62
7
100
AcDbSpline
 70
8
 71
3
 72
8
 73
4
 74
0
 40
0
 40
0
 40
0
 40
0
 40
1
 40
1
 40
1
 40
1
 10
26.052280
 20
71.695202
 30
0.0
 10
26.192272
 20
71.487987
 30
0.0
 10
26.351680
 20
71.294967
 30
0.0
 10
26.527894
 20
71.118753
 30
0.0
  0
SPLINE
  5
2c0
100
AcDbEntity
  8
0
 62
7
100
AcDbSpline
 70
8
 71
3
 72
8
 73
4
 74
0
 40
0
 40
0
 40
0
 40
0
 40
1
 40
1
 40
1
 40
1
 10
26.527894
 20
71.118753
 30
0.0
 10
26.704108
 20
70.942539
 30
0.0
 10
26.897128
 20
70.783131
 30
0.0
 10
27.104343
 20
70.643139
 30
0.0
  0
SPLINE
  5
2c1
100
AcDbEntity
  8
0
 62
7
100
AcDbSpline
 70
8
 71
3
 72
8
 73
4
 74
0
 40
0
 40
0
 40
0
 40
0
 40
1
 40
1
 40
1
 40
1
 10
27.104343
 20
70.643139
 30
0.0
 10
27.311559
 20
70.503147
 30
0.0
 10
27.532970
 20
70.382571
 30
0.0
 10
27.765965
 20
70.284022
 30
0.0
  0
SPLINE
  5
2c2
100
AcDbEntity
  8
0
 62
7
100
AcDbSpline
 70
8
 71
3
 72
8
 73
4
 74
0
 40
0
 40
0
 40
0
 40
0
 40
1
 40
1
 40
1
 40
1
 10
27.765965
 20
70.284022
 30
0.0
 10
27.998961
 20
70.185472
 30
0.0
 10
28.243542
 20
70.108951
 30
0.0
 10
28.497097
 20
70.057067
 30
0.0
  0
SPLINE
  5
2c3
100
AcDbEntity
  8
0
 62
7
100
AcDbSpline
 70
8
 71
3
 72
8
 73
4
 74
0
 40
0
 40
0
 40
0
 40
0
 40
1
 40
1
 40
1
 40
1
 10
28.497097
 20
70.057067
 30
0.0
 10
28.750652
 20
70.005177
 30
0.0
 10
29.013181
 20
69.977937
 30
0.0
 10
29.282075
 20
69.977937
 30
0.0
  0
SPLINE
  5
2c4
100
AcDbEntity
  8
0
 62
7
100
AcDbSpline
 70
8
 71
3
 72
8
 73
4
 74
0
 40
0
 40
0
 40
0
 40
0
 40
1
 40
1
 40
1
 40
1
 10
29.282075
 20
69.977937
 30
0.0
 10
29.550969
 20
69.977937
 30
0.0
 10
29.813498
 20
70.005187
 30
0.0
 10
30.067053
 20
70.057067
 30
0.0
  0
SPLINE
  5
2c5
100
AcDbEntity
  8
0
 62
7
100
AcDbSpline
 70
8
 71
3
 72
8
 73
4
 74
0
 40
0
 40
0
 40
0
 40
0
 40
1
 40
1
 40
1
 40
1
 10
30.067053
 20
70.057067
 30
0.0
 10
30.320608
 20
70.108947
 30
0.0
 10
30.565189
 20
70.185474
 30
0.0
 10
30.798185
 20
70.284022
 30
0.0
  0
SPLINE
  5
2c6
100
AcDbEntity
  8
0
 62
7
100
AcDbSpline
 70
8
 71
3
 72
8
 73
4
 74
0
 40
0
 40
0
 40
0
 40
0
 40
1
 40
1
 40
1
 40
1
 10
30.798185
 20
70.284022
 30
0.0
 10
31.031180
 20
70.382572
 30
0.0
 10
31.252591
 20
70.503147
 30
0.0
 10
31.459807
 20
70.643139
 30
0.0
  0
SPLINE
  5
2c7
100
AcDbEntity
  8
0
 62
7
100
AcDbSpline
 70
8
 71
3
 72
8
 73
4
 74
0
 40
0
 40
0
 40
0
 40
0
 40
1
 40
1
 40
1
 40
1
 10
31.459807
 20
70.643139
 30
0.0
 10
31.667022
 20
70.783131
 30
0.0
 10
31.860042
 20
70.942539
 30
0.0
 10
32.036256
 20
71.118753
 30
0.0
  0
SPLINE
  5
2c8
100
AcDbEntity
  8
0
 62
7
100
AcDbSpline
 70
8
 71
3
 72
8
 73
4
 74
0
 40
0
 40
0
 40
0
 40
0
 40
1
 40
1
 40
1
 40
1
 10
32.036256
 20
71.118753
 30
0.0
 10
32.212470
 20
71.294967
 30
0.0
 10
32.371878
 20
71.487987
 30
0.0
 10
32.511870
 20
71.695202
 30
0.0
  0
SPLINE
  5
2c9
100
AcDbEntity
  8
0
 62
7
100
AcDbSpline
 70
8
 71
3
 72
8
 73
4
 74
0
 40
0
 40
0
 40
0
 40
0
 40
1
 40
1
 40
1
 40
1
 10
32.511870
 20
71.695202
 30
0.0
 10
32.651862
 20
71.902418
 30
0.0
 10
32.772438
 20
72.123829
 30
0.0
 10
32.870987
 20
72.356824
 30
0.0
  0
SPLINE
  5
2ca
100
AcDbEntity
  8
0
 62
7
100
AcDbSpline
 70
8
 71
3
 72
8
 73
4
 74
0
 40
0
 40
0
 40
0
 40
0
 40
1
 40
1
 40
1
 40
1
 10
32.870987
 20
72.356824
 30
0.0
 10
32.969537
 20
72.589820
 30
0.0
 10
33.046058
 20
72.834401
 30
0.0
 10
33.097942
 20
73.087956
 30
0.0
  0
SPLINE
  5
2cb
100
AcDbEntity
  8
0
 62
7
100
AcDbSpline
 70
8
 71
3
 72
8
 73
4
 74
0
 40
0
 40
0
 40
0
 40
0
 40
1
 40
1
 40
1
 40
1
 10
33.097942
 20
73.087956
 30
0.0
 10
33.149832
 20
73.341511
 30
0.0
 10
33.177072
 20
73.604040
 30
0.0
 10
33.177072
 20
73.872934
 30
0.0
  0
LWPOLYLINE
  5
2cc
100
AcDbEntity
  8
0
 62
7
100
AcDbPolyline
 90
2
 70
1
 10
19.500000
 20
67.750000
 30
0.0
 10
19.500000
 20
67.750000
 30
0.0
  0
SPLINE
  5
2cd
100
AcDbEntity
  8
0
 62
7
100
AcDbSpline
 70
8
 71
3
 72
8
 73
4
 74
0
 40
0
 40
0
 40
0
 40
0
 40
1
 40
1
 40
1
 40
1
 10
24.517934
 20
52.967928
 30
0.0
 10
24.517934
 20
53.236821
 30
0.0
 10
24.490684
 20
53.499351
 30
0.0
 10
24.438804
 20
53.752906
 30
0.0
  0
SPLINE
  5
2ce
100
AcDbEntity
  8
0
 62
7
100
AcDbSpline
 70
8
 71
3
 72
8
 73
4
 74
0
 40
0
 40
0
 40
0
 40
0
 40
1
 40
1
 40
1
 40
1
 10
24.438804
 20
53.752906
 30
0.0
 10
24.386924
 20
54.006461
 30
0.0
 10
24.310397
 20
54.251042
 30
0.0
 10
24.211849
 20
54.484037
 30
0.0
  0
SPLINE
  5
2cf
100
AcDbEntity
  8
0
 62
7
100
AcDbSpline
 70
8
 71
3
 72
8
 73
4
 74
0
 40
0
 40
0
 40
0
 40
0
 40
1
 40
1
 40
1
 40
1
 10
24.211849
 20
54.484037
 30
0.0
 10
24.113299
 20
54.717033
 30
0.0
 10
23.992724
 20
54.938444
 30
0.0
 10
23.852732
 20
55.145659
 30
0.0
  0
SPLINE
  5
2d0
100
AcDbEntity
  8
0
 62
7
100
AcDbSpline
 70
8
 71
3
 72
8
 73
4
 74
0
 40
0
 40
0
 40
0
 40
0
 40
1
 40
1
 40
1
 40
1
 10
23.852732
 20
55.145659
 30
0.0
 10
23.712740
 20
55.352874
 30
0.0
 10
23.553332
 20
55.545894
 30
0.0
 10
23.377118
 20
55.722108
 30
0.0
  0
SPLINE
  5
2d1
100
AcDbEntity
  8
0
 62
7
100
AcDbSpline
 70
8
 71
3
 72
8
 73
4
 74
0
 40
0
 40
0
 40
0
 40
0
 40
1
 40
1
 40
1
 40
1
 10
23.377118
 20
55.722108
 30
0.0
 10
23.200904
 20
55.898322
 30
0.0
 10
23.007884
 20
56.057731
 30
0.0
 10
22.800669
 20
56.197723
 30
0.0
  0
SPLINE
  5
2d2
100
AcDbEntity
  8
0
 62
7
100
AcDbSpline
 70
8
 71
3
 72
8
 73
4
 74
0
 40
0
 40
0
 40
0
 40
0
 40
1
 40
1
 40
1
 40
1
 10
22.800669
 20
56.197723
 30
0.0
 10
22.593453
 20
56.337714
 30
0.0
 10
22.372042
 20
56.458290
 30
0.0
 10
22.139047
 20
56.556839
 30
0.0
  0
SPLINE
  5
2d3
100
AcDbEntity
  8
0
 62
7
100
AcDbSpline
 70
8
 71
3
 72
8
 73
4
 74
0
 40
0
 40
0
 40
0
 40
0
 40
1
 40
1
 40
1
 40
1
 10
22.139047
 20
56.556839
 30
0.0
 10
21.906051
 20
56.655388
 30
0.0
 10
21.661470
 20
56.731910
 30
0.0
 10
21.407915
 20
56.783795
 30
0.0
  0
SPLINE
  5
2d4
100
AcDbEntity
  8
0
 62
7
100
AcDbSpline
 70
8
 71
3
 72
8
 73
4
 74
0
 40
0
 40
0
 40
0
 40
0
 40
1
 40
1
 40
1
 40
1
 10
21.407915
 20
56.783795
 30
0.0
 10
21.154360
 20
56.835680
 30
0.0
 10
20.891831
 20
56.862928
 30
0.0
 10
20.622937
 20
56.862928
 30
0.0
  0
SPLINE
  5
2d5
100
AcDbEntity
  8
0
 62
7
100
AcDbSpline
 70
8
 71
3
 72
8
 73
4
 74
0
 40
0
 40
0
 40
0
 40
0
 40
1
 40
1
 40
1
 40
1
 10
20.622937
 20
56.862928
 30
0.0
 10
20.354043
 20
56.862928
 30
0.0
 10
20.091514
 20
56.835680
 30
0.0
 10
19.837959
 20
56.783795
 30
0.0
  0
SPLINE
  5
2d6
100
AcDbEntity
  8
0
 62
7
100
AcDbSpline
 70
8
 71
3
 72
8
 73
4
 74
0
 40
0
 40
0
 40
0
 40
0
 40
1
 40
1
 40
1
 40
1
 10
19.837959
 20
56.783795
 30
0.0
 10
19.584401
 20
56.731910
 30
0.0
 10
19.339820
 20
56.655388
 30
0.0
 10
19.106824
 20
56.556839
 30
0.0
  0
SPLINE
  5
2d7
100
AcDbEntity
  8
0
 62
7
100
AcDbSpline
 70
8
 71
3
 72
8
 73
4
 74
0
 40
0
 40
0
 40
0
 40
0
 40
1
 40
1
 40
1
 40
1
 10
19.106824
 20
56.556839
 30
0.0
 10
18.873829
 20
56.458290
 30
0.0
 10
18.652418
 20
56.337714
 30
0.0
 10
18.445202
 20
56.197723
 30
0.0
  0
SPLINE
  5
2d8
100
AcDbEntity
  8
0
 62
7
100
AcDbSpline
 70
8
 71
3
 72
8
 73
4
 74
0
 40
0
 40
0
 40
0
 40
0
 40
1
 40
1
 40
1
 40
1
 10
18.445202
 20
56.197723
 30
0.0
 10
18.237987
 20
56.057731
 30
0.0
 10
18.044967
 20
55.898322
 30
0.0
 10
17.868753
 20
55.722108
 30
0.0
  0
SPLINE
  5
2d9
100
AcDbEntity
  8
0
 62
7
100
AcDbSpline
 70
8
 71
3
 72
8
 73
4
 74
0
 40
0
 40
0
 40
0
 40
0
 40
1
 40
1
 40
1
 40
1
 10
17.868753
 20
55.722108
 30
0.0
 10
17.692539
 20
55.545894
 30
0.0
 10
17.533131
 20
55.352874
 30
0.0
 10
17.393139
 20
55.145659
 30
0.0
  0
SPLINE
  5
2da
100
AcDbEntity
  8
0
 62
7
100
AcDbSpline
 70
8
 71
3
 72
8
 73
4
 74
0
 40
0
 40
0
 40
0
 40
0
 40
1
 40
1
 40
1
 40
1
 10
17.393139
 20
55.145659
 30
0.0
 10
17.253147
 20
54.938444
 30
0.0
 10
17.132571
 20
54.717033
 30
0.0
 10
17.034022
 20
54.484037
 30
0.0
  0
SPLINE
  5
2db
100
AcDbEntity
  8
0
 62
7
100
AcDbSpline
 70
8
 71
3
 72
8
 73
4
 74
0
 40
0
 40
0
 40
0
 40
0
 40
1
 40
1
 40
1
 40
1
 10
17.034022
 20
54.484037
 30
0.0
 10
16.935472
 20
54.251042
 30
0.0
 10
16.858951
 20
54.006461
 30
0.0
 10
16.807067
 20
53.752906
 30
0.0
  0
SPLINE
  5
2dc
100
AcDbEntity
  8
0
 62
7
100
AcDbSpline
 70
8
 71
3
 72
8
 73
4
 74
0
 40
0
 40
0
 40
0
 40
0
 40
1
 40
1
 40
1
 40
1
 10
16.807067
 20
53.752906
 30
0.0
 10
16.755187
 20
53.499351
 30
0.0
 10
16.727937
 20
53.236821
 30
0.0
 10
16.727937
 20
52.967928
 30
0.0
  0
SPLINE
  5
2dd
100
AcDbEntity
  8
0
 62
7
100
AcDbSpline
 70
8
 71
3
 72
8
 73
4
 74
0
 40
0
 40
0
 40
0
 40
0
 40
1
 40
1
 40
1
 40
1
 10
16.727937
 20
52.967928
 30
0.0
 10
16.727937
 20
52.699034
 30
0.0
 10
16.755187
 20
52.436504
 30
0.0
 10
16.807067
 20
52.182949
 30
0.0
  0
SPLINE
  5
2de
100
AcDbEntity
  8
0
 62
7
100
AcDbSpline
 70
8
 71
3
 72
8
 73
4
 74
0
 40
0
 40
0
 40
0
 40
0
 40
1
 40
1
 40
1
 40
1
 10
16.807067
 20
52.182949
 30
0.0
 10
16.858947
 20
51.929394
 30
0.0
 10
16.935474
 20
51.684813
 30
0.0
 10
17.034022
 20
51.451818
 30
0.0
  0
SPLINE
  5
2df
100
AcDbEntity
  8
0
 62
7
100
AcDbSpline
 70
8
 71
3
 72
8
 73
4
 74
0
 40
0
 40
0
 40
0
 40
0
 40
1
 40
1
 40
1
 40
1
 10
17.034022
 20
51.451818
 30
0.0
 10
17.132572
 20
51.218822
 30
0.0
 10
17.253147
 20
50.997411
 30
0.0
 10
17.393139
 20
50.790196
 30
0.0
  0
SPLINE
  5
2e0
100
AcDbEntity
  8
0
 62
7
100
AcDbSpline
 70
8
 71
3
 72
8
 73
4
 74
0
 40
0
 40
0
 40
0
 40
0
 40
1
 40
1
 40
1
 40
1
 10
17.393139
 20
50.790196
 30
0.0
 10
17.533131
 20
50.582981
 30
0.0
 10
17.692539
 20
50.389961
 30
0.0
 10
17.868753
 20
50.213747
 30
0.0
  0
SPLINE
  5
2e1
100
AcDbEntity
  8
0
 62
7
100
AcDbSpline
 70
8
 71
3
 72
8
 73
4
 74
0
 40
0
 40
0
 40
0
 40
0
 40
1
 40
1
 40
1
 40
1
 10
17.868753
 20
50.213747
 30
0.0
 10
18.044967
 20
50.037532
 30
0.0
 10
18.237987
 20
49.878124
 30
0.0
 10
18.445202
 20
49.738132
 30
0.0
  0
SPLINE
  5
2e2
100
AcDbEntity
  8
0
 62
7
100
AcDbSpline
 70
8
 71
3
 72
8
 73
4
 74
0
 40
0
 40
0
 40
0
 40
0
 40
1
 40
1
 40
1
 40
1
 10
18.445202
 20
49.738132
 30
0.0
 10
18.652418
 20
49.598140
 30
0.0
 10
18.873829
 20
49.477565
 30
0.0
 10
19.106824
 20
49.379016
 30
0.0
  0
SPLINE
  5
2e3
100
AcDbEntity
  8
0
 62
7
100
AcDbSpline
 70
8
 71
3
 72
8
 73
4
 74
0
 40
0
 40
0
 40
0
 40
0
 40
1
 40
1
 40
1
 40
1
 10
19.106824
 20
49.379016
 30
0.0
 10
19.339820
 20
49.280467
 30
0.0
 10
19.584401
 20
49.203945
 30
0.0
 10
19.837956
 20
49.152060
 30
0.0
  0
SPLINE
  5
2e4
100
AcDbEntity
  8
0
 62
7
100
AcDbSpline
 70
8
 71
3
 72
8
 73
4
 74
0
 40
0
 40
0
 40
0
 40
0
 40
1
 40
1
 40
1
 40
1
 10
19.837956
 20
49.152060
 30
0.0
 10
20.091511
 20
49.100175
 30
0.0
 10
20.354040
 20
49.072927
 30
0.0
 10
20.622934
 20
49.072927
 30
0.0
  0
SPLINE
  5
2e5
100
AcDbEntity
  8
0
 62
7
100
AcDbSpline
 70
8
 71
3
 72
8
 73
4
 74
0
 40
0
 40
0
 40
0
 40
0
 40
1
 40
1
 40
1
 40
1
 10
20.622934
 20
49.072927
 30
0.0
 10
20.891828
 20
49.072927
 30
0.0
 10
21.154357
 20
49.100175
 30
0.0
 10
21.407912
 20
49.152060
 30
0.0
  0
SPLINE
  5
2e6
100
AcDbEntity
  8
0
 62
7
100
AcDbSpline
 70
8
 71
3
 72
8
 73
4
 74
0
 40
0
 40
0
 40
0
 40
0
 40
1
 40
1
 40
1
 40
1
 10
21.407912
 20
49.152060
 30
0.0
 10
21.661467
 20
49.203945
 30
0.0
 10
21.906048
 20
49.280467
 30
0.0
 10
22.139044
 20
49.379016
 30
0.0
  0
SPLINE
  5
2e7
100
AcDbEntity
  8
0
 62
7
100
AcDbSpline
 70
8
 71
3
 72
8
 73
4
 74
0
 40
0
 40
0
 40
0
 40
0
 40
1
 40
1
 40
1
 40
1
 10
22.139044
 20
49.379016
 30
0.0
 10
22.372039
 20
49.477565
 30
0.0
 10
22.593450
 20
49.598140
 30
0.0
 10
22.800666
 20
49.738132
 30
0.0
  0
SPLINE
  5
2e8
100
AcDbEntity
  8
0
 62
7
100
AcDbSpline
 70
8
 71
3
 72
8
 73
4
 74
0
 40
0
 40
0
 40
0
 40
0
 40
1
 40
1
 40
1
 40
1
 10
22.800666
 20
49.738132
 30
0.0
 10
23.007881
 20
49.878124
 30
0.0
 10
23.200901
 20
50.037532
 30
0.0
 10
23.377115
 20
50.213747
 30
0.0
  0
SPLINE
  5
2e9
100
AcDbEntity
  8
0
 62
7
100
AcDbSpline
 70
8
 71
3
 72
8
 73
4
 74
0
 40
0
 40
0
 40
0
 40
0
 40
1
 40
1
 40
1
 40
1
 10
23.377115
 20
50.213747
 30
0.0
 10
23.553329
 20
50.389961
 30
0.0
 10
23.712737
 20
50.582981
 30
0.0
 10
23.852729
 20
50.790196
 30
0.0
  0
SPLINE
  5
2ea
100
AcDbEntity
  8
0
 62
7
100
AcDbSpline
 70
8
 71
3
 72
8
 73
4
 74
0
 40
0
 40
0
 40
0
 40
0
 40
1
 40
1
 40
1
 40
1
 10
23.852729
 20
50.790196
 30
0.0
 10
23.992721
 20
50.997411
 30
0.0
 10
24.113297
 20
51.218822
 30
0.0
 10
24.211846
 20
51.451818
 30
0.0
  0
SPLINE
  5
2eb
100
AcDbEntity
  8
0
 62
7
100
AcDbSpline
 70
8
 71
3
 72
8
 73
4
 74
0
 40
0
 40
0
 40
0
 40
0
 40
1
 40
1
 40
1
 40
1
 10
24.211846
 20
51.451818
 30
0.0
 10
24.310396
 20
51.684813
 30
0.0
 10
24.386917
 20
51.929394
 30
0.0
 10
24.438801
 20
52.182949
 30
0.0
  0
SPLINE
  5
2ec
100
AcDbEntity
  8
0
 62
7
100
AcDbSpline
 70
8
 71
3
 72
8
 73
4
 74
0
 40
0
 40
0
 40
0
 40
0
 40
1
 40
1
 40
1
 40
1
 10
24.438801
 20
52.182949
 30
0.0
 10
24.490681
 20
52.436504
 30
0.0
 10
24.517931
 20
52.699034
 30
0.0
 10
24.517931
 20
52.967928
 30
0.0
  0
LWPOLYLINE
  5
2ed
100
AcDbEntity
  8
0
 62
7
100
AcDbPolyline
 90
2
 70
1
 10
33.177072
 20
73.872934
 30
0.0
 10
33.177072
 20
73.872934
 30
0.0
  0
SPLINE
  5
2ee
100
AcDbEntity
  8
0
 62
7
100
AcDbSpline
 70
8
 71
3
 72
8
 73
4
 74
0
 40
0
 40
0
 40
0
 40
0
 40
1
 40
1
 40
1
 40
1
 10
3.612928
 20
61.627065
 30
0.0
 10
3.612928
 20
61.895959
 30
0.0
 10
3.585679
 20
62.158488
 30
0.0
 10
3.533794
 20
62.412043
 30
0.0
  0
SPLINE
  5
2ef
100
AcDbEntity
  8
0
 62
7
100
AcDbSpline
 70
8
 71
3
 72
8
 73
4
 74
0
 40
0
 40
0
 40
0
 40
0
 40
1
 40
1
 40
1
 40
1
 10
3.533794
 20
62.412043
 30
0.0
 10
3.481910
 20
62.665599
 30
0.0
 10
3.405388
 20
62.910179
 30
0.0
 10
3.306839
 20
63.143175
 30
0.0
  0
SPLINE
  5
2f0
100
AcDbEntity
  8
0
 62
7
100
AcDbSpline
 70
8
 71
3
 72
8
 73
4
 74
0
 40
0
 40
0
 40
0
 40
0
 40
1
 40
1
 40
1
 40
1
 10
3.306839
 20
63.143175
 30
0.0
 10
3.208290
 20
63.376171
 30
0.0
 10
3.087715
 20
63.597581
 30
0.0
 10
2.947723
 20
63.804797
 30
0.0
  0
SPLINE
  5
2f1
100
AcDbEntity
  8
0
 62
7
100
AcDbSpline
 70
8
 71
3
 72
8
 73
4
 74
0
 40
0
 40
0
 40
0
 40
0
 40
1
 40
1
 40
1
 40
1
 10
2.947723
 20
63.804797
 30
0.0
 10
2.807731
 20
64.012012
 30
0.0
 10
2.648322
 20
64.205032
 30
0.0
 10
2.472108
 20
64.381246
 30
0.0
  0
SPLINE
  5
2f2
100
AcDbEntity
  8
0
 62
7
100
AcDbSpline
 70
8
 71
3
 72
8
 73
4
 74
0
 40
0
 40
0
 40
0
 40
0
 40
1
 40
1
 40
1
 40
1
 10
2.472108
 20
64.381246
 30
0.0
 10
2.295894
 20
64.557460
 30
0.0
 10
2.102874
 20
64.716868
 30
0.0
 10
1.895659
 20
64.856860
 30
0.0
  0
SPLINE
  5
2f3
100
AcDbEntity
  8
0
 62
7
100
AcDbSpline
 70
8
 71
3
 72
8
 73
4
 74
0
 40
0
 40
0
 40
0
 40
0
 40
1
 40
1
 40
1
 40
1
 10
1.895659
 20
64.856860
 30
0.0
 10
1.688444
 20
64.996852
 30
0.0
 10
1.467033
 20
65.117428
 30
0.0
 10
1.234037
 20
65.215977
 30
0.0
  0
SPLINE
  5
2f4
100
AcDbEntity
  8
0
 62
7
100
AcDbSpline
 70
8
 71
3
 72
8
 73
4
 74
0
 40
0
 40
0
 40
0
 40
0
 40
1
 40
1
 40
1
 40
1
 10
1.234037
 20
65.215977
 30
0.0
 10
1.001041
 20
65.314527
 30
0.0
 10
0.756461
 20
65.391048
 30
0.0
 10
0.502906
 20
65.442932
 30
0.0
  0
SPLINE
  5
2f5
100
AcDbEntity
  8
0
 62
7
100
AcDbSpline
 70
8
 71
3
 72
8
 73
4
 74
0
 40
0
 40
0
 40
0
 40
0
 40
1
 40
1
 40
1
 40
1
 10
0.502906
 20
65.442932
 30
0.0
 10
0.249351
 20
65.494812
 30
0.0
 10
-0.013179
 20
65.522062
 30
0.0
 10
-0.282073
 20
65.522062
 30
0.0
  0
SPLINE
  5
2f6
100
AcDbEntity
  8
0
 62
7
100
AcDbSpline
 70
8
 71
3
 72
8
 73
4
 74
0
 40
0
 40
0
 40
0
 40
0
 40
1
 40
1
 40
1
 40
1
 10
-0.282073
 20
65.522062
 30
0.0
 10
-0.550966
 20
65.522062
 30
0.0
 10
-0.813496
 20
65.494812
 30
0.0
 10
-1.067051
 20
65.442932
 30
0.0
  0
SPLINE
  5
2f7
100
AcDbEntity
  8
0
 62
7
100
AcDbSpline
 70
8
 71
3
 72
8
 73
4
 74
0
 40
0
 40
0
 40
0
 40
0
 40
1
 40
1
 40
1
 40
1
 10
-1.067051
 20
65.442932
 30
0.0
 10
-1.320606
 20
65.391052
 30
0.0
 10
-1.565187
 20
65.314525
 30
0.0
 10
-1.798182
 20
65.215977
 30
0.0
  0
SPLINE
  5
2f8
100
AcDbEntity
  8
0
 62
7
100
AcDbSpline
 70
8
 71
3
 72
8
 73
4
 74
0
 40
0
 40
0
 40
0
 40
0
 40
1
 40
1
 40
1
 40
1
 10
-1.798182
 20
65.215977
 30
0.0
 10
-2.031178
 20
65.117428
 30
0.0
 10
-2.252589
 20
64.996852
 30
0.0
 10
-2.459804
 20
64.856860
 30
0.0
  0
SPLINE
  5
2f9
100
AcDbEntity
  8
0
 62
7
100
AcDbSpline
 70
8
 71
3
 72
8
 73
4
 74
0
 40
0
 40
0
 40
0
 40
0
 40
1
 40
1
 40
1
 40
1
 10
-2.459804
 20
64.856860
 30
0.0
 10
-2.667019
 20
64.716868
 30
0.0
 10
-2.860039
 20
64.557460
 30
0.0
 10
-3.036253
 20
64.381246
 30
0.0
  0
SPLINE
  5
2fa
100
AcDbEntity
  8
0
 62
7
100
AcDbSpline
 70
8
 71
3
 72
8
 73
4
 74
0
 40
0
 40
0
 40
0
 40
0
 40
1
 40
1
 40
1
 40
1
 10
-3.036253
 20
64.381246
 30
0.0
 10
-3.212467
 20
64.205032
 30
0.0
 10
-3.371876
 20
64.012012
 30
0.0
 10
-3.511868
 20
63.804797
 30
0.0
  0
SPLINE
  5
2fb
100
AcDbEntity
  8
0
 62
7
100
AcDbSpline
 70
8
 71
3
 72
8
 73
4
 74
0
 40
0
 40
0
 40
0
 40
0
 40
1
 40
1
 40
1
 40
1
 10
-3.511868
 20
63.804797
 30
0.0
 10
-3.651860
 20
63.597581
 30
0.0
 10
-3.772435
 20
63.376171
 30
0.0
 10
-3.870984
 20
63.143175
 30
0.0
  0
SPLINE
  5
2fc
100
AcDbEntity
  8
0
 62
7
100
AcDbSpline
 70
8
 71
3
 72
8
 73
4
 74
0
 40
0
 40
0
 40
0
 40
0
 40
1
 40
1
 40
1
 40
1
 10
-3.870984
 20
63.143175
 30
0.0
 10
-3.969533
 20
62.910179
 30
0.0
 10
-4.046055
 20
62.665599
 30
0.0
 10
-4.097940
 20
62.412044
 30
0.0
  0
SPLINE
  5
2fd
100
AcDbEntity
  8
0
 62
7
100
AcDbSpline
 70
8
 71
3
 72
8
 73
4
 74
0
 40
0
 40
0
 40
0
 40
0
 40
1
 40
1
 40
1
 40
1
 10
-4.097940
 20
62.412044
 30
0.0
 10
-4.149825
 20
62.158488
 30
0.0
 10
-4.177073
 20
61.895959
 30
0.0
 10
-4.177073
 20
61.627065
 30
0.0
  0
SPLINE
  5
2fe
100
AcDbEntity
  8
0
 62
7
100
AcDbSpline
 70
8
 71
3
 72
8
 73
4
 74
0
 40
0
 40
0
 40
0
 40
0
 40
1
 40
1
 40
1
 40
1
 10
-4.177073
 20
61.627065
 30
0.0
 10
-4.177073
 20
61.358172
 30
0.0
 10
-4.149825
 20
61.095642
 30
0.0
 10
-4.097940
 20
60.842087
 30
0.0
  0
SPLINE
  5
2ff
100
AcDbEntity
  8
0
 62
7
100
AcDbSpline
 70
8
 71
3
 72
8
 73
4
 74
0
 40
0
 40
0
 40
0
 40
0
 40
1
 40
1
 40
1
 40
1
 10
-4.097940
 20
60.842087
 30
0.0
 10
-4.046055
 20
60.588532
 30
0.0
 10
-3.969533
 20
60.343951
 30
0.0
 10
-3.870984
 20
60.110955
 30
0.0
  0
SPLINE
  5
300
100
AcDbEntity
  8
0
 62
7
100
AcDbSpline
 70
8
 71
3
 72
8
 73
4
 74
0
 40
0
 40
0
 40
0
 40
0
 40
1
 40
1
 40
1
 40
1
 10
-3.870984
 20
60.110955
 30
0.0
 10
-3.772435
 20
59.877960
 30
0.0
 10
-3.651860
 20
59.656549
 30
0.0
 10
-3.511868
 20
59.449334
 30
0.0
  0
SPLINE
  5
301
100
AcDbEntity
  8
0
 62
7
100
AcDbSpline
 70
8
 71
3
 72
8
 73
4
 74
0
 40
0
 40
0
 40
0
 40
0
 40
1
 40
1
 40
1
 40
1
 10
-3.511868
 20
59.449334
 30
0.0
 10
-3.371876
 20
59.242118
 30
0.0
 10
-3.212467
 20
59.049098
 30
0.0
 10
-3.036253
 20
58.872884
 30
0.0
  0
SPLINE
  5
302
100
AcDbEntity
  8
0
 62
7
100
AcDbSpline
 70
8
 71
3
 72
8
 73
4
 74
0
 40
0
 40
0
 40
0
 40
0
 40
1
 40
1
 40
1
 40
1
 10
-3.036253
 20
58.872884
 30
0.0
 10
-2.860039
 20
58.696670
 30
0.0
 10
-2.667019
 20
58.537262
 30
0.0
 10
-2.459804
 20
58.397270
 30
0.0
  0
SPLINE
  5
303
100
AcDbEntity
  8
0
 62
7
100
AcDbSpline
 70
8
 71
3
 72
8
 73
4
 74
0
 40
0
 40
0
 40
0
 40
0
 40
1
 40
1
 40
1
 40
1
 10
-2.459804
 20
58.397270
 30
0.0
 10
-2.252589
 20
58.257278
 30
0.0
 10
-2.031178
 20
58.136702
 30
0.0
 10
-1.798182
 20
58.038154
 30
0.0
  0
SPLINE
  5
304
100
AcDbEntity
  8
0
 62
7
100
AcDbSpline
 70
8
 71
3
 72
8
 73
4
 74
0
 40
0
 40
0
 40
0
 40
0
 40
1
 40
1
 40
1
 40
1
 10
-1.798182
 20
58.038154
 30
0.0
 10
-1.565187
 20
57.939605
 30
0.0
 10
-1.320606
 20
57.863083
 30
0.0
 10
-1.067051
 20
57.811198
 30
0.0
  0
SPLINE
  5
305
100
AcDbEntity
  8
0
 62
7
100
AcDbSpline
 70
8
 71
3
 72
8
 73
4
 74
0
 40
0
 40
0
 40
0
 40
0
 40
1
 40
1
 40
1
 40
1
 10
-1.067051
 20
57.811198
 30
0.0
 10
-0.813496
 20
57.759313
 30
0.0
 10
-0.550966
 20
57.732065
 30
0.0
 10
-0.282072
 20
57.732065
 30
0.0
  0
SPLINE
  5
306
100
AcDbEntity
  8
0
 62
7
100
AcDbSpline
 70
8
 71
3
 72
8
 73
4
 74
0
 40
0
 40
0
 40
0
 40
0
 40
1
 40
1
 40
1
 40
1
 10
-0.282072
 20
57.732065
 30
0.0
 10
-0.013179
 20
57.732065
 30
0.0
 10
0.249351
 20
57.759313
 30
0.0
 10
0.502906
 20
57.811198
 30
0.0
  0
SPLINE
  5
307
100
AcDbEntity
  8
0
 62
7
100
AcDbSpline
 70
8
 71
3
 72
8
 73
4
 74
0
 40
0
 40
0
 40
0
 40
0
 40
1
 40
1
 40
1
 40
1
 10
0.502906
 20
57.811198
 30
0.0
 10
0.756461
 20
57.863083
 30
0.0
 10
1.001042
 20
57.939605
 30
0.0
 10
1.234037
 20
58.038154
 30
0.0
  0
SPLINE
  5
308
100
AcDbEntity
  8
0
 62
7
100
AcDbSpline
 70
8
 71
3
 72
8
 73
4
 74
0
 40
0
 40
0
 40
0
 40
0
 40
1
 40
1
 40
1
 40
1
 10
1.234037
 20
58.038154
 30
0.0
 10
1.467033
 20
58.136703
 30
0.0
 10
1.688444
 20
58.257278
 30
0.0
 10
1.895659
 20
58.397270
 30
0.0
  0
SPLINE
  5
309
100
AcDbEntity
  8
0
 62
7
100
AcDbSpline
 70
8
 71
3
 72
8
 73
4
 74
0
 40
0
 40
0
 40
0
 40
0
 40
1
 40
1
 40
1
 40
1
 10
1.895659
 20
58.397270
 30
0.0
 10
2.102875
 20
58.537262
 30
0.0
 10
2.295895
 20
58.696670
 30
0.0
 10
2.472109
 20
58.872884
 30
0.0
  0
SPLINE
  5
30a
100
AcDbEntity
  8
0
 62
7
100
AcDbSpline
 70
8
 71
3
 72
8
 73
4
 74
0
 40
0
 40
0
 40
0
 40
0
 40
1
 40
1
 40
1
 40
1
 10
2.472109
 20
58.872884
 30
0.0
 10
2.648323
 20
59.049098
 30
0.0
 10
2.807731
 20
59.242118
 30
0.0
 10
2.947723
 20
59.449334
 30
0.0
  0
SPLINE
  5
30b
100
AcDbEntity
  8
0
 62
7
100
AcDbSpline
 70
8
 71
3
 72
8
 73
4
 74
0
 40
0
 40
0
 40
0
 40
0
 40
1
 40
1
 40
1
 40
1
 10
2.947723
 20
59.449334
 30
0.0
 10
3.087715
 20
59.656549
 30
0.0
 10
3.208290
 20
59.877960
 30
0.0
 10
3.306839
 20
60.110955
 30
0.0
  0
SPLINE
  5
30c
100
AcDbEntity
  8
0
 62
7
100
AcDbSpline
 70
8
 71
3
 72
8
 73
4
 74
0
 40
0
 40
0
 40
0
 40
0
 40
1
 40
1
 40
1
 40
1
 10
3.306839
 20
60.110955
 30
0.0
 10
3.405388
 20
60.343951
 30
0.0
 10
3.481910
 20
60.588532
 30
0.0
 10
3.533795
 20
60.842087
 30
0.0
  0
SPLINE
  5
30d
100
AcDbEntity
  8
0
 62
7
100
AcDbSpline
 70
8
 71
3
 72
8
 73
4
 74
0
 40
0
 40
0
 40
0
 40
0
 40
1
 40
1
 40
1
 40
1
 10
3.533795
 20
60.842087
 30
0.0
 10
3.585680
 20
61.095642
 30
0.0
 10
3.612928
 20
61.358172
 30
0.0
 10
3.612928
 20
61.627065
 30
0.0
  0
LWPOLYLINE
  5
30e
100
AcDbEntity
  8
0
 62
7
100
AcDbPolyline
 90
2
 70
1
 10
24.517931
 20
52.967928
 30
0.0
 10
24.517934
 20
52.967928
 30
0.0
  0
SPLINE
  5
30f
100
AcDbEntity
  8
0
 62
7
100
AcDbSpline
 70
8
 71
3
 72
8
 73
4
 74
0
 40
0
 40
0
 40
0
 40
0
 40
1
 40
1
 40
1
 40
1
 10
12.272065
 20
82.532072
 30
0.0
 10
12.272065
 20
82.800966
 30
0.0
 10
12.244815
 20
83.063495
 30
0.0
 10
12.192935
 20
83.317050
 30
0.0
  0
SPLINE
  5
310
100
AcDbEntity
  8
0
 62
7
100
AcDbSpline
 70
8
 71
3
 72
8
 73
4
 74
0
 40
0
 40
0
 40
0
 40
0
 40
1
 40
1
 40
1
 40
1
 10
12.192935
 20
83.317050
 30
0.0
 10
12.141055
 20
83.570606
 30
0.0
 10
12.064528
 20
83.815186
 30
0.0
 10
11.965980
 20
84.048182
 30
0.0
  0
SPLINE
  5
311
100
AcDbEntity
  8
0
 62
7
100
AcDbSpline
 70
8
 71
3
 72
8
 73
4
 74
0
 40
0
 40
0
 40
0
 40
0
 40
1
 40
1
 40
1
 40
1
 10
11.965980
 20
84.048182
 30
0.0
 10
11.867430
 20
84.281178
 30
0.0
 10
11.746855
 20
84.502588
 30
0.0
 10
11.606863
 20
84.709804
 30
0.0
  0
SPLINE
  5
312
100
AcDbEntity
  8
0
 62
7
100
AcDbSpline
 70
8
 71
3
 72
8
 73
4
 74
0
 40
0
 40
0
 40
0
 40
0
 40
1
 40
1
 40
1
 40
1
 10
11.606863
 20
84.709804
 30
0.0
 10
11.466871
 20
84.917019
 30
0.0
 10
11.307463
 20
85.110039
 30
0.0
 10
11.131249
 20
85.286253
 30
0.0
  0
SPLINE
  5
313
100
AcDbEntity
  8
0
 62
7
100
AcDbSpline
 70
8
 71
3
 72
8
 73
4
 74
0
 40
0
 40
0
 40
0
 40
0
 40
1
 40
1
 40
1
 40
1
 10
11.131249
 20
85.286253
 30
0.0
 10
10.955035
 20
85.462467
 30
0.0
 10
10.762015
 20
85.621875
 30
0.0
 10
10.554799
 20
85.761867
 30
0.0
  0
SPLINE
  5
314
100
AcDbEntity
  8
0
 62
7
100
AcDbSpline
 70
8
 71
3
 72
8
 73
4
 74
0
 40
0
 40
0
 40
0
 40
0
 40
1
 40
1
 40
1
 40
1
 10
10.554799
 20
85.761867
 30
0.0
 10
10.347584
 20
85.901859
 30
0.0
 10
10.126173
 20
86.022435
 30
0.0
 10
9.893178
 20
86.120984
 30
0.0
  0
SPLINE
  5
315
100
AcDbEntity
  8
0
 62
7
100
AcDbSpline
 70
8
 71
3
 72
8
 73
4
 74
0
 40
0
 40
0
 40
0
 40
0
 40
1
 40
1
 40
1
 40
1
 10
9.893178
 20
86.120984
 30
0.0
 10
9.660182
 20
86.219534
 30
0.0
 10
9.415601
 20
86.296055
 30
0.0
 10
9.162046
 20
86.347939
 30
0.0
  0
SPLINE
  5
316
100
AcDbEntity
  8
0
 62
7
100
AcDbSpline
 70
8
 71
3
 72
8
 73
4
 74
0
 40
0
 40
0
 40
0
 40
0
 40
1
 40
1
 40
1
 40
1
 10
9.162046
 20
86.347939
 30
0.0
 10
8.908491
 20
86.399819
 30
0.0
 10
8.645961
 20
86.427069
 30
0.0
 10
8.377068
 20
86.427069
 30
0.0
  0
SPLINE
  5
317
100
AcDbEntity
  8
0
 62
7
100
AcDbSpline
 70
8
 71
3
 72
8
 73
4
 74
0
 40
0
 40
0
 40
0
 40
0
 40
1
 40
1
 40
1
 40
1
 10
8.377068
 20
86.427069
 30
0.0
 10
8.108174
 20
86.427069
 30
0.0
 10
7.845645
 20
86.399819
 30
0.0
 10
7.592089
 20
86.347939
 30
0.0
  0
SPLINE
  5
318
100
AcDbEntity
  8
0
 62
7
100
AcDbSpline
 70
8
 71
3
 72
8
 73
4
 74
0
 40
0
 40
0
 40
0
 40
0
 40
1
 40
1
 40
1
 40
1
 10
7.592089
 20
86.347939
 30
0.0
 10
7.338531
 20
86.296054
 30
0.0
 10
7.093951
 20
86.219532
 30
0.0
 10
6.860955
 20
86.120984
 30
0.0
  0
SPLINE
  5
319
100
AcDbEntity
  8
0
 62
7
100
AcDbSpline
 70
8
 71
3
 72
8
 73
4
 74
0
 40
0
 40
0
 40
0
 40
0
 40
1
 40
1
 40
1
 40
1
 10
6.860955
 20
86.120984
 30
0.0
 10
6.627959
 20
86.022435
 30
0.0
 10
6.406549
 20
85.901859
 30
0.0
 10
6.199333
 20
85.761867
 30
0.0
  0
SPLINE
  5
31a
100
AcDbEntity
  8
0
 62
7
100
AcDbSpline
 70
8
 71
3
 72
8
 73
4
 74
0
 40
0
 40
0
 40
0
 40
0
 40
1
 40
1
 40
1
 40
1
 10
6.199333
 20
85.761867
 30
0.0
 10
5.992118
 20
85.621875
 30
0.0
 10
5.799098
 20
85.462467
 30
0.0
 10
5.622884
 20
85.286253
 30
0.0
  0
SPLINE
  5
31b
100
AcDbEntity
  8
0
 62
7
100
AcDbSpline
 70
8
 71
3
 72
8
 73
4
 74
0
 40
0
 40
0
 40
0
 40
0
 40
1
 40
1
 40
1
 40
1
 10
5.622884
 20
85.286253
 30
0.0
 10
5.446670
 20
85.110039
 30
0.0
 10
5.287261
 20
84.917019
 30
0.0
 10
5.147270
 20
84.709803
 30
0.0
  0
SPLINE
  5
31c
100
AcDbEntity
  8
0
 62
7
100
AcDbSpline
 70
8
 71
3
 72
8
 73
4
 74
0
 40
0
 40
0
 40
0
 40
0
 40
1
 40
1
 40
1
 40
1
 10
5.147270
 20
84.709803
 30
0.0
 10
5.007278
 20
84.502588
 30
0.0
 10
4.886702
 20
84.281177
 30
0.0
 10
4.788153
 20
84.048182
 30
0.0
  0
SPLINE
  5
31d
100
AcDbEntity
  8
0
 62
7
100
AcDbSpline
 70
8
 71
3
 72
8
 73
4
 74
0
 40
0
 40
0
 40
0
 40
0
 40
1
 40
1
 40
1
 40
1
 10
4.788153
 20
84.048182
 30
0.0
 10
4.689604
 20
83.815186
 30
0.0
 10
4.613082
 20
83.570605
 30
0.0
 10
4.561197
 20
83.317050
 30
0.0
  0
SPLINE
  5
31e
100
AcDbEntity
  8
0
 62
7
100
AcDbSpline
 70
8
 71
3
 72
8
 73
4
 74
0
 40
0
 40
0
 40
0
 40
0
 40
1
 40
1
 40
1
 40
1
 10
4.561197
 20
83.317050
 30
0.0
 10
4.509312
 20
83.063495
 30
0.0
 10
4.482064
 20
82.800966
 30
0.0
 10
4.482064
 20
82.532072
 30
0.0
  0
SPLINE
  5
31f
100
AcDbEntity
  8
0
 62
7
100
AcDbSpline
 70
8
 71
3
 72
8
 73
4
 74
0
 40
0
 40
0
 40
0
 40
0
 40
1
 40
1
 40
1
 40
1
 10
4.482064
 20
82.532072
 30
0.0
 10
4.482064
 20
82.263178
 30
0.0
 10
4.509312
 20
82.000649
 30
0.0
 10
4.561197
 20
81.747094
 30
0.0
  0
SPLINE
  5
320
100
AcDbEntity
  8
0
 62
7
100
AcDbSpline
 70
8
 71
3
 72
8
 73
4
 74
0
 40
0
 40
0
 40
0
 40
0
 40
1
 40
1
 40
1
 40
1
 10
4.561197
 20
81.747094
 30
0.0
 10
4.613082
 20
81.493539
 30
0.0
 10
4.689604
 20
81.248958
 30
0.0
 10
4.788153
 20
81.015962
 30
0.0
  0
SPLINE
  5
321
100
AcDbEntity
  8
0
 62
7
100
AcDbSpline
 70
8
 71
3
 72
8
 73
4
 74
0
 40
0
 40
0
 40
0
 40
0
 40
1
 40
1
 40
1
 40
1
 10
4.788153
 20
81.015962
 30
0.0
 10
4.886702
 20
80.782967
 30
0.0
 10
5.007278
 20
80.561556
 30
0.0
 10
5.147270
 20
80.354340
 30
0.0
  0
SPLINE
  5
322
100
AcDbEntity
  8
0
 62
7
100
AcDbSpline
 70
8
 71
3
 72
8
 73
4
 74
0
 40
0
 40
0
 40
0
 40
0
 40
1
 40
1
 40
1
 40
1
 10
5.147270
 20
80.354340
 30
0.0
 10
5.287262
 20
80.147125
 30
0.0
 10
5.446670
 20
79.954105
 30
0.0
 10
5.622884
 20
79.777891
 30
0.0
  0
SPLINE
  5
323
100
AcDbEntity
  8
0
 62
7
100
AcDbSpline
 70
8
 71
3
 72
8
 73
4
 74
0
 40
0
 40
0
 40
0
 40
0
 40
1
 40
1
 40
1
 40
1
 10
5.622884
 20
79.777891
 30
0.0
 10
5.799098
 20
79.601677
 30
0.0
 10
5.992118
 20
79.442269
 30
0.0
 10
6.199333
 20
79.302277
 30
0.0
  0
SPLINE
  5
324
100
AcDbEntity
  8
0
 62
7
100
AcDbSpline
 70
8
 71
3
 72
8
 73
4
 74
0
 40
0
 40
0
 40
0
 40
0
 40
1
 40
1
 40
1
 40
1
 10
6.199333
 20
79.302277
 30
0.0
 10
6.406548
 20
79.162285
 30
0.0
 10
6.627959
 20
79.041709
 30
0.0
 10
6.860955
 20
78.943160
 30
0.0
  0
SPLINE
  5
325
100
AcDbEntity
  8
0
 62
7
100
AcDbSpline
 70
8
 71
3
 72
8
 73
4
 74
0
 40
0
 40
0
 40
0
 40
0
 40
1
 40
1
 40
1
 40
1
 10
6.860955
 20
78.943160
 30
0.0
 10
7.093951
 20
78.844610
 30
0.0
 10
7.338531
 20
78.768089
 30
0.0
 10
7.592086
 20
78.716205
 30
0.0
  0
SPLINE
  5
326
100
AcDbEntity
  8
0
 62
7
100
AcDbSpline
 70
8
 71
3
 72
8
 73
4
 74
0
 40
0
 40
0
 40
0
 40
0
 40
1
 40
1
 40
1
 40
1
 10
7.592086
 20
78.716205
 30
0.0
 10
7.845641
 20
78.664325
 30
0.0
 10
8.108171
 20
78.637075
 30
0.0
 10
8.377065
 20
78.637075
 30
0.0
  0
SPLINE
  5
327
100
AcDbEntity
  8
0
 62
7
100
AcDbSpline
 70
8
 71
3
 72
8
 73
4
 74
0
 40
0
 40
0
 40
0
 40
0
 40
1
 40
1
 40
1
 40
1
 10
8.377065
 20
78.637075
 30
0.0
 10
8.645958
 20
78.637075
 30
0.0
 10
8.908488
 20
78.664325
 30
0.0
 10
9.162043
 20
78.716205
 30
0.0
  0
SPLINE
  5
328
100
AcDbEntity
  8
0
 62
7
100
AcDbSpline
 70
8
 71
3
 72
8
 73
4
 74
0
 40
0
 40
0
 40
0
 40
0
 40
1
 40
1
 40
1
 40
1
 10
9.162043
 20
78.716205
 30
0.0
 10
9.415598
 20
78.768085
 30
0.0
 10
9.660179
 20
78.844612
 30
0.0
 10
9.893175
 20
78.943160
 30
0.0
  0
SPLINE
  5
329
100
AcDbEntity
  8
0
 62
7
100
AcDbSpline
 70
8
 71
3
 72
8
 73
4
 74
0
 40
0
 40
0
 40
0
 40
0
 40
1
 40
1
 40
1
 40
1
 10
9.893175
 20
78.943160
 30
0.0
 10
10.126170
 20
79.041710
 30
0.0
 10
10.347581
 20
79.162285
 30
0.0
 10
10.554796
 20
79.302277
 30
0.0
  0
SPLINE
  5
32a
100
AcDbEntity
  8
0
 62
7
100
AcDbSpline
 70
8
 71
3
 72
8
 73
4
 74
0
 40
0
 40
0
 40
0
 40
0
 40
1
 40
1
 40
1
 40
1
 10
10.554796
 20
79.302277
 30
0.0
 10
10.762012
 20
79.442269
 30
0.0
 10
10.955032
 20
79.601677
 30
0.0
 10
11.131246
 20
79.777891
 30
0.0
  0
SPLINE
  5
32b
100
AcDbEntity
  8
0
 62
7
100
AcDbSpline
 70
8
 71
3
 72
8
 73
4
 74
0
 40
0
 40
0
 40
0
 40
0
 40
1
 40
1
 40
1
 40
1
 10
11.131246
 20
79.777891
 30
0.0
 10
11.307460
 20
79.954105
 30
0.0
 10
11.466868
 20
80.147125
 30
0.0
 10
11.606860
 20
80.354340
 30
0.0
  0
SPLINE
  5
32c
100
AcDbEntity
  8
0
 62
7
100
AcDbSpline
 70
8
 71
3
 72
8
 73
4
 74
0
 40
0
 40
0
 40
0
 40
0
 40
1
 40
1
 40
1
 40
1
 10
11.606860
 20
80.354340
 30
0.0
 10
11.746852
 20
80.561556
 30
0.0
 10
11.867428
 20
80.782966
 30
0.0
 10
11.965977
 20
81.015962
 30
0.0
  0
SPLINE
  5
32d
100
AcDbEntity
  8
0
 62
7
100
AcDbSpline
 70
8
 71
3
 72
8
 73
4
 74
0
 40
0
 40
0
 40
0
 40
0
 40
1
 40
1
 40
1
 40
1
 10
11.965977
 20
81.015962
 30
0.0
 10
12.064527
 20
81.248958
 30
0.0
 10
12.141048
 20
81.493538
 30
0.0
 10
12.192932
 20
81.747094
 30
0.0
  0
SPLINE
  5
32e
100
AcDbEntity
  8
0
 62
7
100
AcDbSpline
 70
8
 71
3
 72
8
 73
4
 74
0
 40
0
 40
0
 40
0
 40
0
 40
1
 40
1
 40
1
 40
1
 10
12.192932
 20
81.747094
 30
0.0
 10
12.244812
 20
82.000649
 30
0.0
 10
12.272062
 20
82.263178
 30
0.0
 10
12.272062
 20
82.532072
 30
0.0
  0
LWPOLYLINE
  5
32f
100
AcDbEntity
  8
0
 62
7
100
AcDbPolyline
 90
2
 70
1
 10
3.612928
 20
61.627065
 30
0.0
 10
3.612928
 20
61.627065
 30
0.0
  0
SPLINE
  5
330
100
AcDbEntity
  8
0
 62
7
100
AcDbSpline
 70
8
 71
3
 72
8
 73
4
 74
0
 40
0
 40
0
 40
0
 40
0
 40
1
 40
1
 40
1
 40
1
 10
24.517934
 20
82.532072
 30
0.0
 10
24.517934
 20
82.800966
 30
0.0
 10
24.490684
 20
83.063495
 30
0.0
 10
24.438804
 20
83.317050
 30
0.0
  0
SPLINE
  5
331
100
AcDbEntity
  8
0
 62
7
100
AcDbSpline
 70
8
 71
3
 72
8
 73
4
 74
0
 40
0
 40
0
 40
0
 40
0
 40
1
 40
1
 40
1
 40
1
 10
24.438804
 20
83.317050
 30
0.0
 10
24.386924
 20
83.570605
 30
0.0
 10
24.310397
 20
83.815186
 30
0.0
 10
24.211849
 20
84.048182
 30
0.0
  0
SPLINE
  5
332
100
AcDbEntity
  8
0
 62
7
100
AcDbSpline
 70
8
 71
3
 72
8
 73
4
 74
0
 40
0
 40
0
 40
0
 40
0
 40
1
 40
1
 40
1
 40
1
 10
24.211849
 20
84.048182
 30
0.0
 10
24.113299
 20
84.281177
 30
0.0
 10
23.992724
 20
84.502588
 30
0.0
 10
23.852732
 20
84.709804
 30
0.0
  0
SPLINE
  5
333
100
AcDbEntity
  8
0
 62
7
100
AcDbSpline
 70
8
 71
3
 72
8
 73
4
 74
0
 40
0
 40
0
 40
0
 40
0
 40
1
 40
1
 40
1
 40
1
 10
23.852732
 20
84.709804
 30
0.0
 10
23.712740
 20
84.917019
 30
0.0
 10
23.553332
 20
85.110039
 30
0.0
 10
23.377118
 20
85.286253
 30
0.0
  0
SPLINE
  5
334
100
AcDbEntity
  8
0
 62
7
100
AcDbSpline
 70
8
 71
3
 72
8
 73
4
 74
0
 40
0
 40
0
 40
0
 40
0
 40
1
 40
1
 40
1
 40
1
 10
23.377118
 20
85.286253
 30
0.0
 10
23.200904
 20
85.462467
 30
0.0
 10
23.007884
 20
85.621875
 30
0.0
 10
22.800669
 20
85.761867
 30
0.0
  0
SPLINE
  5
335
100
AcDbEntity
  8
0
 62
7
100
AcDbSpline
 70
8
 71
3
 72
8
 73
4
 74
0
 40
0
 40
0
 40
0
 40
0
 40
1
 40
1
 40
1
 40
1
 10
22.800669
 20
85.761867
 30
0.0
 10
22.593453
 20
85.901859
 30
0.0
 10
22.372042
 20
86.022435
 30
0.0
 10
22.139047
 20
86.120984
 30
0.0
  0
SPLINE
  5
336
100
AcDbEntity
  8
0
 62
7
100
AcDbSpline
 70
8
 71
3
 72
8
 73
4
 74
0
 40
0
 40
0
 40
0
 40
0
 40
1
 40
1
 40
1
 40
1
 10
22.139047
 20
86.120984
 30
0.0
 10
21.906051
 20
86.219534
 30
0.0
 10
21.661470
 20
86.296055
 30
0.0
 10
21.407915
 20
86.347939
 30
0.0
  0
SPLINE
  5
337
100
AcDbEntity
  8
0
 62
7
100
AcDbSpline
 70
8
 71
3
 72
8
 73
4
 74
0
 40
0
 40
0
 40
0
 40
0
 40
1
 40
1
 40
1
 40
1
 10
21.407915
 20
86.347939
 30
0.0
 10
21.154360
 20
86.399819
 30
0.0
 10
20.891831
 20
86.427069
 30
0.0
 10
20.622937
 20
86.427069
 30
0.0
  0
SPLINE
  5
338
100
AcDbEntity
  8
0
 62
7
100
AcDbSpline
 70
8
 71
3
 72
8
 73
4
 74
0
 40
0
 40
0
 40
0
 40
0
 40
1
 40
1
 40
1
 40
1
 10
20.622937
 20
86.427069
 30
0.0
 10
20.354043
 20
86.427069
 30
0.0
 10
20.091514
 20
86.399819
 30
0.0
 10
19.837959
 20
86.347939
 30
0.0
  0
SPLINE
  5
339
100
AcDbEntity
  8
0
 62
7
100
AcDbSpline
 70
8
 71
3
 72
8
 73
4
 74
0
 40
0
 40
0
 40
0
 40
0
 40
1
 40
1
 40
1
 40
1
 10
19.837959
 20
86.347939
 30
0.0
 10
19.584404
 20
86.296059
 30
0.0
 10
19.339823
 20
86.219532
 30
0.0
 10
19.106827
 20
86.120984
 30
0.0
  0
SPLINE
  5
33a
100
AcDbEntity
  8
0
 62
7
100
AcDbSpline
 70
8
 71
3
 72
8
 73
4
 74
0
 40
0
 40
0
 40
0
 40
0
 40
1
 40
1
 40
1
 40
1
 10
19.106827
 20
86.120984
 30
0.0
 10
18.873832
 20
86.022434
 30
0.0
 10
18.652421
 20
85.901859
 30
0.0
 10
18.445205
 20
85.761867
 30
0.0
  0
SPLINE
  5
33b
100
AcDbEntity
  8
0
 62
7
100
AcDbSpline
 70
8
 71
3
 72
8
 73
4
 74
0
 40
0
 40
0
 40
0
 40
0
 40
1
 40
1
 40
1
 40
1
 10
18.445205
 20
85.761867
 30
0.0
 10
18.237990
 20
85.621875
 30
0.0
 10
18.044970
 20
85.462467
 30
0.0
 10
17.868756
 20
85.286253
 30
0.0
  0
SPLINE
  5
33c
100
AcDbEntity
  8
0
 62
7
100
AcDbSpline
 70
8
 71
3
 72
8
 73
4
 74
0
 40
0
 40
0
 40
0
 40
0
 40
1
 40
1
 40
1
 40
1
 10
17.868756
 20
85.286253
 30
0.0
 10
17.692542
 20
85.110039
 30
0.0
 10
17.533134
 20
84.917019
 30
0.0
 10
17.393142
 20
84.709804
 30
0.0
  0
SPLINE
  5
33d
100
AcDbEntity
  8
0
 62
7
100
AcDbSpline
 70
8
 71
3
 72
8
 73
4
 74
0
 40
0
 40
0
 40
0
 40
0
 40
1
 40
1
 40
1
 40
1
 10
17.393142
 20
84.709804
 30
0.0
 10
17.253150
 20
84.502588
 30
0.0
 10
17.132574
 20
84.281177
 30
0.0
 10
17.034025
 20
84.048182
 30
0.0
  0
SPLINE
  5
33e
100
AcDbEntity
  8
0
 62
7
100
AcDbSpline
 70
8
 71
3
 72
8
 73
4
 74
0
 40
0
 40
0
 40
0
 40
0
 40
1
 40
1
 40
1
 40
1
 10
17.034025
 20
84.048182
 30
0.0
 10
16.935475
 20
83.815186
 30
0.0
 10
16.858954
 20
83.570605
 30
0.0
 10
16.807070
 20
83.317050
 30
0.0
  0
SPLINE
  5
33f
100
AcDbEntity
  8
0
 62
7
100
AcDbSpline
 70
8
 71
3
 72
8
 73
4
 74
0
 40
0
 40
0
 40
0
 40
0
 40
1
 40
1
 40
1
 40
1
 10
16.807070
 20
83.317050
 30
0.0
 10
16.755190
 20
83.063495
 30
0.0
 10
16.727940
 20
82.800966
 30
0.0
 10
16.727940
 20
82.532072
 30
0.0
  0
SPLINE
  5
340
100
AcDbEntity
  8
0
 62
7
100
AcDbSpline
 70
8
 71
3
 72
8
 73
4
 74
0
 40
0
 40
0
 40
0
 40
0
 40
1
 40
1
 40
1
 40
1
 10
16.727940
 20
82.532072
 30
0.0
 10
16.727940
 20
82.263178
 30
0.0
 10
16.755190
 20
82.000649
 30
0.0
 10
16.807070
 20
81.747094
 30
0.0
  0
SPLINE
  5
341
100
AcDbEntity
  8
0
 62
7
100
AcDbSpline
 70
8
 71
3
 72
8
 73
4
 74
0
 40
0
 40
0
 40
0
 40
0
 40
1
 40
1
 40
1
 40
1
 10
16.807070
 20
81.747094
 30
0.0
 10
16.858950
 20
81.493539
 30
0.0
 10
16.935477
 20
81.248958
 30
0.0
 10
17.034025
 20
81.015962
 30
0.0
  0
SPLINE
  5
342
100
AcDbEntity
  8
0
 62
7
100
AcDbSpline
 70
8
 71
3
 72
8
 73
4
 74
0
 40
0
 40
0
 40
0
 40
0
 40
1
 40
1
 40
1
 40
1
 10
17.034025
 20
81.015962
 30
0.0
 10
17.132575
 20
80.782967
 30
0.0
 10
17.253150
 20
80.561556
 30
0.0
 10
17.393142
 20
80.354340
 30
0.0
  0
SPLINE
  5
343
100
AcDbEntity
  8
0
 62
7
100
AcDbSpline
 70
8
 71
3
 72
8
 73
4
 74
0
 40
0
 40
0
 40
0
 40
0
 40
1
 40
1
 40
1
 40
1
 10
17.393142
 20
80.354340
 30
0.0
 10
17.533134
 20
80.147125
 30
0.0
 10
17.692542
 20
79.954105
 30
0.0
 10
17.868756
 20
79.777891
 30
0.0
  0
SPLINE
  5
344
100
AcDbEntity
  8
0
 62
7
100
AcDbSpline
 70
8
 71
3
 72
8
 73
4
 74
0
 40
0
 40
0
 40
0
 40
0
 40
1
 40
1
 40
1
 40
1
 10
17.868756
 20
79.777891
 30
0.0
 10
18.044970
 20
79.601677
 30
0.0
 10
18.237990
 20
79.442269
 30
0.0
 10
18.445205
 20
79.302277
 30
0.0
  0
SPLINE
  5
345
100
AcDbEntity
  8
0
 62
7
100
AcDbSpline
 70
8
 71
3
 72
8
 73
4
 74
0
 40
0
 40
0
 40
0
 40
0
 40
1
 40
1
 40
1
 40
1
 10
18.445205
 20
79.302277
 30
0.0
 10
18.652421
 20
79.162285
 30
0.0
 10
18.873832
 20
79.041709
 30
0.0
 10
19.106827
 20
78.943160
 30
0.0
  0
SPLINE
  5
346
100
AcDbEntity
  8
0
 62
7
100
AcDbSpline
 70
8
 71
3
 72
8
 73
4
 74
0
 40
0
 40
0
 40
0
 40
0
 40
1
 40
1
 40
1
 40
1
 10
19.106827
 20
78.943160
 30
0.0
 10
19.339823
 20
78.844610
 30
0.0
 10
19.584404
 20
78.768089
 30
0.0
 10
19.837959
 20
78.716205
 30
0.0
  0
SPLINE
  5
347
100
AcDbEntity
  8
0
 62
7
100
AcDbSpline
 70
8
 71
3
 72
8
 73
4
 74
0
 40
0
 40
0
 40
0
 40
0
 40
1
 40
1
 40
1
 40
1
 10
19.837959
 20
78.716205
 30
0.0
 10
20.091514
 20
78.664325
 30
0.0
 10
20.354043
 20
78.637075
 30
0.0
 10
20.622937
 20
78.637075
 30
0.0
  0
SPLINE
  5
348
100
AcDbEntity
  8
0
 62
7
100
AcDbSpline
 70
8
 71
3
 72
8
 73
4
 74
0
 40
0
 40
0
 40
0
 40
0
 40
1
 40
1
 40
1
 40
1
 10
20.622937
 20
78.637075
 30
0.0
 10
20.891831
 20
78.637075
 30
0.0
 10
21.154360
 20
78.664325
 30
0.0
 10
21.407915
 20
78.716205
 30
0.0
  0
SPLINE
  5
349
100
AcDbEntity
  8
0
 62
7
100
AcDbSpline
 70
8
 71
3
 72
8
 73
4
 74
0
 40
0
 40
0
 40
0
 40
0
 40
1
 40
1
 40
1
 40
1
 10
21.407915
 20
78.716205
 30
0.0
 10
21.661470
 20
78.768085
 30
0.0
 10
21.906051
 20
78.844612
 30
0.0
 10
22.139047
 20
78.943160
 30
0.0
  0
SPLINE
  5
34a
100
AcDbEntity
  8
0
 62
7
100
AcDbSpline
 70
8
 71
3
 72
8
 73
4
 74
0
 40
0
 40
0
 40
0
 40
0
 40
1
 40
1
 40
1
 40
1
 10
22.139047
 20
78.943160
 30
0.0
 10
22.372042
 20
79.041710
 30
0.0
 10
22.593453
 20
79.162285
 30
0.0
 10
22.800669
 20
79.302277
 30
0.0
  0
SPLINE
  5
34b
100
AcDbEntity
  8
0
 62
7
100
AcDbSpline
 70
8
 71
3
 72
8
 73
4
 74
0
 40
0
 40
0
 40
0
 40
0
 40
1
 40
1
 40
1
 40
1
 10
22.800669
 20
79.302277
 30
0.0
 10
23.007884
 20
79.442269
 30
0.0
 10
23.200904
 20
79.601677
 30
0.0
 10
23.377118
 20
79.777891
 30
0.0
  0
SPLINE
  5
34c
100
AcDbEntity
  8
0
 62
7
100
AcDbSpline
 70
8
 71
3
 72
8
 73
4
 74
0
 40
0
 40
0
 40
0
 40
0
 40
1
 40
1
 40
1
 40
1
 10
23.377118
 20
79.777891
 30
0.0
 10
23.553332
 20
79.954105
 30
0.0
 10
23.712740
 20
80.147125
 30
0.0
 10
23.852732
 20
80.354340
 30
0.0
  0
SPLINE
  5
34d
100
AcDbEntity
  8
0
 62
7
100
AcDbSpline
 70
8
 71
3
 72
8
 73
4
 74
0
 40
0
 40
0
 40
0
 40
0
 40
1
 40
1
 40
1
 40
1
 10
23.852732
 20
80.354340
 30
0.0
 10
23.992724
 20
80.561556
 30
0.0
 10
24.113300
 20
80.782967
 30
0.0
 10
24.211849
 20
81.015962
 30
0.0
  0
SPLINE
  5
34e
100
AcDbEntity
  8
0
 62
7
100
AcDbSpline
 70
8
 71
3
 72
8
 73
4
 74
0
 40
0
 40
0
 40
0
 40
0
 40
1
 40
1
 40
1
 40
1
 10
24.211849
 20
81.015962
 30
0.0
 10
24.310399
 20
81.248958
 30
0.0
 10
24.386920
 20
81.493539
 30
0.0
 10
24.438804
 20
81.747094
 30
0.0
  0
SPLINE
  5
34f
100
AcDbEntity
  8
0
 62
7
100
AcDbSpline
 70
8
 71
3
 72
8
 73
4
 74
0
 40
0
 40
0
 40
0
 40
0
 40
1
 40
1
 40
1
 40
1
 10
24.438804
 20
81.747094
 30
0.0
 10
24.490684
 20
82.000649
 30
0.0
 10
24.517934
 20
82.263178
 30
0.0
 10
24.517934
 20
82.532072
 30
0.0
  0
LWPOLYLINE
  5
350
100
AcDbEntity
  8
0
 62
7
100
AcDbPolyline
 90
2
 70
1
 10
12.272062
 20
82.532072
 30
0.0
 10
12.272065
 20
82.532072
 30
0.0
  0
SPLINE
  5
351
100
AcDbEntity
  8
0
 62
7
100
AcDbSpline
 70
8
 71
3
 72
8
 73
4
 74
0
 40
0
 40
0
 40
0
 40
0
 40
1
 40
1
 40
1
 40
1
 10
3.612928
 20
73.872934
 30
0.0
 10
3.612928
 20
74.141828
 30
0.0
 10
3.585679
 20
74.404357
 30
0.0
 10
3.533794
 20
74.657912
 30
0.0
  0
SPLINE
  5
352
100
AcDbEntity
  8
0
 62
7
100
AcDbSpline
 70
8
 71
3
 72
8
 73
4
 74
0
 40
0
 40
0
 40
0
 40
0
 40
1
 40
1
 40
1
 40
1
 10
3.533794
 20
74.657912
 30
0.0
 10
3.481910
 20
74.911467
 30
0.0
 10
3.405388
 20
75.156048
 30
0.0
 10
3.306839
 20
75.389044
 30
0.0
  0
SPLINE
  5
353
100
AcDbEntity
  8
0
 62
7
100
AcDbSpline
 70
8
 71
3
 72
8
 73
4
 74
0
 40
0
 40
0
 40
0
 40
0
 40
1
 40
1
 40
1
 40
1
 10
3.306839
 20
75.389044
 30
0.0
 10
3.208290
 20
75.622039
 30
0.0
 10
3.087714
 20
75.843450
 30
0.0
 10
2.947722
 20
76.050666
 30
0.0
  0
SPLINE
  5
354
100
AcDbEntity
  8
0
 62
7
100
AcDbSpline
 70
8
 71
3
 72
8
 73
4
 74
0
 40
0
 40
0
 40
0
 40
0
 40
1
 40
1
 40
1
 40
1
 10
2.947722
 20
76.050666
 30
0.0
 10
2.807730
 20
76.257881
 30
0.0
 10
2.648322
 20
76.450901
 30
0.0
 10
2.472108
 20
76.627115
 30
0.0
  0
SPLINE
  5
355
100
AcDbEntity
  8
0
 62
7
100
AcDbSpline
 70
8
 71
3
 72
8
 73
4
 74
0
 40
0
 40
0
 40
0
 40
0
 40
1
 40
1
 40
1
 40
1
 10
2.472108
 20
76.627115
 30
0.0
 10
2.295894
 20
76.803329
 30
0.0
 10
2.102874
 20
76.962737
 30
0.0
 10
1.895659
 20
77.102729
 30
0.0
  0
SPLINE
  5
356
100
AcDbEntity
  8
0
 62
7
100
AcDbSpline
 70
8
 71
3
 72
8
 73
4
 74
0
 40
0
 40
0
 40
0
 40
0
 40
1
 40
1
 40
1
 40
1
 10
1.895659
 20
77.102729
 30
0.0
 10
1.688443
 20
77.242721
 30
0.0
 10
1.467033
 20
77.363297
 30
0.0
 10
1.234037
 20
77.461846
 30
0.0
  0
SPLINE
  5
357
100
AcDbEntity
  8
0
 62
7
100
AcDbSpline
 70
8
 71
3
 72
8
 73
4
 74
0
 40
0
 40
0
 40
0
 40
0
 40
1
 40
1
 40
1
 40
1
 10
1.234037
 20
77.461846
 30
0.0
 10
1.001041
 20
77.560396
 30
0.0
 10
0.756461
 20
77.636917
 30
0.0
 10
0.502905
 20
77.688801
 30
0.0
  0
SPLINE
  5
358
100
AcDbEntity
  8
0
 62
7
100
AcDbSpline
 70
8
 71
3
 72
8
 73
4
 74
0
 40
0
 40
0
 40
0
 40
0
 40
1
 40
1
 40
1
 40
1
 10
0.502905
 20
77.688801
 30
0.0
 10
0.249350
 20
77.740681
 30
0.0
 10
-0.013179
 20
77.767931
 30
0.0
 10
-0.282073
 20
77.767931
 30
0.0
  0
SPLINE
  5
359
100
AcDbEntity
  8
0
 62
7
100
AcDbSpline
 70
8
 71
3
 72
8
 73
4
 74
0
 40
0
 40
0
 40
0
 40
0
 40
1
 40
1
 40
1
 40
1
 10
-0.282073
 20
77.767931
 30
0.0
 10
-0.550967
 20
77.767931
 30
0.0
 10
-0.813496
 20
77.740681
 30
0.0
 10
-1.067051
 20
77.688801
 30
0.0
  0
SPLINE
  5
35a
100
AcDbEntity
  8
0
 62
7
100
AcDbSpline
 70
8
 71
3
 72
8
 73
4
 74
0
 40
0
 40
0
 40
0
 40
0
 40
1
 40
1
 40
1
 40
1
 10
-1.067051
 20
77.688801
 30
0.0
 10
-1.320606
 20
77.636921
 30
0.0
 10
-1.565187
 20
77.560394
 30
0.0
 10
-1.798183
 20
77.461846
 30
0.0
  0
SPLINE
  5
35b
100
AcDbEntity
  8
0
 62
7
100
AcDbSpline
 70
8
 71
3
 72
8
 73
4
 74
0
 40
0
 40
0
 40
0
 40
0
 40
1
 40
1
 40
1
 40
1
 10
-1.798183
 20
77.461846
 30
0.0
 10
-2.031178
 20
77.363296
 30
0.0
 10
-2.252589
 20
77.242721
 30
0.0
 10
-2.459804
 20
77.102729
 30
0.0
  0
SPLINE
  5
35c
100
AcDbEntity
  8
0
 62
7
100
AcDbSpline
 70
8
 71
3
 72
8
 73
4
 74
0
 40
0
 40
0
 40
0
 40
0
 40
1
 40
1
 40
1
 40
1
 10
-2.459804
 20
77.102729
 30
0.0
 10
-2.667020
 20
76.962737
 30
0.0
 10
-2.860040
 20
76.803329
 30
0.0
 10
-3.036254
 20
76.627115
 30
0.0
  0
SPLINE
  5
35d
100
AcDbEntity
  8
0
 62
7
100
AcDbSpline
 70
8
 71
3
 72
8
 73
4
 74
0
 40
0
 40
0
 40
0
 40
0
 40
1
 40
1
 40
1
 40
1
 10
-3.036254
 20
76.627115
 30
0.0
 10
-3.212468
 20
76.450901
 30
0.0
 10
-3.371876
 20
76.257881
 30
0.0
 10
-3.511868
 20
76.050666
 30
0.0
  0
SPLINE
  5
35e
100
AcDbEntity
  8
0
 62
7
100
AcDbSpline
 70
8
 71
3
 72
8
 73
4
 74
0
 40
0
 40
0
 40
0
 40
0
 40
1
 40
1
 40
1
 40
1
 10
-3.511868
 20
76.050666
 30
0.0
 10
-3.651860
 20
75.843450
 30
0.0
 10
-3.772436
 20
75.622039
 30
0.0
 10
-3.870985
 20
75.389044
 30
0.0
  0
SPLINE
  5
35f
100
AcDbEntity
  8
0
 62
7
100
AcDbSpline
 70
8
 71
3
 72
8
 73
4
 74
0
 40
0
 40
0
 40
0
 40
0
 40
1
 40
1
 40
1
 40
1
 10
-3.870985
 20
75.389044
 30
0.0
 10
-3.969534
 20
75.156048
 30
0.0
 10
-4.046056
 20
74.911467
 30
0.0
 10
-4.097940
 20
74.657912
 30
0.0
  0
SPLINE
  5
360
100
AcDbEntity
  8
0
 62
7
100
AcDbSpline
 70
8
 71
3
 72
8
 73
4
 74
0
 40
0
 40
0
 40
0
 40
0
 40
1
 40
1
 40
1
 40
1
 10
-4.097940
 20
74.657912
 30
0.0
 10
-4.149825
 20
74.404357
 30
0.0
 10
-4.177073
 20
74.141828
 30
0.0
 10
-4.177073
 20
73.872934
 30
0.0
  0
SPLINE
  5
361
100
AcDbEntity
  8
0
 62
7
100
AcDbSpline
 70
8
 71
3
 72
8
 73
4
 74
0
 40
0
 40
0
 40
0
 40
0
 40
1
 40
1
 40
1
 40
1
 10
-4.177073
 20
73.872934
 30
0.0
 10
-4.177073
 20
73.604040
 30
0.0
 10
-4.149825
 20
73.341511
 30
0.0
 10
-4.097940
 20
73.087956
 30
0.0
  0
SPLINE
  5
362
100
AcDbEntity
  8
0
 62
7
100
AcDbSpline
 70
8
 71
3
 72
8
 73
4
 74
0
 40
0
 40
0
 40
0
 40
0
 40
1
 40
1
 40
1
 40
1
 10
-4.097940
 20
73.087956
 30
0.0
 10
-4.046055
 20
72.834401
 30
0.0
 10
-3.969533
 20
72.589820
 30
0.0
 10
-3.870985
 20
72.356824
 30
0.0
  0
SPLINE
  5
363
100
AcDbEntity
  8
0
 62
7
100
AcDbSpline
 70
8
 71
3
 72
8
 73
4
 74
0
 40
0
 40
0
 40
0
 40
0
 40
1
 40
1
 40
1
 40
1
 10
-3.870985
 20
72.356824
 30
0.0
 10
-3.772436
 20
72.123829
 30
0.0
 10
-3.651860
 20
71.902418
 30
0.0
 10
-3.511868
 20
71.695202
 30
0.0
  0
SPLINE
  5
364
100
AcDbEntity
  8
0
 62
7
100
AcDbSpline
 70
8
 71
3
 72
8
 73
4
 74
0
 40
0
 40
0
 40
0
 40
0
 40
1
 40
1
 40
1
 40
1
 10
-3.511868
 20
71.695202
 30
0.0
 10
-3.371876
 20
71.487987
 30
0.0
 10
-3.212468
 20
71.294967
 30
0.0
 10
-3.036254
 20
71.118753
 30
0.0
  0
SPLINE
  5
365
100
AcDbEntity
  8
0
 62
7
100
AcDbSpline
 70
8
 71
3
 72
8
 73
4
 74
0
 40
0
 40
0
 40
0
 40
0
 40
1
 40
1
 40
1
 40
1
 10
-3.036254
 20
71.118753
 30
0.0
 10
-2.860040
 20
70.942539
 30
0.0
 10
-2.667020
 20
70.783131
 30
0.0
 10
-2.459804
 20
70.643139
 30
0.0
  0
SPLINE
  5
366
100
AcDbEntity
  8
0
 62
7
100
AcDbSpline
 70
8
 71
3
 72
8
 73
4
 74
0
 40
0
 40
0
 40
0
 40
0
 40
1
 40
1
 40
1
 40
1
 10
-2.459804
 20
70.643139
 30
0.0
 10
-2.252589
 20
70.503147
 30
0.0
 10
-2.031178
 20
70.382571
 30
0.0
 10
-1.798183
 20
70.284022
 30
0.0
  0
SPLINE
  5
367
100
AcDbEntity
  8
0
 62
7
100
AcDbSpline
 70
8
 71
3
 72
8
 73
4
 74
0
 40
0
 40
0
 40
0
 40
0
 40
1
 40
1
 40
1
 40
1
 10
-1.798183
 20
70.284022
 30
0.0
 10
-1.565187
 20
70.185472
 30
0.0
 10
-1.320606
 20
70.108951
 30
0.0
 10
-1.067051
 20
70.057067
 30
0.0
  0
SPLINE
  5
368
100
AcDbEntity
  8
0
 62
7
100
AcDbSpline
 70
8
 71
3
 72
8
 73
4
 74
0
 40
0
 40
0
 40
0
 40
0
 40
1
 40
1
 40
1
 40
1
 10
-1.067051
 20
70.057067
 30
0.0
 10
-0.813496
 20
70.005177
 30
0.0
 10
-0.550967
 20
69.977937
 30
0.0
 10
-0.282073
 20
69.977937
 30
0.0
  0
SPLINE
  5
369
100
AcDbEntity
  8
0
 62
7
100
AcDbSpline
 70
8
 71
3
 72
8
 73
4
 74
0
 40
0
 40
0
 40
0
 40
0
 40
1
 40
1
 40
1
 40
1
 10
-0.282073
 20
69.977937
 30
0.0
 10
-0.013179
 20
69.977937
 30
0.0
 10
0.249350
 20
70.005187
 30
0.0
 10
0.502905
 20
70.057067
 30
0.0
  0
SPLINE
  5
36a
100
AcDbEntity
  8
0
 62
7
100
AcDbSpline
 70
8
 71
3
 72
8
 73
4
 74
0
 40
0
 40
0
 40
0
 40
0
 40
1
 40
1
 40
1
 40
1
 10
0.502905
 20
70.057067
 30
0.0
 10
0.756461
 20
70.108947
 30
0.0
 10
1.001041
 20
70.185474
 30
0.0
 10
1.234037
 20
70.284022
 30
0.0
  0
SPLINE
  5
36b
100
AcDbEntity
  8
0
 62
7
100
AcDbSpline
 70
8
 71
3
 72
8
 73
4
 74
0
 40
0
 40
0
 40
0
 40
0
 40
1
 40
1
 40
1
 40
1
 10
1.234037
 20
70.284022
 30
0.0
 10
1.467033
 20
70.382572
 30
0.0
 10
1.688443
 20
70.503147
 30
0.0
 10
1.895659
 20
70.643139
 30
0.0
  0
SPLINE
  5
36c
100
AcDbEntity
  8
0
 62
7
100
AcDbSpline
 70
8
 71
3
 72
8
 73
4
 74
0
 40
0
 40
0
 40
0
 40
0
 40
1
 40
1
 40
1
 40
1
 10
1.895659
 20
70.643139
 30
0.0
 10
2.102874
 20
70.783131
 30
0.0
 10
2.295894
 20
70.942539
 30
0.0
 10
2.472108
 20
71.118753
 30
0.0
  0
SPLINE
  5
36d
100
AcDbEntity
  8
0
 62
7
100
AcDbSpline
 70
8
 71
3
 72
8
 73
4
 74
0
 40
0
 40
0
 40
0
 40
0
 40
1
 40
1
 40
1
 40
1
 10
2.472108
 20
71.118753
 30
0.0
 10
2.648322
 20
71.294967
 30
0.0
 10
2.807730
 20
71.487987
 30
0.0
 10
2.947722
 20
71.695202
 30
0.0
  0
SPLINE
  5
36e
100
AcDbEntity
  8
0
 62
7
100
AcDbSpline
 70
8
 71
3
 72
8
 73
4
 74
0
 40
0
 40
0
 40
0
 40
0
 40
1
 40
1
 40
1
 40
1
 10
2.947722
 20
71.695202
 30
0.0
 10
3.087714
 20
71.902418
 30
0.0
 10
3.208290
 20
72.123829
 30
0.0
 10
3.306839
 20
72.356824
 30
0.0
  0
SPLINE
  5
36f
100
AcDbEntity
  8
0
 62
7
100
AcDbSpline
 70
8
 71
3
 72
8
 73
4
 74
0
 40
0
 40
0
 40
0
 40
0
 40
1
 40
1
 40
1
 40
1
 10
3.306839
 20
72.356824
 30
0.0
 10
3.405388
 20
72.589820
 30
0.0
 10
3.481910
 20
72.834401
 30
0.0
 10
3.533794
 20
73.087956
 30
0.0
  0
SPLINE
  5
370
100
AcDbEntity
  8
0
 62
7
100
AcDbSpline
 70
8
 71
3
 72
8
 73
4
 74
0
 40
0
 40
0
 40
0
 40
0
 40
1
 40
1
 40
1
 40
1
 10
3.533794
 20
73.087956
 30
0.0
 10
3.585679
 20
73.341511
 30
0.0
 10
3.612927
 20
73.604040
 30
0.0
 10
3.612927
 20
73.872934
 30
0.0
  0
LWPOLYLINE
  5
371
100
AcDbEntity
  8
0
 62
7
100
AcDbPolyline
 90
2
 70
1
 10
24.517934
 20
82.532072
 30
0.0
 10
24.517934
 20
82.532072
 30
0.0
  0
SPLINE
  5
372
100
AcDbEntity
  8
0
 62
7
100
AcDbSpline
 70
8
 71
3
 72
8
 73
4
 74
0
 40
0
 40
0
 40
0
 40
0
 40
1
 40
1
 40
1
 40
1
 10
12.272065
 20
52.967928
 30
0.0
 10
12.272065
 20
53.236821
 30
0.0
 10
12.244815
 20
53.499351
 30
0.0
 10
12.192935
 20
53.752906
 30
0.0
  0
SPLINE
  5
373
100
AcDbEntity
  8
0
 62
7
100
AcDbSpline
 70
8
 71
3
 72
8
 73
4
 74
0
 40
0
 40
0
 40
0
 40
0
 40
1
 40
1
 40
1
 40
1
 10
12.192935
 20
53.752906
 30
0.0
 10
12.141055
 20
54.006461
 30
0.0
 10
12.064528
 20
54.251042
 30
0.0
 10
11.965980
 20
54.484037
 30
0.0
  0
SPLINE
  5
374
100
AcDbEntity
  8
0
 62
7
100
AcDbSpline
 70
8
 71
3
 72
8
 73
4
 74
0
 40
0
 40
0
 40
0
 40
0
 40
1
 40
1
 40
1
 40
1
 10
11.965980
 20
54.484037
 30
0.0
 10
11.867430
 20
54.717033
 30
0.0
 10
11.746855
 20
54.938444
 30
0.0
 10
11.606863
 20
55.145659
 30
0.0
  0
SPLINE
  5
375
100
AcDbEntity
  8
0
 62
7
100
AcDbSpline
 70
8
 71
3
 72
8
 73
4
 74
0
 40
0
 40
0
 40
0
 40
0
 40
1
 40
1
 40
1
 40
1
 10
11.606863
 20
55.145659
 30
0.0
 10
11.466871
 20
55.352874
 30
0.0
 10
11.307463
 20
55.545894
 30
0.0
 10
11.131249
 20
55.722108
 30
0.0
  0
SPLINE
  5
376
100
AcDbEntity
  8
0
 62
7
100
AcDbSpline
 70
8
 71
3
 72
8
 73
4
 74
0
 40
0
 40
0
 40
0
 40
0
 40
1
 40
1
 40
1
 40
1
 10
11.131249
 20
55.722108
 30
0.0
 10
10.955032
 20
55.898323
 30
0.0
 10
10.762012
 20
56.057731
 30
0.0
 10
10.554796
 20
56.197723
 30
0.0
  0
SPLINE
  5
377
100
AcDbEntity
  8
0
 62
7
100
AcDbSpline
 70
8
 71
3
 72
8
 73
4
 74
0
 40
0
 40
0
 40
0
 40
0
 40
1
 40
1
 40
1
 40
1
 10
10.554796
 20
56.197723
 30
0.0
 10
10.347581
 20
56.337715
 30
0.0
 10
10.126170
 20
56.458290
 30
0.0
 10
9.893175
 20
56.556839
 30
0.0
  0
SPLINE
  5
378
100
AcDbEntity
  8
0
 62
7
100
AcDbSpline
 70
8
 71
3
 72
8
 73
4
 74
0
 40
0
 40
0
 40
0
 40
0
 40
1
 40
1
 40
1
 40
1
 10
9.893175
 20
56.556839
 30
0.0
 10
9.660179
 20
56.655388
 30
0.0
 10
9.415598
 20
56.731910
 30
0.0
 10
9.162043
 20
56.783795
 30
0.0
  0
SPLINE
  5
379
100
AcDbEntity
  8
0
 62
7
100
AcDbSpline
 70
8
 71
3
 72
8
 73
4
 74
0
 40
0
 40
0
 40
0
 40
0
 40
1
 40
1
 40
1
 40
1
 10
9.162043
 20
56.783795
 30
0.0
 10
8.908488
 20
56.835680
 30
0.0
 10
8.645958
 20
56.862927
 30
0.0
 10
8.377065
 20
56.862927
 30
0.0
  0
SPLINE
  5
37a
100
AcDbEntity
  8
0
 62
7
100
AcDbSpline
 70
8
 71
3
 72
8
 73
4
 74
0
 40
0
 40
0
 40
0
 40
0
 40
1
 40
1
 40
1
 40
1
 10
8.377065
 20
56.862927
 30
0.0
 10
8.108171
 20
56.862927
 30
0.0
 10
7.845642
 20
56.835679
 30
0.0
 10
7.592086
 20
56.783794
 30
0.0
  0
SPLINE
  5
37b
100
AcDbEntity
  8
0
 62
7
100
AcDbSpline
 70
8
 71
3
 72
8
 73
4
 74
0
 40
0
 40
0
 40
0
 40
0
 40
1
 40
1
 40
1
 40
1
 10
7.592086
 20
56.783794
 30
0.0
 10
7.338531
 20
56.731910
 30
0.0
 10
7.093951
 20
56.655388
 30
0.0
 10
6.860955
 20
56.556839
 30
0.0
  0
SPLINE
  5
37c
100
AcDbEntity
  8
0
 62
7
100
AcDbSpline
 70
8
 71
3
 72
8
 73
4
 74
0
 40
0
 40
0
 40
0
 40
0
 40
1
 40
1
 40
1
 40
1
 10
6.860955
 20
56.556839
 30
0.0
 10
6.627959
 20
56.458290
 30
0.0
 10
6.406549
 20
56.337714
 30
0.0
 10
6.199333
 20
56.197722
 30
0.0
  0
SPLINE
  5
37d
100
AcDbEntity
  8
0
 62
7
100
AcDbSpline
 70
8
 71
3
 72
8
 73
4
 74
0
 40
0
 40
0
 40
0
 40
0
 40
1
 40
1
 40
1
 40
1
 10
6.199333
 20
56.197722
 30
0.0
 10
5.992118
 20
56.057731
 30
0.0
 10
5.799098
 20
55.898322
 30
0.0
 10
5.622884
 20
55.722108
 30
0.0
  0
SPLINE
  5
37e
100
AcDbEntity
  8
0
 62
7
100
AcDbSpline
 70
8
 71
3
 72
8
 73
4
 74
0
 40
0
 40
0
 40
0
 40
0
 40
1
 40
1
 40
1
 40
1
 10
5.622884
 20
55.722108
 30
0.0
 10
5.446670
 20
55.545894
 30
0.0
 10
5.287261
 20
55.352874
 30
0.0
 10
5.147270
 20
55.145659
 30
0.0
  0
SPLINE
  5
37f
100
AcDbEntity
  8
0
 62
7
100
AcDbSpline
 70
8
 71
3
 72
8
 73
4
 74
0
 40
0
 40
0
 40
0
 40
0
 40
1
 40
1
 40
1
 40
1
 10
5.147270
 20
55.145659
 30
0.0
 10
5.007278
 20
54.938444
 30
0.0
 10
4.886702
 20
54.717033
 30
0.0
 10
4.788153
 20
54.484037
 30
0.0
  0
SPLINE
  5
380
100
AcDbEntity
  8
0
 62
7
100
AcDbSpline
 70
8
 71
3
 72
8
 73
4
 74
0
 40
0
 40
0
 40
0
 40
0
 40
1
 40
1
 40
1
 40
1
 10
4.788153
 20
54.484037
 30
0.0
 10
4.689604
 20
54.251042
 30
0.0
 10
4.613082
 20
54.006461
 30
0.0
 10
4.561197
 20
53.752906
 30
0.0
  0
SPLINE
  5
381
100
AcDbEntity
  8
0
 62
7
100
AcDbSpline
 70
8
 71
3
 72
8
 73
4
 74
0
 40
0
 40
0
 40
0
 40
0
 40
1
 40
1
 40
1
 40
1
 10
4.561197
 20
53.752906
 30
0.0
 10
4.509312
 20
53.499351
 30
0.0
 10
4.482064
 20
53.236821
 30
0.0
 10
4.482064
 20
52.967928
 30
0.0
  0
SPLINE
  5
382
100
AcDbEntity
  8
0
 62
7
100
AcDbSpline
 70
8
 71
3
 72
8
 73
4
 74
0
 40
0
 40
0
 40
0
 40
0
 40
1
 40
1
 40
1
 40
1
 10
4.482064
 20
52.967928
 30
0.0
 10
4.482064
 20
52.699034
 30
0.0
 10
4.509312
 20
52.436504
 30
0.0
 10
4.561197
 20
52.182949
 30
0.0
  0
SPLINE
  5
383
100
AcDbEntity
  8
0
 62
7
100
AcDbSpline
 70
8
 71
3
 72
8
 73
4
 74
0
 40
0
 40
0
 40
0
 40
0
 40
1
 40
1
 40
1
 40
1
 10
4.561197
 20
52.182949
 30
0.0
 10
4.613082
 20
51.929394
 30
0.0
 10
4.689604
 20
51.684813
 30
0.0
 10
4.788153
 20
51.451818
 30
0.0
  0
SPLINE
  5
384
100
AcDbEntity
  8
0
 62
7
100
AcDbSpline
 70
8
 71
3
 72
8
 73
4
 74
0
 40
0
 40
0
 40
0
 40
0
 40
1
 40
1
 40
1
 40
1
 10
4.788153
 20
51.451818
 30
0.0
 10
4.886702
 20
51.218822
 30
0.0
 10
5.007278
 20
50.997411
 30
0.0
 10
5.147270
 20
50.790196
 30
0.0
  0
SPLINE
  5
385
100
AcDbEntity
  8
0
 62
7
100
AcDbSpline
 70
8
 71
3
 72
8
 73
4
 74
0
 40
0
 40
0
 40
0
 40
0
 40
1
 40
1
 40
1
 40
1
 10
5.147270
 20
50.790196
 30
0.0
 10
5.287261
 20
50.582981
 30
0.0
 10
5.446670
 20
50.389961
 30
0.0
 10
5.622884
 20
50.213747
 30
0.0
  0
SPLINE
  5
386
100
AcDbEntity
  8
0
 62
7
100
AcDbSpline
 70
8
 71
3
 72
8
 73
4
 74
0
 40
0
 40
0
 40
0
 40
0
 40
1
 40
1
 40
1
 40
1
 10
5.622884
 20
50.213747
 30
0.0
 10
5.799098
 20
50.037532
 30
0.0
 10
5.992118
 20
49.878124
 30
0.0
 10
6.199333
 20
49.738132
 30
0.0
  0
SPLINE
  5
387
100
AcDbEntity
  8
0
 62
7
100
AcDbSpline
 70
8
 71
3
 72
8
 73
4
 74
0
 40
0
 40
0
 40
0
 40
0
 40
1
 40
1
 40
1
 40
1
 10
6.199333
 20
49.738132
 30
0.0
 10
6.406549
 20
49.598140
 30
0.0
 10
6.627959
 20
49.477565
 30
0.0
 10
6.860955
 20
49.379016
 30
0.0
  0
SPLINE
  5
388
100
AcDbEntity
  8
0
 62
7
100
AcDbSpline
 70
8
 71
3
 72
8
 73
4
 74
0
 40
0
 40
0
 40
0
 40
0
 40
1
 40
1
 40
1
 40
1
 10
6.860955
 20
49.379016
 30
0.0
 10
7.093951
 20
49.280467
 30
0.0
 10
7.338531
 20
49.203945
 30
0.0
 10
7.592086
 20
49.152060
 30
0.0
  0
SPLINE
  5
389
100
AcDbEntity
  8
0
 62
7
100
AcDbSpline
 70
8
 71
3
 72
8
 73
4
 74
0
 40
0
 40
0
 40
0
 40
0
 40
1
 40
1
 40
1
 40
1
 10
7.592086
 20
49.152060
 30
0.0
 10
7.845642
 20
49.100175
 30
0.0
 10
8.108171
 20
49.072927
 30
0.0
 10
8.377065
 20
49.072927
 30
0.0
  0
SPLINE
  5
38a
100
AcDbEntity
  8
0
 62
7
100
AcDbSpline
 70
8
 71
3
 72
8
 73
4
 74
0
 40
0
 40
0
 40
0
 40
0
 40
1
 40
1
 40
1
 40
1
 10
8.377065
 20
49.072927
 30
0.0
 10
8.645958
 20
49.072927
 30
0.0
 10
8.908488
 20
49.100175
 30
0.0
 10
9.162043
 20
49.152060
 30
0.0
  0
SPLINE
  5
38b
100
AcDbEntity
  8
0
 62
7
100
AcDbSpline
 70
8
 71
3
 72
8
 73
4
 74
0
 40
0
 40
0
 40
0
 40
0
 40
1
 40
1
 40
1
 40
1
 10
9.162043
 20
49.152060
 30
0.0
 10
9.415598
 20
49.203945
 30
0.0
 10
9.660179
 20
49.280467
 30
0.0
 10
9.893175
 20
49.379016
 30
0.0
  0
SPLINE
  5
38c
100
AcDbEntity
  8
0
 62
7
100
AcDbSpline
 70
8
 71
3
 72
8
 73
4
 74
0
 40
0
 40
0
 40
0
 40
0
 40
1
 40
1
 40
1
 40
1
 10
9.893175
 20
49.379016
 30
0.0
 10
10.126170
 20
49.477565
 30
0.0
 10
10.347581
 20
49.598140
 30
0.0
 10
10.554796
 20
49.738132
 30
0.0
  0
SPLINE
  5
38d
100
AcDbEntity
  8
0
 62
7
100
AcDbSpline
 70
8
 71
3
 72
8
 73
4
 74
0
 40
0
 40
0
 40
0
 40
0
 40
1
 40
1
 40
1
 40
1
 10
10.554796
 20
49.738132
 30
0.0
 10
10.762012
 20
49.878124
 30
0.0
 10
10.955032
 20
50.037532
 30
0.0
 10
11.131246
 20
50.213746
 30
0.0
  0
SPLINE
  5
38e
100
AcDbEntity
  8
0
 62
7
100
AcDbSpline
 70
8
 71
3
 72
8
 73
4
 74
0
 40
0
 40
0
 40
0
 40
0
 40
1
 40
1
 40
1
 40
1
 10
11.131246
 20
50.213746
 30
0.0
 10
11.307460
 20
50.389961
 30
0.0
 10
11.466868
 20
50.582981
 30
0.0
 10
11.606860
 20
50.790196
 30
0.0
  0
SPLINE
  5
38f
100
AcDbEntity
  8
0
 62
7
100
AcDbSpline
 70
8
 71
3
 72
8
 73
4
 74
0
 40
0
 40
0
 40
0
 40
0
 40
1
 40
1
 40
1
 40
1
 10
11.606860
 20
50.790196
 30
0.0
 10
11.746852
 20
50.997411
 30
0.0
 10
11.867428
 20
51.218822
 30
0.0
 10
11.965977
 20
51.451818
 30
0.0
  0
SPLINE
  5
390
100
AcDbEntity
  8
0
 62
7
100
AcDbSpline
 70
8
 71
3
 72
8
 73
4
 74
0
 40
0
 40
0
 40
0
 40
0
 40
1
 40
1
 40
1
 40
1
 10
11.965977
 20
51.451818
 30
0.0
 10
12.064527
 20
51.684813
 30
0.0
 10
12.141048
 20
51.929394
 30
0.0
 10
12.192932
 20
52.182949
 30
0.0
  0
SPLINE
  5
391
100
AcDbEntity
  8
0
 62
7
100
AcDbSpline
 70
8
 71
3
 72
8
 73
4
 74
0
 40
0
 40
0
 40
0
 40
0
 40
1
 40
1
 40
1
 40
1
 10
12.192932
 20
52.182949
 30
0.0
 10
12.244812
 20
52.436504
 30
0.0
 10
12.272062
 20
52.699034
 30
0.0
 10
12.272062
 20
52.967928
 30
0.0
  0
LWPOLYLINE
  5
392
100
AcDbEntity
  8
0
 62
7
100
AcDbPolyline
 90
2
 70
1
 10
3.612927
 20
73.872934
 30
0.0
 10
3.612928
 20
73.872934
 30
0.0
  0
SPLINE
  5
393
100
AcDbEntity
  8
0
 62
7
100
AcDbSpline
 70
8
 71
3
 72
8
 73
4
 74
0
 40
0
 40
0
 40
0
 40
0
 40
1
 40
1
 40
1
 40
1
 10
33.177072
 20
61.627065
 30
0.0
 10
33.177072
 20
61.895959
 30
0.0
 10
33.149822
 20
62.158488
 30
0.0
 10
33.097942
 20
62.412043
 30
0.0
  0
SPLINE
  5
394
100
AcDbEntity
  8
0
 62
7
100
AcDbSpline
 70
8
 71
3
 72
8
 73
4
 74
0
 40
0
 40
0
 40
0
 40
0
 40
1
 40
1
 40
1
 40
1
 10
33.097942
 20
62.412043
 30
0.0
 10
33.046062
 20
62.665599
 30
0.0
 10
32.969535
 20
62.910179
 30
0.0
 10
32.870987
 20
63.143175
 30
0.0
  0
SPLINE
  5
395
100
AcDbEntity
  8
0
 62
7
100
AcDbSpline
 70
8
 71
3
 72
8
 73
4
 74
0
 40
0
 40
0
 40
0
 40
0
 40
1
 40
1
 40
1
 40
1
 10
32.870987
 20
63.143175
 30
0.0
 10
32.772437
 20
63.376171
 30
0.0
 10
32.651862
 20
63.597581
 30
0.0
 10
32.511870
 20
63.804797
 30
0.0
  0
SPLINE
  5
396
100
AcDbEntity
  8
0
 62
7
100
AcDbSpline
 70
8
 71
3
 72
8
 73
4
 74
0
 40
0
 40
0
 40
0
 40
0
 40
1
 40
1
 40
1
 40
1
 10
32.511870
 20
63.804797
 30
0.0
 10
32.371878
 20
64.012012
 30
0.0
 10
32.212470
 20
64.205032
 30
0.0
 10
32.036256
 20
64.381246
 30
0.0
  0
SPLINE
  5
397
100
AcDbEntity
  8
0
 62
7
100
AcDbSpline
 70
8
 71
3
 72
8
 73
4
 74
0
 40
0
 40
0
 40
0
 40
0
 40
1
 40
1
 40
1
 40
1
 10
32.036256
 20
64.381246
 30
0.0
 10
31.860042
 20
64.557460
 30
0.0
 10
31.667022
 20
64.716868
 30
0.0
 10
31.459806
 20
64.856860
 30
0.0
  0
SPLINE
  5
398
100
AcDbEntity
  8
0
 62
7
100
AcDbSpline
 70
8
 71
3
 72
8
 73
4
 74
0
 40
0
 40
0
 40
0
 40
0
 40
1
 40
1
 40
1
 40
1
 10
31.459806
 20
64.856860
 30
0.0
 10
31.252591
 20
64.996852
 30
0.0
 10
31.031180
 20
65.117428
 30
0.0
 10
30.798185
 20
65.215977
 30
0.0
  0
SPLINE
  5
399
100
AcDbEntity
  8
0
 62
7
100
AcDbSpline
 70
8
 71
3
 72
8
 73
4
 74
0
 40
0
 40
0
 40
0
 40
0
 40
1
 40
1
 40
1
 40
1
 10
30.798185
 20
65.215977
 30
0.0
 10
30.565189
 20
65.314527
 30
0.0
 10
30.320608
 20
65.391048
 30
0.0
 10
30.067053
 20
65.442932
 30
0.0
  0
SPLINE
  5
39a
100
AcDbEntity
  8
0
 62
7
100
AcDbSpline
 70
8
 71
3
 72
8
 73
4
 74
0
 40
0
 40
0
 40
0
 40
0
 40
1
 40
1
 40
1
 40
1
 10
30.067053
 20
65.442932
 30
0.0
 10
29.813498
 20
65.494812
 30
0.0
 10
29.550969
 20
65.522062
 30
0.0
 10
29.282075
 20
65.522062
 30
0.0
  0
SPLINE
  5
39b
100
AcDbEntity
  8
0
 62
7
100
AcDbSpline
 70
8
 71
3
 72
8
 73
4
 74
0
 40
0
 40
0
 40
0
 40
0
 40
1
 40
1
 40
1
 40
1
 10
29.282075
 20
65.522062
 30
0.0
 10
29.013181
 20
65.522062
 30
0.0
 10
28.750652
 20
65.494812
 30
0.0
 10
28.497097
 20
65.442932
 30
0.0
  0
SPLINE
  5
39c
100
AcDbEntity
  8
0
 62
7
100
AcDbSpline
 70
8
 71
3
 72
8
 73
4
 74
0
 40
0
 40
0
 40
0
 40
0
 40
1
 40
1
 40
1
 40
1
 10
28.497097
 20
65.442932
 30
0.0
 10
28.243542
 20
65.391052
 30
0.0
 10
27.998961
 20
65.314525
 30
0.0
 10
27.765965
 20
65.215977
 30
0.0
  0
SPLINE
  5
39d
100
AcDbEntity
  8
0
 62
7
100
AcDbSpline
 70
8
 71
3
 72
8
 73
4
 74
0
 40
0
 40
0
 40
0
 40
0
 40
1
 40
1
 40
1
 40
1
 10
27.765965
 20
65.215977
 30
0.0
 10
27.532967
 20
65.117428
 30
0.0
 10
27.311556
 20
64.996852
 30
0.0
 10
27.104341
 20
64.856860
 30
0.0
  0
SPLINE
  5
39e
100
AcDbEntity
  8
0
 62
7
100
AcDbSpline
 70
8
 71
3
 72
8
 73
4
 74
0
 40
0
 40
0
 40
0
 40
0
 40
1
 40
1
 40
1
 40
1
 10
27.104341
 20
64.856860
 30
0.0
 10
26.897125
 20
64.716868
 30
0.0
 10
26.704105
 20
64.557460
 30
0.0
 10
26.527891
 20
64.381246
 30
0.0
  0
SPLINE
  5
39f
100
AcDbEntity
  8
0
 62
7
100
AcDbSpline
 70
8
 71
3
 72
8
 73
4
 74
0
 40
0
 40
0
 40
0
 40
0
 40
1
 40
1
 40
1
 40
1
 10
26.527891
 20
64.381246
 30
0.0
 10
26.351677
 20
64.205032
 30
0.0
 10
26.192269
 20
64.012012
 30
0.0
 10
26.052277
 20
63.804797
 30
0.0
  0
SPLINE
  5
3a0
100
AcDbEntity
  8
0
 62
7
100
AcDbSpline
 70
8
 71
3
 72
8
 73
4
 74
0
 40
0
 40
0
 40
0
 40
0
 40
1
 40
1
 40
1
 40
1
 10
26.052277
 20
63.804797
 30
0.0
 10
25.912285
 20
63.597581
 30
0.0
 10
25.791709
 20
63.376171
 30
0.0
 10
25.693160
 20
63.143175
 30
0.0
  0
SPLINE
  5
3a1
100
AcDbEntity
  8
0
 62
7
100
AcDbSpline
 70
8
 71
3
 72
8
 73
4
 74
0
 40
0
 40
0
 40
0
 40
0
 40
1
 40
1
 40
1
 40
1
 10
25.693160
 20
63.143175
 30
0.0
 10
25.594612
 20
62.910179
 30
0.0
 10
25.518089
 20
62.665599
 30
0.0
 10
25.466205
 20
62.412044
 30
0.0
  0
SPLINE
  5
3a2
100
AcDbEntity
  8
0
 62
7
100
AcDbSpline
 70
8
 71
3
 72
8
 73
4
 74
0
 40
0
 40
0
 40
0
 40
0
 40
1
 40
1
 40
1
 40
1
 10
25.466205
 20
62.412044
 30
0.0
 10
25.414320
 20
62.158488
 30
0.0
 10
25.387072
 20
61.895959
 30
0.0
 10
25.387072
 20
61.627065
 30
0.0
  0
SPLINE
  5
3a3
100
AcDbEntity
  8
0
 62
7
100
AcDbSpline
 70
8
 71
3
 72
8
 73
4
 74
0
 40
0
 40
0
 40
0
 40
0
 40
1
 40
1
 40
1
 40
1
 10
25.387072
 20
61.627065
 30
0.0
 10
25.387072
 20
61.358172
 30
0.0
 10
25.414322
 20
61.095642
 30
0.0
 10
25.466202
 20
60.842087
 30
0.0
  0
SPLINE
  5
3a4
100
AcDbEntity
  8
0
 62
7
100
AcDbSpline
 70
8
 71
3
 72
8
 73
4
 74
0
 40
0
 40
0
 40
0
 40
0
 40
1
 40
1
 40
1
 40
1
 10
25.466202
 20
60.842087
 30
0.0
 10
25.518082
 20
60.588532
 30
0.0
 10
25.594609
 20
60.343951
 30
0.0
 10
25.693157
 20
60.110955
 30
0.0
  0
SPLINE
  5
3a5
100
AcDbEntity
  8
0
 62
7
100
AcDbSpline
 70
8
 71
3
 72
8
 73
4
 74
0
 40
0
 40
0
 40
0
 40
0
 40
1
 40
1
 40
1
 40
1
 10
25.693157
 20
60.110955
 30
0.0
 10
25.791707
 20
59.877960
 30
0.0
 10
25.912282
 20
59.656549
 30
0.0
 10
26.052274
 20
59.449334
 30
0.0
  0
SPLINE
  5
3a6
100
AcDbEntity
  8
0
 62
7
100
AcDbSpline
 70
8
 71
3
 72
8
 73
4
 74
0
 40
0
 40
0
 40
0
 40
0
 40
1
 40
1
 40
1
 40
1
 10
26.052274
 20
59.449334
 30
0.0
 10
26.192266
 20
59.242118
 30
0.0
 10
26.351674
 20
59.049098
 30
0.0
 10
26.527888
 20
58.872884
 30
0.0
  0
SPLINE
  5
3a7
100
AcDbEntity
  8
0
 62
7
100
AcDbSpline
 70
8
 71
3
 72
8
 73
4
 74
0
 40
0
 40
0
 40
0
 40
0
 40
1
 40
1
 40
1
 40
1
 10
26.527888
 20
58.872884
 30
0.0
 10
26.704102
 20
58.696670
 30
0.0
 10
26.897122
 20
58.537262
 30
0.0
 10
27.104337
 20
58.397270
 30
0.0
  0
SPLINE
  5
3a8
100
AcDbEntity
  8
0
 62
7
100
AcDbSpline
 70
8
 71
3
 72
8
 73
4
 74
0
 40
0
 40
0
 40
0
 40
0
 40
1
 40
1
 40
1
 40
1
 10
27.104337
 20
58.397270
 30
0.0
 10
27.311553
 20
58.257278
 30
0.0
 10
27.532964
 20
58.136702
 30
0.0
 10
27.765959
 20
58.038154
 30
0.0
  0
SPLINE
  5
3a9
100
AcDbEntity
  8
0
 62
7
100
AcDbSpline
 70
8
 71
3
 72
8
 73
4
 74
0
 40
0
 40
0
 40
0
 40
0
 40
1
 40
1
 40
1
 40
1
 10
27.765959
 20
58.038154
 30
0.0
 10
27.998955
 20
57.939605
 30
0.0
 10
28.243536
 20
57.863083
 30
0.0
 10
28.497091
 20
57.811198
 30
0.0
  0
SPLINE
  5
3aa
100
AcDbEntity
  8
0
 62
7
100
AcDbSpline
 70
8
 71
3
 72
8
 73
4
 74
0
 40
0
 40
0
 40
0
 40
0
 40
1
 40
1
 40
1
 40
1
 10
28.497091
 20
57.811198
 30
0.0
 10
28.750646
 20
57.759313
 30
0.0
 10
29.013175
 20
57.732065
 30
0.0
 10
29.282069
 20
57.732065
 30
0.0
  0
SPLINE
  5
3ab
100
AcDbEntity
  8
0
 62
7
100
AcDbSpline
 70
8
 71
3
 72
8
 73
4
 74
0
 40
0
 40
0
 40
0
 40
0
 40
1
 40
1
 40
1
 40
1
 10
29.282069
 20
57.732065
 30
0.0
 10
29.550963
 20
57.732065
 30
0.0
 10
29.813492
 20
57.759313
 30
0.0
 10
30.067047
 20
57.811198
 30
0.0
  0
SPLINE
  5
3ac
100
AcDbEntity
  8
0
 62
7
100
AcDbSpline
 70
8
 71
3
 72
8
 73
4
 74
0
 40
0
 40
0
 40
0
 40
0
 40
1
 40
1
 40
1
 40
1
 10
30.067047
 20
57.811198
 30
0.0
 10
30.320602
 20
57.863083
 30
0.0
 10
30.565183
 20
57.939605
 30
0.0
 10
30.798179
 20
58.038154
 30
0.0
  0
SPLINE
  5
3ad
100
AcDbEntity
  8
0
 62
7
100
AcDbSpline
 70
8
 71
3
 72
8
 73
4
 74
0
 40
0
 40
0
 40
0
 40
0
 40
1
 40
1
 40
1
 40
1
 10
30.798179
 20
58.038154
 30
0.0
 10
31.031174
 20
58.136703
 30
0.0
 10
31.252585
 20
58.257278
 30
0.0
 10
31.459801
 20
58.397270
 30
0.0
  0
SPLINE
  5
3ae
100
AcDbEntity
  8
0
 62
7
100
AcDbSpline
 70
8
 71
3
 72
8
 73
4
 74
0
 40
0
 40
0
 40
0
 40
0
 40
1
 40
1
 40
1
 40
1
 10
31.459801
 20
58.397270
 30
0.0
 10
31.667016
 20
58.537262
 30
0.0
 10
31.860036
 20
58.696670
 30
0.0
 10
32.036250
 20
58.872884
 30
0.0
  0
SPLINE
  5
3af
100
AcDbEntity
  8
0
 62
7
100
AcDbSpline
 70
8
 71
3
 72
8
 73
4
 74
0
 40
0
 40
0
 40
0
 40
0
 40
1
 40
1
 40
1
 40
1
 10
32.036250
 20
58.872884
 30
0.0
 10
32.212464
 20
59.049098
 30
0.0
 10
32.371872
 20
59.242118
 30
0.0
 10
32.511864
 20
59.449334
 30
0.0
  0
SPLINE
  5
3b0
100
AcDbEntity
  8
0
 62
7
100
AcDbSpline
 70
8
 71
3
 72
8
 73
4
 74
0
 40
0
 40
0
 40
0
 40
0
 40
1
 40
1
 40
1
 40
1
 10
32.511864
 20
59.449334
 30
0.0
 10
32.651856
 20
59.656549
 30
0.0
 10
32.772432
 20
59.877960
 30
0.0
 10
32.870981
 20
60.110955
 30
0.0
  0
SPLINE
  5
3b1
100
AcDbEntity
  8
0
 62
7
100
AcDbSpline
 70
8
 71
3
 72
8
 73
4
 74
0
 40
0
 40
0
 40
0
 40
0
 40
1
 40
1
 40
1
 40
1
 10
32.870981
 20
60.110955
 30
0.0
 10
32.969531
 20
60.343951
 30
0.0
 10
33.046052
 20
60.588532
 30
0.0
 10
33.097936
 20
60.842087
 30
0.0
  0
SPLINE
  5
3b2
100
AcDbEntity
  8
0
 62
7
100
AcDbSpline
 70
8
 71
3
 72
8
 73
4
 74
0
 40
0
 40
0
 40
0
 40
0
 40
1
 40
1
 40
1
 40
1
 10
33.097936
 20
60.842087
 30
0.0
 10
33.149826
 20
61.095642
 30
0.0
 10
33.177066
 20
61.358172
 30
0.0
 10
33.177066
 20
61.627065
 30
0.0
  0
LWPOLYLINE
  5
3b3
100
AcDbEntity
  8
0
 62
7
100
AcDbPolyline
 90
2
 70
1
 10
12.272062
 20
52.967928
 30
0.0
 10
12.272065
 20
52.967928
 30
0.0
  0
LWPOLYLINE
  5
3b4
100
AcDbEntity
  8
0
 62
7
100
AcDbPolyline
 90
2
 70
1
 10
33.177066
 20
61.627065
 30
0.0
 10
33.177072
 20
61.627065
 30
0.0
  0
ENDSEC
  0
SECTION
  2
OBJECTS
  0
DICTIONARY
  5
C
330
0
100
AcDbDictionary
  3
ACAD_GROUP
350
D
  3
ACAD_MLINESTYLE
350
17
  0
DICTIONARY
  5
D
330
C
100
AcDbDictionary
  0
DICTIONARY
  5
1A
330
C
100
AcDbDictionary
  0
DICTIONARY
  5
17
330
C
100
AcDbDictionary
  3
STANDARD
350
18
  0
DICTIONARY
  5
19
330
C
100
AcDbDictionary
  0
ENDSEC
  0
EOF
