<?xml version="1.0" encoding="UTF-8"?>
<!-- 2015-07-07 22:05:23 Generated by QCAD SVG Exporter -->
<svg width="55mm" height="54.999999999999986mm" viewBox="-13 -40.25 55 54.999999999999986" version="1.1" xmlns="http://www.w3.org/2000/svg" style="stroke-linecap:round;stroke-linejoin:round;fill:none">
    <g transform="scale(1,-1)">
        <!-- Polyline -->
        <path d="M38.85,20.30000000000001 L42,20.30000000000001 M42,20.30000000000001 L42,40.25 M42,40.25 L36.32842712474619,40.25 M36.32842712474619,40.25 L36.32842712474619,39.75000000000001 M36.32842712474619,39.75 A2.000000000000001,2.000000000000001 0 0,0 34.32842712474619,37.75 M34.32842712474619,37.75 L25.50000000000001,37.75 M25.50000000000001,37.75 A2.0000000000000107,2.0000000000000107 0 0,0 23.9,38.55 M23.9,38.55 A2.9999999999999916,2.9999999999999916 0 1,1 23.9,34.95 M23.9,34.95 A2.0000000000000107,2.0000000000000107 0 0,0 25.50000000000001,35.75 M25.50000000000001,35.75 L34.32842712474619,35.75 M34.32842712474619,35.75 A2,2 0 0,0 36.32842712474619,33.75 M36.32842712474619,33.75 L36.32842712474619,33.25 M36.32842712474619,33.25 L20.02842712474619,33.25000000000001 M20.02842712474619,33.25000000000001 A2,2 0 0,0 18.02842712474619,35.25000000000001 M18.02842712474619,35.25000000000001 L18.02842712474619,40.25 M18.02842712474619,40.25 L10.97157287525381,40.25 M10.97157287525381,40.25 L10.97157287525381,35.25 M10.97157287525381,35.25 A1.9999999999999982,1.9999999999999982 0 0,0 8.971572875253814,33.25 M8.971572875253814,33.25 L-7.328427124746191,33.25 M-7.328427124746191,33.25 L-7.328427124746189,33.75 M-7.328427124746189,33.75 A1.9999999999999991,1.9999999999999991 0 0,0 -5.328427124746191,35.75 M-5.328427124746191,35.75 L3.5,35.75 M3.5,35.75 A2.0000000000000027,2.0000000000000027 0 0,0 5.100000000000003,34.95 M5.100000000000001,34.95 A2.999999999999994,2.999999999999994 0 1,1 5.1,38.55 M5.099999999999996,38.55 A1.9999999999999964,1.9999999999999964 0 0,0 3.5000000000000004,37.75 M3.500000000000001,37.75 L-5.328427124746188,37.75 M-5.328427124746187,37.75 A2.0000000000000004,2.0000000000000004 0 0,0 -7.328427124746188,39.75 M-7.328427124746187,39.75000000000001 L-7.328427124746186,40.25 M-7.328427124746186,40.25 L-13,40.25 M-13,40.25 L-12.99999999999999,20.3 M-12.99999999999999,20.3 L-9.84999999999999,20.30000000000001 M-9.84999999999999,20.30000000000001 L-9.84999999999999,5.200000000000009 M-9.84999999999999,5.200000000000009 L-12.99999999999999,5.200000000000013 M-12.99999999999999,5.200000000000013 L-12.99999999999998,-7.749999999999994 M-12.99999999999998,-7.749999999999994 L5.328427124746195,-7.74999999999999 M5.328427124746195,-7.74999999999999 L5.328427124746195,-8.249999999999991 M5.328427124746195,-8.24999999999999 A1.9999999999999984,1.9999999999999984 0 0,0 3.328427124746196,-10.249999999999988 M3.328427124746196,-10.24999999999999 L-5.499999999999996,-10.24999999999999 M-5.4999999999999964,-10.24999999999999 A1.9999999999999984,1.9999999999999984 0 0,0 -7.099999999999995,-9.44999999999999 M-7.099999999999994,-9.449999999999989 A2.999999999999996,2.999999999999996 0 1,1 -7.1,-13.04999999999999 M-7.099999999999999,-13.04999999999999 A2.0000000000000013,2.0000000000000013 0 0,0 -5.499999999999996,-12.24999999999999 M-5.499999999999996,-12.24999999999999 L3.328427124746196,-12.24999999999999 M3.328427124746196,-12.24999999999999 A1.9999999999999993,1.9999999999999993 0 0,0 5.328427124746194,-14.24999999999999 M5.328427124746195,-14.24999999999999 L5.328427124746195,-14.74999999999999 M5.328427124746195,-14.74999999999999 L42,-14.74999999999999 M42,-14.74999999999999 L42,5.200000000000004 M42,5.200000000000004 L38.85,5.200000000000004 M38.85,5.200000000000004 L38.85,20.30000000000001 " style="stroke:#000000;stroke-width:1e-9;"/>
        <!-- Polyline -->
        <path d="M19.50000000000002,9.74999999999998 L17.1457513110646,9.749999999999998 M17.145751311064604,9.749999999999993 A3.999999999999998,3.999999999999998 0 0,0 11.854248688935431,9.749999999999986 M11.85424868893543,9.749999999999982 L9.500000000000012,9.749999999999991 M9.500000000000012,9.749999999999991 L9.50000000000001,15.74999999999999 M9.50000000000001,15.74999999999999 L11.85424868893543,15.75 M11.854248688935433,15.749999999999996 A3.9999999999999907,3.9999999999999907 0 0,0 17.145751311064604,15.749999999999991 M17.1457513110646,15.74999999999999 L19.50000000000002,15.75000000000001 M19.50000000000002,15.75000000000001 L19.50000000000002,9.74999999999998 " style="stroke:#000000;stroke-width:1e-9;"/>
        <!-- Circle -->
        <circle cx="6.500000000000005" cy="20.75" r="1" style="stroke:#000000;stroke-width:1e-9;"/>
        <!-- Circle -->
        <circle cx="6.500000000000005" cy="4.749999999999996" r="1" style="stroke:#000000;stroke-width:1e-9;"/>
        <!-- Circle -->
        <circle cx="22.50000000000001" cy="20.75" r="1" style="stroke:#000000;stroke-width:1e-9;"/>
        <!-- Circle -->
        <circle cx="22.50000000000001" cy="4.749999999999996" r="1" style="stroke:#000000;stroke-width:1e-9;"/>
        <!-- Circle -->
        <circle cx="22.50000000000001" cy="12.74999999999999" r="1.000000000000001" style="stroke:#000000;stroke-width:1e-9;"/>
        <!-- Circle -->
        <circle cx="14.50000000000001" cy="20.75" r="1" style="stroke:#000000;stroke-width:1e-9;"/>
        <!-- Circle -->
        <circle cx="14.50000000000001" cy="4.749999999999996" r="1" style="stroke:#000000;stroke-width:1e-9;"/>
        <!-- Circle -->
        <circle cx="6.500000000000005" cy="12.74999999999999" r="0.9999999999999998" style="stroke:#000000;stroke-width:1e-9;"/>
        <!-- Circle -->
        <circle cx="32.5" cy="12.75" r="3.894999999999999" style="stroke:#000000;stroke-width:1e-9;"/>
        <!-- Circle -->
        <circle cx="14.5" cy="-5.24999999999999" r="3.894999999999999" style="stroke:#000000;stroke-width:1e-9;"/>
        <!-- Circle -->
        <circle cx="-3.499999999999994" cy="12.75000000000001" r="3.894999999999999" style="stroke:#000000;stroke-width:1e-9;"/>
        <!-- Circle -->
        <circle cx="14.5" cy="30.75" r="3.894999999999999" style="stroke:#000000;stroke-width:1e-9;"/>
        <!-- Circle -->
        <circle cx="1.772077938642151" cy="25.47792206135786" r="3.894999999999999" style="stroke:#000000;stroke-width:1e-9;"/>
        <!-- Circle -->
        <circle cx="1.772077938642147" cy="0.0220779386421555" r="3.894999999999999" style="stroke:#000000;stroke-width:1e-9;"/>
        <!-- Circle -->
        <circle cx="27.22792206135785" cy="0.0220779386421499" r="3.894999999999999" style="stroke:#000000;stroke-width:1e-9;"/>
        <!-- Circle -->
        <circle cx="27.22792206135786" cy="25.47792206135786" r="3.894999999999999" style="stroke:#000000;stroke-width:1e-9;"/>
        <!-- Circle -->
        <circle cx="-9.499999999999996" cy="-11.24999999999999" r="1" style="stroke:#000000;stroke-width:1e-9;"/>
        <!-- Circle -->
        <circle cx="7.5" cy="36.75" r="1" style="stroke:#000000;stroke-width:1e-9;"/>
        <!-- Circle -->
        <circle cx="21.5" cy="36.75" r="1" style="stroke:#000000;stroke-width:1e-9;"/>
    </g>
</svg>
