<?xml version="1.0" encoding="UTF-8"?>
<!-- 2015-07-07 22:06:52 Generated by QCAD SVG Exporter -->
<svg width="55mm" height="55.000000000000014mm" viewBox="-27.5 -27.49999999999999 55 55.000000000000014" version="1.1" xmlns="http://www.w3.org/2000/svg" style="stroke-linecap:round;stroke-linejoin:round;fill:none">
    <g transform="scale(1,-1)">
        <!-- Polyline -->
        <path d="M2.999999999999998,-2.645751311064601 L2.999999999999998,-5.00000000000001 M2.999999999999998,-5.00000000000001 L-3.000000000000002,-5.00000000000001 M-3.000000000000002,-5.00000000000001 L-3.000000000000004,-2.645751311064599 M-3.0000000000000044,-2.645751311064598 A4,4 0 0,0 -3.0000000000000027,2.6457513110645787 M-3.000000000000002,2.645751311064579 L-3,4.999999999999989 M-3,4.999999999999989 L2.999999999999998,4.999999999999989 M2.999999999999998,4.999999999999989 L2.999999999999998,2.645751311064579 M2.999999999999998,2.645751311064579 A4.000000000000002,4.000000000000002 0 0,0 2.999999999999997,-2.645751311064602 " style="stroke:#000000;stroke-width:1e-9;"/>
        <!-- Polyline -->
        <path d="M-27.5,-27.50000000000002 L27.5,-27.50000000000002 M27.5,-27.50000000000002 L27.5,27.49999999999999 M27.5,27.49999999999999 L-27.5,27.49999999999999 M-27.5,27.49999999999999 L-27.5,-27.50000000000002 " style="stroke:#000000;stroke-width:1e-9;"/>
        <!-- Circle -->
        <circle cx="8" cy="-1.11e-14" r="1.000000000000001" style="stroke:#000000;stroke-width:1e-9;"/>
        <!-- Circle -->
        <circle cx="8" cy="-8.00000000000001" r="1" style="stroke:#000000;stroke-width:1e-9;"/>
        <!-- Circle -->
        <circle cx="-2.2e-15" cy="-8.00000000000001" r="1" style="stroke:#000000;stroke-width:1e-9;"/>
        <!-- Circle -->
        <circle cx="-8.000000000000004" cy="-8.00000000000001" r="1" style="stroke:#000000;stroke-width:1e-9;"/>
        <!-- Circle -->
        <circle cx="-8.000000000000004" cy="-1.11e-14" r="0.9999999999999998" style="stroke:#000000;stroke-width:1e-9;"/>
        <!-- Circle -->
        <circle cx="-8.000000000000004" cy="7.999999999999989" r="1" style="stroke:#000000;stroke-width:1e-9;"/>
        <!-- Circle -->
        <circle cx="-2.2e-15" cy="7.999999999999989" r="1" style="stroke:#000000;stroke-width:1e-9;"/>
        <!-- Circle -->
        <circle cx="8" cy="7.999999999999989" r="1" style="stroke:#000000;stroke-width:1e-9;"/>
        <!-- Circle -->
        <circle cx="-24.00000000000001" cy="-24" r="1" style="stroke:#000000;stroke-width:1e-9;"/>
        <!-- Circle -->
        <circle cx="-7.000000000000007" cy="23.99999999999999" r="1" style="stroke:#000000;stroke-width:1e-9;"/>
        <!-- Circle -->
        <circle cx="6.999999999999994" cy="23.99999999999999" r="1" style="stroke:#000000;stroke-width:1e-9;"/>
        <!-- Circle -->
        <circle cx="-24.00000000000002" cy="6.999999999999996" r="1" style="stroke:#000000;stroke-width:1e-9;"/>
        <!-- Circle -->
        <circle cx="-24.00000000000002" cy="-7.000000000000008" r="1" style="stroke:#000000;stroke-width:1e-9;"/>
        <!-- Circle -->
        <circle cx="23.99999999999999" cy="23.99999999999999" r="1" style="stroke:#000000;stroke-width:1e-9;"/>
        <!-- Circle -->
        <circle cx="-7.000000000000001" cy="-24.00000000000004" r="1" style="stroke:#000000;stroke-width:1e-9;"/>
        <!-- Circle -->
        <circle cx="7.000000000000005" cy="-24.00000000000004" r="1" style="stroke:#000000;stroke-width:1e-9;"/>
        <!-- Circle -->
        <circle cx="24.00000000000002" cy="-7.000000000000029" r="1" style="stroke:#000000;stroke-width:1e-9;"/>
        <!-- Circle -->
        <circle cx="24.00000000000002" cy="6.999999999999979" r="1" style="stroke:#000000;stroke-width:1e-9;"/>
        <!-- Circle -->
        <circle cx="24" cy="-24.00000000000001" r="1" style="stroke:#000000;stroke-width:1e-9;"/>
        <!-- Circle -->
        <circle cx="-23.99999999999999" cy="23.99999999999999" r="1" style="stroke:#000000;stroke-width:1e-9;"/>
        <!-- Circle -->
        <circle cx="12.72792206135784" cy="-12.72792206135786" r="3.894999999999999" style="stroke:#000000;stroke-width:1e-9;"/>
        <!-- Circle -->
        <circle cx="-1.11e-14" cy="-18" r="3.894999999999999" style="stroke:#000000;stroke-width:1e-9;"/>
        <!-- Circle -->
        <circle cx="-12.72792206135786" cy="-12.72792206135785" r="3.894999999999999" style="stroke:#000000;stroke-width:1e-9;"/>
        <!-- Circle -->
        <circle cx="-18" cy="0" r="3.894999999999999" style="stroke:#000000;stroke-width:1e-9;"/>
        <!-- Circle -->
        <circle cx="-12.72792206135785" cy="12.72792206135785" r="3.894999999999999" style="stroke:#000000;stroke-width:1e-9;"/>
        <!-- Circle -->
        <circle cx="-4.4e-15" cy="17.99999999999999" r="3.894999999999999" style="stroke:#000000;stroke-width:1e-9;"/>
        <!-- Circle -->
        <circle cx="12.72792206135785" cy="12.72792206135785" r="3.894999999999999" style="stroke:#000000;stroke-width:1e-9;"/>
        <!-- Circle -->
        <circle cx="17.99999999999999" cy="-8.9e-15" r="3.894999999999999" style="stroke:#000000;stroke-width:1e-9;"/>
    </g>
</svg>
